<svg width="72" height="18" viewBox="0 0 72 18" fill="none" xmlns="http://www.w3.org/2000/svg">
<path d="M15.56 17.2958H11.456L4.592 6.90378V17.2958H0.488V0.447776H4.592L11.456 10.8878V0.447776H15.56V17.2958ZM22.6389 3.73578V7.14378H28.1349V10.3118H22.6389V14.0078H28.8549V17.2958H18.5349V0.447776H28.8549V3.73578H22.6389ZM44.3593 5.87178C44.3593 6.84778 44.1353 7.74378 43.6873 8.55978C43.2393 9.35978 42.5513 10.0078 41.6233 10.5038C40.6953 10.9998 39.5433 11.2478 38.1673 11.2478H35.6233V17.2958H31.5193V0.447776H38.1673C39.5113 0.447776 40.6473 0.679776 41.5753 1.14378C42.5033 1.60778 43.1993 2.24778 43.6633 3.06378C44.1273 3.87978 44.3593 4.81578 44.3593 5.87178ZM37.8553 7.98378C38.6393 7.98378 39.2233 7.79978 39.6073 7.43178C39.9913 7.06378 40.1833 6.54378 40.1833 5.87178C40.1833 5.19978 39.9913 4.67978 39.6073 4.31178C39.2233 3.94378 38.6393 3.75978 37.8553 3.75978H35.6233V7.98378H37.8553ZM52.5918 17.4638C51.3598 17.4638 50.2558 17.2638 49.2798 16.8638C48.3038 16.4638 47.5198 15.8718 46.9278 15.0878C46.3518 14.3038 46.0478 13.3598 46.0158 12.2558H50.3838C50.4478 12.8798 50.6638 13.3598 51.0318 13.6958C51.3998 14.0158 51.8798 14.1758 52.4718 14.1758C53.0798 14.1758 53.5598 14.0398 53.9118 13.7678C54.2638 13.4798 54.4398 13.0878 54.4398 12.5918C54.4398 12.1758 54.2958 11.8318 54.0078 11.5598C53.7358 11.2878 53.3918 11.0638 52.9758 10.8878C52.5758 10.7118 51.9998 10.5118 51.2478 10.2878C50.1598 9.95178 49.2718 9.61578 48.5838 9.27978C47.8958 8.94378 47.3038 8.44778 46.8078 7.79178C46.3118 7.13578 46.0638 6.27978 46.0638 5.22378C46.0638 3.65578 46.6318 2.43178 47.7678 1.55178C48.9038 0.655776 50.3838 0.207776 52.2078 0.207776C54.0638 0.207776 55.5598 0.655776 56.6958 1.55178C57.8318 2.43178 58.4398 3.66378 58.5198 5.24778H54.0798C54.0478 4.70378 53.8478 4.27978 53.4798 3.97578C53.1118 3.65578 52.6398 3.49578 52.0638 3.49578C51.5678 3.49578 51.1678 3.63178 50.8638 3.90378C50.5598 4.15978 50.4078 4.53578 50.4078 5.03178C50.4078 5.57578 50.6638 5.99978 51.1758 6.30378C51.6878 6.60778 52.4878 6.93578 53.5758 7.28778C54.6638 7.65578 55.5438 8.00778 56.2158 8.34378C56.9038 8.67978 57.4958 9.16778 57.9918 9.80778C58.4878 10.4478 58.7358 11.2718 58.7358 12.2798C58.7358 13.2398 58.4878 14.1118 57.9918 14.8958C57.5118 15.6798 56.8078 16.3038 55.8798 16.7678C54.9518 17.2318 53.8558 17.4638 52.5918 17.4638ZM65.3654 3.73578V7.14378H70.8614V10.3118H65.3654V14.0078H71.5814V17.2958H61.2614V0.447776H71.5814V3.73578H65.3654Z" fill="#0B1861"/>
</svg>
