<svg width="25" height="25" viewBox="0 0 25 25" fill="none" xmlns="http://www.w3.org/2000/svg">
<path d="M7.06765 16.837C7.28632 16.837 7.46898 16.763 7.61565 16.615C7.76232 16.467 7.83565 16.2836 7.83565 16.065C7.83565 15.8463 7.76198 15.664 7.61465 15.518C7.46665 15.3713 7.28332 15.298 7.06465 15.298C6.84598 15.298 6.66365 15.3716 6.51765 15.519C6.37098 15.667 6.29765 15.8503 6.29765 16.069C6.29765 16.2876 6.37132 16.47 6.51865 16.616C6.66665 16.7626 6.84998 16.836 7.06865 16.836M7.06665 7.56696C6.92532 7.56696 6.80665 7.61496 6.71065 7.71096C6.61465 7.80696 6.56665 7.92562 6.56665 8.06696V13.337C6.56665 13.4783 6.61465 13.5966 6.71065 13.692C6.80665 13.788 6.92565 13.836 7.06765 13.836C7.20965 13.836 7.32832 13.788 7.42365 13.692C7.51898 13.5966 7.56665 13.478 7.56665 13.336V8.06696C7.56665 7.92496 7.51865 7.80629 7.42265 7.71096C7.32665 7.61496 7.20865 7.56696 7.06665 7.56696ZM17.0667 16.567C17.2087 16.567 17.3273 16.519 17.4227 16.423C17.5187 16.327 17.5667 16.208 17.5667 16.066C17.5667 15.924 17.5187 15.8053 17.4227 15.71C17.3273 15.6146 17.2087 15.567 17.0667 15.567H12.0667C11.9247 15.567 11.806 15.615 11.7107 15.711C11.6147 15.807 11.5667 15.926 11.5667 16.068C11.5667 16.21 11.6147 16.3286 11.7107 16.424C11.8067 16.5193 11.9253 16.567 12.0667 16.567H17.0667ZM17.0667 12.567C17.2087 12.567 17.3273 12.519 17.4227 12.423C17.5187 12.327 17.5667 12.208 17.5667 12.066C17.5667 11.924 17.5187 11.8053 17.4227 11.71C17.3273 11.6146 17.2087 11.567 17.0667 11.567H12.0667C11.9247 11.567 11.806 11.615 11.7107 11.711C11.6147 11.807 11.5667 11.926 11.5667 12.068C11.5667 12.21 11.6147 12.3286 11.7107 12.424C11.8067 12.5193 11.9253 12.567 12.0667 12.567H17.0667ZM17.0667 8.56696C17.2087 8.56696 17.3273 8.51896 17.4227 8.42296C17.5187 8.32696 17.5667 8.20796 17.5667 8.06596C17.5667 7.92396 17.5187 7.80529 17.4227 7.70996C17.3273 7.61462 17.2087 7.56696 17.0667 7.56696H12.0667C11.9247 7.56696 11.806 7.61496 11.7107 7.71096C11.6147 7.80696 11.5667 7.92596 11.5667 8.06796C11.5667 8.20996 11.6147 8.32862 11.7107 8.42396C11.8067 8.51929 11.9253 8.56696 12.0667 8.56696H17.0667ZM4.68165 20.067C4.22165 20.067 3.83765 19.913 3.52965 19.605C3.22098 19.2963 3.06665 18.912 3.06665 18.452V5.68196C3.06665 5.22196 3.22098 4.83796 3.52965 4.52996C3.83765 4.22129 4.22165 4.06696 4.68165 4.06696H19.4517C19.9116 4.06696 20.2957 4.22129 20.6037 4.52996C20.9123 4.83796 21.0667 5.22196 21.0667 5.68196V18.452C21.0667 18.912 20.9127 19.296 20.6047 19.604C20.296 19.9126 19.9116 20.067 19.4517 20.067H4.68165ZM4.68165 19.067H19.4517C19.605 19.067 19.746 19.003 19.8747 18.875C20.0027 18.7463 20.0667 18.6053 20.0667 18.452V5.68196C20.0667 5.52862 20.0027 5.38762 19.8747 5.25896C19.746 5.13096 19.605 5.06696 19.4517 5.06696H4.68165C4.52832 5.06696 4.38732 5.13096 4.25865 5.25896C4.13065 5.38762 4.06665 5.52862 4.06665 5.68196V18.452C4.06665 18.6053 4.13065 18.7463 4.25865 18.875C4.38732 19.003 4.52832 19.067 4.68165 19.067Z" fill="black"/>
</svg>
