<svg width="25" height="25" viewBox="0 0 25 25" fill="none" xmlns="http://www.w3.org/2000/svg">
<path d="M14.4816 2.73039C14.4186 2.69934 14.348 2.68665 14.2781 2.69378C14.2081 2.70091 14.1416 2.72756 14.086 2.7707L7.43821 7.94195H3.06665C2.76828 7.94195 2.48213 8.06047 2.27116 8.27145C2.06018 8.48243 1.94165 8.76858 1.94165 9.06695V15.0669C1.94165 15.3653 2.06018 15.6515 2.27116 15.8624C2.48213 16.0734 2.76828 16.1919 3.06665 16.1919H7.43821L14.086 21.3632C14.1522 21.414 14.2332 21.4416 14.3167 21.4419C14.3739 21.4422 14.4304 21.429 14.4816 21.4035C14.5446 21.3727 14.5977 21.3248 14.6348 21.2653C14.6719 21.2058 14.6916 21.1371 14.6917 21.0669V3.06695C14.6916 2.99683 14.6719 2.92812 14.6348 2.86862C14.5977 2.80913 14.5446 2.76124 14.4816 2.73039ZM2.69165 15.0669V9.06695C2.69165 8.96749 2.73116 8.87211 2.80149 8.80178C2.87181 8.73146 2.96719 8.69195 3.06665 8.69195H7.19165V15.4419H3.06665C2.96719 15.4419 2.87181 15.4024 2.80149 15.3321C2.73116 15.2618 2.69165 15.1664 2.69165 15.0669ZM13.9417 20.3001L7.94165 15.6294V8.50445L13.9417 3.83757V20.3001ZM18.3479 9.83664C18.8908 10.453 19.1903 11.2461 19.1903 12.0674C19.1903 12.8887 18.8908 13.6819 18.3479 14.2982C18.3153 14.3351 18.2757 14.3653 18.2314 14.3869C18.1871 14.4086 18.139 14.4213 18.0899 14.4243C18.0407 14.4274 17.9914 14.4207 17.9448 14.4047C17.8981 14.3887 17.8551 14.3636 17.8182 14.331C17.7813 14.2984 17.7511 14.2588 17.7295 14.2145C17.7079 14.1703 17.6952 14.1221 17.6921 14.073C17.6891 14.0238 17.6957 13.9745 17.7117 13.9279C17.7277 13.8813 17.7528 13.8383 17.7854 13.8013C18.2073 13.322 18.44 12.7054 18.44 12.0669C18.44 11.4285 18.2073 10.8119 17.7854 10.3326C17.7248 10.2573 17.6956 10.1616 17.7038 10.0653C17.7121 9.96903 17.7572 9.87966 17.8297 9.81583C17.9023 9.75199 17.9966 9.71862 18.0932 9.72267C18.1897 9.72673 18.281 9.76789 18.3479 9.83757V9.83664ZM22.9417 12.0669C22.9429 13.8198 22.2969 15.5114 21.1276 16.8173C21.0612 16.8919 20.9679 16.937 20.8682 16.9428C20.7685 16.9486 20.6706 16.9146 20.596 16.8482C20.5214 16.7818 20.4763 16.6885 20.4705 16.5888C20.4647 16.4891 20.4987 16.3912 20.5651 16.3166C21.6103 15.1479 22.1882 13.6349 22.1882 12.0669C22.1882 10.499 21.6103 8.98602 20.5651 7.81726C20.4987 7.74267 20.4647 7.64476 20.4705 7.54507C20.4763 7.44538 20.5214 7.35209 20.596 7.2857C20.6706 7.21931 20.7685 7.18528 20.8682 7.19108C20.9679 7.19688 21.0612 7.24204 21.1276 7.31664C22.2969 8.6225 22.9429 10.3141 22.9417 12.0669Z" fill="black"/>
</svg>
