<svg width="25" height="25" viewBox="0 0 25 25" fill="none" xmlns="http://www.w3.org/2000/svg">
<path d="M12.9597 19.9299C12.913 19.9726 12.861 20.0026 12.8037 20.0199C12.747 20.0386 12.687 20.0479 12.6237 20.0479C12.561 20.0479 12.4953 20.0379 12.4267 20.0179C12.3573 19.9979 12.2983 19.9636 12.2497 19.9149C11.7197 19.3229 11.302 18.6853 10.9967 18.0019C10.6913 17.3186 10.5383 16.5926 10.5377 15.8239C10.5377 15.2666 10.6167 14.6816 10.7747 14.0689C10.932 13.4556 11.2167 12.6589 11.6287 11.6789C11.9733 10.7923 12.2207 10.0903 12.3707 9.57294C12.5207 9.0556 12.5957 8.5756 12.5957 8.13294C12.5957 7.5556 12.4707 7.00494 12.2207 6.48094C11.9707 5.9576 11.579 5.4396 11.0457 4.92694C10.999 4.8756 10.962 4.8156 10.9347 4.74694C10.9073 4.67894 10.8937 4.6106 10.8937 4.54194C10.8937 4.48527 10.9027 4.4286 10.9207 4.37194C10.9387 4.31527 10.9687 4.26227 11.0107 4.21294C11.062 4.16427 11.1207 4.12427 11.1867 4.09294C11.2527 4.0616 11.321 4.0466 11.3917 4.04794C11.4623 4.04794 11.5247 4.06227 11.5787 4.09094C11.632 4.12027 11.682 4.15894 11.7287 4.20694C12.2953 4.7496 12.748 5.35094 13.0867 6.01094C13.426 6.67094 13.5957 7.37627 13.5957 8.12694C13.5957 8.65227 13.518 9.20394 13.3626 9.78194C13.208 10.3593 12.9387 11.1133 12.5547 12.0439C12.164 12.9799 11.897 13.7209 11.7537 14.2669C11.6097 14.8136 11.5377 15.3283 11.5377 15.8109C11.5377 16.4169 11.6553 17.0013 11.8907 17.5639C12.126 18.1259 12.4937 18.6759 12.9937 19.2139C13.0363 19.2639 13.0703 19.3186 13.0957 19.3779C13.121 19.4379 13.1337 19.5016 13.1337 19.5689C13.1337 19.6369 13.1183 19.7013 13.0877 19.7619C13.057 19.8233 13.0143 19.8793 12.9597 19.9299ZM17.4307 19.9269C17.384 19.9716 17.3323 20.0059 17.2757 20.0299C17.219 20.0546 17.1556 20.0669 17.0856 20.0669C17.0163 20.0669 16.95 20.0536 16.8867 20.0269C16.8233 19.9989 16.768 19.9616 16.7206 19.9149C16.1913 19.3349 15.7703 18.7016 15.4577 18.0149C15.1456 17.3263 14.9897 16.6029 14.9897 15.8449C14.9897 15.2943 15.0717 14.7063 15.2357 14.0809C15.3996 13.4556 15.6877 12.6549 16.0997 11.6789C16.457 10.7796 16.7077 10.0779 16.8517 9.57394C16.995 9.06927 17.0667 8.59827 17.0667 8.16094C17.0667 7.5696 16.9417 7.00894 16.6917 6.47894C16.4417 5.94827 16.05 5.43094 15.5167 4.92694C15.468 4.87427 15.4313 4.81527 15.4067 4.74994C15.3827 4.6846 15.3707 4.61727 15.3707 4.54794C15.3707 4.48794 15.3787 4.43327 15.3947 4.38394C15.4107 4.33527 15.44 4.28527 15.4827 4.23394C15.5347 4.1826 15.5947 4.14194 15.6627 4.11194C15.732 4.08194 15.8 4.06694 15.8667 4.06694C15.9327 4.06694 15.9927 4.0796 16.0466 4.10494C16.1 4.13094 16.1513 4.16494 16.2007 4.20694C16.7673 4.7496 17.22 5.35094 17.5587 6.01094C17.898 6.67094 18.0676 7.37627 18.0676 8.12694C18.0676 8.65227 17.9897 9.2006 17.8337 9.77194C17.6783 10.3433 17.403 11.1089 17.0077 12.0689C16.617 13.0176 16.3497 13.7586 16.2057 14.2919C16.0623 14.8253 15.9907 15.3309 15.9907 15.8089C15.9907 16.4063 16.1157 16.9876 16.3657 17.5529C16.6157 18.1176 16.9907 18.6793 17.4907 19.2379C17.5293 19.2866 17.5583 19.3396 17.5777 19.3969C17.5963 19.4536 17.6056 19.5103 17.6056 19.5669C17.6056 19.6316 17.5903 19.6966 17.5597 19.7619C17.529 19.8266 17.4853 19.8816 17.4307 19.9269ZM8.48965 19.9269C8.44298 19.9716 8.39132 20.0059 8.33465 20.0299C8.27798 20.0546 8.21465 20.0669 8.14465 20.0669C8.07532 20.0669 8.00898 20.0536 7.94565 20.0269C7.88232 19.9989 7.82698 19.9616 7.77965 19.9149C7.24965 19.3349 6.83198 18.7016 6.52665 18.0149C6.21998 17.3256 6.06665 16.6019 6.06665 15.8439C6.06665 15.2933 6.14565 14.7053 6.30365 14.0799C6.46098 13.4553 6.74532 12.6546 7.15665 11.6779C7.51465 10.7786 7.76532 10.0769 7.90865 9.57294C8.05265 9.06827 8.12465 8.59727 8.12465 8.15994C8.12465 7.5686 7.99965 7.00794 7.74965 6.47794C7.49965 5.94727 7.10798 5.42994 6.57465 4.92594C6.51998 4.87327 6.48098 4.81427 6.45765 4.74894C6.43432 4.6836 6.42265 4.61827 6.42265 4.55294C6.42265 4.48827 6.43165 4.42727 6.44965 4.36994C6.46765 4.31327 6.49765 4.2606 6.53965 4.21194C6.59098 4.16327 6.65032 4.12327 6.71765 4.09194C6.78432 4.06194 6.84932 4.04694 6.91265 4.04694C6.97598 4.04694 7.03665 4.06127 7.09465 4.08994C7.15265 4.11927 7.20665 4.15794 7.25665 4.20594C7.82332 4.7486 8.27665 5.34994 8.61665 6.00994C8.95532 6.66994 9.12465 7.37827 9.12465 8.13494C9.12465 8.6416 9.05098 9.1806 8.90365 9.75194C8.75565 10.3226 8.48465 11.0889 8.09065 12.0509C7.71198 12.9816 7.44765 13.7199 7.29765 14.2659C7.14765 14.8126 7.07265 15.3273 7.07265 15.8099C7.07265 16.4193 7.19332 17.0073 7.43465 17.5739C7.67665 18.1406 8.04765 18.6949 8.54765 19.2369C8.58565 19.2856 8.61432 19.3386 8.63365 19.3959C8.65365 19.4526 8.66365 19.5093 8.66365 19.5659C8.66365 19.6306 8.64798 19.6956 8.61665 19.7609C8.58598 19.8256 8.54332 19.8806 8.48865 19.9259" fill="black"/>
</svg>
