<svg width="25" height="25" viewBox="0 0 25 25" fill="none" xmlns="http://www.w3.org/2000/svg">
<path d="M12.5166 9.51694C12.6926 9.51646 12.8613 9.44633 12.9858 9.32187C13.1102 9.19741 13.1804 9.02875 13.1808 8.85274V8.18674C13.1808 7.82374 12.8826 7.52254 12.5166 7.52254C12.1506 7.52254 11.8512 7.82374 11.8512 8.18674V8.85274C11.8512 9.21814 12.1506 9.51694 12.5166 9.51694ZM11.1882 12.1755H11.8512V15.9423C11.8512 16.3077 12.1506 16.6065 12.5166 16.6065C12.6926 16.6061 12.8613 16.5359 12.9858 16.4115C13.1102 16.287 13.1804 16.1183 13.1808 15.9423V11.5107C13.1804 11.3347 13.1102 11.1661 12.9858 11.0416C12.8613 10.9171 12.6926 10.847 12.5166 10.8465H11.1882C10.8216 10.8465 10.5228 11.1459 10.5228 11.5107C10.5228 11.8767 10.8216 12.1755 11.1882 12.1755Z" fill="black"/>
<path d="M12.0667 20.3169C7.51745 20.3169 3.81665 16.6161 3.81665 12.0675C3.81665 7.51834 7.51745 3.81694 12.0667 3.81694C16.6159 3.81694 20.3167 7.51834 20.3167 12.0675C20.3167 16.6161 16.6159 20.3169 12.0667 20.3169ZM12.0667 4.41694C7.84865 4.41694 4.41665 7.84894 4.41665 12.0675C4.41665 16.2855 7.84865 19.7169 12.0667 19.7169C16.2847 19.7169 19.7167 16.2855 19.7167 12.0675C19.7167 7.84894 16.2847 4.41694 12.0667 4.41694Z" fill="black"/>
</svg>
