<svg width="25" height="25" viewBox="0 0 25 25" fill="none" xmlns="http://www.w3.org/2000/svg">
<path d="M10.4537 15.24H3.56665C3.42465 15.24 3.30565 15.1923 3.20965 15.097C3.11432 15.0016 3.06665 14.8827 3.06665 14.74C3.06665 14.598 3.11432 14.479 3.20965 14.383C3.30565 14.2877 3.42465 14.24 3.56665 14.24H10.4537L7.71365 11.5C7.61965 11.4066 7.56965 11.2926 7.56365 11.158C7.55698 11.0246 7.60698 10.9027 7.71365 10.792C7.82365 10.682 7.94232 10.627 8.06965 10.627C8.19698 10.627 8.31598 10.682 8.42665 10.792L11.8087 14.175C11.896 14.2617 11.9573 14.3506 11.9927 14.442C12.028 14.5333 12.0457 14.6327 12.0457 14.74C12.0457 14.848 12.028 14.9473 11.9927 15.038C11.9573 15.1293 11.896 15.2183 11.8087 15.305L8.42065 18.694C8.32332 18.7913 8.20865 18.8423 8.07665 18.847C7.94465 18.8517 7.82332 18.7986 7.71265 18.688C7.60598 18.578 7.55198 18.46 7.55065 18.334C7.54865 18.2086 7.60265 18.0906 7.71265 17.98L10.4537 15.24ZM13.6797 9.87498L16.4197 12.615C16.5137 12.7083 16.5637 12.822 16.5697 12.956C16.5763 13.09 16.5263 13.2123 16.4197 13.323C16.3097 13.433 16.191 13.488 16.0637 13.488C15.9363 13.488 15.8173 13.433 15.7067 13.323L12.3247 9.93998C12.2373 9.85332 12.176 9.76432 12.1407 9.67298C12.1053 9.58165 12.0877 9.48232 12.0877 9.37498C12.0877 9.26698 12.1053 9.16765 12.1407 9.07698C12.176 8.98565 12.2373 8.89632 12.3247 8.80898L15.7127 5.42098C15.81 5.32365 15.9247 5.27265 16.0567 5.26798C16.1887 5.26332 16.31 5.31632 16.4207 5.42698C16.5273 5.53698 16.5813 5.65465 16.5827 5.77998C16.5847 5.90598 16.5307 6.02398 16.4207 6.13398L13.6807 8.87398H20.5667C20.7087 8.87398 20.8277 8.92198 20.9237 9.01798C21.019 9.11332 21.0667 9.23232 21.0667 9.37498C21.0667 9.51698 21.019 9.63565 20.9237 9.73098C20.8277 9.82698 20.7087 9.87498 20.5667 9.87498H13.6797Z" fill="black"/>
</svg>
