<svg version="1.1" id="Layer_1" xmlns="http://www.w3.org/2000/svg" xmlns:xlink="http://www.w3.org/1999/xlink" x="0px" y="0px"
	 width="25" height="25" viewBox="0 0 1024 1024" enable-background="new 0 0 1024 1024" xml:space="preserve">
<path fill="#000000" opacity="1.000000" stroke="none" 
	d="
M884.070435,411.824463 
	C871.151978,465.068359 845.441650,510.693512 806.238647,548.314270 
	C761.986328,590.780518 709.336060,616.461487 648.332275,624.378601 
	C586.107483,632.454163 527.292236,621.279358 473.325531,589.553711 
	C401.354828,547.243958 356.271881,484.683228 338.705078,402.783417 
	C333.368164,377.901764 331.827850,352.677979 333.816284,327.316071 
	C336.832306,288.847961 346.993774,252.358307 365.048309,218.175674 
	C389.273163,172.310852 423.603790,135.884262 467.847504,108.874794 
	C499.800140,89.368668 534.400696,77.113174 571.437439,71.550705 
	C584.967651,69.518623 598.610413,68.052895 612.185120,68.264008 
	C648.583374,68.830070 683.963318,75.246307 717.798828,89.254730 
	C774.631409,112.784286 818.906982,151.052856 851.062805,203.254425 
	C872.133057,237.459717 884.655762,274.780060 889.421387,314.719116 
	C893.306702,347.280945 891.469055,379.487213 884.070435,411.824463 
M424.171722,368.605804 
	C425.643860,384.112579 429.479919,399.050476 434.919281,413.614197 
	C460.617065,482.419342 524.656860,531.943787 600.795166,536.547913 
	C637.736633,538.781738 673.045471,531.517639 704.854858,512.344849 
	C773.081421,471.221893 805.666077,410.553467 800.714111,330.729767 
	C798.479919,294.715118 785.094849,262.554108 763.646545,233.627716 
	C718.298645,172.469238 636.233765,143.509415 563.418152,164.663818 
	C489.841888,186.039230 444.417755,235.080261 426.779266,309.597595 
	C422.257172,328.701904 422.178772,348.205383 424.171722,368.605804 
M623.342041,114.499786 
	C623.341736,117.833069 623.338867,121.166344 623.341675,124.499626 
	C623.350830,135.530243 623.351746,135.528564 634.407532,136.916458 
	C635.067993,136.999359 635.716858,137.178879 636.377869,137.252716 
	C660.103333,139.903122 682.668091,146.615204 704.207031,156.809616 
	C707.171265,158.212601 708.850037,158.050186 710.567139,154.942215 
	C716.286743,144.589386 722.312256,134.405869 728.170715,124.129089 
	C728.962708,122.739830 730.231079,121.444633 729.661560,119.185616 
	C721.711975,114.781441 713.170288,111.096352 704.473633,107.763329 
	C680.060486,98.406906 654.867676,92.640778 628.708069,91.183945 
	C624.495361,90.949333 623.076904,92.345261 623.281128,96.503525 
	C623.558716,102.156364 623.345520,107.833321 623.342041,114.499786 
M736.355774,176.093170 
	C755.995483,190.481659 772.842712,207.615387 786.583801,227.714432 
	C788.971252,231.206543 790.925415,231.858505 794.585510,229.547226 
	C801.613892,225.108994 808.911865,221.096817 816.111755,216.931580 
	C820.225830,214.551559 824.366882,212.218292 828.980042,209.587860 
	C808.220459,177.297211 782.297424,151.461685 750.160095,130.893982 
	C744.057312,141.499039 738.229431,151.350693 732.676208,161.354813 
	C727.238525,171.150787 725.803955,168.475006 736.355774,176.093170 
M865.289673,302.106415 
	C860.414673,276.699371 852.708374,252.292419 840.093872,228.970276 
	C828.118164,235.877548 816.818848,242.563309 805.336914,248.919373 
	C801.667053,250.950928 801.550720,252.831680 803.257751,256.403290 
	C814.639526,280.217590 821.396423,305.325012 823.224121,331.674744 
	C823.483826,335.418365 825.212280,336.045624 828.287659,336.029175 
	C839.948853,335.966705 851.614441,335.826752 863.270081,336.087891 
	C867.850037,336.190521 869.224243,334.404144 868.702759,330.185303 
	C867.581055,321.111328 866.563049,312.024506 865.289673,302.106415 
M600.877380,112.500122 
	C600.870422,106.842201 600.782532,101.182770 600.888245,95.526955 
	C600.947327,92.361992 599.775635,90.877327 596.472961,91.209656 
	C592.342957,91.625214 588.189026,91.804527 584.060059,92.228363 
	C553.619385,95.353043 524.860229,104.195343 497.429626,117.630440 
	C494.381165,119.123543 494.079315,120.789482 495.647247,123.482765 
	C501.841156,134.122284 508.010437,144.776596 514.101379,155.475189 
	C515.364990,157.694702 516.551086,158.621445 519.212158,157.337387 
	C543.578369,145.579514 569.193848,138.361603 596.248657,136.532242 
	C599.817017,136.290955 601.037292,134.464142 600.916748,130.971191 
	C600.715881,125.153931 600.871399,119.324379 600.877380,112.500122 
M822.741882,481.752625 
	C813.229736,476.254242 803.616394,470.920532 794.258606,465.170959 
	C790.841125,463.071228 789.254456,463.786011 787.148132,466.872375 
	C772.743286,487.979248 755.038940,505.883301 734.236206,520.737000 
	C732.112976,522.253052 729.520203,523.210022 727.732056,525.845093 
	C734.984436,538.397705 742.273438,551.013733 749.918457,564.246033 
	C782.259644,543.383911 808.226685,517.407654 828.883911,485.388428 
	C826.471619,483.969727 824.910034,483.051361 822.741882,481.752625 
M636.858521,603.222534 
	C640.814209,602.733337 644.776123,602.289062 648.724670,601.747681 
	C675.819458,598.032959 701.508850,589.796631 726.076172,577.856934 
	C729.619690,576.134766 730.261780,574.356506 728.230042,570.937317 
	C721.941406,560.354126 715.876526,549.638123 709.717224,538.977966 
	C709.220886,538.118896 708.747070,537.204590 707.213501,537.003784 
	C699.692200,540.551208 691.846863,544.186096 683.684326,547.029419 
	C666.502441,553.014526 648.917542,557.153381 630.709045,558.434998 
	C623.345581,558.953247 623.346741,559.064697 623.340942,565.861206 
	C623.333557,574.515442 623.334106,583.169617 623.339050,591.823853 
	C623.346191,604.484985 623.349182,604.484985 636.858521,603.222534 
M531.362000,543.276733 
	C527.720154,541.641174 523.941589,540.248413 520.477051,538.297974 
	C517.361816,536.544250 515.586182,536.814331 513.763794,540.105530 
	C507.880981,550.729492 501.786682,561.238464 495.632568,571.708679 
	C494.060425,574.383423 494.561523,575.744873 497.279144,577.113403 
	C528.131226,592.650146 560.735352,601.636841 595.238953,603.794312 
	C599.684326,604.072266 601.063171,602.593079 600.961365,598.210449 
	C600.710327,587.398132 600.891418,576.576111 600.873718,565.757996 
	C600.862915,559.144531 600.660400,558.942566 593.876221,558.425171 
	C572.476990,556.793152 551.931274,551.621948 531.362000,543.276733 
M357.326172,315.739960 
	C356.768158,322.283173 355.639557,328.802521 356.151459,335.918060 
	C370.281921,335.918060 384.066864,335.942047 397.851593,335.898285 
	C400.689026,335.889282 400.649109,333.671295 400.861084,331.631012 
	C402.668335,314.236084 405.707977,297.112793 411.307312,280.465851 
	C414.645050,270.542633 418.845825,260.997864 423.470001,251.193161 
	C412.055084,244.592590 400.989960,238.189804 389.920074,231.795166 
	C384.456024,228.638763 384.413269,228.626740 381.587280,234.447235 
	C369.207092,259.945709 361.160736,286.753296 357.326172,315.739960 
M361.292267,402.282654 
	C365.758362,423.069366 372.947327,442.888794 382.252411,461.987335 
	C383.901550,465.372131 385.446564,465.990814 388.677551,463.864746 
	C393.123108,460.939484 397.884430,458.495453 402.499573,455.826416 
	C409.382111,451.846130 416.255066,447.849335 422.998779,443.936920 
	C422.812134,442.886841 422.834229,442.349854 422.624817,441.927643 
	C410.116425,416.705536 402.989594,390.008759 400.835358,361.977234 
	C400.585938,358.731750 398.744507,358.849762 396.417511,358.863678 
	C384.751953,358.933319 373.085815,358.892548 361.420105,358.945496 
	C359.649963,358.953552 357.724884,358.470490 356.000397,360.136139 
	C356.069733,374.007629 358.257019,387.770020 361.292267,402.282654 
M861.861084,408.474976 
	C865.527222,393.585114 867.840088,378.491394 868.710938,363.178009 
	C868.858582,360.582611 868.659729,358.708679 865.119202,358.765900 
	C852.791809,358.965118 840.459900,358.944275 828.130127,358.892365 
	C824.856262,358.878571 823.444519,359.966064 823.230347,363.488678 
	C822.082764,382.370117 818.103455,400.696442 811.831360,418.534271 
	C808.909363,426.844604 805.305603,434.875885 801.256714,443.488800 
	C814.220154,450.969757 826.935730,458.307678 840.036011,465.867645 
	C849.946350,447.391907 856.786987,428.712982 861.861084,408.474976 
M449.450897,546.029541 
	C457.242676,552.427795 465.253632,558.506775 474.311066,563.866272 
	C481.930908,550.675964 489.216675,538.063904 496.361938,525.695129 
	C495.841919,524.893860 495.726257,524.528687 495.477356,524.358643 
	C472.137665,508.416534 452.219025,489.037750 436.473907,465.496033 
	C434.643799,462.759735 432.974152,464.004547 431.042633,465.117371 
	C421.384705,470.681519 411.708984,476.214813 402.037445,481.755341 
	C395.474518,485.515076 395.469513,485.514771 399.921448,491.941681 
	C413.834045,512.026123 429.953278,530.096313 449.450897,546.029541 
M408.646912,191.120071 
	C404.254730,196.890396 399.910156,202.691162 396.148834,209.465332 
	C408.644928,216.720779 420.568939,223.649078 432.498840,230.567200 
	C435.445312,232.275879 436.291229,229.674133 437.430450,228.010315 
	C452.469299,206.046097 471.051544,187.626709 493.023590,172.653702 
	C495.846313,170.730148 496.351654,169.218491 494.573334,166.267517 
	C489.590515,157.999222 484.907288,149.551010 480.031281,141.217407 
	C478.132141,137.971588 476.637054,134.434769 473.780823,131.357574 
	C448.556671,147.429718 427.214508,167.222931 408.646912,191.120071 
z"/>
<path fill="#000000" opacity="1.000000" stroke="none" 
	d="
M450.947876,900.147644 
	C421.433929,888.146667 392.308868,876.206787 363.114471,864.438904 
	C337.043335,853.929932 310.340973,853.072815 283.211334,859.674072 
	C276.420044,861.326599 269.601440,862.871399 262.774475,864.370544 
	C259.735535,865.037842 257.963898,866.510376 258.440277,869.863770 
	C259.456757,877.019104 258.387512,884.171997 258.378357,891.326233 
	C258.355743,909.013428 247.453674,919.833862 229.603241,919.903259 
	C211.439636,919.973938 193.274445,920.013672 175.112366,919.830139 
	C170.742538,919.785950 168.088730,920.457397 167.123245,925.523621 
	C165.998367,931.426514 161.395523,934.092773 154.176743,934.123047 
	C139.679184,934.183899 125.181229,934.146301 110.683434,934.145020 
	C96.185638,934.143738 81.687660,934.180786 67.190117,934.118408 
	C56.814686,934.073730 52.710251,929.892029 52.709793,919.478333 
	C52.705372,818.826965 52.709618,718.175659 52.720325,617.524292 
	C52.721416,607.278931 56.905418,603.420044 66.998627,603.454041 
	C83.656868,603.510132 100.316139,603.154907 116.975060,603.147034 
	C129.968018,603.140930 142.961609,603.364563 155.953918,603.553894 
	C162.559341,603.650146 166.318146,606.504272 167.479095,612.954895 
	C168.152405,616.695984 169.769821,617.774414 173.446716,617.744873 
	C192.775818,617.589661 212.106934,617.658081 231.437271,617.690186 
	C246.568146,617.715332 257.308777,627.528015 258.438812,642.737549 
	C258.890137,648.812439 258.513000,654.948914 258.513000,661.612183 
	C267.424316,660.834778 275.494293,660.206909 283.548126,659.414673 
	C314.515350,656.368347 345.421021,652.234192 376.656677,653.724060 
	C412.398865,655.428711 446.877930,663.059814 480.025452,676.497864 
	C544.545044,702.654236 608.993774,728.985352 673.520081,755.125061 
	C684.118835,759.418579 692.764771,765.866943 698.026367,776.063660 
	C700.092529,780.067810 702.280884,780.534607 706.233765,779.422852 
	C743.410583,768.966309 780.633545,758.674072 817.837036,748.312195 
	C847.983582,739.915833 878.072144,731.306091 908.276855,723.125000 
	C940.539612,714.386353 971.645264,736.484802 972.944336,769.846680 
	C973.781372,791.341309 963.719666,807.800720 944.279297,817.509583 
	C918.053955,830.606995 891.566711,843.180542 865.178833,855.951965 
	C806.407471,884.396362 747.548767,912.661804 688.888489,941.333374 
	C663.280090,953.850037 636.599060,959.873413 608.146729,957.227417 
	C593.813293,955.894531 579.941040,952.467407 566.582825,947.048706 
	C528.156982,931.461426 489.731934,915.872131 450.947876,900.147644 
M528.450317,783.894714 
	C569.024231,796.389160 609.578613,808.947693 650.183472,821.340759 
	C663.075867,825.275635 676.271606,818.729309 680.226379,806.860107 
	C684.743652,793.302551 679.217651,781.380920 665.997375,776.008606 
	C612.462097,754.253357 558.900085,732.563293 505.417725,710.678833 
	C472.745331,697.309570 440.305115,683.363831 404.847534,678.720154 
	C386.486755,676.315552 368.066223,674.320007 349.592682,675.692871 
	C320.886261,677.826355 292.244110,680.816772 263.563324,683.313293 
	C259.848022,683.636658 258.340149,684.950195 258.349365,688.839539 
	C258.457275,734.331177 258.336884,779.823608 258.576843,825.314209 
	C258.605835,830.813354 257.501343,836.485291 259.029999,842.019104 
	C259.978210,842.019104 260.482086,842.105774 260.945679,842.005859 
	C266.801483,840.743103 272.675079,839.551697 278.499115,838.154419 
	C310.333374,830.516602 341.657776,831.864502 372.120880,844.169800 
	C439.447968,871.366089 506.666016,898.832153 573.943604,926.151245 
	C607.706360,939.861206 641.343689,939.396851 674.183716,923.630981 
	C749.871704,887.294861 825.352905,850.527893 900.912598,813.924683 
	C912.754822,808.187988 924.789612,802.798767 936.336670,796.516113 
	C949.127075,789.557068 954.058411,774.445923 948.728149,761.184082 
	C943.413879,747.961975 929.309570,740.826599 915.250549,744.306335 
	C911.535645,745.225830 907.863953,746.320374 904.175415,747.345398 
	C838.903748,765.484436 773.638062,783.644836 708.345398,801.707947 
	C705.058289,802.617249 703.676208,804.028503 702.926636,807.588257 
	C697.225159,834.663635 671.184692,850.678650 644.983521,842.757385 
	C591.293030,826.525391 537.737671,809.845886 484.142273,793.300293 
	C476.758514,791.020874 473.249908,785.257324 475.111816,779.007996 
	C477.028809,772.573669 482.827271,769.927002 490.439880,772.228638 
	C502.870361,775.986938 515.262451,779.871948 528.450317,783.894714 
M145.631393,768.500061 
	C145.628830,722.687439 145.574738,676.874695 145.708618,631.062439 
	C145.721100,626.789917 144.678238,625.238342 140.158554,625.287720 
	C120.336578,625.504272 100.510078,625.462585 80.687050,625.295959 
	C76.659691,625.262085 75.179619,626.353455 75.184822,630.614014 
	C75.296852,722.405823 75.315605,814.197815 75.187149,905.989563 
	C75.180420,910.797852 76.851761,911.816833 81.254578,911.772583 
	C100.577209,911.578247 119.905251,911.532227 139.225998,911.807373 
	C144.201675,911.878296 145.748032,910.611450 145.725525,905.438293 
	C145.528442,860.126282 145.622849,814.812988 145.631393,768.500061 
M228.287415,639.900574 
	C210.291183,639.898804 192.293503,640.021790 174.299728,639.810974 
	C169.570740,639.755615 167.927185,641.219238 167.934280,646.071777 
	C168.054077,728.054443 168.049622,810.037292 167.953690,892.020081 
	C167.948624,896.352295 169.266632,897.808289 173.672012,897.758667 
	C191.832565,897.554443 209.996811,897.690735 228.159653,897.670654 
	C235.182983,897.662903 236.650009,896.207764 236.650940,889.179749 
	C236.661606,808.706970 236.660904,728.234253 236.645615,647.761475 
	C236.644379,641.240479 235.732986,640.340637 228.287415,639.900574 
z"/>
<path fill="#000000" opacity="1.000000" stroke="none" 
	d="
M597.925903,260.867798 
	C581.094055,268.609985 571.728027,284.087311 573.380859,301.007233 
	C574.951599,317.087250 586.924927,331.085632 602.953308,334.975769 
	C607.594971,336.102356 612.511169,336.130707 617.309814,336.572662 
	C646.996338,339.306732 670.787781,362.340332 673.225403,390.738403 
	C675.889954,421.778870 657.715942,448.624542 628.244019,456.699615 
	C624.411499,457.749695 623.119446,459.288788 623.272339,463.133453 
	C623.536987,469.787354 623.382385,476.460175 623.318176,483.124237 
	C623.254211,489.756989 619.018982,494.702545 613.114136,495.187408 
	C607.157166,495.676605 601.605042,491.030762 601.117981,484.312073 
	C600.625183,477.515259 600.715820,470.652771 600.964966,463.834198 
	C601.115295,459.720886 599.929199,457.690247 595.690674,456.441803 
	C570.001404,448.875092 553.405518,428.372803 550.891602,401.652588 
	C550.175293,394.039490 553.314331,388.451324 559.153992,386.943542 
	C566.495483,385.048035 572.934937,390.173248 573.319214,398.217773 
	C574.237244,417.434509 586.745911,432.195953 605.236023,435.882629 
	C625.720337,439.966949 646.589722,426.024200 650.612244,405.566925 
	C655.441101,381.008728 637.744507,358.639923 612.450562,358.500000 
	C583.161987,358.337952 558.413696,337.256958 552.531250,309.287720 
	C546.182983,279.103485 564.329590,247.841431 594.346375,238.765732 
	C599.417847,237.232330 601.381104,235.125320 600.983887,229.817841 
	C600.525208,223.689743 600.689270,217.485474 601.011475,211.336731 
	C601.338806,205.090958 604.917175,200.938858 610.437073,199.983185 
	C615.421875,199.120148 619.173462,201.275482 621.874390,205.403687 
	C623.106262,207.286530 623.360535,209.410263 623.347412,211.623337 
	C623.307739,218.287720 623.485779,224.957245 623.276306,231.615234 
	C623.164856,235.158508 624.224182,236.817596 627.894714,237.893646 
	C652.285950,245.044159 667.188721,261.177673 672.661621,286.053345 
	C673.462830,289.695282 673.415283,293.344666 673.464355,296.983856 
	C673.554443,303.660522 669.143311,308.182281 662.807495,308.320312 
	C656.361389,308.460724 652.075500,304.381989 651.521301,297.579620 
	C649.823303,276.738403 638.347412,262.775970 619.393677,258.870575 
	C612.250305,257.398682 605.145691,258.130188 597.925903,260.867798 
z"/>
</svg>