<svg width="20" height="20" viewBox="0 0 20 20" fill="none" xmlns="http://www.w3.org/2000/svg">
<path d="M10.0667 0.691956C8.21245 0.691956 6.39989 1.24179 4.85818 2.27193C3.31647 3.30207 2.11486 4.76624 1.40528 6.4793C0.695712 8.19236 0.510056 10.0774 0.871793 11.8959C1.23353 13.7145 2.12641 15.385 3.43753 16.6961C4.74865 18.0072 6.41911 18.9001 8.23768 19.2618C10.0563 19.6236 11.9413 19.4379 13.6543 18.7283C15.3674 18.0188 16.8315 16.8171 17.8617 15.2754C18.8918 13.7337 19.4417 11.9212 19.4417 10.067C19.4389 7.58139 18.4503 5.19841 16.6928 3.44084C14.9352 1.68328 12.5522 0.694685 10.0667 0.691956ZM17.3398 5.43477L10.4417 9.41727V1.44852C11.8271 1.50993 13.1774 1.90427 14.3781 2.59816C15.5789 3.29204 16.5948 4.26504 17.3398 5.43477ZM9.69165 1.45039V9.85039L2.41853 14.0495C1.74899 12.7632 1.41456 11.3288 1.44618 9.87908C1.4778 8.42931 1.87444 7.01092 2.59942 5.75505C3.3244 4.49918 4.35433 3.44637 5.59397 2.69397C6.8336 1.94156 8.24294 1.51386 9.69165 1.45039ZM10.0667 18.692C8.61642 18.6915 7.1897 18.3255 5.91843 17.6276C4.64717 16.9297 3.5724 15.9225 2.79353 14.6991L17.7148 6.08446C18.399 7.39892 18.7331 8.86752 18.6847 10.3486C18.6363 11.8297 18.2071 13.2734 17.4385 14.5404C16.6699 15.8074 15.5878 16.855 14.2966 17.5822C13.0054 18.3093 11.5486 18.6915 10.0667 18.692Z" fill="black"/>
</svg>
