<svg width="577" height="443" viewBox="0 0 577 443" fill="none" xmlns="http://www.w3.org/2000/svg">
<path d="M576.727 428.156H392.019V426.699H577L576.727 428.156Z" fill="#3F3D56"/>
<path d="M29.6439 10.2813C32.5842 10.2813 34.9677 7.97977 34.9677 5.14066C34.9677 2.30155 32.5842 0 29.6439 0C26.7036 0 24.32 2.30155 24.32 5.14066C24.32 7.97977 26.7036 10.2813 29.6439 10.2813Z" fill="#E6E6E6"/>
<path d="M21.9056 10.2813C24.8459 10.2813 27.2295 7.97977 27.2295 5.14066C27.2295 2.30155 24.8459 0 21.9056 0C18.9653 0 16.5817 2.30155 16.5817 5.14066C16.5817 7.97977 18.9653 10.2813 21.9056 10.2813Z" fill="#E6E6E6"/>
<path d="M48.8588 10.2813C51.7991 10.2813 54.1826 7.97977 54.1826 5.14066C54.1826 2.30155 51.7991 0 48.8588 0C45.9185 0 43.5349 2.30155 43.5349 5.14066C43.5349 7.97977 45.9185 10.2813 48.8588 10.2813Z" fill="#E6E6E6"/>
<path d="M75.8196 10.2813C78.7599 10.2813 81.1435 7.97977 81.1435 5.14066C81.1435 2.30155 78.7599 0 75.8196 0C72.8793 0 70.4958 2.30155 70.4958 5.14066C70.4958 7.97977 72.8793 10.2813 75.8196 10.2813Z" fill="#E6E6E6"/>
<path d="M102.745 10.2813C105.686 10.2813 108.069 7.97977 108.069 5.14066C108.069 2.30155 105.686 0 102.745 0C99.8051 0 97.4215 2.30155 97.4215 5.14066C97.4215 7.97977 99.8051 10.2813 102.745 10.2813Z" fill="#E6E6E6"/>
<path d="M129.706 10.2813C132.647 10.2813 135.03 7.97977 135.03 5.14066C135.03 2.30155 132.647 0 129.706 0C126.766 0 124.382 2.30155 124.382 5.14066C124.382 7.97977 126.766 10.2813 129.706 10.2813Z" fill="#E6E6E6"/>
<path d="M156.648 10.2813C159.588 10.2813 161.972 7.97977 161.972 5.14066C161.972 2.30155 159.588 0 156.648 0C153.707 0 151.324 2.30155 151.324 5.14066C151.324 7.97977 153.707 10.2813 156.648 10.2813Z" fill="#E6E6E6"/>
<path d="M183.589 10.2813C186.529 10.2813 188.913 7.97977 188.913 5.14066C188.913 2.30155 186.529 0 183.589 0C180.649 0 178.265 2.30155 178.265 5.14066C178.265 7.97977 180.649 10.2813 183.589 10.2813Z" fill="#E6E6E6"/>
<path d="M210.566 10.2813C213.506 10.2813 215.89 7.97977 215.89 5.14066C215.89 2.30155 213.506 0 210.566 0C207.625 0 205.242 2.30155 205.242 5.14066C205.242 7.97977 207.625 10.2813 210.566 10.2813Z" fill="#E6E6E6"/>
<path d="M237.507 10.2813C240.447 10.2813 242.831 7.97977 242.831 5.14066C242.831 2.30155 240.447 0 237.507 0C234.567 0 232.183 2.30155 232.183 5.14066C232.183 7.97977 234.567 10.2813 237.507 10.2813Z" fill="#E6E6E6"/>
<path d="M29.6439 36.6312C32.5842 36.6312 34.9677 34.3297 34.9677 31.4906C34.9677 28.6515 32.5842 26.3499 29.6439 26.3499C26.7036 26.3499 24.32 28.6515 24.32 31.4906C24.32 34.3297 26.7036 36.6312 29.6439 36.6312Z" fill="#E6E6E6"/>
<path d="M21.9056 36.6312C24.8459 36.6312 27.2295 34.3297 27.2295 31.4906C27.2295 28.6515 24.8459 26.3499 21.9056 26.3499C18.9653 26.3499 16.5817 28.6515 16.5817 31.4906C16.5817 34.3297 18.9653 36.6312 21.9056 36.6312Z" fill="#E6E6E6"/>
<path d="M48.8587 36.6312C51.799 36.6312 54.1826 34.3297 54.1826 31.4906C54.1826 28.6515 51.799 26.3499 48.8587 26.3499C45.9184 26.3499 43.5348 28.6515 43.5348 31.4906C43.5348 34.3297 45.9184 36.6312 48.8587 36.6312Z" fill="#E6E6E6"/>
<path d="M75.8196 36.6312C78.7599 36.6312 81.1435 34.3297 81.1435 31.4906C81.1435 28.6515 78.7599 26.3499 75.8196 26.3499C72.8793 26.3499 70.4958 28.6515 70.4958 31.4906C70.4958 34.3297 72.8793 36.6312 75.8196 36.6312Z" fill="black"/>
<path d="M102.745 36.6312C105.686 36.6312 108.069 34.3297 108.069 31.4906C108.069 28.6515 105.686 26.3499 102.745 26.3499C99.8051 26.3499 97.4215 28.6515 97.4215 31.4906C97.4215 34.3297 99.8051 36.6312 102.745 36.6312Z" fill="#E6E6E6"/>
<path d="M129.706 36.6312C132.647 36.6312 135.03 34.3297 135.03 31.4906C135.03 28.6515 132.647 26.3499 129.706 26.3499C126.766 26.3499 124.382 28.6515 124.382 31.4906C124.382 34.3297 126.766 36.6312 129.706 36.6312Z" fill="#E6E6E6"/>
<path d="M156.648 36.6312C159.588 36.6312 161.972 34.3297 161.972 31.4906C161.972 28.6515 159.588 26.3499 156.648 26.3499C153.707 26.3499 151.324 28.6515 151.324 31.4906C151.324 34.3297 153.707 36.6312 156.648 36.6312Z" fill="#E6E6E6"/>
<path d="M183.589 36.6312C186.529 36.6312 188.913 34.3297 188.913 31.4906C188.913 28.6515 186.529 26.3499 183.589 26.3499C180.649 26.3499 178.265 28.6515 178.265 31.4906C178.265 34.3297 180.649 36.6312 183.589 36.6312Z" fill="#E6E6E6"/>
<path d="M210.566 36.6312C213.506 36.6312 215.89 34.3297 215.89 31.4906C215.89 28.6515 213.506 26.3499 210.566 26.3499C207.625 26.3499 205.242 28.6515 205.242 31.4906C205.242 34.3297 207.625 36.6312 210.566 36.6312Z" fill="#E6E6E6"/>
<path d="M237.507 36.6312C240.447 36.6312 242.831 34.3297 242.831 31.4906C242.831 28.6515 240.447 26.3499 237.507 26.3499C234.567 26.3499 232.183 28.6515 232.183 31.4906C232.183 34.3297 234.567 36.6312 237.507 36.6312Z" fill="#E6E6E6"/>
<path d="M29.6439 62.9788C32.5842 62.9788 34.9677 60.6773 34.9677 57.8382C34.9677 54.9991 32.5842 52.6975 29.6439 52.6975C26.7036 52.6975 24.32 54.9991 24.32 57.8382C24.32 60.6773 26.7036 62.9788 29.6439 62.9788Z" fill="#E6E6E6"/>
<path d="M21.9056 62.9788C24.8459 62.9788 27.2295 60.6773 27.2295 57.8382C27.2295 54.9991 24.8459 52.6975 21.9056 52.6975C18.9653 52.6975 16.5817 54.9991 16.5817 57.8382C16.5817 60.6773 18.9653 62.9788 21.9056 62.9788Z" fill="#E6E6E6"/>
<path d="M48.8587 62.9788C51.799 62.9788 54.1826 60.6773 54.1826 57.8382C54.1826 54.9991 51.799 52.6975 48.8587 52.6975C45.9184 52.6975 43.5348 54.9991 43.5348 57.8382C43.5348 60.6773 45.9184 62.9788 48.8587 62.9788Z" fill="#E6E6E6"/>
<path d="M75.8196 62.9788C78.7599 62.9788 81.1435 60.6773 81.1435 57.8382C81.1435 54.9991 78.7599 52.6975 75.8196 52.6975C72.8793 52.6975 70.4958 54.9991 70.4958 57.8382C70.4958 60.6773 72.8793 62.9788 75.8196 62.9788Z" fill="#E6E6E6"/>
<path d="M102.745 62.9788C105.686 62.9788 108.069 60.6773 108.069 57.8382C108.069 54.9991 105.686 52.6975 102.745 52.6975C99.8051 52.6975 97.4215 54.9991 97.4215 57.8382C97.4215 60.6773 99.8051 62.9788 102.745 62.9788Z" fill="#E6E6E6"/>
<path d="M129.706 62.9788C132.647 62.9788 135.03 60.6773 135.03 57.8382C135.03 54.9991 132.647 52.6975 129.706 52.6975C126.766 52.6975 124.382 54.9991 124.382 57.8382C124.382 60.6773 126.766 62.9788 129.706 62.9788Z" fill="#E6E6E6"/>
<path d="M156.648 62.9788C159.588 62.9788 161.972 60.6773 161.972 57.8382C161.972 54.9991 159.588 52.6975 156.648 52.6975C153.707 52.6975 151.324 54.9991 151.324 57.8382C151.324 60.6773 153.707 62.9788 156.648 62.9788Z" fill="#E6E6E6"/>
<path d="M183.589 62.9788C186.529 62.9788 188.913 60.6773 188.913 57.8382C188.913 54.9991 186.529 52.6975 183.589 52.6975C180.649 52.6975 178.265 54.9991 178.265 57.8382C178.265 60.6773 180.649 62.9788 183.589 62.9788Z" fill="#E6E6E6"/>
<path d="M210.566 62.9788C213.506 62.9788 215.89 60.6773 215.89 57.8382C215.89 54.9991 213.506 52.6975 210.566 52.6975C207.625 52.6975 205.242 54.9991 205.242 57.8382C205.242 60.6773 207.625 62.9788 210.566 62.9788Z" fill="#E6E6E6"/>
<path d="M237.507 62.9788C240.447 62.9788 242.831 60.6773 242.831 57.8382C242.831 54.9991 240.447 52.6975 237.507 52.6975C234.567 52.6975 232.183 54.9991 232.183 57.8382C232.183 60.6773 234.567 62.9788 237.507 62.9788Z" fill="#E6E6E6"/>
<path d="M29.6439 89.3288C32.5842 89.3288 34.9677 87.0272 34.9677 84.1881C34.9677 81.349 32.5842 79.0474 29.6439 79.0474C26.7036 79.0474 24.32 81.349 24.32 84.1881C24.32 87.0272 26.7036 89.3288 29.6439 89.3288Z" fill="#E6E6E6"/>
<path d="M21.9056 89.3288C24.8459 89.3288 27.2295 87.0272 27.2295 84.1881C27.2295 81.349 24.8459 79.0474 21.9056 79.0474C18.9653 79.0474 16.5817 81.349 16.5817 84.1881C16.5817 87.0272 18.9653 89.3288 21.9056 89.3288Z" fill="#E6E6E6"/>
<path d="M48.8587 89.3288C51.799 89.3288 54.1826 87.0272 54.1826 84.1881C54.1826 81.349 51.799 79.0474 48.8587 79.0474C45.9184 79.0474 43.5348 81.349 43.5348 84.1881C43.5348 87.0272 45.9184 89.3288 48.8587 89.3288Z" fill="#E6E6E6"/>
<path d="M75.8196 89.3288C78.7599 89.3288 81.1435 87.0272 81.1435 84.1881C81.1435 81.349 78.7599 79.0474 75.8196 79.0474C72.8793 79.0474 70.4958 81.349 70.4958 84.1881C70.4958 87.0272 72.8793 89.3288 75.8196 89.3288Z" fill="#E6E6E6"/>
<path d="M102.745 89.3288C105.686 89.3288 108.069 87.0272 108.069 84.1881C108.069 81.349 105.686 79.0474 102.745 79.0474C99.8051 79.0474 97.4215 81.349 97.4215 84.1881C97.4215 87.0272 99.8051 89.3288 102.745 89.3288Z" fill="#E6E6E6"/>
<path d="M129.706 89.3288C132.647 89.3288 135.03 87.0272 135.03 84.1881C135.03 81.349 132.647 79.0474 129.706 79.0474C126.766 79.0474 124.382 81.349 124.382 84.1881C124.382 87.0272 126.766 89.3288 129.706 89.3288Z" fill="#E6E6E6"/>
<path d="M156.648 89.3288C159.588 89.3288 161.972 87.0272 161.972 84.1881C161.972 81.349 159.588 79.0474 156.648 79.0474C153.707 79.0474 151.324 81.349 151.324 84.1881C151.324 87.0272 153.707 89.3288 156.648 89.3288Z" fill="#E6E6E6"/>
<path d="M183.589 89.3288C186.529 89.3288 188.913 87.0272 188.913 84.1881C188.913 81.349 186.529 79.0474 183.589 79.0474C180.649 79.0474 178.265 81.349 178.265 84.1881C178.265 87.0272 180.649 89.3288 183.589 89.3288Z" fill="#E6E6E6"/>
<path d="M210.566 89.3288C213.506 89.3288 215.89 87.0272 215.89 84.1881C215.89 81.349 213.506 79.0474 210.566 79.0474C207.625 79.0474 205.242 81.349 205.242 84.1881C205.242 87.0272 207.625 89.3288 210.566 89.3288Z" fill="#E6E6E6"/>
<path d="M237.507 89.3288C240.447 89.3288 242.831 87.0272 242.831 84.1881C242.831 81.349 240.447 79.0474 237.507 79.0474C234.567 79.0474 232.183 81.349 232.183 84.1881C232.183 87.0272 234.567 89.3288 237.507 89.3288Z" fill="#E6E6E6"/>
<path d="M29.6439 115.674C32.5842 115.674 34.9677 113.372 34.9677 110.533C34.9677 107.694 32.5842 105.393 29.6439 105.393C26.7036 105.393 24.32 107.694 24.32 110.533C24.32 113.372 26.7036 115.674 29.6439 115.674Z" fill="#E6E6E6"/>
<path d="M21.9056 115.674C24.8459 115.674 27.2295 113.372 27.2295 110.533C27.2295 107.694 24.8459 105.393 21.9056 105.393C18.9653 105.393 16.5817 107.694 16.5817 110.533C16.5817 113.372 18.9653 115.674 21.9056 115.674Z" fill="black"/>
<path d="M48.8587 115.674C51.799 115.674 54.1826 113.372 54.1826 110.533C54.1826 107.694 51.799 105.393 48.8587 105.393C45.9184 105.393 43.5348 107.694 43.5348 110.533C43.5348 113.372 45.9184 115.674 48.8587 115.674Z" fill="#E6E6E6"/>
<path d="M75.8196 115.674C78.7599 115.674 81.1435 113.372 81.1435 110.533C81.1435 107.694 78.7599 105.393 75.8196 105.393C72.8793 105.393 70.4958 107.694 70.4958 110.533C70.4958 113.372 72.8793 115.674 75.8196 115.674Z" fill="#E6E6E6"/>
<path d="M102.745 115.674C105.686 115.674 108.069 113.372 108.069 110.533C108.069 107.694 105.686 105.393 102.745 105.393C99.8051 105.393 97.4215 107.694 97.4215 110.533C97.4215 113.372 99.8051 115.674 102.745 115.674Z" fill="#E6E6E6"/>
<path d="M129.706 115.674C132.647 115.674 135.03 113.372 135.03 110.533C135.03 107.694 132.647 105.393 129.706 105.393C126.766 105.393 124.382 107.694 124.382 110.533C124.382 113.372 126.766 115.674 129.706 115.674Z" fill="#E6E6E6"/>
<path d="M156.648 115.674C159.588 115.674 161.972 113.372 161.972 110.533C161.972 107.694 159.588 105.393 156.648 105.393C153.707 105.393 151.324 107.694 151.324 110.533C151.324 113.372 153.707 115.674 156.648 115.674Z" fill="#E6E6E6"/>
<path d="M183.589 115.674C186.529 115.674 188.913 113.372 188.913 110.533C188.913 107.694 186.529 105.393 183.589 105.393C180.649 105.393 178.265 107.694 178.265 110.533C178.265 113.372 180.649 115.674 183.589 115.674Z" fill="#E6E6E6"/>
<path d="M210.566 115.674C213.506 115.674 215.89 113.372 215.89 110.533C215.89 107.694 213.506 105.393 210.566 105.393C207.625 105.393 205.242 107.694 205.242 110.533C205.242 113.372 207.625 115.674 210.566 115.674Z" fill="#E6E6E6"/>
<path d="M237.507 115.674C240.447 115.674 242.831 113.372 242.831 110.533C242.831 107.694 240.447 105.393 237.507 105.393C234.567 105.393 232.183 107.694 232.183 110.533C232.183 113.372 234.567 115.674 237.507 115.674Z" fill="#E6E6E6"/>
<path d="M29.6439 142.022C32.5842 142.022 34.9677 139.72 34.9677 136.881C34.9677 134.042 32.5842 131.74 29.6439 131.74C26.7036 131.74 24.32 134.042 24.32 136.881C24.32 139.72 26.7036 142.022 29.6439 142.022Z" fill="#E6E6E6"/>
<path d="M21.9056 142.022C24.8459 142.022 27.2295 139.72 27.2295 136.881C27.2295 134.042 24.8459 131.74 21.9056 131.74C18.9653 131.74 16.5817 134.042 16.5817 136.881C16.5817 139.72 18.9653 142.022 21.9056 142.022Z" fill="#E6E6E6"/>
<path d="M48.8587 142.022C51.799 142.022 54.1826 139.72 54.1826 136.881C54.1826 134.042 51.799 131.74 48.8587 131.74C45.9184 131.74 43.5348 134.042 43.5348 136.881C43.5348 139.72 45.9184 142.022 48.8587 142.022Z" fill="#E6E6E6"/>
<path d="M75.8196 142.022C78.7599 142.022 81.1435 139.72 81.1435 136.881C81.1435 134.042 78.7599 131.74 75.8196 131.74C72.8793 131.74 70.4958 134.042 70.4958 136.881C70.4958 139.72 72.8793 142.022 75.8196 142.022Z" fill="#E6E6E6"/>
<path d="M102.745 142.022C105.686 142.022 108.069 139.72 108.069 136.881C108.069 134.042 105.686 131.74 102.745 131.74C99.8051 131.74 97.4215 134.042 97.4215 136.881C97.4215 139.72 99.8051 142.022 102.745 142.022Z" fill="#E6E6E6"/>
<path d="M129.706 142.022C132.647 142.022 135.03 139.72 135.03 136.881C135.03 134.042 132.647 131.74 129.706 131.74C126.766 131.74 124.382 134.042 124.382 136.881C124.382 139.72 126.766 142.022 129.706 142.022Z" fill="#E6E6E6"/>
<path d="M156.648 142.022C159.588 142.022 161.972 139.72 161.972 136.881C161.972 134.042 159.588 131.74 156.648 131.74C153.707 131.74 151.324 134.042 151.324 136.881C151.324 139.72 153.707 142.022 156.648 142.022Z" fill="#E6E6E6"/>
<path d="M183.589 142.022C186.529 142.022 188.913 139.72 188.913 136.881C188.913 134.042 186.529 131.74 183.589 131.74C180.649 131.74 178.265 134.042 178.265 136.881C178.265 139.72 180.649 142.022 183.589 142.022Z" fill="#E6E6E6"/>
<path d="M210.566 142.022C213.506 142.022 215.89 139.72 215.89 136.881C215.89 134.042 213.506 131.74 210.566 131.74C207.625 131.74 205.242 134.042 205.242 136.881C205.242 139.72 207.625 142.022 210.566 142.022Z" fill="#E6E6E6"/>
<path d="M237.507 142.022C240.447 142.022 242.831 139.72 242.831 136.881C242.831 134.042 240.447 131.74 237.507 131.74C234.567 131.74 232.183 134.042 232.183 136.881C232.183 139.72 234.567 142.022 237.507 142.022Z" fill="#E6E6E6"/>
<path d="M29.6439 168.374C32.5842 168.374 34.9677 166.072 34.9677 163.233C34.9677 160.394 32.5842 158.093 29.6439 158.093C26.7036 158.093 24.32 160.394 24.32 163.233C24.32 166.072 26.7036 168.374 29.6439 168.374Z" fill="#E6E6E6"/>
<path d="M21.9056 168.374C24.8459 168.374 27.2295 166.072 27.2295 163.233C27.2295 160.394 24.8459 158.093 21.9056 158.093C18.9653 158.093 16.5817 160.394 16.5817 163.233C16.5817 166.072 18.9653 168.374 21.9056 168.374Z" fill="#E6E6E6"/>
<path d="M48.8587 168.374C51.799 168.374 54.1826 166.072 54.1826 163.233C54.1826 160.394 51.799 158.093 48.8587 158.093C45.9184 158.093 43.5348 160.394 43.5348 163.233C43.5348 166.072 45.9184 168.374 48.8587 168.374Z" fill="black"/>
<path d="M75.8196 168.374C78.7599 168.374 81.1435 166.072 81.1435 163.233C81.1435 160.394 78.7599 158.093 75.8196 158.093C72.8793 158.093 70.4958 160.394 70.4958 163.233C70.4958 166.072 72.8793 168.374 75.8196 168.374Z" fill="#E6E6E6"/>
<path d="M102.745 168.374C105.686 168.374 108.069 166.072 108.069 163.233C108.069 160.394 105.686 158.093 102.745 158.093C99.8051 158.093 97.4215 160.394 97.4215 163.233C97.4215 166.072 99.8051 168.374 102.745 168.374Z" fill="#E6E6E6"/>
<path d="M129.706 168.374C132.647 168.374 135.03 166.072 135.03 163.233C135.03 160.394 132.647 158.093 129.706 158.093C126.766 158.093 124.382 160.394 124.382 163.233C124.382 166.072 126.766 168.374 129.706 168.374Z" fill="#E6E6E6"/>
<path d="M156.648 168.374C159.588 168.374 161.972 166.072 161.972 163.233C161.972 160.394 159.588 158.093 156.648 158.093C153.707 158.093 151.324 160.394 151.324 163.233C151.324 166.072 153.707 168.374 156.648 168.374Z" fill="#E6E6E6"/>
<path d="M183.589 168.374C186.529 168.374 188.913 166.072 188.913 163.233C188.913 160.394 186.529 158.093 183.589 158.093C180.649 158.093 178.265 160.394 178.265 163.233C178.265 166.072 180.649 168.374 183.589 168.374Z" fill="#E6E6E6"/>
<path d="M210.566 168.374C213.506 168.374 215.89 166.072 215.89 163.233C215.89 160.394 213.506 158.093 210.566 158.093C207.625 158.093 205.242 160.394 205.242 163.233C205.242 166.072 207.625 168.374 210.566 168.374Z" fill="#E6E6E6"/>
<path d="M237.507 168.374C240.447 168.374 242.831 166.072 242.831 163.233C242.831 160.394 240.447 158.093 237.507 158.093C234.567 158.093 232.183 160.394 232.183 163.233C232.183 166.072 234.567 168.374 237.507 168.374Z" fill="#E6E6E6"/>
<path d="M29.6439 194.724C32.5842 194.724 34.9677 192.422 34.9677 189.583C34.9677 186.744 32.5842 184.442 29.6439 184.442C26.7036 184.442 24.32 186.744 24.32 189.583C24.32 192.422 26.7036 194.724 29.6439 194.724Z" fill="#E6E6E6"/>
<path d="M21.9056 194.724C24.8459 194.724 27.2295 192.422 27.2295 189.583C27.2295 186.744 24.8459 184.442 21.9056 184.442C18.9653 184.442 16.5817 186.744 16.5817 189.583C16.5817 192.422 18.9653 194.724 21.9056 194.724Z" fill="#E6E6E6"/>
<path d="M48.8587 194.724C51.799 194.724 54.1826 192.422 54.1826 189.583C54.1826 186.744 51.799 184.442 48.8587 184.442C45.9184 184.442 43.5348 186.744 43.5348 189.583C43.5348 192.422 45.9184 194.724 48.8587 194.724Z" fill="#E6E6E6"/>
<path d="M75.8196 194.724C78.7599 194.724 81.1435 192.422 81.1435 189.583C81.1435 186.744 78.7599 184.442 75.8196 184.442C72.8793 184.442 70.4958 186.744 70.4958 189.583C70.4958 192.422 72.8793 194.724 75.8196 194.724Z" fill="#E6E6E6"/>
<path d="M102.745 194.724C105.686 194.724 108.069 192.422 108.069 189.583C108.069 186.744 105.686 184.442 102.745 184.442C99.8051 184.442 97.4215 186.744 97.4215 189.583C97.4215 192.422 99.8051 194.724 102.745 194.724Z" fill="#E6E6E6"/>
<path d="M129.706 194.724C132.647 194.724 135.03 192.422 135.03 189.583C135.03 186.744 132.647 184.442 129.706 184.442C126.766 184.442 124.382 186.744 124.382 189.583C124.382 192.422 126.766 194.724 129.706 194.724Z" fill="#E6E6E6"/>
<path d="M156.648 194.724C159.588 194.724 161.972 192.422 161.972 189.583C161.972 186.744 159.588 184.442 156.648 184.442C153.707 184.442 151.324 186.744 151.324 189.583C151.324 192.422 153.707 194.724 156.648 194.724Z" fill="#E6E6E6"/>
<path d="M183.589 194.724C186.529 194.724 188.913 192.422 188.913 189.583C188.913 186.744 186.529 184.442 183.589 184.442C180.649 184.442 178.265 186.744 178.265 189.583C178.265 192.422 180.649 194.724 183.589 194.724Z" fill="#E6E6E6"/>
<path d="M210.566 194.724C213.506 194.724 215.89 192.422 215.89 189.583C215.89 186.744 213.506 184.442 210.566 184.442C207.625 184.442 205.242 186.744 205.242 189.583C205.242 192.422 207.625 194.724 210.566 194.724Z" fill="#E6E6E6"/>
<path d="M237.507 194.724C240.447 194.724 242.831 192.422 242.831 189.583C242.831 186.744 240.447 184.442 237.507 184.442C234.567 184.442 232.183 186.744 232.183 189.583C232.183 192.422 234.567 194.724 237.507 194.724Z" fill="#E6E6E6"/>
<path d="M29.6439 221.069C32.5842 221.069 34.9677 218.767 34.9677 215.928C34.9677 213.089 32.5842 210.788 29.6439 210.788C26.7036 210.788 24.32 213.089 24.32 215.928C24.32 218.767 26.7036 221.069 29.6439 221.069Z" fill="#E6E6E6"/>
<path d="M21.9056 221.069C24.8459 221.069 27.2295 218.767 27.2295 215.928C27.2295 213.089 24.8459 210.788 21.9056 210.788C18.9653 210.788 16.5817 213.089 16.5817 215.928C16.5817 218.767 18.9653 221.069 21.9056 221.069Z" fill="#E6E6E6"/>
<path d="M48.8587 221.069C51.799 221.069 54.1826 218.767 54.1826 215.928C54.1826 213.089 51.799 210.788 48.8587 210.788C45.9184 210.788 43.5348 213.089 43.5348 215.928C43.5348 218.767 45.9184 221.069 48.8587 221.069Z" fill="#E6E6E6"/>
<path d="M75.8196 221.069C78.7599 221.069 81.1435 218.767 81.1435 215.928C81.1435 213.089 78.7599 210.788 75.8196 210.788C72.8793 210.788 70.4958 213.089 70.4958 215.928C70.4958 218.767 72.8793 221.069 75.8196 221.069Z" fill="#E6E6E6"/>
<path d="M102.745 221.069C105.686 221.069 108.069 218.767 108.069 215.928C108.069 213.089 105.686 210.788 102.745 210.788C99.8051 210.788 97.4215 213.089 97.4215 215.928C97.4215 218.767 99.8051 221.069 102.745 221.069Z" fill="#E6E6E6"/>
<path d="M129.706 221.069C132.647 221.069 135.03 218.767 135.03 215.928C135.03 213.089 132.647 210.788 129.706 210.788C126.766 210.788 124.382 213.089 124.382 215.928C124.382 218.767 126.766 221.069 129.706 221.069Z" fill="#E6E6E6"/>
<path d="M156.648 221.069C159.588 221.069 161.972 218.767 161.972 215.928C161.972 213.089 159.588 210.788 156.648 210.788C153.707 210.788 151.324 213.089 151.324 215.928C151.324 218.767 153.707 221.069 156.648 221.069Z" fill="#E6E6E6"/>
<path d="M183.589 221.069C186.529 221.069 188.913 218.767 188.913 215.928C188.913 213.089 186.529 210.788 183.589 210.788C180.649 210.788 178.265 213.089 178.265 215.928C178.265 218.767 180.649 221.069 183.589 221.069Z" fill="#E6E6E6"/>
<path d="M210.566 221.069C213.506 221.069 215.89 218.767 215.89 215.928C215.89 213.089 213.506 210.788 210.566 210.788C207.625 210.788 205.242 213.089 205.242 215.928C205.242 218.767 207.625 221.069 210.566 221.069Z" fill="#E6E6E6"/>
<path d="M237.507 221.069C240.447 221.069 242.831 218.767 242.831 215.928C242.831 213.089 240.447 210.788 237.507 210.788C234.567 210.788 232.183 213.089 232.183 215.928C232.183 218.767 234.567 221.069 237.507 221.069Z" fill="#E6E6E6"/>
<path d="M29.6439 247.419C32.5842 247.419 34.9677 245.117 34.9677 242.278C34.9677 239.439 32.5842 237.138 29.6439 237.138C26.7036 237.138 24.32 239.439 24.32 242.278C24.32 245.117 26.7036 247.419 29.6439 247.419Z" fill="#E6E6E6"/>
<path d="M21.9056 247.419C24.8459 247.419 27.2295 245.117 27.2295 242.278C27.2295 239.439 24.8459 237.138 21.9056 237.138C18.9653 237.138 16.5817 239.439 16.5817 242.278C16.5817 245.117 18.9653 247.419 21.9056 247.419Z" fill="#E6E6E6"/>
<path d="M48.8587 247.419C51.799 247.419 54.1826 245.117 54.1826 242.278C54.1826 239.439 51.799 237.138 48.8587 237.138C45.9184 237.138 43.5348 239.439 43.5348 242.278C43.5348 245.117 45.9184 247.419 48.8587 247.419Z" fill="#E6E6E6"/>
<path d="M75.8196 247.419C78.7599 247.419 81.1435 245.117 81.1435 242.278C81.1435 239.439 78.7599 237.138 75.8196 237.138C72.8793 237.138 70.4958 239.439 70.4958 242.278C70.4958 245.117 72.8793 247.419 75.8196 247.419Z" fill="#E6E6E6"/>
<path d="M102.745 247.419C105.686 247.419 108.069 245.117 108.069 242.278C108.069 239.439 105.686 237.138 102.745 237.138C99.8051 237.138 97.4215 239.439 97.4215 242.278C97.4215 245.117 99.8051 247.419 102.745 247.419Z" fill="#E6E6E6"/>
<path d="M129.706 247.419C132.647 247.419 135.03 245.117 135.03 242.278C135.03 239.439 132.647 237.138 129.706 237.138C126.766 237.138 124.382 239.439 124.382 242.278C124.382 245.117 126.766 247.419 129.706 247.419Z" fill="#E6E6E6"/>
<path d="M156.648 247.419C159.588 247.419 161.972 245.117 161.972 242.278C161.972 239.439 159.588 237.138 156.648 237.138C153.707 237.138 151.324 239.439 151.324 242.278C151.324 245.117 153.707 247.419 156.648 247.419Z" fill="#E6E6E6"/>
<path d="M183.589 247.419C186.529 247.419 188.913 245.117 188.913 242.278C188.913 239.439 186.529 237.138 183.589 237.138C180.649 237.138 178.265 239.439 178.265 242.278C178.265 245.117 180.649 247.419 183.589 247.419Z" fill="#E6E6E6"/>
<path d="M210.566 247.419C213.506 247.419 215.89 245.117 215.89 242.278C215.89 239.439 213.506 237.138 210.566 237.138C207.625 237.138 205.242 239.439 205.242 242.278C205.242 245.117 207.625 247.419 210.566 247.419Z" fill="#E6E6E6"/>
<path d="M237.507 247.419C240.447 247.419 242.831 245.117 242.831 242.278C242.831 239.439 240.447 237.138 237.507 237.138C234.567 237.138 232.183 239.439 232.183 242.278C232.183 245.117 234.567 247.419 237.507 247.419Z" fill="#E6E6E6"/>
<path d="M186.635 203.998L249.821 97.0883H123.381L60.1286 202.875L123.381 308.663H249.888L313.023 203.073L186.635 203.998Z" fill="#3F3D56"/>
<path d="M328.689 194.096L328.807 193.898L265.554 88.111H265.486L202.3 195.02L328.689 194.096Z" fill="black"/>
<path d="M420.194 92.4507C419.163 91.288 418.648 89.5857 418.648 87.3439C418.648 85.1232 419.163 83.4313 420.194 82.2681C420.725 81.6846 421.386 81.2246 422.127 80.9225C422.868 80.6205 423.67 80.4843 424.474 80.524C425.285 80.4831 426.095 80.6187 426.844 80.9205C427.593 81.2224 428.263 81.6829 428.803 82.2681C429.844 83.4311 430.365 85.123 430.365 87.3439C430.365 89.586 429.845 91.2882 428.803 92.4507C428.263 93.0359 427.593 93.4966 426.844 93.7985C426.095 94.1004 425.285 94.236 424.474 94.1951C423.67 94.2349 422.868 94.0986 422.127 93.7965C421.386 93.4944 420.725 93.0343 420.194 92.4507ZM426.33 90.6437C426.794 89.6045 426.995 88.4732 426.916 87.3439C426.992 86.2284 426.785 85.1117 426.313 84.091C426.138 83.7698 425.873 83.5032 425.547 83.3223C425.221 83.1415 424.849 83.0538 424.474 83.0697C424.105 83.0558 423.741 83.1447 423.423 83.3259C423.106 83.507 422.849 83.7726 422.684 84.091C422.224 85.1149 422.023 86.23 422.098 87.3439C422.021 88.4679 422.222 89.5935 422.684 90.6278C422.849 90.9463 423.106 91.2121 423.423 91.3933C423.741 91.5745 424.105 91.6634 424.474 91.6494C424.85 91.6702 425.225 91.5866 425.554 91.4084C425.883 91.2302 426.152 90.9649 426.33 90.6437V90.6437ZM424.247 103.215L437.656 80.8383H441.269L427.827 103.215H424.247ZM436.696 101.691C435.665 100.528 435.15 98.8148 435.15 96.552C435.15 94.3316 435.665 92.645 436.696 91.4921C437.262 90.9443 437.934 90.5096 438.674 90.2131C439.414 89.9165 440.207 89.7638 441.009 89.7638C441.81 89.7638 442.603 89.9165 443.343 90.2131C444.083 90.5096 444.755 90.9443 445.321 91.4921C446.351 92.6447 446.867 94.3418 446.867 96.5835C446.867 98.8256 446.352 100.528 445.321 101.691C444.758 102.243 444.087 102.682 443.346 102.981C442.606 103.281 441.811 103.435 441.009 103.435C440.206 103.435 439.411 103.281 438.671 102.981C437.931 102.682 437.259 102.243 436.696 101.691ZM442.831 99.8677C443.293 98.8332 443.494 97.7077 443.417 96.5835C443.493 95.4681 443.287 94.3516 442.815 93.3308C442.633 93.0207 442.369 92.7628 442.05 92.5833C441.732 92.4038 441.369 92.3093 441 92.3093C440.631 92.3093 440.269 92.4038 439.95 92.5833C439.631 92.7628 439.367 93.0207 439.186 93.3308C438.726 94.3548 438.525 95.4698 438.6 96.5835C438.523 97.7076 438.724 98.8331 439.186 99.8677C439.369 100.178 439.634 100.436 439.955 100.615C440.275 100.795 440.638 100.889 441.008 100.889C441.378 100.889 441.742 100.795 442.062 100.615C442.382 100.436 442.647 100.178 442.831 99.8677V99.8677Z" fill="#3F3D56"/>
<path d="M1.54577 285.475C0.515031 284.312 -0.000335693 282.61 -0.000335693 280.368C-0.000335693 278.147 0.515031 276.455 1.54577 275.292C2.0767 274.708 2.73746 274.248 3.47858 273.946C4.2197 273.644 5.02198 273.508 5.82536 273.548C6.63622 273.507 7.44624 273.643 8.1956 273.944C8.94496 274.246 9.61454 274.707 10.1549 275.292C11.1959 276.455 11.7165 278.147 11.7169 280.368C11.7169 282.61 11.1962 284.312 10.1549 285.475C9.6146 286.06 8.94504 286.52 8.19567 286.822C7.44629 287.124 6.63625 287.26 5.82536 287.219C5.02195 287.259 4.21965 287.122 3.47852 286.82C2.73739 286.518 2.07664 286.058 1.54577 285.475V285.475ZM7.68137 283.668C8.14587 282.628 8.34669 281.497 8.26713 280.368C8.3436 279.252 8.13668 278.136 7.66435 277.115C7.4898 276.794 7.22418 276.527 6.89854 276.346C6.57289 276.165 6.20068 276.078 5.82537 276.094C5.45696 276.08 5.09222 276.169 4.77482 276.35C4.45743 276.531 4.20083 276.797 4.03577 277.115C3.57556 278.139 3.37458 279.254 3.44946 280.368C3.37285 281.492 3.5738 282.617 4.03577 283.652C4.20067 283.97 4.45722 284.236 4.77465 284.417C5.09207 284.598 5.45691 284.687 5.82537 284.673C6.20187 284.694 6.57667 284.611 6.90554 284.432C7.23441 284.254 7.50362 283.989 7.68137 283.668V283.668ZM5.59834 296.239L19.0075 273.862H22.6202L9.17809 296.239H5.59834ZM18.0477 294.714C17.0165 293.551 16.5011 291.839 16.5016 289.576C16.5016 287.355 17.017 285.669 18.0477 284.516C18.6135 283.968 19.2856 283.534 20.0257 283.237C20.7657 282.94 21.559 282.788 22.3603 282.788C23.1615 282.788 23.9548 282.94 24.6949 283.237C25.4349 283.534 26.107 283.968 26.6728 284.516C27.703 285.669 28.2183 287.366 28.2189 289.607C28.2189 291.849 27.7035 293.552 26.6728 294.714C26.1097 295.267 25.4384 295.706 24.698 296.005C23.9577 296.304 23.163 296.459 22.3603 296.459C21.5576 296.459 20.7629 296.304 20.0225 296.005C19.2821 295.706 18.6108 295.267 18.0477 294.714V294.714ZM24.1822 292.892C24.6442 291.857 24.8451 290.732 24.7685 289.607C24.8449 288.492 24.6382 287.376 24.1663 286.355C23.9846 286.045 23.7208 285.787 23.402 285.607C23.0832 285.428 22.7208 285.333 22.3517 285.333C21.9827 285.333 21.6203 285.428 21.3015 285.607C20.9827 285.787 20.719 286.045 20.5372 286.355C20.0774 287.379 19.8767 288.494 19.9514 289.607C19.875 290.731 20.0758 291.857 20.5372 292.892C20.7208 293.202 20.986 293.46 21.3061 293.639C21.6262 293.818 21.9896 293.913 22.3597 293.913C22.7298 293.913 23.0932 293.818 23.4133 293.639C23.7334 293.46 23.9986 293.202 24.1822 292.892V292.892Z" fill="#3F3D56"/>
<path d="M268.756 156.65L267.937 156.44L285.796 91.5715H389.382V92.3892H286.447L268.756 156.65Z" fill="black"/>
<path d="M397.852 100.56C396.094 100.56 394.376 100.057 392.914 99.114C391.453 98.1711 390.314 96.8309 389.641 95.2629C388.968 93.6948 388.792 91.9694 389.135 90.3048C389.478 88.6401 390.325 87.1111 391.568 85.911C392.81 84.7109 394.394 83.8936 396.118 83.5624C397.842 83.2313 399.629 83.4013 401.253 84.0508C402.877 84.7003 404.265 85.8002 405.241 87.2114C406.218 88.6226 406.739 90.2817 406.739 91.9789C406.736 94.254 405.799 96.4352 404.133 98.044C402.467 99.6527 400.208 100.558 397.852 100.56V100.56ZM397.852 84.2149C396.261 84.2148 394.707 84.6702 393.385 85.5233C392.062 86.3764 391.032 87.589 390.423 89.0077C389.814 90.4264 389.655 91.9875 389.965 93.4936C390.276 94.9997 391.041 96.3831 392.166 97.4689C393.291 98.5548 394.723 99.2942 396.283 99.5938C397.843 99.8934 399.46 99.7396 400.929 99.152C402.398 98.5643 403.654 97.5692 404.537 96.2924C405.421 95.0156 405.893 93.5145 405.893 91.9789C405.89 89.9205 405.042 87.947 403.535 86.4915C402.027 85.0359 399.984 84.2172 397.852 84.2149V84.2149Z" fill="black"/>
<path d="M397.85 95.2453C399.72 95.2453 401.236 93.7817 401.236 91.9762C401.236 90.1707 399.72 88.7071 397.85 88.7071C395.98 88.7071 394.465 90.1707 394.465 91.9762C394.465 93.7817 395.98 95.2453 397.85 95.2453Z" fill="black"/>
<path d="M137.973 220.331L138.792 220.541L120.933 285.409H17.3473V284.592H120.282L137.973 220.331Z" fill="black"/>
<path d="M43.5571 288.271C45.427 288.271 46.9427 286.808 46.9427 285.002C46.9427 283.197 45.427 281.733 43.5571 281.733C41.6873 281.733 40.1715 283.197 40.1715 285.002C40.1715 286.808 41.6873 288.271 43.5571 288.271Z" fill="black"/>
<path d="M474.936 414.377H462.086V431.253H474.936V414.377Z" fill="#A0616A"/>
<path d="M540.194 414.377H527.343V431.253H540.194V414.377Z" fill="#A0616A"/>
<path d="M549.113 274.411C548.012 274.411 546.924 274.181 545.924 273.736C544.923 273.291 544.035 272.642 543.319 271.834C542.603 271.026 542.077 270.078 541.777 269.055C541.476 268.032 541.409 266.958 541.58 265.907L543.685 252.951L544.311 249.098H554.077L554.591 254.558L556.625 265.779C556.817 266.837 556.766 267.923 556.477 268.961C556.188 269.998 555.668 270.962 554.952 271.785C554.236 272.607 553.343 273.269 552.334 273.722C551.325 274.176 550.226 274.411 549.113 274.411Z" fill="#A0616A"/>
<path d="M453.5 272.926C452.399 272.926 451.311 272.695 450.31 272.25C449.31 271.805 448.421 271.157 447.705 270.348C446.989 269.54 446.463 268.592 446.163 267.569C445.863 266.546 445.796 265.472 445.967 264.421L448.072 251.465L448.697 247.612H458.464L458.978 253.072L461.012 264.293C461.204 265.351 461.153 266.437 460.864 267.475C460.575 268.512 460.054 269.476 459.339 270.299C458.623 271.122 457.729 271.783 456.721 272.237C455.712 272.69 454.613 272.926 453.5 272.926V272.926Z" fill="#A0616A"/>
<path d="M541.735 417.854L526.315 417.357L501.128 270.442L475.94 417.854L461.034 417.357L456.922 247.61H543.278L541.735 417.854Z" fill="black"/>
<path d="M474.607 442.974C461.523 443.339 451.282 439.924 444.567 431.816C443.861 430.963 443.442 429.921 443.367 428.831C443.292 427.741 443.564 426.655 444.147 425.718C444.696 424.835 445.497 424.123 446.455 423.668C447.413 423.213 448.486 423.035 449.546 423.155L453.797 423.635L462.651 419.363C460.839 429.532 465.766 429.724 477.549 426.315L479.672 436.821C479.822 437.554 479.805 438.31 479.622 439.037C479.439 439.763 479.094 440.442 478.613 441.028C478.131 441.613 477.523 442.09 476.831 442.426C476.14 442.762 475.381 442.949 474.607 442.974Z" fill="black"/>
<path d="M539.896 442.973C526.813 443.339 516.571 439.923 509.856 431.816C509.15 430.962 508.731 429.921 508.656 428.83C508.581 427.74 508.853 426.654 509.436 425.718V425.718C509.985 424.834 510.786 424.122 511.744 423.668C512.702 423.213 513.775 423.035 514.835 423.154L519.086 423.634L527.873 420.055C526.062 430.224 531.055 429.723 542.838 426.315L544.961 436.82C545.111 437.554 545.094 438.31 544.911 439.036C544.728 439.763 544.383 440.442 543.902 441.027C543.42 441.613 542.812 442.09 542.121 442.426C541.429 442.762 540.67 442.948 539.896 442.973Z" fill="black"/>
<path d="M496.002 92.2577C507.358 92.2577 516.563 83.369 516.563 72.4043C516.563 61.4395 507.358 52.5508 496.002 52.5508C484.647 52.5508 475.441 61.4395 475.441 72.4043C475.441 83.369 484.647 92.2577 496.002 92.2577Z" fill="#A0616A"/>
<path d="M516.561 108.638L494.457 109.631L493.429 87.2954L512.449 80.3469L516.561 108.638Z" fill="#A0616A"/>
<path d="M548.427 254.563C518.286 249.056 483.945 247.083 461.043 254.563L468.239 108.64L492.398 101.691L494.197 98.9615L514.501 95.7353L524.268 98.7133L530.436 107.647L557.166 122.041C544.008 171.186 540.111 215.838 548.427 254.563Z" fill="black"/>
<path d="M562.822 253.57L540.718 251.088C545.326 229.414 543.441 201.221 544.574 172.915C545.292 154.963 549.148 138.625 550.485 118.566C558.868 120.677 563.208 128.193 563.258 137.051C563.494 179.061 567.604 218.425 562.822 253.57Z" fill="black"/>
<path d="M466.71 251.58L445.121 250.091L457.971 179.611L462.322 120.961C461.645 112.408 466.379 107.438 473.392 107.146C488.711 124.662 490.487 148.802 485.729 176.137L466.71 251.58Z" fill="black"/>
<path d="M502.678 86.9996L500.027 79.711C498.539 75.6216 495.928 71.9996 492.472 69.2327C489.017 66.4658 484.848 64.6581 480.41 64.0029V64.0029L463.793 63.635L468.407 56.4755C470.632 53.0229 473.814 50.2411 477.592 48.4452C481.371 46.6493 485.595 45.9113 489.785 46.3146L506.393 47.9131C510.347 48.2937 513.984 50.1691 516.511 53.1299C519.038 56.0907 520.249 59.8966 519.88 63.7166L518.357 79.4879C518.194 81.1738 517.588 82.7916 516.595 84.1875C515.603 85.5835 514.257 86.7114 512.686 87.464C511.115 88.2166 509.371 88.569 507.62 88.4877C505.868 88.4064 504.167 87.8941 502.678 86.9996V86.9996Z" fill="black"/>
</svg>
