<svg width="25" height="25" viewBox="0 0 25 25" fill="none" xmlns="http://www.w3.org/2000/svg">
<path d="M13.0667 4.06694H6.06665C5.53622 4.06694 5.02751 4.27765 4.65244 4.65273C4.27736 5.0278 4.06665 5.53651 4.06665 6.06694V18.0669C4.06665 18.5974 4.27736 19.1061 4.65244 19.4812C5.02751 19.8562 5.53622 20.0669 6.06665 20.0669H13.0667M17.0667 4.06694H18.0667C18.5971 4.06694 19.1058 4.27765 19.4809 4.65273C19.8559 5.0278 20.0667 5.53651 20.0667 6.06694V7.06694M20.0667 17.0669V18.0669C20.0667 18.5974 19.8559 19.1061 19.4809 19.4812C19.1058 19.8562 18.5971 20.0669 18.0667 20.0669H17.0667M20.0667 11.0669V13.0669M12.0667 2.06694V22.0669" stroke="black" stroke-linecap="round" stroke-linejoin="round"/>
</svg>
