<svg width="25" height="25" viewBox="0 0 25 25" fill="none" xmlns="http://www.w3.org/2000/svg">
<path d="M20.6917 3.81696C20.6917 3.91641 20.6521 4.01179 20.5818 4.08212C20.5115 4.15245 20.4161 4.19196 20.3167 4.19196H3.81665C3.71719 4.19196 3.62181 4.15245 3.55149 4.08212C3.48116 4.01179 3.44165 3.91641 3.44165 3.81696C3.44165 3.7175 3.48116 3.62212 3.55149 3.55179C3.62181 3.48146 3.71719 3.44196 3.81665 3.44196H20.3167C20.4161 3.44196 20.5115 3.48146 20.5818 3.55179C20.6521 3.62212 20.6917 3.7175 20.6917 3.81696ZM19.1917 7.56696V16.567C19.1917 16.8653 19.0731 17.1515 18.8621 17.3624C18.6512 17.5734 18.365 17.692 18.0667 17.692H14.3167C14.0183 17.692 13.7321 17.5734 13.5212 17.3624C13.3102 17.1515 13.1917 16.8653 13.1917 16.567V7.56696C13.1917 7.26859 13.3102 6.98244 13.5212 6.77146C13.7321 6.56048 14.0183 6.44196 14.3167 6.44196H18.0667C18.365 6.44196 18.6512 6.56048 18.8621 6.77146C19.0731 6.98244 19.1917 7.26859 19.1917 7.56696ZM18.4417 7.56696C18.4417 7.4675 18.4021 7.37212 18.3318 7.30179C18.2615 7.23146 18.1661 7.19196 18.0667 7.19196H14.3167C14.2172 7.19196 14.1218 7.23146 14.0515 7.30179C13.9812 7.37212 13.9417 7.4675 13.9417 7.56696V16.567C13.9417 16.6664 13.9812 16.7618 14.0515 16.8321C14.1218 16.9024 14.2172 16.942 14.3167 16.942H18.0667C18.1661 16.942 18.2615 16.9024 18.3318 16.8321C18.4021 16.7618 18.4417 16.6664 18.4417 16.567V7.56696ZM10.9417 7.56696V20.317C10.9417 20.6153 10.8231 20.9015 10.6121 21.1124C10.4012 21.3234 10.115 21.442 9.81665 21.442H6.06665C5.76828 21.442 5.48213 21.3234 5.27116 21.1124C5.06018 20.9015 4.94165 20.6153 4.94165 20.317V7.56696C4.94165 7.26859 5.06018 6.98244 5.27116 6.77146C5.48213 6.56048 5.76828 6.44196 6.06665 6.44196H9.81665C10.115 6.44196 10.4012 6.56048 10.6121 6.77146C10.8231 6.98244 10.9417 7.26859 10.9417 7.56696ZM10.1917 7.56696C10.1917 7.4675 10.1521 7.37212 10.0818 7.30179C10.0115 7.23146 9.91611 7.19196 9.81665 7.19196H6.06665C5.96719 7.19196 5.87181 7.23146 5.80149 7.30179C5.73116 7.37212 5.69165 7.4675 5.69165 7.56696V20.317C5.69165 20.4164 5.73116 20.5118 5.80149 20.5821C5.87181 20.6524 5.96719 20.692 6.06665 20.692H9.81665C9.91611 20.692 10.0115 20.6524 10.0818 20.5821C10.1521 20.5118 10.1917 20.4164 10.1917 20.317V7.56696Z" fill="black"/>
</svg>
