<svg width="25" height="25" viewBox="0 0 25 25" fill="none" xmlns="http://www.w3.org/2000/svg">
<path d="M18.5266 10.972C18.0665 10.9728 17.6112 11.0652 17.1872 11.2438C16.7631 11.4223 16.3788 11.6835 16.0566 12.012C16.0473 11.6785 15.9656 11.351 15.8171 11.0523C15.6686 10.7535 15.4569 10.4907 15.1966 10.282C15.4657 10.07 15.6829 9.79952 15.8319 9.49112C15.9809 9.18272 16.0577 8.84446 16.0566 8.50195C16.0572 7.89618 15.8174 7.31491 15.39 6.88562C14.9626 6.45634 14.3824 6.21407 13.7766 6.21195H4.41664C3.94248 6.21064 3.47966 6.35693 3.0924 6.63053C2.70513 6.90413 2.41262 7.29148 2.25544 7.73883C2.09827 8.18618 2.08421 8.67137 2.21524 9.12707C2.34626 9.58277 2.61586 9.9864 2.98664 10.282C2.7183 10.4957 2.50159 10.7672 2.35265 11.0762C2.20371 11.3852 2.12636 11.7239 2.12636 12.067C2.12636 12.41 2.20371 12.7487 2.35265 13.0577C2.50159 13.3667 2.7183 13.6382 2.98664 13.852C2.6157 14.1466 2.34589 14.5495 2.21476 15.0047C2.08364 15.4599 2.09775 15.9447 2.25512 16.3914C2.41248 16.8382 2.70528 17.2248 3.09272 17.4974C3.48016 17.7699 3.94295 17.9148 4.41664 17.912H13.7766C14.2065 17.9119 14.6276 17.7909 14.9919 17.5628C15.3562 17.3347 15.6489 17.0086 15.8366 16.622C16.1581 17.0273 16.5671 17.3547 17.0329 17.5798C17.4987 17.8049 18.0093 17.9219 18.5266 17.922C18.983 17.922 19.4349 17.8321 19.8565 17.6574C20.2781 17.4828 20.6612 17.2268 20.9838 16.9042C21.3065 16.5815 21.5625 16.1984 21.7371 15.7768C21.9118 15.3552 22.0016 14.9033 22.0016 14.447C22.0016 13.9906 21.9118 13.5387 21.7371 13.1171C21.5625 12.6955 21.3065 12.3124 20.9838 11.9898C20.6612 11.6671 20.2781 11.4111 19.8565 11.2365C19.4349 11.0618 18.983 10.972 18.5266 10.972ZM13.7766 16.912H4.41664C4.07716 16.912 3.75159 16.7771 3.51154 16.5371C3.2715 16.297 3.13664 15.9714 3.13664 15.632C3.13664 15.2925 3.2715 14.9669 3.51154 14.7269C3.75159 14.4868 4.07716 14.352 4.41664 14.352H13.7766C14.1161 14.352 14.4417 14.4868 14.6817 14.7269C14.9218 14.9669 15.0566 15.2925 15.0566 15.632C15.0566 15.9714 14.9218 16.297 14.6817 16.5371C14.4417 16.7771 14.1161 16.912 13.7766 16.912ZM13.7766 13.352H4.41664C4.07584 13.352 3.74899 13.2166 3.50801 12.9756C3.26702 12.7346 3.13164 12.4078 3.13164 12.067C3.13164 11.7262 3.26702 11.3993 3.50801 11.1583C3.74899 10.9173 4.07584 10.782 4.41664 10.782H13.7766C14.1174 10.782 14.4443 10.9173 14.6853 11.1583C14.9263 11.3993 15.0616 11.7262 15.0616 12.067C15.0616 12.4078 14.9263 12.7346 14.6853 12.9756C14.4443 13.2166 14.1174 13.352 13.7766 13.352ZM13.7766 9.78195H4.41664C4.24789 9.78195 4.0808 9.74872 3.92489 9.68414C3.76899 9.61956 3.62733 9.52491 3.50801 9.40559C3.38868 9.28626 3.29403 9.1446 3.22946 8.9887C3.16488 8.8328 3.13164 8.6657 3.13164 8.49695C3.13164 8.32821 3.16488 8.16111 3.22946 8.00521C3.29403 7.8493 3.38868 7.70764 3.50801 7.58832C3.62733 7.469 3.76899 7.37435 3.92489 7.30977C4.0808 7.24519 4.24789 7.21195 4.41664 7.21195H13.7766C14.1174 7.21195 14.4443 7.34734 14.6853 7.58832C14.9263 7.82931 15.0616 8.15615 15.0616 8.49695C15.0616 8.83776 14.9263 9.1646 14.6853 9.40559C14.4443 9.64657 14.1174 9.78195 13.7766 9.78195ZM18.5266 16.922C18.0376 16.921 17.5597 16.7751 17.1535 16.5028C16.7472 16.2304 16.4308 15.8438 16.2441 15.3918C16.0574 14.9397 16.0088 14.4425 16.1044 13.9629C16.2001 13.4832 16.4357 13.0427 16.7816 12.6969C17.1274 12.351 17.5679 12.1154 18.0476 12.0198C18.5272 11.9241 19.0244 11.9727 19.4765 12.1594C19.9285 12.3461 20.3151 12.6626 20.5874 13.0688C20.8598 13.475 21.0057 13.9529 21.0066 14.442C21.007 14.7677 20.9432 15.0904 20.8187 15.3915C20.6942 15.6925 20.5115 15.9661 20.2811 16.1965C20.0508 16.4268 19.7772 16.6095 19.4762 16.734C19.1751 16.8585 18.8524 16.9223 18.5266 16.922Z" fill="black"/>
</svg>
