<svg width="36" height="36" viewBox="0 0 36 36" fill="none" xmlns="http://www.w3.org/2000/svg">
<g clip-path="url(#clip0_821_5733)">
<path d="M9.81684 0.876545C9.90943 0.875939 10.002 0.875334 10.0974 0.874709C10.3492 0.87314 10.601 0.873332 10.8527 0.873959C11.064 0.87432 11.2752 0.873803 11.4864 0.873293C11.9853 0.872101 12.4841 0.872344 12.983 0.873524C13.4953 0.874713 14.0076 0.873601 14.5199 0.871329C14.9619 0.869444 15.404 0.868942 15.846 0.869537C16.109 0.869881 16.3721 0.86974 16.6351 0.868286C16.8827 0.866983 17.1303 0.867429 17.3779 0.869144C17.5105 0.869656 17.6431 0.868461 17.7756 0.867188C18.6992 0.877308 19.5345 1.20879 20.206 1.84597C21.1429 2.83073 21.2686 3.9202 21.2475 5.22069C21.2464 5.33541 21.2454 5.45012 21.2446 5.56484C21.2423 5.84273 21.2386 6.12057 21.2343 6.39843C21.3401 6.39773 21.3401 6.39773 21.4481 6.39701C22.1133 6.39273 22.7786 6.38957 23.4438 6.3875C23.7858 6.3864 24.1278 6.38491 24.4698 6.38251C24.7998 6.38022 25.1299 6.37896 25.46 6.37842C25.5859 6.37803 25.7118 6.37726 25.8377 6.37613C26.0141 6.37459 26.1904 6.37438 26.3669 6.37448C26.4189 6.37372 26.4708 6.37296 26.5244 6.37218C26.8351 6.37404 27.0409 6.40681 27.2811 6.60937C27.4131 6.8498 27.4391 7.05203 27.4377 7.32356C27.4377 7.39392 27.4377 7.46428 27.4377 7.53677C27.437 7.61186 27.4363 7.68694 27.4355 7.7643C27.4352 7.88061 27.4352 7.88061 27.4349 7.99926C27.4341 8.24642 27.4324 8.49356 27.4306 8.74071C27.4299 8.90848 27.4292 9.07625 27.4286 9.24402C27.4271 9.65487 27.4247 10.0657 27.4218 10.4766C27.5544 10.4919 27.5544 10.4919 27.6898 10.5076C28.714 10.626 29.6558 11.3286 30.3046 12.0937C30.9781 12.9576 31.3644 13.9415 31.3706 15.0463C31.371 15.0936 31.3713 15.1409 31.3717 15.1896C31.3727 15.345 31.3732 15.5004 31.3736 15.6558C31.3738 15.7093 31.374 15.7629 31.3742 15.8181C31.3752 16.1018 31.3759 16.3855 31.3762 16.6692C31.3765 16.9598 31.3782 17.2504 31.3802 17.541C31.3816 17.7665 31.3819 17.9921 31.382 18.2176C31.3822 18.3246 31.3828 18.4316 31.3837 18.5386C31.3908 19.4106 31.3088 20.2429 30.8978 21.0278C30.8617 21.0982 30.8617 21.0982 30.8248 21.1699C30.4415 21.8854 29.9211 22.4614 29.2499 22.9219C29.3341 22.9559 29.4183 22.99 29.5051 23.0251C32.1171 24.0946 34.2535 25.7889 35.4012 28.4384C35.7482 29.2794 36.0034 30.2329 36.0123 31.1443C36.0132 31.225 36.0141 31.3058 36.0151 31.3889C36.0159 31.5181 36.0159 31.5181 36.0167 31.65C36.0172 31.7392 36.0178 31.8285 36.0184 31.9204C36.0193 32.1087 36.0201 32.297 36.0207 32.4853C36.0214 32.7263 36.0239 32.9673 36.0266 33.2083C36.0289 33.4388 36.0292 33.6694 36.0298 33.9C36.0311 33.9864 36.0323 34.0728 36.0336 34.1619C36.0334 34.2421 36.0332 34.3224 36.0329 34.4051C36.0334 34.4756 36.0338 34.5462 36.0342 34.6189C35.9874 34.8726 35.9299 34.9353 35.7186 35.0859C35.4762 35.1288 35.2357 35.1238 34.99 35.1216C34.8776 35.1223 34.8775 35.1223 34.7628 35.123C34.5107 35.1241 34.2587 35.1232 34.0066 35.1223C33.8262 35.1227 33.6458 35.1232 33.4654 35.1238C33.0258 35.125 32.5862 35.1248 32.1466 35.124C31.7894 35.1233 31.4322 35.1233 31.075 35.1236C30.9988 35.1236 30.9988 35.1236 30.921 35.1237C30.8178 35.1238 30.7146 35.1239 30.6113 35.124C29.6431 35.1248 28.6749 35.1238 27.7066 35.1223C26.8756 35.1211 26.0445 35.1213 25.2135 35.1226C24.2488 35.1241 23.284 35.1247 22.3193 35.1238C22.2164 35.1237 22.1136 35.1237 22.0108 35.1236C21.9601 35.1235 21.9095 35.1235 21.8574 35.1234C21.5006 35.1232 21.1437 35.1236 20.7869 35.1243C20.3067 35.1251 19.8265 35.1245 19.3464 35.1229C19.1699 35.1225 18.9933 35.1226 18.8168 35.1232C18.5764 35.124 18.3361 35.1231 18.0957 35.1216C17.9901 35.1226 17.9901 35.1226 17.8824 35.1235C17.4122 35.1182 17.4122 35.1182 17.1831 34.9544C17.0587 34.763 17.0506 34.6428 17.0506 34.4151C17.0499 34.3369 17.0492 34.2587 17.0486 34.1781C17.0494 34.0937 17.0501 34.0092 17.051 33.9222C17.0509 33.8346 17.0507 33.747 17.0506 33.6567C17.0508 33.4708 17.0514 33.2849 17.053 33.099C17.0554 32.8177 17.0545 32.5365 17.0536 32.2552C17.0543 31.3724 17.0561 30.5259 17.2968 29.6719C17.3104 29.617 17.324 29.5622 17.338 29.5056C17.6298 28.3613 18.2058 27.3059 18.914 26.3672C18.8748 26.3671 18.8357 26.3671 18.7953 26.3671C16.4761 26.3645 14.1569 26.3605 11.8377 26.3547C11.5593 26.354 11.2809 26.3533 11.0025 26.3526C10.9471 26.3525 10.8917 26.3523 10.8346 26.3522C9.93682 26.35 9.03907 26.3488 8.14132 26.348C7.22037 26.3471 6.29942 26.3452 5.37846 26.3422C4.81004 26.3405 4.24162 26.3395 3.67319 26.3397C3.23755 26.3397 2.80193 26.3382 2.3663 26.3362C2.18742 26.3356 2.00853 26.3354 1.82965 26.3358C1.58589 26.3363 1.3422 26.335 1.09844 26.3334C1.02724 26.3339 0.956038 26.3344 0.882679 26.335C0.599536 26.3315 0.393375 26.315 0.131724 26.2019C-0.0800921 25.9026 -0.0480397 25.607 -0.0437984 25.2491C-0.0442476 25.1701 -0.044697 25.091 -0.0451598 25.0096C-0.046236 24.7437 -0.0447905 24.4779 -0.0433606 24.2121C-0.0434124 24.0219 -0.0439906 23.8317 -0.0445429 23.6415C-0.0455651 23.1779 -0.044703 22.7144 -0.0431986 22.2509C-0.0415118 21.7113 -0.0416316 21.1718 -0.0418146 20.6322C-0.0420741 19.6697 -0.0406086 18.7073 -0.0382108 17.7448C-0.0358835 16.8103 -0.034888 15.8758 -0.0353269 14.9413C-0.0358022 13.9243 -0.0356298 12.9072 -0.0342465 11.8901C-0.0341734 11.8363 -0.0341008 11.7826 -0.0340255 11.7272C-0.0338784 11.6192 -0.0337301 11.5113 -0.0335802 11.4033C-0.0330949 11.027 -0.0330483 10.6506 -0.03315 10.2743C-0.0332511 9.81593 -0.0325718 9.35754 -0.0309034 8.89915C-0.030068 8.66515 -0.0296824 8.43117 -0.0299785 8.19716C-0.0302381 7.94383 -0.0292082 7.69054 -0.0278338 7.43722C-0.0282085 7.36279 -0.028583 7.28836 -0.028969 7.21168C-0.0283322 7.14408 -0.0276949 7.07647 -0.0270388 7.00682C-0.0269284 6.94832 -0.0268179 6.88981 -0.0267041 6.82954C0.0064573 6.64273 0.061593 6.58283 0.210836 6.46874C0.467165 6.3833 0.701751 6.38916 0.968532 6.39045C1.0519 6.39043 1.0519 6.39043 1.13696 6.39041C1.32071 6.39046 1.50447 6.39101 1.68822 6.39156C1.81561 6.39169 1.943 6.39179 2.07039 6.39186C2.40572 6.39213 2.74105 6.39282 3.07639 6.3936C3.41855 6.39432 3.76072 6.39464 4.10288 6.39499C4.77428 6.39575 5.44568 6.39695 6.11709 6.39843C6.11598 6.3283 6.11488 6.25817 6.11374 6.18591C6.10987 5.92173 6.10748 5.65755 6.1055 5.39335C6.10445 5.27975 6.10302 5.16616 6.10117 5.05257C6.08081 3.76478 6.2977 2.73924 7.21297 1.77346C7.95548 1.08982 8.83209 0.871282 9.81684 0.876545ZM9.35146 4.14843C8.97773 4.70298 8.97773 4.70298 9.14052 6.39843C12.1337 6.39843 15.1269 6.39843 18.2108 6.39843C18.3863 4.67875 18.3863 4.67875 17.9296 4.07812C17.6088 3.79332 17.2348 3.83696 16.8284 3.83877C16.7529 3.83829 16.6774 3.8378 16.5996 3.83731C16.3501 3.83602 16.1007 3.83629 15.8512 3.83669C15.6778 3.83637 15.5043 3.836 15.3308 3.83557C14.9673 3.83495 14.6037 3.83512 14.2402 3.83582C13.7743 3.83662 13.3084 3.8352 12.8426 3.83315C12.4843 3.83186 12.1261 3.83188 11.7679 3.83228C11.5961 3.83229 11.4244 3.83187 11.2526 3.83099C11.0124 3.82995 10.7723 3.8307 10.5321 3.8319C10.4612 3.83122 10.3903 3.83054 10.3172 3.82984C9.91481 3.83407 9.66231 3.86626 9.35146 4.14843Z" fill="#465A64"/>
<path d="M9.81677 0.876545C9.90937 0.875939 10.002 0.875334 10.0974 0.874709C10.3492 0.87314 10.6009 0.873332 10.8527 0.873959C11.0639 0.87432 11.2751 0.873803 11.4864 0.873293C11.9852 0.872101 12.4841 0.872344 12.9829 0.873524C13.4953 0.874713 14.0075 0.873601 14.5199 0.871329C14.9619 0.869444 15.4039 0.868942 15.8459 0.869537C16.109 0.869881 16.372 0.86974 16.6351 0.868286C16.8827 0.866983 17.1302 0.867429 17.3778 0.869144C17.5104 0.869656 17.643 0.868461 17.7756 0.867188C18.6991 0.877308 19.5345 1.20879 20.2059 1.84597C21.1429 2.83073 21.2685 3.9202 21.2474 5.22069C21.2463 5.33541 21.2454 5.45012 21.2445 5.56484C21.2422 5.84273 21.2386 6.12057 21.2342 6.39843C21.3401 6.39773 21.3401 6.39773 21.4481 6.39701C22.1133 6.39273 22.7785 6.38957 23.4437 6.3875C23.7857 6.3864 24.1277 6.38491 24.4697 6.38251C24.7998 6.38022 25.1298 6.37896 25.4599 6.37842C25.5858 6.37803 25.7117 6.37726 25.8376 6.37613C26.014 6.37459 26.1904 6.37438 26.3668 6.37448C26.4188 6.37372 26.4708 6.37296 26.5244 6.37218C26.8351 6.37404 27.0408 6.40681 27.2811 6.60937C27.4131 6.8498 27.4391 7.05203 27.4377 7.32356C27.4377 7.39392 27.4377 7.46428 27.4376 7.53677C27.4369 7.61186 27.4362 7.68694 27.4354 7.7643C27.4351 7.88061 27.4351 7.88061 27.4348 7.99926C27.4341 8.24642 27.4323 8.49356 27.4305 8.74071C27.4298 8.90848 27.4292 9.07625 27.4286 9.24402C27.427 9.65487 27.4247 10.0657 27.4217 10.4766C27.5544 10.4919 27.5544 10.4919 27.6897 10.5076C28.714 10.626 29.6557 11.3286 30.3045 12.0937C31.0015 12.9878 31.3741 13.9929 31.3661 15.1342C31.3659 15.2152 31.3659 15.2152 31.3658 15.2979C31.3654 15.4691 31.3645 15.6403 31.3636 15.8115C31.3633 15.9282 31.3629 16.0448 31.3626 16.1614C31.3619 16.4462 31.3607 16.7309 31.3592 17.0156C31.1687 17.0187 30.9782 17.021 30.7876 17.0228C30.7341 17.0237 30.6806 17.0247 30.6255 17.0257C30.1667 17.0289 29.8022 16.9422 29.3905 16.7344C29.3315 16.7054 29.2726 16.6764 29.2119 16.6465C28.47 16.2422 27.6892 15.5053 27.444 14.6728C27.4366 14.6338 27.4293 14.5948 27.4217 14.5547C27.3753 14.5547 27.3289 14.5547 27.2811 14.5547C27.2663 14.6035 27.2515 14.6524 27.2363 14.7027C26.7735 15.6855 25.6064 16.2917 24.64 16.6553C23.6595 17.0036 22.758 17.034 21.7264 17.0156C21.7264 17.1548 21.7264 17.2941 21.7264 17.4375C21.5176 17.4375 21.3087 17.4375 21.0936 17.4375C21.0977 17.4902 21.1017 17.543 21.1059 17.5973C21.1298 18.1392 21.0695 18.5419 20.742 18.9844C20.3592 19.3564 19.9584 19.5662 19.4193 19.5732C18.9421 19.5627 18.6357 19.4645 18.2855 19.139C17.7665 18.5822 17.7186 18.2309 17.7186 17.4375C14.679 17.4375 11.6394 17.4375 8.50765 17.4375C8.50765 17.6463 8.50765 17.8551 8.50765 18.0703C8.39717 18.6042 8.17187 19.0084 7.73421 19.3359C7.29805 19.6063 6.83096 19.6114 6.32796 19.5469C5.79031 19.3624 5.46831 19.0273 5.22054 18.5229C5.06797 18.1034 5.05367 17.7391 5.06234 17.2969C4.99178 17.2838 4.99178 17.2838 4.91979 17.2705C3.29184 16.9209 1.90059 15.9107 0.993826 14.5209C0.390986 13.5538 -0.00535486 12.4422 -0.0114913 11.2968C-0.0118404 11.247 -0.0121895 11.1972 -0.0125492 11.1459C-0.0135693 10.9826 -0.0140539 10.8192 -0.0144439 10.6559C-0.0148486 10.5419 -0.0152535 10.428 -0.0156584 10.314C-0.0163949 10.0758 -0.0168074 9.83752 -0.0170531 9.59928C-0.0174403 9.29379 -0.0191338 8.98833 -0.021129 8.68285C-0.0224365 8.44779 -0.0228054 8.21273 -0.0229132 7.97767C-0.0231262 7.865 -0.0236913 7.75233 -0.0246137 7.63966C-0.02581 7.48246 -0.0256815 7.32531 -0.0252242 7.16811C-0.0254805 7.07866 -0.0257369 6.98922 -0.026001 6.89707C-0.000161648 6.67968 -0.000161648 6.67968 0.0936899 6.54808C0.366869 6.36297 0.652772 6.38893 0.968472 6.39045C1.05184 6.39043 1.05184 6.39043 1.1369 6.39041C1.32065 6.39046 1.50441 6.39101 1.68816 6.39156C1.81555 6.39169 1.94294 6.39179 2.07033 6.39186C2.40566 6.39213 2.74099 6.39282 3.07633 6.3936C3.41849 6.39432 3.76066 6.39464 4.10282 6.39499C4.77422 6.39575 5.44562 6.39695 6.11703 6.39843C6.11592 6.3283 6.11482 6.25817 6.11368 6.18591C6.10981 5.92173 6.10742 5.65755 6.10544 5.39335C6.10439 5.27975 6.10296 5.16616 6.10111 5.05257C6.08075 3.76478 6.29764 2.73924 7.21291 1.77346C7.95542 1.08982 8.83203 0.871282 9.81677 0.876545ZM9.3514 4.14843C8.97767 4.70298 8.97767 4.70298 9.14046 6.39843C12.1337 6.39843 15.1269 6.39843 18.2108 6.39843C18.3863 4.67875 18.3863 4.67875 17.9295 4.07812C17.6087 3.79332 17.2347 3.83696 16.8283 3.83877C16.7528 3.83829 16.6773 3.8378 16.5995 3.83731C16.3501 3.83602 16.1006 3.83629 15.8512 3.83669C15.6777 3.83637 15.5042 3.836 15.3308 3.83557C14.9672 3.83495 14.6037 3.83512 14.2401 3.83582C13.7742 3.83662 13.3084 3.8352 12.8425 3.83315C12.4843 3.83186 12.1261 3.83188 11.7678 3.83228C11.5961 3.83229 11.4243 3.83187 11.2525 3.83099C11.0123 3.82995 10.7722 3.8307 10.532 3.8319C10.4611 3.83122 10.3902 3.83054 10.3172 3.82984C9.91475 3.83407 9.66225 3.86626 9.3514 4.14843Z" fill="#546E79"/>
<path d="M29.4609 23.0625C29.9674 23.1955 30.4184 23.3793 30.8803 23.625C30.9443 23.6589 31.0083 23.6928 31.0743 23.7277C33.1781 24.8677 34.9157 26.8089 35.6484 29.1094C35.8348 29.7715 36.0056 30.4544 36.0124 31.1444C36.0133 31.2251 36.0142 31.3058 36.0151 31.3889C36.0159 31.5181 36.0159 31.5181 36.0167 31.65C36.0172 31.7392 36.0178 31.8285 36.0184 31.9204C36.0194 32.1087 36.0201 32.297 36.0207 32.4853C36.0215 32.7263 36.0239 32.9673 36.0267 33.2083C36.0289 33.4388 36.0293 33.6694 36.0299 33.9C36.0311 33.9864 36.0323 34.0728 36.0336 34.1619C36.0333 34.2823 36.0333 34.2823 36.033 34.4051C36.0336 34.5109 36.0336 34.5109 36.0342 34.6189C35.9874 34.8726 35.9299 34.9353 35.7187 35.0859C35.4762 35.1289 35.2357 35.1238 34.99 35.1217C34.9151 35.1221 34.8401 35.1225 34.7628 35.123C34.5107 35.1241 34.2587 35.1232 34.0066 35.1223C33.8262 35.1227 33.6458 35.1232 33.4654 35.1238C33.0258 35.125 32.5863 35.1248 32.1467 35.124C31.7894 35.1234 31.4322 35.1233 31.075 35.1236C30.9988 35.1236 30.9988 35.1236 30.921 35.1237C30.8178 35.1238 30.7146 35.1239 30.6114 35.124C29.6431 35.1248 28.6749 35.1239 27.7067 35.1223C26.8756 35.1211 26.0446 35.1213 25.2135 35.1226C24.2488 35.1241 23.284 35.1247 22.3193 35.1238C22.2165 35.1237 22.1136 35.1237 22.0108 35.1236C21.9602 35.1235 21.9096 35.1235 21.8574 35.1234C21.5006 35.1232 21.1437 35.1236 20.7869 35.1243C20.3067 35.1251 19.8266 35.1245 19.3464 35.1229C19.1699 35.1225 18.9933 35.1226 18.8168 35.1233C18.5764 35.124 18.3361 35.1231 18.0957 35.1217C18.0253 35.1223 17.9549 35.1229 17.8824 35.1236C17.4122 35.1182 17.4122 35.1182 17.1831 34.9544C17.0588 34.763 17.0506 34.6429 17.0506 34.4151C17.0499 34.3369 17.0493 34.2587 17.0486 34.1781C17.0494 34.0937 17.0502 34.0092 17.051 33.9222C17.0509 33.8346 17.0508 33.747 17.0507 33.6567C17.0508 33.4708 17.0515 33.285 17.0531 33.099C17.0554 32.8177 17.0545 32.5365 17.0536 32.2552C17.0543 31.3724 17.0561 30.5259 17.2968 29.6719C17.3104 29.617 17.324 29.5622 17.338 29.5057C17.682 28.1567 18.3898 26.9553 19.3359 25.9453C19.3866 25.8866 19.4374 25.8278 19.4897 25.7673C20.483 24.6179 21.9484 23.5949 23.414 23.1328C23.5494 23.1334 23.5494 23.1334 23.6952 23.2031C23.8059 23.3649 23.8968 23.5175 23.9866 23.6904C24.0129 23.7399 24.0392 23.7895 24.0663 23.8406C24.1217 23.9459 24.1766 24.0515 24.231 24.1573C24.3139 24.3174 24.3996 24.4757 24.4856 24.6341C24.7913 25.2125 24.9931 25.6387 24.8202 26.2969C24.8024 26.3784 24.7846 26.46 24.7662 26.5441C24.7136 26.778 24.6574 27.0102 24.5986 27.2426C24.5602 27.3942 24.5226 27.546 24.4852 27.6979C24.4342 27.9047 24.3831 28.1114 24.3318 28.3181C24.223 28.7572 24.1161 29.1966 24.0116 29.6367C23.9937 29.7096 23.9758 29.7824 23.9573 29.8574C23.7755 30.5736 23.7755 30.5736 23.9413 31.2627C24.1221 31.4345 24.3067 31.5993 24.4964 31.7612C24.7384 31.9734 24.9723 32.1938 25.207 32.4141C25.2991 32.5 25.3913 32.5858 25.4835 32.6717C25.628 32.8063 25.7709 32.9418 25.9125 33.0793C26.1113 33.267 26.2416 33.3835 26.5077 33.4556C26.981 33.3274 27.3169 32.9518 27.6498 32.6085C27.7716 32.4862 27.8975 32.373 28.0282 32.2603C28.0742 32.2202 28.1201 32.1801 28.1675 32.1389C28.2611 32.0573 28.3548 31.9759 28.4489 31.895C28.5747 31.7863 28.6992 31.6762 28.8237 31.5659C28.8645 31.5311 28.9052 31.4964 28.9473 31.4605C29.2126 31.2227 29.2934 31.0781 29.3202 30.7266C29.2882 30.4865 29.2882 30.4865 29.2238 30.2336C29.2128 30.1862 29.2017 30.1388 29.1903 30.0899C29.1663 29.9877 29.1419 29.8855 29.1172 29.7833C29.078 29.6215 29.0399 29.4595 29.0021 29.2973C28.9215 28.9532 28.8397 28.6094 28.7577 28.2656C28.6627 27.8671 28.5682 27.4685 28.475 27.0695C28.4375 26.9102 28.3991 26.7511 28.3606 26.5921C28.3376 26.494 28.3146 26.3958 28.2916 26.2977C28.2713 26.2125 28.2509 26.1272 28.23 26.0394C28.1714 25.6439 28.2587 25.3593 28.4446 25.0126C28.4809 24.9441 28.5171 24.8757 28.5545 24.8052C28.5926 24.7348 28.6306 24.6644 28.6698 24.5918C28.7442 24.4523 28.8186 24.3128 28.8929 24.1732C28.929 24.1056 28.9651 24.0381 29.0023 23.9685C29.1603 23.669 29.3113 23.3662 29.4609 23.0625Z" fill="#68B8D7"/>
<path d="M27.2812 14.5547C27.3276 14.5547 27.374 14.5547 27.4218 14.5547C27.454 14.6238 27.454 14.6238 27.4869 14.6942C28.002 15.7215 28.8005 16.4715 29.8828 16.875C30.0747 16.9292 30.2539 16.957 30.453 16.9676C30.5325 16.972 30.5325 16.972 30.6136 16.9765C30.6683 16.9793 30.7229 16.982 30.7792 16.9849C30.8629 16.9894 30.8629 16.9894 30.9482 16.9941C31.0852 17.0015 31.2223 17.0086 31.3593 17.0156C31.3646 17.3594 31.3684 17.7031 31.3709 18.0469C31.372 18.1634 31.3734 18.2799 31.3752 18.3965C31.3895 19.3241 31.3376 20.1884 30.8979 21.0278C30.8737 21.0748 30.8495 21.1217 30.8245 21.1701C30.1926 22.347 29.1923 23.1037 27.9242 23.5025C26.6104 23.8838 25.3438 23.7113 24.1443 23.0699C22.9534 22.3295 22.1134 21.1916 21.7916 19.8177C21.6855 19.2729 21.7116 18.7194 21.7177 18.167C21.7184 18.055 21.7191 17.9431 21.7196 17.8311C21.7212 17.5593 21.7236 17.2874 21.7265 17.0156C21.8158 17.013 21.9051 17.0104 21.9971 17.0077C23.9104 16.9399 25.5554 16.4819 26.9151 15.0875C27.075 14.9112 27.075 14.9112 27.1881 14.7074C27.2188 14.657 27.2495 14.6066 27.2812 14.5547Z" fill="#FEC79E"/>
<path d="M9.81686 0.876545C9.90946 0.875939 10.0021 0.875334 10.0975 0.874709C10.3492 0.87314 10.601 0.873332 10.8528 0.873959C11.064 0.87432 11.2752 0.873803 11.4864 0.873293C11.9853 0.872101 12.4842 0.872344 12.983 0.873524C13.4953 0.874713 14.0076 0.873601 14.5199 0.871329C14.962 0.869444 15.404 0.868942 15.846 0.869537C16.1091 0.869881 16.3721 0.86974 16.6352 0.868286C16.8828 0.866983 17.1303 0.867429 17.3779 0.869144C17.5105 0.869656 17.6431 0.868461 17.7757 0.867188C18.6992 0.877308 19.5346 1.20879 20.206 1.84597C21.1538 2.84215 21.2678 3.94182 21.2475 5.25585C21.2431 5.6561 21.2388 6.05636 21.2343 6.46874C20.2366 6.46874 19.2388 6.46874 18.2109 6.46874C18.1933 5.51073 18.1933 5.51073 18.1899 5.21091C18.1835 4.58382 18.1835 4.58382 17.8593 4.07812C17.65 3.95092 17.4942 3.9197 17.2508 3.91869C17.1853 3.91809 17.1199 3.91749 17.0525 3.91687C16.9811 3.91693 16.9098 3.917 16.8364 3.91706C16.7609 3.91659 16.6854 3.91612 16.6076 3.91563C16.3578 3.91429 16.108 3.91402 15.8581 3.91387C15.6846 3.91342 15.511 3.91295 15.3374 3.91245C14.9734 3.91161 14.6095 3.91135 14.2455 3.91143C13.7791 3.91145 13.3127 3.90953 12.8463 3.90711C12.4877 3.90554 12.1292 3.90526 11.7706 3.90533C11.5987 3.90516 11.4267 3.90454 11.2548 3.90346C11.0142 3.90208 10.7738 3.90248 10.5332 3.90333C10.4267 3.90214 10.4267 3.90214 10.318 3.90094C9.90332 3.90465 9.6685 3.94437 9.35149 4.21874C9.18247 4.4496 9.1894 4.67754 9.18175 4.95812C9.17925 5.03736 9.17674 5.1166 9.17416 5.19824C9.17177 5.29846 9.16938 5.39868 9.16692 5.50194C9.15822 5.82099 9.14952 6.14003 9.14055 6.46874C8.14282 6.46874 7.14508 6.46874 6.11711 6.46874C6.11276 6.06849 6.10841 5.66823 6.10393 5.25585C6.10201 5.13138 6.10009 5.00692 6.09811 4.87868C6.08703 3.65345 6.35005 2.68403 7.213 1.77346C7.95551 1.08982 8.83212 0.871282 9.81686 0.876545Z" fill="#353535"/>
<path d="M29.6017 11.3897C30.5722 12.2052 31.1876 13.2954 31.3595 14.5538C31.3652 14.7476 31.3678 14.9395 31.3664 15.1333C31.3663 15.2143 31.3663 15.2143 31.3661 15.297C31.3657 15.4682 31.3648 15.6394 31.3639 15.8106C31.3636 15.9272 31.3633 16.0439 31.363 16.1605C31.3622 16.4452 31.361 16.73 31.3595 17.0147C31.169 17.0178 30.9785 17.0201 30.788 17.0218C30.7345 17.0228 30.681 17.0237 30.6258 17.0247C30.167 17.0279 29.8025 16.9413 29.3908 16.7334C29.3319 16.7044 29.273 16.6754 29.2123 16.6456C28.4703 16.2413 27.6896 15.5044 27.4443 14.6719C27.4333 14.6134 27.4333 14.6134 27.422 14.5538C27.3756 14.5538 27.3292 14.5538 27.2814 14.5538C27.2593 14.627 27.2593 14.627 27.2366 14.7018C26.7738 15.6846 25.6067 16.2907 24.6403 16.6543C23.6829 16.9948 22.8043 17.0337 21.797 17.0147C21.7918 16.6709 21.788 16.3272 21.7855 15.9834C21.7844 15.8669 21.783 15.7504 21.7811 15.6339C21.7569 14.0657 22.1289 12.8863 23.2151 11.7179C24.927 10.0346 27.7194 9.97793 29.6017 11.3897Z" fill="#010101"/>
<path d="M24.6445 23.2295C25.8352 23.7311 26.9796 23.7409 28.1953 23.3438C28.4013 23.2562 28.6002 23.164 28.7979 23.0592C29.004 22.9784 29.1712 22.9807 29.3906 22.9922C29.4491 23.1581 29.4709 23.2449 29.4122 23.4135C29.3855 23.4622 29.3588 23.5109 29.3313 23.561C29.3018 23.6157 29.2724 23.6704 29.242 23.7268C29.2098 23.7846 29.1777 23.8423 29.1445 23.9019C29.1125 23.9614 29.0805 24.021 29.0475 24.0824C28.9028 24.3507 28.755 24.6165 28.5988 24.8783C28.5541 24.9549 28.5094 25.0314 28.4634 25.1104C28.4232 25.1758 28.3831 25.2412 28.3417 25.3087C28.1514 25.8458 28.4124 26.5227 28.5408 27.0567C28.5767 27.2059 28.612 27.3552 28.6471 27.5046C28.747 27.9289 28.8477 28.353 28.9492 28.7769C29.0115 29.0373 29.073 29.2979 29.1341 29.5586C29.1574 29.6575 29.181 29.7562 29.2049 29.8549C29.2383 29.9928 29.2706 30.131 29.3029 30.2692C29.3216 30.3475 29.3403 30.4259 29.3595 30.5066C29.4019 30.8064 29.395 31.0488 29.2102 31.2954C29.1639 31.3383 29.1175 31.3811 29.0698 31.4253C29.0183 31.4736 28.9669 31.5219 28.9138 31.5717C28.7337 31.7325 28.5525 31.8919 28.3692 32.049C28.2236 32.1781 28.0815 32.3093 27.9402 32.4429C27.894 32.4864 27.8479 32.53 27.8004 32.5748C27.7081 32.6622 27.616 32.7499 27.5242 32.8378C26.8915 33.436 26.8915 33.436 26.5075 33.5089C26.2237 33.4548 26.0756 33.3071 25.8794 33.1084C25.7995 33.0311 25.7196 32.9538 25.6396 32.8766C25.598 32.8357 25.5564 32.7947 25.5135 32.7526C25.289 32.5334 25.0587 32.3203 24.8291 32.1065C24.7865 32.0664 24.7439 32.0263 24.7 31.985C24.4507 31.7511 24.1965 31.5261 23.9329 31.3084C23.7612 31.1496 23.7642 31.0592 23.7456 30.8191C23.7511 30.3774 23.8683 29.9593 23.978 29.5343C24.0437 29.2789 24.1066 29.0229 24.1699 28.7669C24.183 28.7143 24.1961 28.6616 24.2095 28.6074C24.3393 28.0839 24.4629 27.5591 24.5807 27.0328C24.6026 26.9355 24.6248 26.8384 24.6473 26.7413C24.6788 26.6056 24.7091 26.4697 24.7393 26.3337C24.7654 26.2183 24.7654 26.2183 24.792 26.1006C24.8515 25.6263 24.7199 25.2738 24.497 24.8629C24.4722 24.8155 24.4473 24.7682 24.4217 24.7194C24.3428 24.5696 24.263 24.4203 24.1831 24.271C24.1031 24.1204 24.0233 23.9697 23.9438 23.8188C23.8944 23.7253 23.8448 23.6319 23.7947 23.5388C23.625 23.2188 23.625 23.2188 23.625 23.0625C24.0028 22.9366 24.2959 23.0715 24.6445 23.2295Z" fill="#D2343D"/>
<path d="M29.4609 23.0625C29.9687 23.2007 30.4163 23.3781 30.8804 23.625C30.9444 23.6589 31.0084 23.6928 31.0744 23.7277C33.1782 24.8677 34.9158 26.8089 35.6484 29.1094C35.8349 29.7715 36.0057 30.4544 36.0124 31.1444C36.0138 31.2654 36.0138 31.2654 36.0152 31.3889C36.0157 31.4751 36.0162 31.5612 36.0168 31.65C36.0173 31.7392 36.0179 31.8285 36.0185 31.9204C36.0194 32.1087 36.0202 32.297 36.0208 32.4853C36.0215 32.7263 36.024 32.9673 36.0267 33.2083C36.029 33.4388 36.0293 33.6694 36.0299 33.9C36.0312 33.9864 36.0324 34.0728 36.0337 34.1619C36.0335 34.2421 36.0333 34.3224 36.033 34.4051C36.0335 34.4756 36.0339 34.5462 36.0343 34.6189C35.9904 34.8566 35.9077 34.9396 35.7188 35.0859C35.5061 35.1179 35.5061 35.1179 35.2606 35.1134C35.1287 35.112 35.1287 35.112 34.9942 35.1107C34.8569 35.1071 34.8569 35.1071 34.7168 35.1035C34.6242 35.1022 34.5315 35.101 34.4361 35.0997C34.2073 35.0964 33.9787 35.0917 33.75 35.0859C33.8014 35.0281 33.8014 35.0281 33.8538 34.9692C33.9836 34.7699 33.9876 34.6589 33.9882 34.4227C33.9892 34.3078 33.9892 34.3078 33.9902 34.1906C33.9898 34.1079 33.9894 34.0253 33.989 33.9401C33.9892 33.8542 33.9894 33.7683 33.9896 33.6798C33.9897 33.4975 33.9893 33.3152 33.9884 33.1329C33.9873 32.8575 33.9884 32.5821 33.9898 32.3067C33.9906 31.4063 33.9801 30.5462 33.75 29.6719C33.735 29.6118 33.72 29.5518 33.7045 29.4899C33.6645 29.3418 33.6195 29.1974 33.5698 29.0522C33.5523 29.0007 33.5348 28.9492 33.5168 28.8961C32.7483 26.744 31.1196 24.9112 29.1094 23.8359C29.2254 23.5807 29.3414 23.3255 29.4609 23.0625Z" fill="#3795B2"/>
<path d="M24.8906 25.5938C25.3083 25.617 25.7259 25.6402 26.1562 25.6641C26.3557 26.3996 26.5412 27.1368 26.7144 27.8789C26.7264 27.9303 26.7384 27.9818 26.7508 28.0348C26.8345 28.3928 26.9174 28.7511 27 29.1094C27.0201 29.1965 27.0403 29.2836 27.061 29.3733C27.1132 29.6001 27.1645 29.8271 27.2153 30.0542C27.2305 30.1203 27.2457 30.1863 27.2613 30.2544C27.2745 30.3144 27.2877 30.3744 27.3013 30.4362C27.3128 30.4877 27.3243 30.5391 27.3362 30.5921C27.3516 30.7266 27.3516 30.7266 27.2812 30.9375C27.1884 31.0312 27.1884 31.0312 27.0615 31.1353C26.8534 31.3108 26.6519 31.4911 26.4543 31.6783C26.4075 31.7225 26.3606 31.7668 26.3124 31.8125C26.2178 31.9023 26.1234 31.9924 26.0292 32.0828C25.9851 32.1245 25.941 32.1662 25.8956 32.2092C25.8561 32.2469 25.8166 32.2846 25.7759 32.3235C25.6641 32.4141 25.6641 32.4141 25.4531 32.4844C25.4299 32.5308 25.4067 32.5772 25.3828 32.625C25.3534 32.5974 25.3241 32.5698 25.2938 32.5413C25.1581 32.4138 25.0221 32.2865 24.8862 32.1592C24.8401 32.1158 24.7939 32.0723 24.7463 32.0276C24.4807 31.779 24.2115 31.538 23.9308 31.3065C23.7601 31.1486 23.764 31.0568 23.7458 30.818C23.7514 30.3812 23.8653 29.9711 23.974 29.5502C24.0394 29.2964 24.1024 29.0419 24.1655 28.7875C24.1788 28.7343 24.192 28.6812 24.2057 28.6264C24.3629 27.9915 24.504 27.3531 24.6445 26.7144C24.657 26.6579 24.6694 26.6014 24.6823 26.5432C24.752 26.2268 24.8214 25.9103 24.8906 25.5938Z" fill="#F1464F"/>
<path d="M18.6944 14.5091C18.784 14.5089 18.784 14.5089 18.8754 14.5086C19.0012 14.5087 19.127 14.5096 19.2528 14.5114C19.4453 14.5138 19.6375 14.5128 19.83 14.5115C19.9525 14.5119 20.0749 14.5126 20.1974 14.5135C20.2548 14.5132 20.3122 14.5128 20.3714 14.5125C20.605 14.5173 20.7822 14.537 20.9889 14.6492C21.1587 14.95 21.1351 15.2514 21.1334 15.591C21.1341 15.7026 21.1341 15.7026 21.1347 15.8165C21.1352 15.9741 21.135 16.1316 21.1341 16.2892C21.1331 16.5286 21.1355 16.7678 21.1382 17.0071C21.1383 17.1606 21.1381 17.314 21.1378 17.4675C21.1387 17.5383 21.1397 17.6092 21.1406 17.6822C21.1342 18.1801 21.0269 18.5695 20.742 18.983C20.2742 19.4277 19.8374 19.5811 19.1951 19.567C18.6723 19.5139 18.3736 19.2496 18.038 18.863C17.7238 18.3961 17.6857 18.0021 17.6856 17.451C17.6851 17.3792 17.6846 17.3074 17.684 17.2334C17.6832 17.0822 17.683 16.931 17.6834 16.7799C17.6834 16.5487 17.6805 16.3177 17.6774 16.0865C17.677 15.9393 17.6768 15.7921 17.6768 15.6448C17.6757 15.5759 17.6745 15.507 17.6733 15.436C17.6765 15.1255 17.6887 14.952 17.858 14.6856C18.1449 14.5067 18.3624 14.5037 18.6944 14.5091Z" fill="#F5C94E"/>
<path d="M6.03142 14.5174C6.12112 14.5169 6.12112 14.5169 6.21263 14.5165C6.33887 14.5163 6.46511 14.5169 6.59134 14.518C6.78443 14.5195 6.97734 14.5181 7.17042 14.5163C7.2932 14.5164 7.41597 14.5168 7.53874 14.5174C7.59639 14.5168 7.65404 14.5162 7.71343 14.5156C8.11382 14.5222 8.11382 14.5222 8.33099 14.6889C8.48106 14.8963 8.51684 15.0122 8.52018 15.2643C8.52108 15.3237 8.52199 15.3831 8.52291 15.4444C8.52343 15.5089 8.52395 15.5734 8.52449 15.6399C8.52506 15.7065 8.52562 15.7731 8.52621 15.8418C8.52718 15.9834 8.52794 16.1249 8.52849 16.2665C8.52969 16.4809 8.53277 16.6951 8.53589 16.9095C8.54877 18.5036 8.54877 18.5036 7.99357 19.125C7.54152 19.5219 7.14793 19.591 6.55491 19.576C6.1175 19.5199 5.78745 19.3172 5.49309 18.9932C5.14746 18.4849 5.10051 18.0934 5.10225 17.4894C5.10188 17.4143 5.10151 17.3392 5.10113 17.2618C5.10068 17.1037 5.10077 16.9457 5.10137 16.7876C5.10197 16.5455 5.09994 16.3035 5.09772 16.0613C5.0976 15.9075 5.09764 15.7536 5.09785 15.5998C5.09706 15.5274 5.09627 15.455 5.09546 15.3805C5.10022 14.894 5.10022 14.894 5.23695 14.6499C5.50046 14.5082 5.73633 14.5144 6.03142 14.5174Z" fill="#F2AF09"/>
<path d="M29.3906 16.7344C29.4326 16.7488 29.4746 16.7632 29.5178 16.778C30.128 16.9676 30.7256 16.9941 31.3594 17.0156C31.3647 17.3594 31.3684 17.7031 31.371 18.0469C31.372 18.1634 31.3734 18.2799 31.3753 18.3965C31.3896 19.3241 31.3376 20.1884 30.8979 21.0278C30.8737 21.0748 30.8495 21.1217 30.8246 21.1701C30.1926 22.347 29.1923 23.1037 27.9242 23.5025C27.1482 23.7272 26.3937 23.7745 25.5938 23.625C25.7638 23.455 25.8871 23.4294 26.1167 23.3613C27.3224 22.9661 28.2627 22.1586 28.8627 21.0385C29.1759 20.3797 29.351 19.7578 29.3563 19.0278C29.3576 18.9617 29.3588 18.8955 29.3601 18.8274C29.3639 18.619 29.3663 18.4106 29.3687 18.2021C29.371 18.0597 29.3734 17.9172 29.3759 17.7748C29.3819 17.428 29.3866 17.0812 29.3906 16.7344Z" fill="#F6AF81"/>
<path d="M8.50781 17.4375C11.5474 17.4375 14.587 17.4375 17.7188 17.4375C17.742 17.6927 17.7652 17.948 17.7891 18.2109C17.8123 18.3502 17.8355 18.4894 17.8594 18.6328C14.727 18.6328 11.5945 18.6328 8.36719 18.6328C8.41359 18.2384 8.46 17.8439 8.50781 17.4375Z" fill="#2E3C41"/>
<path d="M24.6445 23.2295C25.8352 23.7311 26.9796 23.7409 28.1953 23.3438C28.4013 23.2562 28.6002 23.164 28.7979 23.0592C29.004 22.9784 29.1712 22.9807 29.3906 22.9922C29.4483 23.1566 29.4711 23.2442 29.4133 23.4113C29.3739 23.4829 29.3739 23.4829 29.3338 23.5561C29.2897 23.638 29.2897 23.638 29.2446 23.7215C29.2131 23.7782 29.1815 23.8348 29.1489 23.8931C29.1198 23.9467 29.0906 24.0003 29.0606 24.0555C28.9978 24.1711 28.9347 24.2864 28.8713 24.4016C28.6425 24.8206 28.4194 25.2426 28.1953 25.6641C27.7412 25.6783 27.2871 25.6882 26.8328 25.695C26.6783 25.6978 26.5238 25.7016 26.3693 25.7065C26.1471 25.7133 25.9251 25.7165 25.7028 25.719C25.6339 25.7219 25.5649 25.7248 25.4939 25.7278C25.0265 25.7281 25.0265 25.7281 24.8457 25.5515C24.7525 25.4054 24.6798 25.2597 24.6094 25.1016C24.5664 25.0237 24.5234 24.9459 24.4791 24.8657C24.42 24.7521 24.42 24.7521 24.3597 24.6363C24.3384 24.5953 24.317 24.5543 24.295 24.512C24.2506 24.4267 24.2064 24.3412 24.1623 24.2558C24.0945 24.1246 24.0261 23.9937 23.9577 23.8629C23.9145 23.7794 23.8712 23.6959 23.828 23.6124C23.789 23.5372 23.75 23.4619 23.7098 23.3844C23.625 23.2031 23.625 23.2031 23.625 23.0625C24.0028 22.9366 24.2959 23.0715 24.6445 23.2295Z" fill="#D2333D"/>
<path d="M19.5469 14.553C19.752 14.5454 19.9569 14.5399 20.1621 14.5355C20.2491 14.5319 20.2491 14.5319 20.3379 14.5283C20.5916 14.5242 20.7646 14.5277 20.9913 14.6475C21.1572 14.95 21.1352 15.2512 21.1336 15.5907C21.1342 15.7023 21.1342 15.7023 21.1349 15.8162C21.1354 15.9737 21.1352 16.1313 21.1343 16.2889C21.1333 16.5283 21.1357 16.7675 21.1384 17.0068C21.1384 17.1603 21.1383 17.3137 21.138 17.4672C21.1389 17.538 21.1398 17.6089 21.1408 17.6819C21.1343 18.1798 21.027 18.5692 20.7422 18.9827C20.3469 19.3584 19.959 19.5656 19.4062 19.5628C19.2997 19.5633 19.2997 19.5633 19.1909 19.5639C18.9794 19.5448 18.8245 19.4934 18.6328 19.4046C18.7111 19.3285 18.7111 19.3285 18.791 19.2508C19.394 18.6341 19.5074 18.0853 19.5125 17.2378C19.5138 17.1607 19.5151 17.0835 19.5164 17.0041C19.5202 16.7598 19.5225 16.5156 19.5249 16.2713C19.5272 16.1048 19.5297 15.9383 19.5322 15.7718C19.5381 15.3656 19.5429 14.9593 19.5469 14.553Z" fill="#F3AF08"/>
<path d="M6.16982 14.5359C6.27355 14.5378 6.27355 14.5378 6.37938 14.5397C6.54983 14.543 6.72014 14.5476 6.89052 14.5534C6.90127 15.0813 6.90863 15.6091 6.91369 16.137C6.91581 16.3164 6.91868 16.4957 6.92235 16.6751C6.9275 16.9338 6.92986 17.1924 6.93172 17.4511C6.9339 17.5305 6.93607 17.6099 6.93832 17.6918C6.93859 18.3439 6.73892 18.7767 6.28407 19.2424C6.11708 19.3347 6.11708 19.3347 5.98085 19.3391C5.56551 19.1251 5.36896 18.8851 5.1904 18.4633C5.08757 18.1366 5.09263 17.8144 5.09535 17.4744C5.09508 17.3995 5.09481 17.3246 5.09454 17.2474C5.09435 17.0902 5.09486 16.933 5.09604 16.7757C5.09755 16.5348 5.09605 16.2941 5.09425 16.0532C5.09444 15.9 5.0948 15.7468 5.09535 15.5936C5.09478 15.5216 5.09421 15.4497 5.09363 15.3756C5.09728 15.1001 5.1019 14.8949 5.22843 14.6477C5.53199 14.4935 5.83522 14.5243 6.16982 14.5359Z" fill="#F6CA4E"/>
<path d="M8.79029e-05 11.8125C0.023291 11.8125 0.0464941 11.8125 0.0704004 11.8125C0.0815488 11.873 0.0926971 11.9334 0.104183 11.9957C0.359176 13.2876 0.874213 14.413 1.7579 15.3984C1.79669 15.443 1.83549 15.4876 1.87545 15.5336C2.71837 16.4433 3.90229 16.9388 5.06259 17.2969C5.1322 17.9234 5.1322 17.9234 5.20321 18.5625C3.77176 18.4984 2.49828 17.658 1.53378 16.6465C0.313255 15.2519 -0.0524632 13.6206 8.79029e-05 11.8125Z" fill="#2E3C42"/>
<path d="M29.3906 22.9922C29.4483 23.1566 29.4711 23.2442 29.4133 23.4113C29.3871 23.4591 29.3608 23.5068 29.3338 23.5561C29.3047 23.6101 29.2756 23.6641 29.2456 23.7198C29.2137 23.777 29.1818 23.8342 29.1489 23.8931C29.1011 23.9812 29.1011 23.9812 29.0523 24.0711C28.9867 24.1919 28.9208 24.3125 28.8546 24.4328C28.739 24.6438 28.6258 24.8559 28.5132 25.0684C28.4077 25.2672 28.3014 25.4656 28.1953 25.6641C27.5224 25.6641 26.8495 25.6641 26.1562 25.6641C26.4155 25.0796 26.4155 25.0796 26.5022 24.8893C26.6135 24.645 26.7155 24.409 26.7948 24.1521C26.8642 23.9351 26.9177 23.795 27.0703 23.625C27.348 23.5152 27.6147 23.4552 27.9075 23.4025C28.2334 23.3432 28.5062 23.2139 28.7979 23.0592C29.004 22.9784 29.1712 22.9807 29.3906 22.9922Z" fill="#AF283C"/>
<path d="M21.0938 17.4375C21.3026 17.4375 21.5114 17.4375 21.7266 17.4375C21.7266 17.832 21.7266 18.2264 21.7266 18.6328C21.4713 18.6328 21.2161 18.6328 20.9531 18.6328C20.9995 18.2384 21.0459 17.8439 21.0938 17.4375Z" fill="#2F3D41"/>
</g>
<defs>
<clipPath id="clip0_821_5733">
<rect width="36" height="36" fill="white"/>
</clipPath>
</defs>
</svg>
