<svg width="36" height="36" viewBox="0 0 36 36" fill="none" xmlns="http://www.w3.org/2000/svg">
<g clip-path="url(#clip0_821_5742)">
<path d="M1.99797 -0.0209061C2.10981 -0.021384 2.10981 -0.021384 2.2239 -0.0218716C2.47414 -0.0227629 2.72436 -0.0226465 2.9746 -0.0225305C3.15385 -0.0229512 3.3331 -0.0234297 3.51234 -0.0239617C3.94897 -0.0250762 4.38558 -0.0255163 4.8222 -0.0255947C5.17717 -0.0256615 5.53214 -0.0259506 5.88711 -0.0263963C6.89382 -0.0276346 7.90053 -0.0282835 8.90725 -0.028178C8.96151 -0.0281724 9.01577 -0.0281668 9.07167 -0.028161C9.126 -0.0281552 9.18032 -0.0281495 9.23629 -0.0281436C10.1166 -0.0280864 10.9969 -0.0294319 11.8772 -0.0314148C12.7814 -0.0334354 13.6856 -0.0344059 14.5898 -0.0342844C15.0973 -0.0342378 15.6048 -0.0346231 16.1124 -0.0361376C16.5897 -0.0375529 17.067 -0.0375108 17.5444 -0.0364868C17.7195 -0.0363396 17.8947 -0.0366727 18.0699 -0.0375219C18.3091 -0.0386063 18.5482 -0.0379552 18.7874 -0.0368706C18.8567 -0.037594 18.9259 -0.0383173 18.9973 -0.0390625C19.5044 -0.0339845 19.874 0.0809858 20.2644 0.409885C20.3016 0.453753 20.3389 0.497621 20.3773 0.542819C20.4154 0.585962 20.4536 0.629106 20.4929 0.673556C20.7941 1.14027 20.8425 1.56438 20.8329 2.10507C20.8326 2.16983 20.8323 2.23458 20.832 2.30129C20.8309 2.50617 20.8282 2.711 20.8255 2.91587C20.8245 3.05557 20.8235 3.19528 20.8226 3.33499C20.8203 3.67577 20.8167 4.01651 20.8123 4.35727C20.8813 4.35714 20.9503 4.35701 21.0214 4.35688C22.701 4.35376 24.3805 4.35145 26.0601 4.34999C26.8723 4.34926 27.6845 4.34827 28.4968 4.34666C29.2048 4.34526 29.9128 4.34435 30.6208 4.34404C30.9957 4.34386 31.3705 4.34343 31.7453 4.3424C32.0983 4.34145 32.4513 4.34116 32.8043 4.34137C32.9337 4.34133 33.063 4.34105 33.1923 4.34051C33.3695 4.33981 33.5466 4.33998 33.7237 4.34036C33.7744 4.33995 33.8251 4.33954 33.8773 4.33912C34.5224 4.34286 35.0354 4.46642 35.5076 4.91977C35.8688 5.33511 36.0083 5.61546 36.0102 6.17392C36.0104 6.22308 36.0107 6.27225 36.011 6.32291C36.0117 6.48807 36.012 6.65323 36.0123 6.8184C36.0127 6.93667 36.0132 7.05493 36.0137 7.1732C36.0152 7.56198 36.0159 7.95076 36.0166 8.33954C36.0169 8.47341 36.0172 8.60728 36.0174 8.74115C36.0188 9.37013 36.0198 9.99912 36.0204 10.6281C36.0211 11.3539 36.0229 12.0798 36.0258 12.8056C36.0279 13.3667 36.0289 13.9279 36.0292 14.489C36.0293 14.8241 36.0299 15.1591 36.0317 15.4942C36.0334 15.8096 36.0336 16.125 36.0329 16.4404C36.0329 16.5559 36.0333 16.6715 36.0343 16.787C36.0396 17.4515 36.0413 17.9735 35.5854 18.5046C34.9242 19.0581 34.6268 19.0526 33.6795 19.0526C33.6795 20.2823 33.6795 21.5121 33.6795 22.7791C32.3815 22.1302 32.3815 22.1302 31.8918 21.8788C31.8076 21.8357 31.8076 21.8357 31.7218 21.7917C31.605 21.7318 31.4882 21.6719 31.3714 21.612C31.1975 21.5228 31.0236 21.4337 30.8496 21.3446C29.9199 20.8681 28.9943 20.3838 28.0725 19.8921C27.8734 19.7861 27.6739 19.6809 27.4744 19.5755C27.394 19.5323 27.3137 19.4892 27.2308 19.4447C27.1528 19.4036 27.0747 19.3626 26.9943 19.3204C26.8917 19.2658 26.8917 19.2658 26.7869 19.2101C26.5524 19.1122 26.3377 19.0787 26.0858 19.0526C26.109 19.1222 26.1322 19.1918 26.1561 19.2635C26.163 19.4172 26.1656 19.5712 26.166 19.7251C26.1663 19.7957 26.1663 19.7957 26.1666 19.8678C26.1672 20.026 26.1673 20.1842 26.1674 20.3424C26.1677 20.4557 26.1681 20.569 26.1685 20.6823C26.1694 20.9905 26.1698 21.2986 26.1702 21.6068C26.1704 21.7994 26.1707 21.992 26.171 22.1846C26.1719 22.7875 26.1726 23.3904 26.1729 23.9933C26.1732 24.6887 26.1744 25.3841 26.1765 26.0796C26.178 26.6173 26.1787 27.1551 26.1788 27.6929C26.1789 28.014 26.1793 28.335 26.1805 28.6561C26.1817 28.9584 26.1818 29.2606 26.1812 29.5629C26.1812 29.6736 26.1815 29.7842 26.1822 29.8948C26.1904 31.2816 26.1904 31.2816 25.6903 31.8363C25.6473 31.886 25.6043 31.9358 25.5601 31.9871C25.118 32.3449 24.6709 32.4539 24.1127 32.4303C24.0525 32.429 23.9922 32.4276 23.9302 32.4263C23.8005 32.4234 23.6708 32.42 23.5411 32.416C23.2638 32.4082 22.9866 32.4055 22.7092 32.4023C22.1943 32.3965 21.6796 32.3884 21.1649 32.3722C19.5094 32.2225 19.5094 32.2225 18.0211 32.7463C17.7925 33.0033 17.6386 33.2799 17.5047 33.5954C17.415 33.7985 17.2898 33.9597 17.1506 34.1316C17.0761 34.2336 17.0017 34.3356 16.9276 34.4378C16.5428 34.9641 16.1505 35.4836 15.7498 35.9979C15.5283 35.903 15.4133 35.8107 15.2758 35.6136C15.2405 35.5639 15.2052 35.5141 15.1689 35.4628C15.1314 35.4088 15.094 35.3548 15.0555 35.2992C14.9741 35.184 14.8926 35.069 14.811 34.9539C14.769 34.8943 14.7269 34.8346 14.6835 34.7732C14.4742 34.4786 14.2596 34.1879 14.0448 33.8973C14.0067 33.8457 13.9686 33.794 13.9294 33.7408C13.8544 33.6391 13.7782 33.5383 13.7007 33.4384C13.5701 33.2557 13.5701 33.2557 13.4572 33.0419C13.209 32.6145 13.209 32.6145 12.7981 32.3647C12.3791 32.2909 11.9547 32.3138 11.5314 32.3265C11.3936 32.3274 11.2559 32.3279 11.1182 32.328C10.7567 32.329 10.3954 32.3348 10.034 32.3419C9.45593 32.3527 8.87783 32.357 8.2997 32.3599C8.09874 32.3617 7.89796 32.3659 7.69705 32.3706C6.96914 32.3818 6.39268 32.3698 5.82743 31.8542C5.29795 31.3251 5.24647 30.707 5.24468 29.9913C5.24509 29.8857 5.24552 29.7801 5.24597 29.6744C5.24569 29.5618 5.24531 29.4491 5.24485 29.3364C5.2439 29.0319 5.24426 28.7274 5.24493 28.423C5.24547 28.1034 5.24497 27.7839 5.24464 27.4644C5.24426 26.928 5.24476 26.3916 5.24577 25.8551C5.24691 25.236 5.24654 24.6169 5.24538 23.9978C5.24442 23.4651 5.24429 22.9323 5.24484 22.3996C5.24517 22.0819 5.24522 21.7643 5.24452 21.4466C5.24391 21.1479 5.24434 20.8492 5.24555 20.5505C5.24583 20.4412 5.24575 20.3319 5.24528 20.2227C5.24232 19.4595 5.28438 18.8121 5.77891 18.1943C6.19073 17.786 6.6797 17.6394 7.24771 17.6352C7.31801 17.6345 7.3883 17.6338 7.46073 17.6331C7.5752 17.6325 7.5752 17.6325 7.69199 17.6319C7.77297 17.6312 7.85394 17.6305 7.93737 17.6298C8.20482 17.6276 8.47227 17.6258 8.73973 17.6241C8.92524 17.6226 9.11076 17.6212 9.29627 17.6197C9.73453 17.6162 10.1728 17.613 10.6111 17.61C11.1101 17.6065 11.6092 17.6026 12.1083 17.5987C13.1346 17.5907 14.161 17.5833 15.1873 17.576C15.1873 16.6479 15.1873 15.7198 15.1873 14.7635C14.2067 14.7412 14.2067 14.7412 13.2261 14.7302C12.8239 14.7281 12.4219 14.725 12.0198 14.7136C10.165 14.6632 8.83406 14.8892 7.25464 15.8897C6.95983 16.0736 6.65523 16.2327 6.34553 16.3895C6.24418 16.4429 6.14291 16.4964 6.04176 16.5502C5.54068 16.8143 5.03678 17.0731 4.53339 17.3329C3.94958 17.6341 3.36687 17.9372 2.78826 18.2484C2.46804 18.4198 2.46804 18.4198 2.39045 18.4198C2.39045 17.2132 2.39045 16.0066 2.39045 14.7635C2.18163 14.7635 1.9728 14.7635 1.75764 14.7635C1.16217 14.7151 0.757576 14.5071 0.365949 14.0557C0.0727433 13.6776 -0.0088782 13.4287 -0.0105182 12.9442C-0.0107767 12.8948 -0.0110352 12.8453 -0.0113015 12.7943C-0.0120774 12.6282 -0.0123478 12.4621 -0.0126157 12.2959C-0.0130562 12.177 -0.0135235 12.058 -0.0140158 11.9391C-0.0154953 11.548 -0.0162238 11.1569 -0.0169244 10.7659C-0.017209 10.6312 -0.0174984 10.4966 -0.0177927 10.3619C-0.0191324 9.72925 -0.020133 9.09659 -0.0207186 8.46392C-0.0214056 7.73383 -0.0232557 7.00375 -0.0260975 6.27366C-0.028219 5.70924 -0.0292595 5.14483 -0.0294923 4.5804C-0.0296575 4.24336 -0.0302865 3.90633 -0.0320559 3.56928C-0.0336945 3.25203 -0.0339898 2.93481 -0.033268 2.61756C-0.0332332 2.50135 -0.0336767 2.38514 -0.034643 2.26894C-0.0399745 1.58961 -0.041102 1.06413 0.434614 0.527988C0.51306 0.461369 0.51306 0.461369 0.593091 0.393405C0.645208 0.347905 0.697324 0.302405 0.75102 0.255527C1.15226 -0.0327199 1.52021 -0.0223983 1.99797 -0.0209061Z" fill="#B6B6B6"/>
<path d="M7.5482 17.6413C7.61481 17.6411 7.68142 17.641 7.75004 17.6409C7.97396 17.6406 8.19787 17.6408 8.42179 17.641C8.58302 17.6409 8.74425 17.6408 8.90548 17.6407C9.43804 17.6404 9.97059 17.641 10.5031 17.6416C10.6871 17.6417 10.8711 17.6419 11.0551 17.642C12.2963 17.6432 13.5375 17.6459 14.7787 17.6492C15.1564 17.6501 15.5342 17.6509 15.9119 17.6517C17.1185 17.6541 18.3251 17.6575 19.5316 17.6635C20.0619 17.6661 20.5922 17.6683 21.1225 17.6694C21.576 17.6703 22.0295 17.6721 22.4831 17.6753C22.7154 17.6768 22.9478 17.6778 23.1801 17.6779C23.4334 17.6781 23.6866 17.68 23.9398 17.6823C24.0498 17.6818 24.0498 17.6818 24.1621 17.6812C24.6908 17.6887 25.1219 17.7961 25.5426 18.1277C25.5784 18.1703 25.6142 18.2129 25.6511 18.2568C25.6878 18.2983 25.7245 18.3398 25.7623 18.3826C26.1667 19.0339 26.1968 19.6546 26.1917 20.4023C26.192 20.5157 26.1924 20.6291 26.1929 20.7424C26.1939 21.0485 26.1931 21.3546 26.1919 21.6607C26.191 21.982 26.1914 22.3033 26.1917 22.6246C26.1918 23.1639 26.1909 23.7032 26.1893 24.2425C26.1874 24.865 26.1873 25.4874 26.1881 26.1098C26.1889 26.7101 26.1884 27.3104 26.1874 27.9107C26.187 28.1655 26.187 28.4203 26.1874 28.6751C26.1877 28.9754 26.187 29.2757 26.1855 29.576C26.1851 29.6858 26.185 29.7956 26.1854 29.9055C26.1893 31.2873 26.1893 31.2873 25.6906 31.8403C25.6477 31.8901 25.6047 31.9398 25.5605 31.9911C25.1184 32.349 24.6713 32.4579 24.1131 32.4343C24.0529 32.433 23.9926 32.4317 23.9306 32.4303C23.8009 32.4275 23.6711 32.424 23.5415 32.4201C23.2642 32.4122 22.9869 32.4095 22.7096 32.4064C22.1947 32.4005 21.68 32.3924 21.1653 32.3762C19.5098 32.2265 19.5098 32.2265 18.0215 32.7504C17.7929 33.0073 17.639 33.2839 17.505 33.5994C17.4154 33.8025 17.2902 33.9637 17.151 34.1356C17.0765 34.2376 17.0021 34.3397 16.928 34.4419C16.5432 34.9681 16.1509 35.4876 15.7502 36.0019C15.5287 35.907 15.4137 35.8147 15.2762 35.6177C15.2409 35.5679 15.2056 35.5181 15.1692 35.4668C15.1318 35.4128 15.0944 35.3588 15.0559 35.3032C14.9745 35.1881 14.893 35.073 14.8114 34.9579C14.7483 34.8685 14.7483 34.8685 14.6839 34.7772C14.4745 34.4826 14.2599 34.192 14.0451 33.9013C13.9881 33.8238 13.9881 33.8238 13.9298 33.7448C13.8548 33.6431 13.7786 33.5423 13.7011 33.4424C13.5705 33.2597 13.5705 33.2597 13.4576 33.0459C13.2094 32.6185 13.2094 32.6185 12.7985 32.3688C12.3795 32.2949 11.9551 32.3178 11.5317 32.3306C11.394 32.3314 11.2563 32.3319 11.1186 32.332C10.7571 32.333 10.3958 32.3388 10.0344 32.3459C9.45632 32.3567 8.87822 32.3611 8.30008 32.3639C8.09913 32.3657 7.89834 32.37 7.69744 32.3746C6.96952 32.3858 6.39307 32.3738 5.82781 31.8582C5.29834 31.3291 5.24686 30.711 5.24507 29.9953C5.24548 29.8897 5.24591 29.7841 5.24636 29.6785C5.24607 29.5658 5.2457 29.4531 5.24524 29.3404C5.24428 29.0359 5.24465 28.7315 5.24532 28.427C5.24586 28.1075 5.24536 27.788 5.24503 27.4684C5.24465 26.932 5.24515 26.3956 5.24615 25.8591C5.2473 25.24 5.24693 24.6209 5.24577 24.0018C5.24481 23.4691 5.24468 22.9364 5.24523 22.4036C5.24556 22.086 5.2456 21.7683 5.24491 21.4506C5.24429 21.1519 5.24472 20.8532 5.24594 20.5545C5.24622 20.4452 5.24614 20.336 5.24567 20.2267C5.24271 19.4635 5.28477 18.8162 5.7793 18.1983C6.28897 17.693 6.86794 17.6397 7.5482 17.6413Z" fill="#B6B6B6"/>
<path d="M1.99797 -0.0209061C2.10981 -0.021384 2.10981 -0.021384 2.2239 -0.0218716C2.47414 -0.0227629 2.72436 -0.0226465 2.9746 -0.0225305C3.15385 -0.0229512 3.3331 -0.0234297 3.51234 -0.0239617C3.94897 -0.0250762 4.38558 -0.0255163 4.8222 -0.0255947C5.17717 -0.0256615 5.53214 -0.0259506 5.88711 -0.0263963C6.89382 -0.0276346 7.90053 -0.0282835 8.90725 -0.028178C8.96151 -0.0281724 9.01577 -0.0281668 9.07167 -0.028161C9.126 -0.0281552 9.18032 -0.0281495 9.23629 -0.0281436C10.1166 -0.0280864 10.9969 -0.0294319 11.8772 -0.0314148C12.7814 -0.0334354 13.6856 -0.0344059 14.5898 -0.0342844C15.0973 -0.0342378 15.6048 -0.0346231 16.1124 -0.0361376C16.5897 -0.0375529 17.067 -0.0375108 17.5444 -0.0364868C17.7195 -0.0363396 17.8947 -0.0366727 18.0699 -0.0375219C18.3091 -0.0386063 18.5482 -0.0379552 18.7874 -0.0368706C18.8567 -0.037594 18.9259 -0.0383173 18.9973 -0.0390625C19.5044 -0.0339845 19.874 0.0809858 20.2644 0.409885C20.3016 0.453753 20.3389 0.497621 20.3773 0.542819C20.4154 0.585962 20.4536 0.629106 20.4929 0.673556C20.7975 1.14543 20.8423 1.57386 20.8329 2.12046C20.8326 2.18677 20.8323 2.25308 20.832 2.3214C20.8309 2.5313 20.8282 2.74114 20.8255 2.95102C20.8245 3.09412 20.8235 3.23722 20.8226 3.38031C20.8203 3.72942 20.8167 4.0785 20.8123 4.42758C20.7336 4.42797 20.7336 4.42797 20.6533 4.42836C20.1568 4.43103 19.6603 4.43504 19.1638 4.44052C18.9086 4.44328 18.6534 4.44555 18.3982 4.44664C18.1515 4.44771 17.9049 4.45014 17.6583 4.45348C17.5192 4.45502 17.38 4.45518 17.2409 4.45531C16.6611 4.46468 16.2463 4.51583 15.8056 4.92224C15.7683 4.96929 15.7311 5.01633 15.6927 5.06479C15.464 5.34783 15.2693 5.55114 14.9544 5.73715C14.579 5.9821 14.3038 6.31098 14.1579 6.73966C14.0528 7.35869 14.0768 7.97226 14.4342 8.49857C14.6735 8.80181 14.9231 8.95084 15.2576 9.13852C15.2593 9.86155 15.2605 10.5846 15.2613 11.3076C15.2617 11.6433 15.2622 11.979 15.2629 12.3147C15.2637 12.6384 15.2641 12.9621 15.2643 13.2857C15.2644 13.4095 15.2647 13.5333 15.2651 13.6571C15.2656 13.8298 15.2657 14.0026 15.2656 14.1753C15.2659 14.227 15.2661 14.2787 15.2664 14.332C15.2657 14.6852 15.2657 14.6852 15.1873 14.7635C15.0176 14.766 14.85 14.7639 14.6804 14.759C14.57 14.7564 14.4595 14.754 14.3491 14.7515C14.2605 14.7495 14.2605 14.7495 14.17 14.7474C13.7864 14.7398 13.4027 14.7377 13.019 14.7349C12.6845 14.7321 12.3503 14.7273 12.016 14.7175C10.1615 14.6649 8.83389 14.8891 7.25471 15.8897C6.95988 16.0735 6.65527 16.2327 6.34553 16.3895C6.24418 16.4429 6.14291 16.4964 6.04176 16.5502C5.54068 16.8143 5.03678 17.0731 4.53339 17.3329C3.94958 17.6341 3.36687 17.9372 2.78826 18.2484C2.46804 18.4198 2.46804 18.4198 2.39045 18.4198C2.39045 17.2132 2.39045 16.0066 2.39045 14.7635C2.18163 14.7635 1.9728 14.7635 1.75764 14.7635C1.16217 14.7151 0.757576 14.5071 0.365949 14.0557C0.0727433 13.6776 -0.0088782 13.4287 -0.0105182 12.9442C-0.0107767 12.8948 -0.0110352 12.8453 -0.0113015 12.7943C-0.0120774 12.6282 -0.0123478 12.4621 -0.0126157 12.2959C-0.0130562 12.177 -0.0135235 12.058 -0.0140158 11.9391C-0.0154953 11.548 -0.0162238 11.1569 -0.0169244 10.7659C-0.017209 10.6312 -0.0174984 10.4966 -0.0177927 10.3619C-0.0191324 9.72925 -0.020133 9.09659 -0.0207186 8.46392C-0.0214056 7.73383 -0.0232557 7.00375 -0.0260975 6.27366C-0.028219 5.70924 -0.0292595 5.14483 -0.0294923 4.5804C-0.0296575 4.24336 -0.0302865 3.90633 -0.0320559 3.56928C-0.0336945 3.25203 -0.0339898 2.93481 -0.033268 2.61756C-0.0332332 2.50135 -0.0336767 2.38514 -0.034643 2.26894C-0.0399745 1.58961 -0.041102 1.06413 0.434614 0.527988C0.51306 0.461369 0.51306 0.461369 0.593091 0.393405C0.645208 0.347905 0.697324 0.302405 0.75102 0.255527C1.15226 -0.0327199 1.52021 -0.0223983 1.99797 -0.0209061Z" fill="#B6B6B6"/>
<path d="M11.1225 23.2871C11.5881 23.6034 11.9666 24.0273 12.1508 24.5659C12.1552 24.6268 12.1595 24.6878 12.164 24.7505C12.17 24.7994 12.176 24.8482 12.1822 24.8985C12.2259 25.4971 11.9964 26.0013 11.6087 26.4528C11.131 26.9003 10.6472 27.0522 9.99588 27.034C9.43431 26.9494 8.92697 26.6634 8.58578 26.2078C8.27359 25.722 8.1611 25.2531 8.22653 24.6802C8.392 24.0931 8.77547 23.6146 9.27682 23.2739C9.81283 23.0036 10.5923 23.0074 11.1225 23.2871Z" fill="#838383"/>
<path d="M16.5075 23.1898C16.9989 23.4406 17.4312 23.8905 17.6484 24.3991C17.8292 24.9982 17.7119 25.5338 17.4375 26.0866C17.1333 26.5734 16.7208 26.8437 16.1719 27.0007C15.5484 27.0906 15.081 26.9687 14.5593 26.6315C14.1386 26.313 13.883 25.8283 13.7812 25.3132C13.717 24.7625 13.8497 24.3381 14.1759 23.8926C14.7802 23.1691 15.5906 22.925 16.5075 23.1898Z" fill="#838383"/>
<path d="M31.8483 9.90344C32.3624 10.1369 32.6754 10.5044 32.9722 10.9735C33.1661 11.5054 33.136 12.1861 32.9019 12.6962C32.5994 13.207 32.1451 13.5556 31.5703 13.7113C30.8727 13.805 30.3673 13.6736 29.8103 13.2515C29.3595 12.8485 29.1709 12.3483 29.1357 11.7513C29.1565 11.2132 29.3579 10.722 29.74 10.3377C29.8779 10.2302 30.0114 10.1401 30.1641 10.055C30.229 10.0174 30.2939 9.97982 30.3607 9.94107C30.8203 9.74321 31.3711 9.76709 31.8483 9.90344Z" fill="#838383"/>
<path d="M21.9918 23.1883C22.4466 23.4204 22.8424 23.8271 23.0767 24.2798C23.2467 24.8505 23.2022 25.5616 22.9218 26.0851C22.6282 26.5651 22.1807 26.8192 21.6562 26.9992C21.0291 27.1017 20.5412 26.9667 20.0255 26.6119C19.6612 26.3234 19.4918 26.0254 19.3359 25.5929C19.3127 25.5465 19.2895 25.5001 19.2655 25.4523C19.1993 24.8539 19.2813 24.4068 19.6171 23.9054C20.2306 23.1789 21.0712 22.9225 21.9918 23.1883Z" fill="#838383"/>
<path d="M5.89312 5.65544C6.3485 5.97723 6.67603 6.33999 6.82009 6.88893C6.90671 7.5498 6.75905 8.06315 6.42458 8.62917C5.88595 9.13945 5.34388 9.31069 4.61568 9.30318C4.09775 9.25549 3.73282 9.03347 3.37917 8.65993C2.93526 8.09563 2.86971 7.5297 2.9529 6.81862C3.13604 6.19375 3.54786 5.82115 4.08669 5.48708C4.67653 5.27247 5.35862 5.34212 5.89312 5.65544Z" fill="#838383"/>
<path d="M11.2808 5.55896C11.8159 5.87265 12.2147 6.27956 12.375 6.8905C12.4578 7.52214 12.3639 8.08492 11.9721 8.59613C11.5173 9.08814 11.0794 9.29242 10.4106 9.32067C9.79194 9.30001 9.35956 9.11092 8.93407 8.66149C8.49949 8.11007 8.446 7.58425 8.50781 6.8905C8.60591 6.36287 8.94001 5.9653 9.36474 5.65206C9.9541 5.30795 10.6587 5.27396 11.2808 5.55896Z" fill="#838383"/>
<path d="M26.6329 10.0815C27.0607 10.392 27.3931 10.7923 27.4923 11.3199C27.5652 12.0383 27.4596 12.5637 27.0177 13.1348C26.7114 13.4707 26.2722 13.6853 25.8199 13.7298C25.1223 13.7514 24.6484 13.6019 24.1261 13.1348C23.7073 12.6755 23.5711 12.1411 23.5932 11.5284C23.6709 11.0201 23.9308 10.5887 24.3282 10.2652C25.0328 9.77062 25.852 9.63072 26.6329 10.0815Z" fill="#838383"/>
<path d="M21.0781 10.0807C21.5053 10.3908 21.8394 10.7917 21.9375 11.3191C21.9998 12.0185 21.9458 12.5428 21.5024 13.0945C21.1751 13.4482 20.7492 13.6814 20.2651 13.7289C19.6176 13.749 19.1711 13.652 18.6828 13.2137C18.251 12.7599 18.067 12.3734 18.0352 11.7497C18.0515 11.1848 18.2726 10.7602 18.646 10.3435C19.3142 9.73567 20.2957 9.62902 21.0781 10.0807Z" fill="#838383"/>
<path d="M15.328 5.55469C15.3048 6.73805 15.2816 7.92141 15.2576 9.14062C14.7043 8.91929 14.3901 8.62069 14.1326 8.08594C13.9725 7.58852 13.9808 6.9368 14.195 6.45776C14.4442 6.04508 14.8099 5.55469 15.328 5.55469Z" fill="#838383"/>
</g>
<defs>
<clipPath id="clip0_821_5742">
<rect width="36" height="36" fill="white"/>
</clipPath>
</defs>
</svg>
