<svg width="36" height="36" viewBox="0 0 36 36" fill="none" xmlns="http://www.w3.org/2000/svg">
<path d="M3.9375 1.125C11.7337 1.125 19.53 1.125 27.5625 1.125C27.5625 4.095 27.5625 7.065 27.5625 10.125C27.8641 10.125 28.1658 10.125 28.4766 10.125C29.5128 10.2793 30.5024 10.7779 31.2891 11.4609C31.3295 11.4906 31.3699 11.5202 31.4116 11.5508C32.1148 12.0838 32.5998 12.9729 32.9062 13.7812C32.9353 13.8563 32.9643 13.9313 32.9941 14.0087C33.4543 15.4211 33.2781 16.9901 32.6382 18.3076C32.4196 18.7357 32.1667 19.1126 31.8516 19.4766C31.8096 19.5323 31.7676 19.588 31.7244 19.6455C31.0663 20.4255 30.1283 20.9199 29.1631 21.2055C29.1003 21.2242 29.0374 21.2429 28.9726 21.2621C28.9249 21.2762 28.8773 21.2902 28.8281 21.3047C28.8871 21.3049 28.9461 21.3052 29.0068 21.3055C29.5634 21.3081 30.1199 21.3121 30.6765 21.3176C30.9626 21.3204 31.2487 21.3227 31.5348 21.3237C31.8111 21.3248 32.0873 21.3272 32.3636 21.3306C32.4688 21.3316 32.5741 21.3322 32.6793 21.3322C32.8271 21.3324 32.9748 21.3343 33.1226 21.3366C33.2066 21.3372 33.2906 21.3379 33.3771 21.3385C33.732 21.3943 33.9482 21.5721 34.196 21.8232C34.3805 22.2269 34.353 22.6244 34.3477 23.0625C34.3487 23.151 34.3498 23.2394 34.351 23.3306C34.3475 24.1483 34.3475 24.1483 34.0312 24.4688C33.7154 24.7157 33.5062 24.786 33.1068 24.7928C33.0605 24.794 33.0143 24.7952 32.9667 24.7964C32.8206 24.7998 32.6745 24.8013 32.5283 24.8027C32.4286 24.8047 32.3289 24.8068 32.2292 24.8091C31.9862 24.8142 31.7431 24.8177 31.5 24.8203C31.5667 24.8725 31.6334 24.9247 31.7021 24.9785C31.8821 25.1194 31.9823 25.2374 32.0625 25.4531C32.0947 25.7775 32.0885 26.1029 32.0889 26.4287C32.0906 26.5178 32.0923 26.6069 32.0941 26.6987C32.0967 27.5173 32.0967 27.5173 31.7812 27.8438C31.6883 27.9152 31.5947 27.9857 31.5 28.0547C31.567 28.0557 31.567 28.0557 31.6353 28.0567C31.8393 28.0605 32.0431 28.0664 32.2471 28.0723C32.3173 28.0733 32.3876 28.0743 32.4599 28.0753C32.9874 28.0928 33.2565 28.1911 33.6335 28.5732C33.818 28.9769 33.7905 29.3744 33.7852 29.8125C33.7862 29.901 33.7873 29.9894 33.7885 30.0806C33.785 30.8983 33.785 30.8983 33.4688 31.2188C33.0976 31.559 32.7259 31.5459 32.2471 31.5527C32.1393 31.5559 32.1393 31.5559 32.0293 31.5591C31.8528 31.564 31.6765 31.5677 31.5 31.5703C31.5667 31.6225 31.6334 31.6747 31.7021 31.7285C31.8821 31.8694 31.9823 31.9874 32.0625 32.2031C32.0947 32.5275 32.0885 32.8529 32.0889 33.1787C32.0906 33.2678 32.0923 33.3569 32.0941 33.4487C32.0967 34.2762 32.0967 34.2762 31.7812 34.5938C31.4595 34.8471 31.2517 34.9101 30.8441 34.9096C30.7935 34.9099 30.7429 34.9103 30.6907 34.9106C30.5212 34.9113 30.3517 34.9101 30.1822 34.9088C30.0597 34.9089 29.9373 34.9092 29.8148 34.9095C29.4776 34.9102 29.1404 34.9091 28.8032 34.9076C28.4342 34.9064 28.0653 34.9068 27.6963 34.907C26.9798 34.9072 26.2634 34.9059 25.5469 34.9041C24.7184 34.9021 23.8898 34.9018 23.0612 34.9016C20.8731 34.9001 18.6851 34.8962 16.4971 34.8926C11.6099 34.8868 6.72275 34.881 1.6875 34.875C1.6875 24.48 1.6875 14.085 1.6875 3.375C2.43 3.375 3.1725 3.375 3.9375 3.375C3.9375 2.6325 3.9375 1.89 3.9375 1.125Z" fill="#C1CEE7"/>
<path d="M30.8504 11.0994C31.0015 11.2151 31.1454 11.3359 31.2891 11.4606C31.3295 11.4902 31.3699 11.5199 31.4116 11.5504C32.1148 12.0835 32.5998 12.9725 32.9062 13.7809C32.9353 13.856 32.9643 13.931 32.9941 14.0083C33.4543 15.4208 33.2781 16.9898 32.6382 18.3073C32.4196 18.7353 32.1667 19.1123 31.8516 19.4762C31.8096 19.532 31.7676 19.5877 31.7244 19.6451C31.0663 20.4252 30.1283 20.9195 29.1631 21.2052C29.1003 21.2239 29.0374 21.2425 28.9726 21.2618C28.9249 21.2758 28.8773 21.2899 28.8281 21.3043C28.8871 21.3046 28.9461 21.3049 29.0068 21.3051C29.5634 21.3078 30.1199 21.3118 30.6765 21.3173C30.9626 21.3201 31.2487 21.3223 31.5348 21.3234C31.8111 21.3245 32.0873 21.3269 32.3636 21.3302C32.4688 21.3313 32.5741 21.3318 32.6793 21.3319C32.8271 21.3321 32.9748 21.334 33.1226 21.3363C33.2066 21.3369 33.2906 21.3375 33.3771 21.3382C33.732 21.3939 33.9482 21.5718 34.196 21.8229C34.3805 22.2265 34.353 22.624 34.3477 23.0622C34.3487 23.1506 34.3498 23.2391 34.351 23.3302C34.3475 24.148 34.3475 24.148 34.0312 24.4684C33.7154 24.7153 33.5062 24.7857 33.1068 24.7925C33.0605 24.7937 33.0143 24.7948 32.9667 24.796C32.8206 24.7994 32.6745 24.8009 32.5283 24.8024C32.4286 24.8044 32.3289 24.8065 32.2292 24.8087C31.9862 24.8139 31.7431 24.8174 31.5 24.82C31.5667 24.8722 31.6334 24.9244 31.7021 24.9782C31.8821 25.119 31.9823 25.237 32.0625 25.4528C32.0947 25.7772 32.0885 26.1026 32.0889 26.4284C32.0906 26.5175 32.0923 26.6066 32.0941 26.6984C32.0967 27.5169 32.0967 27.5169 31.7812 27.8434C31.6883 27.9148 31.5947 27.9853 31.5 28.0543C31.567 28.0553 31.567 28.0553 31.6353 28.0563C31.8393 28.0601 32.0431 28.066 32.2471 28.0719C32.3173 28.0729 32.3876 28.0739 32.4599 28.0749C32.9874 28.0924 33.2565 28.1908 33.6335 28.5729C33.818 28.9765 33.7905 29.374 33.7852 29.8122C33.7862 29.9006 33.7873 29.9891 33.7885 30.0802C33.785 30.898 33.785 30.898 33.4688 31.2184C33.0976 31.5587 32.7259 31.5456 32.2471 31.5524C32.1393 31.5555 32.1393 31.5555 32.0293 31.5587C31.8528 31.5637 31.6765 31.5674 31.5 31.57C31.5667 31.6222 31.6334 31.6744 31.7021 31.7282C31.8821 31.869 31.9823 31.987 32.0625 32.2028C32.0947 32.5272 32.0885 32.8526 32.0889 33.1784C32.0906 33.2675 32.0923 33.3566 32.0941 33.4484C32.0967 34.2759 32.0967 34.2759 31.7812 34.5934C31.463 34.8429 31.2578 34.9099 30.855 34.9104C30.7813 34.911 30.7813 34.911 30.7061 34.9117C30.5422 34.9128 30.3784 34.9119 30.2145 34.9111C30.0966 34.9114 29.9788 34.9119 29.861 34.9125C29.5415 34.9138 29.2221 34.9133 28.9026 34.9124C28.5681 34.9117 28.2335 34.9124 27.899 34.9128C27.3373 34.9133 26.7755 34.9127 26.2138 34.9113C25.5646 34.9098 24.9154 34.9103 24.2662 34.9118C23.7085 34.9131 23.1509 34.9133 22.5932 34.9126C22.2602 34.9121 21.9273 34.9121 21.5943 34.913C21.2813 34.9138 20.9683 34.9132 20.6552 34.9116C20.5405 34.9112 20.4257 34.9114 20.3109 34.912C20.154 34.9127 19.9972 34.9118 19.8403 34.9104C19.7526 34.9103 19.6648 34.9102 19.5744 34.9101C19.2097 34.8559 18.9943 34.6824 18.7515 34.4132C18.461 33.9936 18.5625 33.785 18.5625 33.1872C13.5506 33.1872 8.53875 33.1872 3.375 33.1872C3.375 32.8159 3.375 32.4447 3.375 32.0622C3.93187 32.0622 4.48875 32.0622 5.0625 32.0622C5.0625 29.2778 5.0625 26.4934 5.0625 23.6247C5.805 23.6247 6.5475 23.6247 7.3125 23.6247C7.3125 26.409 7.3125 29.1934 7.3125 32.0622C9.54 32.0622 11.7675 32.0622 14.0625 32.0622C14.0625 29.8347 14.0625 27.6072 14.0625 25.3122C14.805 25.3122 15.5475 25.3122 16.3125 25.3122C16.3125 27.5397 16.3125 29.7672 16.3125 32.0622C18.5085 32.2481 18.5085 32.2481 19.1953 31.57C19.3684 31.4834 19.4947 31.4852 19.688 31.4774C19.7574 31.4745 19.8267 31.4715 19.8982 31.4685C19.9708 31.4657 20.0434 31.463 20.1182 31.4601C20.1913 31.4571 20.2645 31.454 20.3398 31.4509C20.5208 31.4434 20.7018 31.4363 20.8828 31.4293C20.832 31.3898 20.832 31.3898 20.7801 31.3494C20.7357 31.3134 20.6913 31.2775 20.6455 31.2404C20.6015 31.2053 20.5574 31.1702 20.512 31.1341C20.1561 30.7628 20.2242 30.2607 20.2236 29.7814C20.2219 29.7027 20.2202 29.624 20.2184 29.5429C20.2169 29.1068 20.2206 28.8108 20.5312 28.4762C20.7246 28.3092 20.7246 28.3092 20.8828 28.195C20.8382 28.1943 20.7935 28.1937 20.7475 28.193C20.5435 28.1892 20.3397 28.1833 20.1357 28.1774C20.0655 28.1764 19.9953 28.1754 19.9229 28.1744C19.4961 28.1602 19.2399 28.1264 18.9141 27.8434C18.5089 27.3945 18.5454 26.9938 18.5405 26.4152C18.5385 26.3358 18.5364 26.2565 18.5343 26.1747C18.5309 25.7244 18.5347 25.4401 18.8438 25.1012C19.1835 24.802 19.3607 24.7407 19.8111 24.7274C19.8577 24.726 19.9043 24.7245 19.9524 24.723C20.1014 24.7184 20.2504 24.7142 20.3994 24.7101C20.5004 24.7071 20.6014 24.704 20.7024 24.7009C20.95 24.6934 21.1977 24.6863 21.4453 24.6793C21.3945 24.6398 21.3945 24.6398 21.3426 24.5994C21.2982 24.5634 21.2538 24.5275 21.208 24.4904C21.164 24.4553 21.1199 24.4202 21.0745 24.3841C20.7186 24.0128 20.7867 23.5107 20.7861 23.0314C20.7844 22.9527 20.7827 22.874 20.7809 22.7929C20.7793 22.3452 20.7878 22.0635 21.0938 21.7262C21.4329 21.4275 21.6041 21.3659 22.0537 21.3602C22.1017 21.3595 22.1498 21.3588 22.1992 21.3581C22.3583 21.3559 22.5173 21.3541 22.6763 21.3524C22.7865 21.351 22.8966 21.3495 23.0068 21.348C23.2969 21.3441 23.587 21.3406 23.8772 21.3372C24.1732 21.3337 24.4691 21.3298 24.7651 21.3259C25.346 21.3183 25.9269 21.3112 26.5078 21.3043C26.4505 21.2906 26.3931 21.2768 26.334 21.2626C26.2207 21.235 26.2207 21.235 26.1051 21.2068C26.0303 21.1887 25.9556 21.1706 25.8785 21.1519C25.5965 21.075 25.3464 20.9652 25.0884 20.8297C25.0405 20.8052 24.9927 20.7806 24.9433 20.7553C24.5071 20.5254 24.1344 20.2446 23.7686 19.9146C23.3547 19.5609 22.9879 19.4389 22.4574 19.3447C22.3813 19.3298 22.3052 19.3148 22.2267 19.2995C21.9856 19.2527 21.744 19.2085 21.5024 19.1642C21.3395 19.1327 21.1766 19.1011 21.0137 19.0693C20.8578 19.0394 20.7018 19.0096 20.5458 18.9799C20.4731 18.9661 20.4003 18.9522 20.3254 18.938C19.8341 18.8459 19.8341 18.8459 19.3359 18.8434C19.2939 18.8753 19.2518 18.9072 19.2085 18.9401C19.0377 19.0669 18.9608 19.0714 18.7548 19.0977C18.4171 19.1693 18.2904 19.3011 18.1018 19.5823C18.0697 19.6343 18.0375 19.6863 18.0044 19.7399C17.9332 19.849 17.8619 19.9581 17.7904 20.067C17.7553 20.1216 17.7202 20.1761 17.684 20.2323C17.5846 20.3806 17.4798 20.5196 17.368 20.6586C17.0049 21.1143 16.8087 21.4322 16.8626 22.0385C16.8803 22.2951 16.8144 22.4348 16.6641 22.6403C16.3859 22.9184 16.1332 23.0698 15.7368 23.0929C15.3983 23.0891 15.2067 22.9765 14.9527 22.7598C14.6989 22.5 14.624 22.2687 14.6082 21.9158C14.5718 21.5723 14.4293 21.3783 14.1869 21.1405C14.1485 21.1008 14.1102 21.061 14.0707 21.02C13.9445 20.8899 13.8164 20.762 13.6879 20.6342C13.5987 20.5439 13.5095 20.4535 13.4204 20.3631C13.2336 20.1742 13.0458 19.9865 12.8572 19.7994C12.6167 19.5605 12.3796 19.3186 12.1432 19.0756C11.9599 18.8882 11.7747 18.7028 11.589 18.5179C11.5007 18.4296 11.4132 18.3405 11.3263 18.2508C10.7526 17.6486 10.7526 17.6486 9.97653 17.4084C9.55988 17.4067 9.32486 17.5227 9.02197 17.7975C8.92644 17.8763 8.83076 17.955 8.73495 18.0334C8.68632 18.0744 8.63768 18.1154 8.58757 18.1577C8.33856 18.3622 8.07601 18.547 7.81348 18.7335C7.7066 18.8104 7.59976 18.8873 7.49295 18.9643C7.38593 19.0412 7.2789 19.1181 7.17188 19.195C6.96231 19.3457 6.75286 19.4966 6.54346 19.6476C6.49211 19.6846 6.44075 19.7215 6.38785 19.7596C6.10417 19.9643 5.82228 20.171 5.54205 20.3804C5.48177 20.4253 5.42149 20.4702 5.35939 20.5165C5.24329 20.6032 5.12742 20.6902 5.01184 20.7775C4.95922 20.8168 4.9066 20.856 4.85239 20.8965C4.80631 20.9312 4.76024 20.9659 4.71277 21.0016C4.57031 21.0934 4.57031 21.0934 4.21875 21.234C4.03312 20.9788 3.8475 20.7236 3.65625 20.4606C3.78688 20.1993 3.82217 20.1388 4.04297 19.9841C4.09309 19.9485 4.1432 19.9128 4.19484 19.8761C4.24913 19.8384 4.30343 19.8007 4.35938 19.7619C4.4752 19.6798 4.59101 19.5978 4.70682 19.5158C4.76611 19.4741 4.82539 19.4324 4.88648 19.3894C5.15613 19.1992 5.42356 19.006 5.69092 18.8126C5.74285 18.7752 5.79479 18.7377 5.8483 18.6991C6.2885 18.3811 6.72653 18.0601 7.16182 17.7354C7.44526 17.5246 7.73099 17.3201 8.02469 17.1238C8.11197 17.0643 8.11197 17.0643 8.20102 17.0036C8.31143 16.9287 8.42281 16.8551 8.53528 16.7833C8.81479 16.5917 8.95358 16.4654 9.02225 16.1265C9.0301 16.0726 9.03796 16.0187 9.04606 15.9631C9.07717 15.7795 9.14551 15.6776 9.27246 15.5431C9.30708 15.5048 9.34171 15.4664 9.37738 15.4269C9.65393 15.1881 9.89369 15.16 10.2486 15.1699C10.592 15.2076 10.807 15.3584 11.0259 15.6134C11.2528 15.9181 11.2528 15.9181 11.2413 16.0944C11.2255 16.4804 11.3267 16.7094 11.5829 16.9995C11.7845 17.2128 11.9922 17.4192 12.202 17.6245C12.2922 17.7148 12.3824 17.8052 12.4724 17.8958C12.6609 18.0846 12.8505 18.2722 13.0409 18.4591C13.2848 18.6985 13.526 18.9404 13.7665 19.1831C13.9521 19.3699 14.1389 19.5556 14.326 19.7408C14.4155 19.8295 14.5046 19.9186 14.5933 20.0081C14.7175 20.1329 14.8431 20.2559 14.9693 20.3786C15.0056 20.4157 15.0418 20.4527 15.0792 20.4909C15.2786 20.6812 15.3861 20.7405 15.6637 20.7704C15.8859 20.7619 15.8859 20.7619 16.0128 20.6477C16.0411 20.6039 16.0694 20.5601 16.0985 20.515C16.1315 20.4661 16.1644 20.4172 16.1983 20.3669C16.2316 20.3137 16.265 20.2605 16.2993 20.2057C16.3718 20.0952 16.4444 19.9848 16.5171 19.8745C16.5531 19.819 16.5891 19.7636 16.6262 19.7065C16.7266 19.5581 16.8322 19.4191 16.945 19.2801C17.3282 18.8033 17.498 18.4775 17.4449 17.8439C17.4375 17.6481 17.4375 17.6481 17.5562 17.3976C18.0349 16.893 18.0349 16.893 18.3483 16.8604C18.7091 16.853 18.9582 16.876 19.2656 17.0856C19.4009 17.2198 19.5044 17.3516 19.6172 17.5075C19.6172 17.5539 19.6172 17.6003 19.6172 17.6481C19.7008 17.6553 19.7843 17.6624 19.8704 17.6698C20.3409 17.722 20.7992 17.8309 21.2607 17.9337C21.437 17.9728 21.6134 18.0118 21.7897 18.0505C21.8671 18.0677 21.9444 18.0849 22.0241 18.1027C22.2202 18.147 22.2202 18.147 22.4297 18.1403C22.4059 18.0707 22.3822 18.0011 22.3577 17.9293C22.326 17.8356 22.2944 17.7419 22.2627 17.6481C22.2471 17.6025 22.2315 17.5569 22.2155 17.5099C21.7269 16.0588 21.8489 14.5872 22.503 13.2022C22.6929 12.8227 22.9343 12.491 23.2031 12.1637C23.2428 12.1134 23.2825 12.0631 23.3234 12.0113C25.1628 9.77894 28.5219 9.52837 30.8504 11.0994Z" fill="#FED88A"/>
<path d="M10.4766 17.437C10.8582 17.6647 11.1608 18.0057 11.4684 18.3216C11.5596 18.4127 11.651 18.5035 11.7425 18.5943C11.9331 18.7843 12.1222 18.9757 12.3102 19.1683C12.5502 19.414 12.7936 19.656 13.0381 19.8971C13.2271 20.0841 13.4143 20.2727 13.6011 20.4619C13.6902 20.5518 13.7797 20.6412 13.8698 20.7301C14.7171 21.5698 14.7171 21.5698 14.7537 22.2583C14.7709 22.5045 14.8653 22.6198 15.0469 22.7807C15.3126 23.0009 15.5418 23.0245 15.8758 23.0117C16.2015 22.9697 16.3962 22.8423 16.6157 22.6049C16.7465 22.4112 16.8164 22.2925 16.7794 22.0575C16.7006 21.4973 16.8931 21.1822 17.2178 20.7504C17.3436 20.5878 17.4706 20.4263 17.5985 20.2655C17.7112 20.1186 17.8136 19.9695 17.9138 19.8139C18.3308 19.1686 18.3308 19.1686 18.596 19.0401C18.7646 19.0058 18.7646 19.0058 18.9135 19.0006C19.0641 18.9959 19.0641 18.9959 19.1818 18.8764C19.3762 18.7459 19.4644 18.758 19.694 18.7872C19.7623 18.7956 19.8307 18.8039 19.9012 18.8126C20.4291 18.8902 20.953 18.9839 21.4771 19.0841C21.6198 19.111 21.7627 19.1369 21.9057 19.1618C22.7932 19.3166 23.4015 19.4524 24.0469 20.1088C24.8998 20.7627 25.8054 21.1124 26.8594 21.3041C26.8594 21.3274 26.8594 21.3506 26.8594 21.3745C26.7942 21.3747 26.7291 21.375 26.662 21.3752C26.0475 21.3779 25.433 21.3819 24.8185 21.3874C24.5026 21.3902 24.1867 21.3924 23.8708 21.3935C23.5658 21.3946 23.2608 21.397 22.9558 21.4004C22.8396 21.4014 22.7234 21.402 22.6072 21.402C22.444 21.4022 22.281 21.4041 22.1179 21.4064C22.0252 21.407 21.9324 21.4076 21.8369 21.4083C21.4662 21.4622 21.2526 21.6329 20.999 21.8996C20.8247 22.2721 20.8448 22.6208 20.8521 23.0268C20.8516 23.1052 20.8511 23.1836 20.8505 23.2644C20.8537 23.6665 20.8572 23.9858 21.0938 24.3276C21.2679 24.4857 21.2679 24.4857 21.4453 24.6088C21.4917 24.6552 21.5381 24.7016 21.5859 24.7495C21.52 24.7501 21.454 24.7508 21.3861 24.7515C21.14 24.7546 20.8939 24.7589 20.6478 24.7641C20.5416 24.766 20.4353 24.7675 20.3291 24.7685C20.1758 24.77 20.0226 24.7733 19.8693 24.7769C19.7773 24.7784 19.6852 24.7799 19.5904 24.7814C19.2184 24.8375 19.0039 25.0065 18.749 25.2746C18.5747 25.6471 18.5948 25.9958 18.6021 26.4018C18.6016 26.4802 18.6011 26.5586 18.6005 26.6394C18.6037 27.0417 18.6074 27.3605 18.8438 27.7026C19.144 27.9736 19.3195 28.0617 19.7188 28.0764C19.7945 28.0793 19.8702 28.0823 19.9482 28.0853C20.0275 28.0881 20.1068 28.0909 20.1885 28.0937C20.2683 28.0967 20.3482 28.0998 20.4305 28.1029C20.6281 28.1104 20.8258 28.1175 21.0234 28.1245C20.9413 28.1884 20.9413 28.1884 20.8575 28.2536C20.6315 28.4388 20.4516 28.6354 20.3203 28.8979C20.3013 29.1846 20.304 29.472 20.3027 29.7592C20.3013 29.8389 20.2998 29.9186 20.2983 30.0007C20.2924 30.5698 20.2924 30.5698 20.5312 31.0776C20.7054 31.2357 20.7054 31.2357 20.8828 31.3588C20.9292 31.4052 20.9756 31.4516 21.0234 31.4995C20.9745 31.5001 20.9256 31.5008 20.8752 31.5015C20.6521 31.5052 20.4291 31.5111 20.2061 31.517C20.1291 31.518 20.0522 31.519 19.9729 31.5201C19.3696 31.5383 19.1309 31.6342 18.7031 32.062C17.9142 32.062 17.1253 32.062 16.3125 32.062C16.3125 29.8345 16.3125 27.607 16.3125 25.312C15.57 25.312 14.8275 25.312 14.0625 25.312C14.0625 27.5395 14.0625 29.767 14.0625 32.062C11.835 32.062 9.6075 32.062 7.3125 32.062C7.3125 29.2776 7.3125 26.4932 7.3125 23.6245C6.87164 23.6245 6.43078 23.6245 5.97656 23.6245C5.73329 23.344 5.61937 23.1921 5.48438 22.8688C5.40218 22.6836 5.3073 22.5084 5.20972 22.3308C4.92516 21.8106 4.92516 21.8106 4.79004 21.5522C4.76122 21.4976 4.73239 21.443 4.7027 21.3868C4.64062 21.2338 4.64062 21.2338 4.64062 20.9526C4.73672 20.8513 4.73672 20.8513 4.87299 20.7573C4.92356 20.7217 4.97413 20.6861 5.02623 20.6494C5.10944 20.5928 5.10944 20.5928 5.19434 20.5351C5.31145 20.4531 5.42854 20.3711 5.54562 20.289C5.6058 20.2473 5.66597 20.2056 5.72796 20.1627C5.99929 19.9737 6.26697 19.7799 6.53467 19.5859C6.58644 19.5485 6.63821 19.5111 6.69155 19.4726C7.02308 19.2331 7.35331 18.9919 7.68245 18.7491C7.79545 18.6659 7.90866 18.5829 8.0221 18.5003C8.2855 18.3078 8.54377 18.1127 8.79428 17.9036C8.83958 17.867 8.88488 17.8305 8.93156 17.7928C9.0144 17.7257 9.09581 17.6567 9.17515 17.5854C9.56836 17.2724 10.0109 17.3012 10.4766 17.437Z" fill="#C1CEE7"/>
<path d="M5.0625 23.625C5.805 23.625 6.5475 23.625 7.3125 23.625C7.3125 26.4094 7.3125 29.1937 7.3125 32.0625C9.54 32.0625 11.7675 32.0625 14.0625 32.0625C14.0625 29.835 14.0625 27.6075 14.0625 25.3125C14.805 25.3125 15.5475 25.3125 16.3125 25.3125C16.3125 27.54 16.3125 29.7675 16.3125 32.0625C18.5085 32.2484 18.5085 32.2484 19.1953 31.5703C19.3684 31.4838 19.4947 31.4855 19.688 31.4778C19.7574 31.4748 19.8267 31.4719 19.8982 31.4688C19.9708 31.4661 20.0434 31.4633 20.1182 31.4604C20.1913 31.4574 20.2645 31.4544 20.3398 31.4512C20.5208 31.4438 20.7018 31.4366 20.8828 31.4297C20.832 31.3901 20.832 31.3901 20.7801 31.3498C20.7357 31.3138 20.6913 31.2778 20.6455 31.2407C20.6015 31.2056 20.5574 31.1706 20.512 31.1344C20.1561 30.7632 20.2242 30.2611 20.2236 29.7817C20.2219 29.703 20.2202 29.6243 20.2184 29.5432C20.2169 29.1071 20.2206 28.8111 20.5312 28.4766C20.7246 28.3096 20.7246 28.3096 20.8828 28.1953C20.8382 28.1947 20.7935 28.194 20.7475 28.1933C20.5435 28.1895 20.3397 28.1836 20.1357 28.1777C20.0304 28.1762 20.0304 28.1762 19.9229 28.1747C19.4961 28.1606 19.2399 28.1267 18.9141 27.8438C18.5089 27.3948 18.5454 26.9941 18.5405 26.4155C18.5385 26.3362 18.5364 26.2568 18.5343 26.1751C18.5309 25.724 18.5361 25.442 18.8438 25.1016C19.1142 24.8311 19.314 24.7942 19.6875 24.75C19.6914 24.8861 19.6914 24.8861 19.6955 25.0249C19.7001 25.1457 19.7048 25.2665 19.7095 25.3872C19.7111 25.4468 19.7126 25.5064 19.7143 25.5678C19.7341 26.0336 19.7927 26.4066 20.1401 26.7451C20.4471 26.9398 20.7104 26.9389 21.0705 26.9408C21.1175 26.9412 21.1646 26.9415 21.213 26.9419C21.3705 26.9429 21.5281 26.9435 21.6856 26.9441C21.7985 26.9448 21.9115 26.9455 22.0244 26.9462C22.3311 26.9481 22.6377 26.9496 22.9444 26.951C23.2648 26.9526 23.5853 26.9545 23.9058 26.9564C24.5126 26.9599 25.1195 26.963 25.7263 26.9661C26.4172 26.9695 27.1081 26.9734 27.7989 26.9773C29.2201 26.9853 30.6413 26.9928 32.0625 27C32.0772 27.3776 32.0204 27.5448 31.7812 27.8438C31.689 27.916 31.5955 27.9867 31.5 28.0547C31.567 28.0557 31.567 28.0557 31.6353 28.0567C31.8393 28.0605 32.0431 28.0664 32.2471 28.0723C32.3173 28.0733 32.3876 28.0743 32.4599 28.0753C32.9874 28.0928 33.2565 28.1911 33.6335 28.5732C33.818 28.9769 33.7905 29.3744 33.7852 29.8125C33.7862 29.901 33.7873 29.9894 33.7885 30.0806C33.785 30.8983 33.785 30.8983 33.4688 31.2188C33.0976 31.559 32.7259 31.5459 32.2471 31.5527C32.1752 31.5548 32.1033 31.5569 32.0293 31.5591C31.8528 31.564 31.6765 31.5677 31.5 31.5703C31.5667 31.6225 31.6334 31.6747 31.7021 31.7285C31.8821 31.8694 31.9823 31.9874 32.0625 32.2031C32.0947 32.5275 32.0885 32.8529 32.0889 33.1787C32.0906 33.2678 32.0923 33.3569 32.0941 33.4487C32.0967 34.2762 32.0967 34.2762 31.7812 34.5938C31.463 34.8433 31.2578 34.9102 30.855 34.9107C30.8059 34.9112 30.7567 34.9116 30.7061 34.912C30.5422 34.9132 30.3784 34.9123 30.2145 34.9114C30.0966 34.9118 29.9788 34.9123 29.861 34.9129C29.5415 34.9142 29.2221 34.9137 28.9026 34.9128C28.5681 34.9121 28.2335 34.9127 27.899 34.9132C27.3373 34.9137 26.7755 34.913 26.2138 34.9117C25.5646 34.9101 24.9154 34.9106 24.2662 34.9122C23.7085 34.9135 23.1509 34.9136 22.5932 34.9129C22.2602 34.9125 21.9273 34.9124 21.5943 34.9133C21.2813 34.9141 20.9683 34.9136 20.6552 34.912C20.5405 34.9116 20.4257 34.9117 20.3109 34.9123C20.154 34.9131 19.9972 34.9121 19.8403 34.9107C19.7526 34.9106 19.6648 34.9105 19.5744 34.9104C19.2097 34.8563 18.9943 34.6827 18.7515 34.4136C18.461 33.994 18.5625 33.7853 18.5625 33.1875C13.5506 33.1875 8.53875 33.1875 3.375 33.1875C3.375 32.8162 3.375 32.445 3.375 32.0625C3.93187 32.0625 4.48875 32.0625 5.0625 32.0625C5.0625 29.2781 5.0625 26.4937 5.0625 23.625Z" fill="#F69A30"/>
<path d="M1.6875 3.375C2.05875 3.375 2.43 3.375 2.8125 3.375C2.81335 3.56696 2.81335 3.56696 2.81422 3.76279C2.81969 4.97401 2.82586 6.18521 2.83272 7.39642C2.83622 8.01898 2.83949 8.64154 2.84216 9.2641C2.8445 9.80744 2.84731 10.3508 2.85066 10.8941C2.85242 11.1811 2.85396 11.4682 2.85492 11.7552C2.86029 13.2931 2.90318 14.8053 3.18604 16.3213C3.20131 16.4045 3.21659 16.4878 3.23233 16.5735C3.4459 17.7072 3.6987 18.9287 4.21875 19.9688C4.05633 20.0848 3.89391 20.2008 3.72656 20.3203C3.83604 20.6487 4.01375 20.8889 4.21875 21.1641C4.42758 21.0945 4.42758 21.0945 4.64062 21.0234C4.65861 21.0626 4.6766 21.1019 4.69513 21.1422C5.04869 21.909 5.41403 22.6533 5.86285 23.369C5.97656 23.5547 5.97656 23.5547 5.97656 23.625C5.67492 23.625 5.37328 23.625 5.0625 23.625C5.0625 26.4094 5.0625 29.1938 5.0625 32.0625C4.50563 32.0625 3.94875 32.0625 3.375 32.0625C3.375 32.4338 3.375 32.805 3.375 33.1875C8.38688 33.1875 13.3988 33.1875 18.5625 33.1875C18.5857 33.4659 18.6089 33.7444 18.6328 34.0312C18.7535 34.3692 18.9063 34.5269 19.1953 34.7344C19.2417 34.7808 19.2881 34.8272 19.3359 34.875C13.512 34.875 7.68797 34.875 1.6875 34.875C1.6875 24.48 1.6875 14.085 1.6875 3.375Z" fill="#A5B9DA"/>
<path d="M3.9375 1.125C11.7337 1.125 19.53 1.125 27.5625 1.125C27.5625 4.095 27.5625 7.065 27.5625 10.125C26.9708 10.1946 26.9708 10.1946 26.3672 10.2656C25.994 10.3715 25.994 10.3715 25.6248 10.4903C25.4531 10.5469 25.4531 10.5469 25.3125 10.5469C25.3205 10.4943 25.3285 10.4418 25.3367 10.3877C25.4999 9.08255 25.2587 8.1387 24.4575 7.08972C24.0981 6.63428 23.7097 6.20965 23.308 5.79144C23.2558 5.73635 23.2036 5.68125 23.1497 5.62449C21.3633 3.76011 19.6387 3.04186 17.0658 2.9589C15.598 2.92887 14.1346 2.97835 12.6692 3.05949C12.0018 3.096 11.3348 3.11954 10.6666 3.13467C10.5952 3.1363 10.5952 3.1363 10.5223 3.13796C10.283 3.14333 10.0438 3.14849 9.80457 3.15356C7.84715 3.19524 5.89268 3.27389 3.9375 3.375C3.9375 2.6325 3.9375 1.89 3.9375 1.125Z" fill="#A5BADA"/>
<path d="M22.0564 21.3647C22.1054 21.3645 22.1543 21.3642 22.2047 21.3639C22.3694 21.3632 22.5342 21.3629 22.6989 21.3626C22.8167 21.3622 22.9345 21.3617 23.0523 21.3612C23.3729 21.36 23.6935 21.3592 24.0142 21.3587C24.2144 21.3583 24.4147 21.3579 24.6149 21.3574C25.2413 21.3561 25.8676 21.3551 26.494 21.3545C27.2174 21.3538 27.9407 21.352 28.6641 21.3491C29.223 21.347 29.7818 21.346 30.3407 21.3457C30.6746 21.3456 31.0085 21.3449 31.3424 21.3432C31.6565 21.3415 31.9707 21.3412 32.2849 21.342C32.4002 21.342 32.5154 21.3416 32.6306 21.3406C32.7882 21.3393 32.9456 21.3398 33.1031 21.3408C33.1912 21.3406 33.2793 21.3404 33.3701 21.3403C33.7308 21.3927 33.9447 21.5686 34.196 21.8233C34.3804 22.2269 34.353 22.6244 34.3476 23.0626C34.3493 23.1953 34.3493 23.1953 34.3509 23.3306C34.3475 24.1484 34.3475 24.1484 34.0312 24.4688C33.7153 24.7157 33.5062 24.7861 33.1067 24.7929C33.0605 24.7941 33.0143 24.7952 32.9667 24.7964C32.8205 24.7998 32.6745 24.8013 32.5283 24.8028C32.4286 24.8048 32.3289 24.8069 32.2292 24.8091C31.9861 24.8143 31.7431 24.8178 31.5 24.8204C31.5667 24.8726 31.6334 24.9248 31.7021 24.9786C31.8833 25.1203 31.9748 25.24 32.0625 25.4532C32.0784 25.6271 32.0784 25.6271 32.0762 25.819C32.0755 25.9224 32.0755 25.9224 32.0748 26.0278C32.0731 26.1349 32.0731 26.1349 32.0713 26.2442C32.0706 26.3167 32.07 26.3892 32.0694 26.4639C32.0677 26.6427 32.0654 26.8213 32.0625 27.0001C30.5767 27.005 29.0908 27.0087 27.605 27.011C26.9151 27.0121 26.2252 27.0136 25.5353 27.016C24.934 27.0181 24.3326 27.0194 23.7312 27.0199C23.4128 27.0202 23.0945 27.0208 22.7761 27.0224C22.4763 27.0238 22.1765 27.0242 21.8767 27.0239C21.7668 27.024 21.6569 27.0244 21.547 27.0252C21.3966 27.0263 21.2462 27.026 21.0958 27.0254C21.0118 27.0256 20.9277 27.0258 20.8411 27.026C20.519 26.9911 20.2394 26.8984 19.9869 26.6861C19.7445 26.3711 19.678 26.1571 19.6806 25.7663C19.6808 25.7128 19.681 25.6592 19.6811 25.604C19.6818 25.5369 19.6824 25.4697 19.6831 25.4005C19.6845 25.1858 19.686 24.9712 19.6875 24.7501C20.5576 24.7153 20.5576 24.7153 21.4453 24.6797C21.2829 24.5405 21.1205 24.4013 20.9531 24.2579C20.7401 23.8796 20.7866 23.4545 20.7861 23.0318C20.7835 22.9137 20.7835 22.9137 20.7809 22.7933C20.7793 22.3456 20.7878 22.0639 21.0937 21.7266C21.4349 21.4261 21.604 21.3663 22.0564 21.3647Z" fill="#F69B31"/>
<path d="M5.0625 23.625C5.805 23.625 6.5475 23.625 7.3125 23.625C7.3125 26.4094 7.3125 29.1937 7.3125 32.0625C9.54 32.0625 11.7675 32.0625 14.0625 32.0625C14.0625 29.835 14.0625 27.6075 14.0625 25.3125C14.805 25.3125 15.5475 25.3125 16.3125 25.3125C16.3125 27.54 16.3125 29.7675 16.3125 32.0625C17.1014 32.0625 17.8903 32.0625 18.7031 32.0625C18.6799 32.1321 18.6567 32.2017 18.6328 32.2734C18.6096 32.5751 18.5864 32.8767 18.5625 33.1875C13.5506 33.1875 8.53875 33.1875 3.375 33.1875C3.375 32.8162 3.375 32.445 3.375 32.0625C3.93187 32.0625 4.48875 32.0625 5.0625 32.0625C5.0625 29.2781 5.0625 26.4937 5.0625 23.625Z" fill="#5B5B5A"/>
<path d="M23.2679 31.4278C23.4365 31.4286 23.6052 31.4293 23.7738 31.4301C24.3036 31.4324 24.8334 31.435 25.3632 31.4382C25.9712 31.4418 26.5792 31.4442 27.1872 31.4456C27.6607 31.4467 28.1342 31.449 28.6077 31.452C28.8893 31.4538 29.1708 31.4552 29.4523 31.4554C29.7159 31.4556 29.9794 31.4571 30.2429 31.4597C30.3852 31.4607 30.5275 31.4604 30.6698 31.46C31.2653 31.4676 31.5268 31.5235 31.9462 31.9485C32.1306 32.3521 32.1032 32.7496 32.0978 33.1878C32.0994 33.3205 32.0994 33.3205 32.1011 33.4558C32.0976 34.2736 32.0976 34.2736 31.7814 34.594C31.4632 34.8436 31.2579 34.9105 30.8552 34.911C30.806 34.9114 30.7568 34.9119 30.7062 34.9123C30.5423 34.9134 30.3785 34.9125 30.2146 34.9117C30.0968 34.912 29.9789 34.9125 29.8611 34.9132C29.5416 34.9144 29.2222 34.9139 28.9027 34.913C28.5682 34.9123 28.2337 34.913 27.8991 34.9134C27.3374 34.9139 26.7756 34.9133 26.2139 34.9119C25.5647 34.9104 24.9155 34.9109 24.2663 34.9124C23.7086 34.9137 23.151 34.9139 22.5933 34.9132C22.2604 34.9127 21.9274 34.9127 21.5945 34.9136C21.2814 34.9144 20.9684 34.9138 20.6554 34.9122C20.5406 34.9119 20.4258 34.912 20.311 34.9126C20.1541 34.9133 19.9973 34.9124 19.8404 34.911C19.7527 34.9109 19.665 34.9108 19.5746 34.9107C19.2098 34.8565 18.9945 34.683 18.7516 34.4138C18.4885 34.0338 18.5444 33.611 18.5407 33.1658C18.5386 33.0864 18.5366 33.0071 18.5345 32.9253C18.531 32.475 18.5348 32.1907 18.8439 31.8518C19.2508 31.4933 19.5127 31.4814 20.0379 31.4608C20.1496 31.4563 20.1496 31.4563 20.2636 31.4518C21.2648 31.4163 22.2663 31.4228 23.2679 31.4278Z" fill="#FBB632"/>
<path d="M10.6348 15.2672C10.9041 15.4508 11.1025 15.6664 11.25 15.9615C11.2471 16.0056 11.2442 16.0498 11.2413 16.0953C11.2255 16.4813 11.3267 16.7103 11.5829 17.0003C11.7845 17.2137 11.9922 17.4201 12.202 17.6254C12.2922 17.7157 12.3824 17.8061 12.4724 17.8967C12.6609 18.0855 12.8505 18.2731 13.0409 18.46C13.2848 18.6994 13.526 18.9413 13.7665 19.184C13.9521 19.3708 14.1389 19.5564 14.326 19.7417C14.4155 19.8304 14.5046 19.9195 14.5933 20.009C14.7175 20.1338 14.8431 20.2568 14.9693 20.3795C15.0237 20.4351 15.0237 20.4351 15.0792 20.4918C15.2786 20.6821 15.3861 20.7414 15.6637 20.7713C15.8859 20.7628 15.8859 20.7628 16.0128 20.6486C16.0552 20.5829 16.0552 20.5829 16.0985 20.5159C16.1315 20.467 16.1644 20.4181 16.1983 20.3678C16.2483 20.288 16.2483 20.288 16.2993 20.2066C16.3718 20.0961 16.4444 19.9857 16.5171 19.8754C16.5531 19.8199 16.5891 19.7645 16.6262 19.7074C16.7266 19.559 16.8322 19.42 16.945 19.281C17.3282 18.8042 17.498 18.4784 17.4449 17.8448C17.4375 17.649 17.4375 17.649 17.5562 17.3985C18.0349 16.8939 18.0349 16.8939 18.3483 16.8613C18.7091 16.8539 18.9582 16.8769 19.2656 17.0865C19.4009 17.2207 19.5044 17.3525 19.6172 17.5084C19.6172 17.5548 19.6172 17.6012 19.6172 17.649C19.7009 17.6563 19.7847 17.6637 19.871 17.6712C20.3377 17.7232 20.7934 17.8263 21.252 17.9258C21.3401 17.9445 21.4282 17.9631 21.5189 17.9823C21.6038 18.0006 21.6886 18.0188 21.776 18.0376C21.8526 18.0541 21.9292 18.0706 22.0082 18.0876C22.4093 18.1897 22.5916 18.2686 22.8159 18.6303C22.8421 18.6749 22.8684 18.7194 22.8955 18.7652C23.0594 19.0338 23.2225 19.2973 23.4141 19.5474C23.1342 19.4964 22.8545 19.4451 22.5747 19.3936C22.4898 19.378 22.4048 19.3624 22.3173 19.3463C21.651 19.223 20.9867 19.0915 20.3238 18.9515C19.8343 18.848 19.8343 18.848 19.3359 18.8443C19.2939 18.8762 19.2518 18.9081 19.2085 18.941C19.0377 19.0678 18.9608 19.0723 18.7548 19.0986C18.4171 19.1702 18.2904 19.302 18.1018 19.5832C18.0697 19.6352 18.0375 19.6872 18.0044 19.7408C17.9332 19.8499 17.8619 19.9589 17.7904 20.0679C17.7553 20.1225 17.7202 20.177 17.684 20.2332C17.5846 20.3815 17.4798 20.5205 17.368 20.6595C17.0049 21.1152 16.8087 21.4331 16.8626 22.0394C16.8803 22.296 16.8144 22.4357 16.6641 22.6412C16.3859 22.9193 16.1332 23.0707 15.7368 23.0938C15.3983 23.09 15.2067 22.9774 14.9527 22.7607C14.6989 22.5009 14.624 22.2696 14.6082 21.9167C14.5718 21.5732 14.4293 21.3792 14.1869 21.1414C14.1485 21.1017 14.1102 21.0619 14.0707 21.0209C13.9445 20.8908 13.8164 20.7629 13.6879 20.6351C13.5987 20.5448 13.5095 20.4544 13.4204 20.364C13.2336 20.1751 13.0458 19.9874 12.8572 19.8003C12.6167 19.5614 12.3796 19.3195 12.1432 19.0765C11.9599 18.8891 11.7747 18.7037 11.589 18.5188C11.5007 18.4305 11.4132 18.3414 11.3263 18.2517C10.7526 17.6495 10.7526 17.6495 9.97653 17.4093C9.55988 17.4076 9.32486 17.5236 9.02197 17.7984C8.92644 17.8772 8.83076 17.9559 8.73495 18.0343C8.68632 18.0753 8.63768 18.1163 8.58757 18.1586C8.33856 18.363 8.07601 18.5479 7.81348 18.7344C7.7066 18.8113 7.59976 18.8882 7.49295 18.9652C7.38593 19.0421 7.2789 19.119 7.17188 19.1959C6.96231 19.3466 6.75286 19.4975 6.54346 19.6485C6.46643 19.7039 6.46643 19.7039 6.38785 19.7605C6.10417 19.9651 5.82228 20.1719 5.54205 20.3813C5.48177 20.4262 5.42149 20.4711 5.35939 20.5174C5.24329 20.6041 5.12742 20.6911 5.01184 20.7784C4.95922 20.8177 4.9066 20.8569 4.85239 20.8974C4.80631 20.9321 4.76024 20.9667 4.71277 21.0025C4.57031 21.0943 4.57031 21.0943 4.21875 21.2349C4.03312 20.9797 3.8475 20.7245 3.65625 20.4615C3.78688 20.2002 3.82217 20.1397 4.04297 19.985C4.09309 19.9493 4.1432 19.9137 4.19484 19.877C4.24913 19.8393 4.30343 19.8016 4.35938 19.7628C4.4752 19.6807 4.59101 19.5987 4.70682 19.5167C4.76611 19.475 4.82539 19.4333 4.88648 19.3903C5.15613 19.2001 5.42356 19.0069 5.69092 18.8135C5.74285 18.7761 5.79479 18.7386 5.8483 18.7C6.2885 18.382 6.72653 18.061 7.16182 17.7363C7.44526 17.5255 7.73099 17.321 8.02469 17.1247C8.08288 17.085 8.14107 17.0454 8.20102 17.0045C8.31143 16.9296 8.42281 16.856 8.53528 16.7842C8.81479 16.5925 8.95358 16.4663 9.02225 16.1274C9.0301 16.0735 9.03796 16.0196 9.04606 15.964C9.07717 15.7804 9.14551 15.6785 9.27246 15.544C9.30708 15.5057 9.34171 15.4673 9.37738 15.4278C9.74897 15.1069 10.1863 15.1119 10.6348 15.2672Z" fill="#E63B47"/>
<path d="M21.9375 21.3745C23.452 21.3679 24.9665 21.3629 26.4811 21.3599C27.1843 21.3584 27.8875 21.3565 28.5908 21.3532C29.2037 21.3504 29.8166 21.3486 30.4295 21.348C30.7541 21.3476 31.0786 21.3468 31.4032 21.3447C31.7087 21.3428 32.0142 21.3422 32.3197 21.3426C32.4318 21.3426 32.5439 21.342 32.656 21.3409C32.8092 21.3395 32.9623 21.3399 33.1155 21.3406C33.244 21.3402 33.244 21.3402 33.3752 21.3398C33.7372 21.3933 33.9525 21.571 34.1971 21.8342C34.3629 22.184 34.3429 22.4959 34.3301 22.8774C34.3288 22.9493 34.3275 23.0211 34.3262 23.0952C34.3229 23.2717 34.3183 23.448 34.3125 23.6245C32.8267 23.6294 31.3408 23.6331 29.855 23.6354C29.1651 23.6365 28.4752 23.6379 27.7853 23.6404C27.184 23.6425 26.5826 23.6438 25.9812 23.6443C25.6628 23.6446 25.3445 23.6452 25.0261 23.6468C24.7263 23.6482 24.4265 23.6486 24.1267 23.6483C24.0168 23.6484 23.9069 23.6488 23.797 23.6496C23.6466 23.6507 23.4962 23.6504 23.3458 23.6498C23.2197 23.6501 23.2197 23.6501 23.0911 23.6504C22.769 23.6155 22.4894 23.5228 22.2369 23.3105C21.9945 22.9955 21.928 22.7814 21.9306 22.3907C21.9308 22.3313 21.9311 22.272 21.9313 22.2108C21.9319 22.1494 21.9325 22.0881 21.9331 22.0248C21.9334 21.9624 21.9337 21.8999 21.9341 21.8356C21.9349 21.6819 21.936 21.5282 21.9375 21.3745Z" fill="#FBB632"/>
<path d="M9.5625 21.375C10.305 21.375 11.0475 21.375 11.8125 21.375C11.8125 24.9019 11.8125 28.4288 11.8125 32.0625C11.07 32.0625 10.3275 32.0625 9.5625 32.0625C9.5625 28.5356 9.5625 25.0087 9.5625 21.375Z" fill="#F9CB5D"/>
<path d="M27 11.3202C27 11.5058 27 11.6915 27 11.8827C26.9224 11.9235 26.9224 11.9235 26.8432 11.9651C26.0908 12.3667 25.6607 12.7367 25.3829 13.5702C25.336 14.1679 25.3431 14.671 25.6641 15.1874C25.6947 15.2373 25.7254 15.2871 25.7569 15.3385C26.0892 15.8268 26.5071 16.0804 27.0704 16.2421C27.2327 16.2622 27.3953 16.2797 27.5582 16.2948C27.9418 16.3467 28.1918 16.4078 28.4626 16.6895C28.6946 17.0061 28.7278 17.336 28.6875 17.7187C28.5549 18.0599 28.3609 18.288 28.0547 18.4921C27.7685 18.5875 27.5102 18.5993 27.211 18.5624C26.9046 18.4064 26.6909 18.2211 26.5079 17.9296C26.4731 17.686 26.4731 17.686 26.4375 17.4374C26.0663 17.4374 25.695 17.4374 25.3125 17.4374C25.4624 18.1536 25.6316 18.7942 26.2618 19.226C26.5016 19.3692 26.7464 19.5 27 19.6171C27 19.8259 27 20.0348 27 20.2499C25.7664 20.0503 24.6652 19.4617 23.9107 18.4501C23.1342 17.287 22.8697 16.0204 23.1329 14.6469C23.4424 13.5011 24.1873 12.5364 25.1719 11.8827C25.7362 11.5768 26.3426 11.2791 27 11.3202Z" fill="#F69B31"/>
<path d="M28.1249 11.3203C29.2022 11.3751 30.1925 11.9099 30.9283 12.6865C31.5408 13.4259 32.0362 14.3529 32.0624 15.3281C32.0675 15.4044 32.0727 15.4808 32.078 15.5594C32.1282 16.7825 31.71 17.8684 30.911 18.7954C30.2373 19.5043 29.3169 20.1517 28.305 20.1885C28.2456 20.1856 28.1861 20.1827 28.1249 20.1797C28.1249 19.9941 28.1249 19.8084 28.1249 19.6172C28.1766 19.5908 28.2284 19.5644 28.2817 19.5373C28.9682 19.1772 29.4011 18.7772 29.6937 18.0527C29.8105 17.4158 29.7977 16.875 29.4608 16.3125C29.4161 16.2375 29.4161 16.2375 29.3704 16.1609C29.1162 15.7813 28.8193 15.5838 28.4061 15.3984C28.3503 15.3727 28.2945 15.347 28.2369 15.3204C28.0303 15.2495 27.855 15.2387 27.6371 15.2314C27.1739 15.1985 26.9385 15.072 26.6263 14.7261C26.4048 14.406 26.3921 14.0882 26.4374 13.7109C26.6054 13.3615 26.8574 13.0997 27.2108 12.9375C27.605 12.8647 27.9315 12.9207 28.2655 13.1484C28.5969 13.4725 28.6176 13.5744 28.6874 14.0625C29.0586 14.0625 29.4299 14.0625 29.8124 14.0625C29.7072 13.3839 29.5095 12.8278 28.9686 12.375C28.6977 12.1892 28.4201 12.0268 28.1249 11.8828C28.1249 11.6972 28.1249 11.5116 28.1249 11.3203Z" fill="#F69B31"/>
<path d="M22.5001 24.7482C22.5001 25.3051 22.5001 25.8619 22.5001 26.4357C22.8714 26.4357 23.2426 26.4357 23.6251 26.4357C23.6251 25.8788 23.6251 25.3219 23.6251 24.7482C23.9964 24.7482 24.3676 24.7482 24.7501 24.7482C24.7501 25.3051 24.7501 25.8619 24.7501 26.4357C25.1214 26.4357 25.4926 26.4357 25.8751 26.4357C25.8751 25.8788 25.8751 25.3219 25.8751 24.7482C26.2464 24.7482 26.6176 24.7482 27.0001 24.7482C27.0001 25.3051 27.0001 25.8619 27.0001 26.4357C27.3714 26.4357 27.7426 26.4357 28.1251 26.4357C28.1251 25.8788 28.1251 25.3219 28.1251 24.7482C28.4964 24.7482 28.8676 24.7482 29.2501 24.7482C29.2501 25.3051 29.2501 25.8619 29.2501 26.4357C29.6214 26.4357 29.9926 26.4357 30.3751 26.4357C30.3751 25.8788 30.3751 25.3219 30.3751 24.7482C31.283 24.7139 31.283 24.7139 31.6144 24.8625C31.9338 25.1819 32.0789 25.3752 32.0901 25.8309C32.0882 25.971 32.0849 26.1111 32.0802 26.2511C32.0789 26.323 32.0776 26.3949 32.0763 26.4689C32.073 26.6454 32.0684 26.8218 32.0626 26.9982C30.5768 27.0031 29.091 27.0068 27.6051 27.0091C26.9152 27.0102 26.2253 27.0117 25.5354 27.0141C24.9341 27.0162 24.3327 27.0176 23.7313 27.018C23.413 27.0183 23.0946 27.019 22.7762 27.0205C22.4764 27.0219 22.1766 27.0224 21.8768 27.0221C21.7669 27.0221 21.657 27.0225 21.5471 27.0233C21.3967 27.0244 21.2464 27.0241 21.096 27.0236C20.9699 27.0239 20.9699 27.0239 20.8412 27.0242C20.5192 26.9893 20.2395 26.8966 19.987 26.6843C19.7447 26.3693 19.6781 26.1552 19.6807 25.7644C19.681 25.7051 19.6812 25.6457 19.6814 25.5845C19.682 25.5232 19.6826 25.4618 19.6832 25.3986C19.6835 25.3361 19.6838 25.2737 19.6842 25.2093C19.685 25.0556 19.6862 24.9019 19.6876 24.7482C19.9849 24.7341 20.2823 24.7213 20.5797 24.7086C20.6626 24.7047 20.7455 24.7008 20.8309 24.6967C21.3945 24.6735 21.9384 24.6954 22.5001 24.7482Z" fill="#FEC66E"/>
<path d="M5.0625 23.625C5.805 23.625 6.5475 23.625 7.3125 23.625C7.3125 26.4094 7.3125 29.1937 7.3125 32.0625C6.57 32.0625 5.8275 32.0625 5.0625 32.0625C5.0625 29.2781 5.0625 26.4937 5.0625 23.625Z" fill="#E73844"/>
<path d="M19.6876 31.5007C19.6903 31.5914 19.6929 31.6822 19.6956 31.7756C19.7002 31.8964 19.7049 32.0172 19.7096 32.1379C19.7112 32.1975 19.7128 32.2571 19.7144 32.3185C19.7342 32.7843 19.7928 33.1573 20.1403 33.4958C20.4472 33.6905 20.7105 33.6896 21.0706 33.6915C21.1177 33.6919 21.1647 33.6922 21.2132 33.6926C21.3707 33.6936 21.5282 33.6942 21.6857 33.6948C21.7987 33.6955 21.9116 33.6962 22.0246 33.6969C22.3312 33.6988 22.6379 33.7003 22.9445 33.7017C23.265 33.7033 23.5854 33.7052 23.9059 33.7071C24.5127 33.7106 25.1196 33.7137 25.7264 33.7168C26.4173 33.7202 27.1082 33.7241 27.7991 33.728C29.2203 33.736 30.6414 33.7435 32.0626 33.7507C32.0763 34.1293 32.0268 34.2974 31.7814 34.5945C31.465 34.8461 31.2572 34.9109 30.8552 34.9114C30.806 34.9119 30.7568 34.9123 30.7062 34.9127C30.5423 34.9139 30.3785 34.913 30.2146 34.9121C30.0968 34.9125 29.9789 34.913 29.8611 34.9136C29.5416 34.9149 29.2222 34.9144 28.9027 34.9135C28.5682 34.9128 28.2337 34.9134 27.8991 34.9139C27.3374 34.9144 26.7756 34.9137 26.2139 34.9124C25.5647 34.9108 24.9155 34.9113 24.2663 34.9129C23.7086 34.9142 23.151 34.9143 22.5933 34.9136C22.2604 34.9132 21.9274 34.9131 21.5945 34.914C21.2814 34.9148 20.9684 34.9143 20.6554 34.9127C20.5406 34.9123 20.4258 34.9124 20.311 34.913C20.1541 34.9138 19.9973 34.9128 19.8404 34.9114C19.7527 34.9113 19.665 34.9112 19.5746 34.9111C19.2098 34.857 18.9945 34.6834 18.7516 34.4143C18.4885 34.0342 18.5444 33.6115 18.5407 33.1662C18.5386 33.0869 18.5366 33.0075 18.5345 32.9258C18.531 32.4754 18.5348 32.1912 18.8439 31.8523C19.1386 31.5927 19.2961 31.4904 19.6876 31.5007Z" fill="#F69B31"/>
<path d="M19.6876 24.7507C19.6903 24.8414 19.6929 24.9322 19.6956 25.0256C19.7002 25.1464 19.7049 25.2672 19.7096 25.3879C19.7112 25.4475 19.7128 25.5071 19.7144 25.5685C19.7342 26.0343 19.7928 26.4073 20.1403 26.7458C20.4472 26.9405 20.7105 26.9396 21.0706 26.9415C21.1177 26.9419 21.1647 26.9422 21.2132 26.9426C21.3707 26.9436 21.5282 26.9442 21.6857 26.9448C21.7987 26.9455 21.9116 26.9462 22.0246 26.9469C22.3312 26.9488 22.6379 26.9503 22.9445 26.9517C23.265 26.9533 23.5854 26.9552 23.9059 26.9571C24.5127 26.9606 25.1196 26.9637 25.7264 26.9668C26.4173 26.9702 27.1082 26.9741 27.7991 26.978C29.2203 26.986 30.6414 26.9935 32.0626 27.0007C32.0763 27.3793 32.0268 27.5474 31.7814 27.8445C31.465 28.0961 31.2572 28.1609 30.8552 28.1614C30.806 28.1619 30.7568 28.1623 30.7062 28.1627C30.5423 28.1639 30.3785 28.163 30.2146 28.1621C30.0968 28.1625 29.9789 28.163 29.8611 28.1636C29.5416 28.1649 29.2222 28.1644 28.9027 28.1635C28.5682 28.1628 28.2337 28.1634 27.8991 28.1639C27.3374 28.1644 26.7756 28.1637 26.2139 28.1624C25.5647 28.1608 24.9155 28.1613 24.2663 28.1629C23.7086 28.1642 23.151 28.1643 22.5933 28.1636C22.2604 28.1632 21.9274 28.1631 21.5945 28.164C21.2814 28.1648 20.9684 28.1643 20.6554 28.1627C20.5406 28.1623 20.4258 28.1624 20.311 28.163C20.1541 28.1638 19.9973 28.1628 19.8404 28.1614C19.7527 28.1613 19.665 28.1612 19.5746 28.1611C19.2098 28.107 18.9945 27.9334 18.7516 27.6643C18.4885 27.2842 18.5444 26.8615 18.5407 26.4162C18.5386 26.3369 18.5366 26.2575 18.5345 26.1758C18.531 25.7254 18.5348 25.4412 18.8439 25.1023C19.1386 24.8427 19.2961 24.7404 19.6876 24.7507Z" fill="#FBB732"/>
<path d="M21.3751 28.1257C21.3762 28.1661 21.3772 28.2065 21.3782 28.2481C21.3835 28.4329 21.3903 28.6177 21.3971 28.8025C21.3987 28.866 21.4003 28.9295 21.4019 28.995C21.4204 29.4554 21.4799 29.7864 21.8278 30.1164C22.1333 30.3176 22.3961 30.3146 22.7581 30.3165C22.8052 30.3169 22.8522 30.3172 22.9007 30.3176C23.0582 30.3186 23.2157 30.3192 23.3732 30.3198C23.4862 30.3205 23.5991 30.3212 23.7121 30.3219C24.0187 30.3238 24.3254 30.3253 24.632 30.3267C24.9525 30.3283 25.2729 30.3302 25.5934 30.3321C26.2002 30.3356 26.8071 30.3387 27.4139 30.3418C28.1048 30.3452 28.7957 30.3491 29.4866 30.353C30.9078 30.361 32.3289 30.3685 33.7501 30.3757C33.7638 30.7543 33.7143 30.9224 33.4689 31.2195C33.1559 31.4676 32.9518 31.5358 32.5543 31.5355C32.4824 31.536 32.4824 31.536 32.4091 31.5365C32.2494 31.5373 32.0898 31.5361 31.9301 31.5349C31.8153 31.535 31.7005 31.5353 31.5856 31.5357C31.2743 31.5364 30.963 31.5353 30.6517 31.5339C30.3255 31.5326 29.9992 31.5329 29.673 31.5329C29.1251 31.5328 28.5772 31.5316 28.0293 31.5296C27.3965 31.5274 26.7638 31.5267 26.1311 31.5268C25.4566 31.5269 24.7822 31.5259 24.1078 31.5246C23.9138 31.5243 23.7199 31.5242 23.526 31.5242C23.2207 31.524 22.9154 31.5232 22.6101 31.5218C22.4983 31.5213 22.3865 31.5212 22.2747 31.5213C20.9478 31.5219 20.9478 31.5219 20.5976 31.2461C20.5656 31.2039 20.5336 31.1618 20.5006 31.1184C20.4674 31.0764 20.4341 31.0344 20.3998 30.9912C20.1707 30.6352 20.2316 30.1983 20.2282 29.7912C20.2261 29.7119 20.2241 29.6325 20.222 29.5508C20.2185 29.1004 20.2223 28.8162 20.5314 28.4773C20.8261 28.2177 20.9836 28.1154 21.3751 28.1257Z" fill="#EB8329"/>
<path d="M3.9375 2.81277C6.01045 2.69747 8.08328 2.60985 10.1588 2.55785C10.4069 2.55161 10.655 2.54514 10.9031 2.53855C10.9525 2.53724 11.0018 2.53593 11.0527 2.53458C11.743 2.51581 12.4319 2.48514 13.1213 2.44468C20.4345 2.01563 20.4345 2.01563 22.9153 4.16847C23.2676 4.487 23.5997 4.82272 23.9279 5.16577C23.9807 5.21989 24.0334 5.274 24.0877 5.32976C25.1574 6.43547 26.0217 7.49744 26.0031 9.09456C25.987 9.53587 25.9434 9.9704 25.875 10.4065C25.6894 10.4529 25.5037 10.4993 25.3125 10.5471C25.3205 10.4946 25.3285 10.4421 25.3367 10.3879C25.4999 9.08283 25.2587 8.13897 24.4575 7.08999C24.0981 6.63455 23.7097 6.20993 23.308 5.79172C23.2558 5.73662 23.2036 5.68153 23.1497 5.62476C21.3633 3.76038 19.6387 3.04213 17.0658 2.95918C15.598 2.92914 14.1346 2.97863 12.6692 3.05976C12.0018 3.09628 11.3348 3.11981 10.6666 3.13495C10.619 3.13603 10.5713 3.13711 10.5223 3.13823C10.283 3.1436 10.0438 3.14877 9.80457 3.15383C7.84721 3.19552 5.89258 3.27312 3.9375 3.37527C3.9375 3.18965 3.9375 3.00402 3.9375 2.81277Z" fill="#95AFD1"/>
<path d="M14.0625 25.3125C14.805 25.3125 15.5475 25.3125 16.3125 25.3125C16.3125 27.54 16.3125 29.7675 16.3125 32.0625C15.57 32.0625 14.8275 32.0625 14.0625 32.0625C14.0625 29.835 14.0625 27.6075 14.0625 25.3125Z" fill="#E73844"/>
<path d="M18.8438 16.8744C19.2133 17.0023 19.3937 17.1983 19.6172 17.5072C19.6172 17.5536 19.6172 17.6 19.6172 17.6479C19.7009 17.6552 19.7847 17.6625 19.871 17.6701C20.3377 17.7221 20.7934 17.8251 21.252 17.9247C21.3401 17.9433 21.4282 17.962 21.5189 17.9812C21.6038 17.9994 21.6886 18.0177 21.776 18.0365C21.8526 18.053 21.9292 18.0695 22.0082 18.0865C22.4093 18.1885 22.5916 18.2675 22.8159 18.6292C22.8421 18.6737 22.8684 18.7182 22.8955 18.7641C23.0594 19.0327 23.2225 19.2962 23.4141 19.5463C23.1342 19.4953 22.8545 19.4439 22.5747 19.3925C22.4473 19.3691 22.4473 19.3691 22.3173 19.3452C21.651 19.2219 20.9867 19.0904 20.3238 18.9504C19.8343 18.8469 19.8343 18.8469 19.3359 18.8432C19.2939 18.8751 19.2518 18.907 19.2085 18.9398C19.0377 19.0667 18.9608 19.0711 18.7548 19.0975C18.4171 19.169 18.2904 19.3009 18.1018 19.5821C18.0697 19.6341 18.0375 19.6861 18.0044 19.7396C17.9332 19.8488 17.8619 19.9578 17.7904 20.0668C17.7378 20.1486 17.7378 20.1486 17.684 20.2321C17.5846 20.3803 17.4798 20.5193 17.368 20.6584C17.0049 21.1141 16.8087 21.432 16.8626 22.0383C16.8803 22.2949 16.8144 22.4346 16.6641 22.64C16.3859 22.9182 16.1332 23.0695 15.7368 23.0927C15.3985 23.0888 15.2069 22.9763 14.9529 22.7598C14.7106 22.5118 14.6155 22.2781 14.5986 21.9369C14.6162 21.5529 14.7563 21.3172 15.0205 21.0404C15.2012 20.8968 15.3359 20.8635 15.563 20.8361C15.8984 20.7665 16.0235 20.6333 16.2107 20.3543C16.2589 20.2763 16.2589 20.2763 16.3081 20.1967C16.3793 20.0875 16.4506 19.9783 16.5221 19.8693C16.5572 19.8147 16.5923 19.7602 16.6285 19.7039C16.7277 19.5563 16.8324 19.4185 16.9445 19.2804C17.3279 18.8034 17.4981 18.4776 17.4449 17.8437C17.4375 17.6479 17.4375 17.6479 17.5562 17.3974C17.9717 16.9594 18.249 16.8202 18.8438 16.8744Z" fill="#F8C95E"/>
<path d="M7.875 11.8125C11.7731 11.8125 15.6712 11.8125 19.6875 11.8125C19.6875 12.1838 19.6875 12.555 19.6875 12.9375C15.7894 12.9375 11.8913 12.9375 7.875 12.9375C7.875 12.5662 7.875 12.195 7.875 11.8125Z" fill="white"/>
<path d="M4.49994 5.0625C4.87119 5.0625 5.24244 5.0625 5.62494 5.0625C5.62494 5.29453 5.62494 5.52656 5.62494 5.76562C5.68295 5.77578 5.74096 5.78593 5.80072 5.79639C6.20193 5.97549 6.49676 6.31857 6.69611 6.70908C6.74994 6.89062 6.74994 6.89062 6.74994 7.3125C6.37869 7.3125 6.00744 7.3125 5.62494 7.3125C5.55533 7.17328 5.48572 7.03406 5.41401 6.89062C5.22862 6.7985 5.05584 6.79693 4.85151 6.82031C4.65815 6.9082 4.65815 6.9082 4.57026 7.10156C4.55786 7.31098 4.58986 7.45446 4.64057 7.66406C4.85978 7.8102 4.96602 7.83136 5.22065 7.86621C5.85829 7.97696 6.23489 8.25854 6.60932 8.78906C6.81357 9.21254 6.83211 9.65801 6.68842 10.1058C6.50835 10.4979 6.27942 10.8128 5.90619 11.0391C5.76697 11.0739 5.76697 11.0739 5.62494 11.1094C5.62494 11.3414 5.62494 11.5734 5.62494 11.8125C5.25369 11.8125 4.88244 11.8125 4.49994 11.8125C4.49994 11.5805 4.49994 11.3484 4.49994 11.1094C4.44048 11.0978 4.38103 11.0862 4.31977 11.0742C3.89432 10.8886 3.61979 10.536 3.44965 10.1074C3.37494 9.84375 3.37494 9.84375 3.37494 9.5625C3.74619 9.5625 4.11744 9.5625 4.49994 9.5625C4.56955 9.70172 4.63916 9.84094 4.71088 9.98438C4.91063 10.0842 5.05223 10.0768 5.27338 10.0547C5.44916 9.94922 5.44916 9.94922 5.55463 9.77344C5.59 9.48461 5.57766 9.3861 5.41401 9.14062C5.19821 9.08388 5.19821 9.08388 4.94818 9.04834C4.48958 8.95821 4.19792 8.8362 3.86713 8.50781C3.81424 8.45642 3.81424 8.45642 3.76029 8.40399C3.40368 8.01963 3.33926 7.57063 3.35379 7.06503C3.41949 6.52329 3.74335 6.2166 4.13987 5.8689C4.28901 5.76562 4.28901 5.76562 4.49994 5.76562C4.49994 5.53359 4.49994 5.30156 4.49994 5.0625Z" fill="#E63945"/>
<path d="M7.3125 25.4531C7.70666 25.8473 7.70666 25.8473 7.88901 26.045C7.92872 26.0879 7.96844 26.1308 8.00936 26.175C8.05058 26.2196 8.09181 26.2641 8.13428 26.3101C8.79823 27.0641 8.79823 27.0641 9.5625 27.7031C9.58787 27.8855 9.58787 27.8855 9.58645 28.1193C9.58642 28.2502 9.58642 28.2502 9.5864 28.3837C9.58532 28.4793 9.58422 28.5749 9.5831 28.6705C9.58271 28.768 9.58241 28.8655 9.58219 28.9631C9.58139 29.2199 9.57932 29.4768 9.57698 29.7336C9.57483 29.9957 9.57385 30.2577 9.5728 30.5197C9.57065 31.034 9.56652 31.5482 9.5625 32.0625C8.82 32.0625 8.0775 32.0625 7.3125 32.0625C7.3125 29.8814 7.3125 27.7003 7.3125 25.4531Z" fill="#A5BADB"/>
<path d="M7.875 9.5625C11.4019 9.5625 14.9288 9.5625 18.5625 9.5625C18.5625 9.93375 18.5625 10.305 18.5625 10.6875C15.0356 10.6875 11.5087 10.6875 7.875 10.6875C7.875 10.3162 7.875 9.945 7.875 9.5625Z" fill="white"/>
<path d="M7.875 7.3125C11.4019 7.3125 14.9288 7.3125 18.5625 7.3125C18.5625 7.68375 18.5625 8.055 18.5625 8.4375C15.0356 8.4375 11.5087 8.4375 7.875 8.4375C7.875 8.06625 7.875 7.695 7.875 7.3125Z" fill="white"/>
<path d="M24.0467 11.3203C24.0467 11.5703 23.9876 11.6451 23.8534 11.8521C23.2324 12.8567 23.1183 13.885 23.1119 15.0436C23.1111 15.1447 23.1097 15.2457 23.1076 15.3467C23.0798 16.7001 23.4274 17.8981 24.3753 18.9062C25.097 19.6335 26.0311 19.9793 26.9999 20.25C26.9999 20.598 26.9999 20.9461 26.9999 21.3047C25.8355 21.3047 24.7768 20.797 23.9061 20.0391C23.8649 20.0078 23.8236 19.9765 23.7811 19.9443C22.7623 19.1519 22.1362 17.7812 21.9374 16.5234C21.7908 15.0101 22.1232 13.5428 23.0637 12.333C23.1097 12.2772 23.1556 12.2215 23.203 12.1641C23.2468 12.1105 23.2905 12.0569 23.3357 12.0017C23.5534 11.7443 23.7726 11.5197 24.0467 11.3203Z" fill="#F8CA5E"/>
<path d="M10.6875 21.375C11.0587 21.375 11.43 21.375 11.8125 21.375C11.8125 24.7162 11.8125 28.0575 11.8125 31.5C11.0982 31.3413 11.0982 31.3413 10.9336 31.1221C10.9009 31.0809 10.8683 31.0398 10.8347 30.9974C10.6837 30.7418 10.6787 30.4945 10.679 30.2024C10.6789 30.1245 10.6788 30.0467 10.6787 29.9664C10.679 29.8813 10.6792 29.7962 10.6795 29.7085C10.6795 29.6186 10.6795 29.5287 10.6794 29.4361C10.6794 29.1899 10.6798 28.9437 10.6803 28.6975C10.6808 28.4401 10.6808 28.1827 10.6809 27.9253C10.6811 27.4379 10.6817 26.9506 10.6824 26.4633C10.6832 25.9084 10.6836 25.3536 10.6839 24.7988C10.6847 23.6575 10.6859 22.5163 10.6875 21.375Z" fill="#FED88B"/>
<path d="M10.6875 5.0625C13.2862 5.0625 15.885 5.0625 18.5625 5.0625C18.5625 5.43375 18.5625 5.805 18.5625 6.1875C15.9637 6.1875 13.365 6.1875 10.6875 6.1875C10.6875 5.81625 10.6875 5.445 10.6875 5.0625Z" fill="white"/>
<path d="M6.18746 23.625C6.55871 23.625 6.92996 23.625 7.31246 23.625C7.31246 26.2237 7.31246 28.8225 7.31246 31.5C6.5982 31.3413 6.5982 31.3413 6.43355 31.1221C6.40092 31.0809 6.36829 31.0398 6.33468 30.9974C6.20002 30.7694 6.17867 30.549 6.179 30.2879C6.17891 30.2289 6.17881 30.1699 6.17871 30.1092C6.17896 30.0451 6.17922 29.981 6.17948 29.915C6.17947 29.8471 6.17946 29.7791 6.17945 29.7092C6.17949 29.4847 6.18004 29.2602 6.18059 29.0358C6.18072 28.8801 6.18082 28.7244 6.18089 28.5688C6.18116 28.1591 6.18185 27.7495 6.18263 27.3398C6.18335 26.9218 6.18367 26.5037 6.18403 26.0857C6.18478 25.2654 6.18598 24.4452 6.18746 23.625Z" fill="#FE4C54"/>
<path d="M8.92969 16.4531C9.12575 16.5512 9.138 16.6905 9.21588 16.8852C9.31611 17.0852 9.46759 17.2198 9.63281 17.3672C9.13277 17.7797 8.6135 18.1599 8.08467 18.5339C7.83367 18.7121 7.58404 18.8921 7.33447 19.0723C7.28161 19.1104 7.22874 19.1486 7.17428 19.1879C6.77916 19.4737 6.38638 19.7625 5.99414 20.0522C5.82951 20.1734 5.66484 20.2946 5.50017 20.4158C5.34909 20.5273 5.19864 20.6397 5.04822 20.7521C4.95926 20.8177 4.87027 20.8832 4.78125 20.9487C4.74121 20.9791 4.70117 21.0094 4.65992 21.0407C4.54834 21.122 4.54834 21.122 4.35938 21.2344C4.09245 21.1454 4.0439 21.0388 3.88916 20.8081C3.84538 20.7435 3.8016 20.6789 3.7565 20.6123C3.72342 20.5623 3.69034 20.5124 3.65625 20.4609C3.75153 20.2382 3.84524 20.123 4.04297 19.9844C4.09309 19.9488 4.1432 19.9132 4.19484 19.8765C4.24913 19.8388 4.30343 19.8011 4.35938 19.7622C4.4752 19.6802 4.59101 19.5982 4.70682 19.5161C4.76611 19.4744 4.82539 19.4327 4.88648 19.3898C5.15613 19.1996 5.42356 19.0064 5.69092 18.813C5.74285 18.7755 5.79479 18.738 5.8483 18.6994C6.28822 18.3816 6.72504 18.0597 7.16151 17.7371C7.74757 17.3045 8.33825 16.8783 8.92969 16.4531Z" fill="#E63A46"/>
<path d="M15.1874 25.3125C15.5587 25.3125 15.9299 25.3125 16.3124 25.3125C16.3124 27.3544 16.3124 29.3962 16.3124 31.5C15.5982 31.3413 15.5982 31.3413 15.4335 31.1221C15.4009 31.0809 15.3683 31.0398 15.3346 30.9974C15.1622 30.7055 15.1777 30.4003 15.1794 30.0699C15.1794 30.0184 15.1794 29.967 15.1794 29.9139C15.1795 29.7443 15.18 29.5746 15.1806 29.4049C15.1807 29.2871 15.1808 29.1692 15.1809 29.0514C15.1811 28.7416 15.1818 28.4318 15.1826 28.1221C15.1833 27.8058 15.1836 27.4896 15.184 27.1733C15.1847 26.553 15.186 25.9328 15.1874 25.3125Z" fill="#FE4C54"/>
<path d="M28.125 11.3203C29.2023 11.3751 30.1927 11.9099 30.9284 12.6865C31.5409 13.4259 32.0364 14.3529 32.0625 15.3281C32.0677 15.4044 32.0728 15.4808 32.0782 15.5594C32.1274 16.7579 31.728 17.8459 30.9419 18.7559C30.8708 18.8327 30.7993 18.9092 30.7266 18.9844C30.7266 18.7272 30.8033 18.6082 30.9243 18.3823C31.4968 17.2643 31.5973 16.0393 31.2188 14.8359C30.7151 13.5044 29.8142 12.6579 28.5293 12.0586C28.3949 11.9993 28.2602 11.9404 28.125 11.8828C28.125 11.6972 28.125 11.5116 28.125 11.3203Z" fill="#EC842A"/>
<path d="M11.8125 29.5312C12.0459 29.6246 12.2147 29.6939 12.4173 29.8246C12.463 29.8537 12.5088 29.8829 12.5559 29.9129C12.6035 29.9436 12.6511 29.9743 12.7002 30.0059C13.1459 30.2891 13.5952 30.5503 14.0625 30.7969C14.0625 31.2145 14.0625 31.6322 14.0625 32.0625C13.32 32.0625 12.5775 32.0625 11.8125 32.0625C11.8125 31.2272 11.8125 30.3919 11.8125 29.5312Z" fill="#A5BADB"/>
<path d="M10.4064 15.1864C10.8054 15.3245 11.0613 15.5821 11.2501 15.9598C11.2917 16.3591 11.2708 16.6749 11.0392 17.0145C10.7586 17.2906 10.5388 17.447 10.1427 17.4584C9.79942 17.4544 9.61475 17.3869 9.35169 17.1551C9.03617 16.814 8.97345 16.5664 8.98035 16.1021C9.0252 15.7794 9.23118 15.5822 9.46595 15.3754C9.77897 15.1529 10.0299 15.1521 10.4064 15.1864Z" fill="#F7CA5F"/>
<path d="M16.2554 20.8906C16.5285 21.0726 16.7264 21.2877 16.875 21.5849C16.9165 21.9842 16.8957 22.2999 16.6641 22.6396C16.3873 22.9186 16.1324 23.0691 15.7368 23.0922C15.3985 23.0883 15.2069 22.9759 14.9529 22.7593C14.7106 22.5113 14.6155 22.2777 14.5986 21.9365C14.6134 21.613 14.7044 21.3663 14.9365 21.1317C15.339 20.7812 15.7578 20.715 16.2554 20.8906Z" fill="#F8CA5E"/>
<path d="M19.6875 17.6484C20.28 17.7246 20.8616 17.8391 21.4453 17.9648C21.5158 17.9799 21.5864 17.9949 21.659 18.0104C21.7263 18.0251 21.7935 18.0398 21.8628 18.0549C21.9229 18.068 21.983 18.0811 22.0449 18.0946C22.4911 18.2127 22.6622 18.3697 22.8955 18.7646C23.0594 19.0332 23.2225 19.2968 23.4141 19.5469C22.075 19.3036 20.74 19.0438 19.4062 18.7734C19.4401 18.6994 19.4739 18.6253 19.5087 18.549C19.5975 18.3419 19.6481 18.1604 19.6655 17.9341C19.6701 17.8798 19.6748 17.8255 19.6795 17.7696C19.6835 17.7096 19.6835 17.7096 19.6875 17.6484Z" fill="#E63B46"/>
<path d="M17.5078 18.4922C17.5542 18.5444 17.6006 18.5966 17.6484 18.6504C17.8717 18.8762 18.1345 18.9974 18.4219 19.125C18.2062 19.5211 17.9587 19.882 17.6924 20.2456C17.6536 20.299 17.6148 20.3525 17.5748 20.4075C17.3214 20.7559 17.0641 21.1013 16.8047 21.4453C16.7583 21.3931 16.7119 21.3409 16.6641 21.2871C16.4408 21.0613 16.178 20.9401 15.8906 20.8125C16.1063 20.4164 16.3538 20.0555 16.6201 19.6919C16.6589 19.6385 16.6977 19.585 16.7377 19.53C16.9911 19.1816 17.2484 18.8362 17.5078 18.4922Z" fill="#E63A46"/>
<path d="M31.9219 19.1953C31.9219 19.4897 31.7647 19.6256 31.5703 19.8281C30.6631 20.6855 29.3987 21.375 28.125 21.375C28.125 20.9805 28.125 20.5861 28.125 20.1797C28.3795 20.184 28.3795 20.184 28.6392 20.1885C29.8435 20.193 30.915 19.8459 31.9219 19.1953Z" fill="#F9CB5D"/>
<path d="M21.375 31.5C21.375 32.0569 21.375 32.6137 21.375 33.1875C21.0037 33.1875 20.6325 33.1875 20.25 33.1875C20.25 32.6306 20.25 32.0738 20.25 31.5C21.0234 31.4297 21.0234 31.4297 21.375 31.5Z" fill="#F69B31"/>
<path d="M29.25 31.5C29.6213 31.5 29.9925 31.5 30.375 31.5C30.375 32.0569 30.375 32.6137 30.375 33.1875C30.0037 33.1875 29.6325 33.1875 29.25 33.1875C29.25 32.6306 29.25 32.0738 29.25 31.5Z" fill="#F79B31"/>
<path d="M27 31.5C27.3713 31.5 27.7425 31.5 28.125 31.5C28.125 32.0569 28.125 32.6137 28.125 33.1875C27.7537 33.1875 27.3825 33.1875 27 33.1875C27 32.6306 27 32.0738 27 31.5Z" fill="#F79B31"/>
<path d="M24.75 31.5C25.1213 31.5 25.4925 31.5 25.875 31.5C25.875 32.0569 25.875 32.6137 25.875 33.1875C25.5037 33.1875 25.1325 33.1875 24.75 33.1875C24.75 32.6306 24.75 32.0738 24.75 31.5Z" fill="#F79B31"/>
<path d="M22.5 31.5C22.8713 31.5 23.2425 31.5 23.625 31.5C23.625 32.0569 23.625 32.6137 23.625 33.1875C23.2537 33.1875 22.8825 33.1875 22.5 33.1875C22.5 32.6306 22.5 32.0738 22.5 31.5Z" fill="#F79B31"/>
<path d="M30.9375 28.125C31.3088 28.125 31.68 28.125 32.0625 28.125C32.0625 28.6819 32.0625 29.2387 32.0625 29.8125C31.6912 29.8125 31.32 29.8125 30.9375 29.8125C30.9375 29.2556 30.9375 28.6988 30.9375 28.125Z" fill="#EC8329"/>
<path d="M28.6875 28.125C29.0588 28.125 29.43 28.125 29.8125 28.125C29.8125 28.6819 29.8125 29.2387 29.8125 29.8125C29.4412 29.8125 29.07 29.8125 28.6875 29.8125C28.6875 29.2556 28.6875 28.6988 28.6875 28.125Z" fill="#EC8329"/>
<path d="M26.4375 28.125C26.8088 28.125 27.18 28.125 27.5625 28.125C27.5625 28.6819 27.5625 29.2387 27.5625 29.8125C27.1912 29.8125 26.82 29.8125 26.4375 29.8125C26.4375 29.2556 26.4375 28.6988 26.4375 28.125Z" fill="#EC8329"/>
<path d="M24.1875 28.125C24.5588 28.125 24.93 28.125 25.3125 28.125C25.3125 28.6819 25.3125 29.2387 25.3125 29.8125C24.9412 29.8125 24.57 29.8125 24.1875 29.8125C24.1875 29.2556 24.1875 28.6988 24.1875 28.125Z" fill="#EC8329"/>
<path d="M21.9375 28.125C22.3088 28.125 22.68 28.125 23.0625 28.125C23.0625 28.6819 23.0625 29.2387 23.0625 29.8125C22.6912 29.8125 22.32 29.8125 21.9375 29.8125C21.9375 29.2556 21.9375 28.6988 21.9375 28.125Z" fill="#EC8329"/>
<path d="M29.25 24.75C29.6213 24.75 29.9925 24.75 30.375 24.75C30.375 25.3069 30.375 25.8637 30.375 26.4375C30.0037 26.4375 29.6325 26.4375 29.25 26.4375C29.25 25.8806 29.25 25.3238 29.25 24.75Z" fill="#FCB732"/>
<path d="M27 24.75C27.3713 24.75 27.7425 24.75 28.125 24.75C28.125 25.3069 28.125 25.8637 28.125 26.4375C27.7537 26.4375 27.3825 26.4375 27 26.4375C27 25.8806 27 25.3238 27 24.75Z" fill="#FCB732"/>
<path d="M24.75 24.75C25.1213 24.75 25.4925 24.75 25.875 24.75C25.875 25.3069 25.875 25.8637 25.875 26.4375C25.5037 26.4375 25.1325 26.4375 24.75 26.4375C24.75 25.8806 24.75 25.3238 24.75 24.75Z" fill="#FCB732"/>
<path d="M22.5 24.75C22.8713 24.75 23.2425 24.75 23.625 24.75C23.625 25.3069 23.625 25.8637 23.625 26.4375C23.2537 26.4375 22.8825 26.4375 22.5 26.4375C22.5 25.8806 22.5 25.3238 22.5 24.75Z" fill="#FCB732"/>
<path d="M20.25 24.75C20.6213 24.75 20.9925 24.75 21.375 24.75C21.375 25.3069 21.375 25.8637 21.375 26.4375C21.0037 26.4375 20.6325 26.4375 20.25 26.4375C20.25 25.8806 20.25 25.3238 20.25 24.75Z" fill="#FCB732"/>
<path d="M31.5 21.375C31.8713 21.375 32.2425 21.375 32.625 21.375C32.625 21.9319 32.625 22.4887 32.625 23.0625C32.2537 23.0625 31.8825 23.0625 31.5 23.0625C31.5 22.5056 31.5 21.9488 31.5 21.375Z" fill="#F79B31"/>
<path d="M29.25 21.375C29.6213 21.375 29.9925 21.375 30.375 21.375C30.375 21.9319 30.375 22.4887 30.375 23.0625C30.0037 23.0625 29.6325 23.0625 29.25 23.0625C29.25 22.5056 29.25 21.9488 29.25 21.375Z" fill="#F79B31"/>
<path d="M27 21.375C27.3713 21.375 27.7425 21.375 28.125 21.375C28.125 21.9319 28.125 22.4887 28.125 23.0625C27.7537 23.0625 27.3825 23.0625 27 23.0625C27 22.5056 27 21.9488 27 21.375Z" fill="#F79B31"/>
<path d="M24.75 21.375C25.1213 21.375 25.4925 21.375 25.875 21.375C25.875 21.9319 25.875 22.4887 25.875 23.0625C25.5037 23.0625 25.1325 23.0625 24.75 23.0625C24.75 22.5056 24.75 21.9488 24.75 21.375Z" fill="#F79B31"/>
<path d="M22.5 21.375C22.8713 21.375 23.2425 21.375 23.625 21.375C23.625 21.9319 23.625 22.4887 23.625 23.0625C23.2537 23.0625 22.8825 23.0625 22.5 23.0625C22.5 22.5056 22.5 21.9488 22.5 21.375Z" fill="#F79B31"/>
<path d="M27 11.3201C27 11.4826 27 11.645 27 11.8123C26.9201 11.8227 26.8401 11.833 26.7578 11.8436C25.9383 11.9591 25.1292 12.12 24.4688 12.6561C24.4223 12.6329 24.3759 12.6097 24.3281 12.5858C24.6866 12.2113 25.0673 11.9459 25.5278 11.7157C25.5742 11.6922 25.6206 11.6688 25.6685 11.6447C26.0903 11.4412 26.5247 11.2904 27 11.3201Z" fill="#EC862C"/>
<path d="M25.3125 20.9531C25.6386 21.0152 25.9608 21.0919 26.2837 21.1685C26.3668 21.1881 26.3668 21.1881 26.4516 21.2081C26.5876 21.2403 26.7235 21.2725 26.8594 21.3047C26.8594 21.3279 26.8594 21.3511 26.8594 21.375C26.3489 21.375 25.8384 21.375 25.3125 21.375C25.3125 21.2358 25.3125 21.0966 25.3125 20.9531Z" fill="#96AFCF"/>
<path d="M25.875 21.1641C26.5366 21.2318 26.5366 21.2318 26.8594 21.3047C26.8594 21.3279 26.8594 21.3511 26.8594 21.375C26.5345 21.375 26.2097 21.375 25.875 21.375C25.875 21.3054 25.875 21.2358 25.875 21.1641Z" fill="#ABBBD0"/>
<path d="M30.9375 18.4219C30.9839 18.4219 31.0303 18.4219 31.0781 18.4219C31.0536 18.6508 31.0063 18.7044 30.8276 18.8613C30.7711 18.9019 30.7145 18.9425 30.6562 18.9844C30.7353 18.7754 30.8126 18.6093 30.9375 18.4219Z" fill="#EE8D32"/>
</svg>
