<svg width="36" height="36" viewBox="0 0 36 36" fill="none" xmlns="http://www.w3.org/2000/svg">
<g clip-path="url(#clip0_821_5730)">
<path d="M3.48301 0.0101133C3.66442 0.073638 3.77211 0.141298 3.91745 0.265786C3.96519 0.306006 4.01294 0.346226 4.06213 0.387665C4.11236 0.431013 4.1626 0.47436 4.21436 0.519021C4.32149 0.609381 4.4287 0.699651 4.53598 0.789834C4.58922 0.834812 4.64246 0.879791 4.69731 0.926133C4.9152 1.10838 5.13741 1.28468 5.36133 1.45945C5.40054 1.4901 5.43974 1.52075 5.48014 1.55234C5.90171 1.88101 6.32559 2.20671 6.75 2.53172C6.68785 2.84526 6.51241 3.04883 6.31494 3.29197C6.26256 3.35752 6.26256 3.35752 6.20911 3.42439C5.97349 3.71801 5.73325 4.00702 5.48438 4.28953C5.13281 4.1489 5.13281 4.1489 4.5 3.65672C4.5232 7.50843 4.54641 11.3602 4.57031 15.3286C5.5811 14.3193 6.59189 13.3099 7.6333 12.27C8.11113 11.7931 8.11113 11.7931 8.59861 11.3066C8.88546 11.02 8.88546 11.02 9.17227 10.7333C9.33272 10.573 9.49331 10.4128 9.65393 10.2527C9.81408 10.0929 9.974 9.93291 10.1339 9.77294C10.1901 9.717 10.2463 9.66106 10.3042 9.60342C10.5969 9.31025 10.8781 9.01144 11.1476 8.69681C11.2791 8.54499 11.4187 8.40293 11.562 8.26219C11.6098 8.21505 11.6575 8.16792 11.7068 8.11936C11.7417 8.08528 11.7765 8.0512 11.8125 8.01609C12.0732 8.12525 12.2386 8.28427 12.4372 8.48327C12.4708 8.5167 12.5043 8.55012 12.5389 8.58456C12.6511 8.69651 12.7627 8.80895 12.8744 8.9214C12.9548 9.00181 13.0352 9.08218 13.1156 9.16253C13.3338 9.38069 13.5516 9.59929 13.7693 9.81796C13.9968 10.0464 14.2248 10.2745 14.4528 10.5026C14.8844 10.9346 15.3156 11.367 15.7467 11.7995C16.2375 12.2919 16.7287 12.7838 17.2199 13.2758C18.2304 14.2877 19.2404 15.3002 20.25 16.313C20.5248 16.1855 20.7139 16.0086 20.9246 15.7949C20.9631 15.7565 21.0015 15.7181 21.0411 15.6785C21.1678 15.5517 21.2939 15.4245 21.42 15.2973C21.5079 15.2092 21.5958 15.1211 21.6837 15.033C21.9147 14.8015 22.1453 14.5695 22.3758 14.3374C22.6112 14.1006 22.8471 13.8641 23.0828 13.6276C23.5452 13.1638 24.0071 12.6994 24.4688 12.2348C24.7511 12.3479 24.9402 12.5468 25.1498 12.7593C25.189 12.7984 25.2281 12.8376 25.2684 12.8779C25.3973 13.0069 25.5258 13.1364 25.6542 13.2659C25.7436 13.3556 25.8331 13.4452 25.9225 13.5349C26.1577 13.7706 26.3925 14.0068 26.6272 14.243C26.8668 14.4841 27.1069 14.7248 27.3469 14.9655C27.8176 15.4377 28.2878 15.9103 28.7578 16.3833C28.9841 16.2838 29.134 16.1645 29.3073 15.9892C29.3848 15.9114 29.3848 15.9114 29.4639 15.832C29.5191 15.7758 29.5743 15.7196 29.6312 15.6618C29.7176 15.5748 29.7176 15.5748 29.8057 15.4862C29.9899 15.3007 30.1737 15.1147 30.3574 14.9287C30.5402 14.744 30.7231 14.5594 30.9061 14.375C31.02 14.2603 31.1336 14.1454 31.2471 14.0303C31.5344 13.7404 31.828 13.4648 32.1373 13.1986C32.3698 12.9936 32.587 12.7737 32.8052 12.5537C32.8528 12.506 32.9003 12.4584 32.9494 12.4092C33.0992 12.259 33.2488 12.1085 33.3984 11.958C33.5009 11.8552 33.6033 11.7524 33.7058 11.6497C33.9551 11.3996 34.2042 11.1493 34.4531 10.8989C34.8331 11.0793 35.093 11.3695 35.3892 11.6636C35.4488 11.7209 35.5085 11.7783 35.57 11.8374C35.6261 11.893 35.6821 11.9485 35.7399 12.0058C35.8173 12.0818 35.8173 12.0818 35.8963 12.1593C36 12.3052 36 12.3052 35.9894 12.4352C35.9097 12.637 35.794 12.7479 35.6402 12.901C35.5479 12.9936 35.5479 12.9936 35.4537 13.0881C35.386 13.155 35.3182 13.2218 35.2505 13.2887C35.1809 13.358 35.1114 13.4274 35.042 13.4968C34.8961 13.6423 34.7499 13.7875 34.6035 13.9324C34.4171 14.1168 34.2313 14.3018 34.0458 14.487C33.8675 14.6649 33.6889 14.8425 33.5102 15.0202C33.4768 15.0534 33.4434 15.0867 33.4089 15.1211C33.0581 15.4701 32.7039 15.8102 32.3286 16.1328C32.1371 16.3004 31.9579 16.4791 31.7791 16.6599C31.7424 16.6966 31.7057 16.7334 31.668 16.7713C31.5532 16.8864 31.4387 17.0018 31.3242 17.1172C31.2455 17.1962 31.1668 17.2753 31.088 17.3543C30.897 17.5461 30.7063 17.7381 30.5156 17.9302C30.6286 18.2115 30.826 18.4005 31.0377 18.6099C31.096 18.6684 31.096 18.6684 31.1555 18.7281C31.2841 18.857 31.4132 18.9853 31.5423 19.1137C31.6322 19.2035 31.7221 19.2933 31.812 19.3832C32.0005 19.5717 32.1893 19.7599 32.3783 19.9479C32.6193 20.1878 32.8599 20.4281 33.1003 20.6685C33.2861 20.8543 33.472 21.0398 33.6581 21.2254C33.7467 21.3138 33.8354 21.4023 33.924 21.4908C34.3698 21.9361 34.8159 22.374 35.2969 22.7817C35.43 22.9009 35.5591 23.0226 35.688 23.1465C35.7795 23.2328 35.7795 23.2328 35.8728 23.3209C36 23.4848 36 23.4848 35.9915 23.6157C35.9081 23.8185 35.787 23.9325 35.6306 24.0858C35.5705 24.1452 35.5105 24.2045 35.4486 24.2657C35.3855 24.3271 35.3224 24.3884 35.2573 24.4516C35.1939 24.5141 35.1305 24.5765 35.0652 24.6409C34.9085 24.7951 34.7514 24.9488 34.5938 25.102C34.3807 25.0069 34.2362 24.9013 34.0741 24.7343C34.03 24.6894 33.9858 24.6444 33.9403 24.5982C33.8949 24.5513 33.8495 24.5044 33.8027 24.456C33.7132 24.364 33.6235 24.2722 33.5336 24.1805C33.4941 24.1398 33.4547 24.0991 33.414 24.0572C33.2803 23.9283 33.1437 23.8077 33.0029 23.6868C32.6518 23.3815 32.3261 23.0528 31.9988 22.7224C31.8995 22.6227 31.8002 22.523 31.7008 22.4233C31.4935 22.2149 31.2864 22.0063 31.0793 21.7977C30.9081 21.6254 30.7368 21.4531 30.5653 21.2809C30.4374 21.1525 30.3097 21.024 30.1821 20.8952C29.8737 20.5855 29.5615 20.2861 29.2285 20.0028C29.1133 19.9023 29.0053 19.7974 28.8984 19.688C28.6854 19.783 28.5409 19.8887 28.3788 20.0557C28.3346 20.1006 28.2905 20.1456 28.245 20.1918C28.1996 20.2387 28.1542 20.2856 28.1074 20.334C28.0179 20.426 27.9282 20.5178 27.8383 20.6094C27.7988 20.6502 27.7594 20.6909 27.7187 20.7328C27.5825 20.864 27.4433 20.9874 27.3001 21.1108C26.9942 21.3768 26.7076 21.6589 26.4221 21.9465C26.3699 21.9988 26.3176 22.0512 26.2637 22.1052C26.0988 22.2705 25.9342 22.436 25.7695 22.6015C25.6569 22.7145 25.5443 22.8274 25.4317 22.9403C25.1574 23.2154 24.8833 23.4907 24.6094 23.7661C24.3299 23.6535 24.1425 23.4587 23.9347 23.2481C23.8963 23.2096 23.8579 23.1712 23.8182 23.1316C23.6916 23.0049 23.5655 22.8776 23.4393 22.7504C23.3515 22.6623 23.2636 22.5742 23.1757 22.4862C22.9447 22.2546 22.7141 22.0226 22.4835 21.7905C22.2481 21.5537 22.0123 21.3172 21.7766 21.0808C21.3142 20.6169 20.8523 20.1526 20.3906 19.688C20.1677 19.7866 20.0177 19.9028 19.846 20.0751C19.7947 20.1261 19.7435 20.1772 19.6906 20.2298C19.6351 20.2859 19.5796 20.3419 19.5224 20.3996C19.4338 20.4881 19.4338 20.4881 19.3435 20.5784C19.182 20.74 19.0209 20.9019 18.8598 21.0639C18.6913 21.2332 18.5225 21.4022 18.3536 21.5712C18.0341 21.8911 17.715 22.2115 17.3959 22.5319C17.0327 22.8967 16.669 23.2612 16.3053 23.6256C15.5573 24.3751 14.8097 25.1251 14.0625 25.8755C13.7877 25.748 13.5986 25.5711 13.3879 25.3574C13.3494 25.319 13.311 25.2806 13.2714 25.241C13.1447 25.1142 13.0186 24.987 12.8925 24.8598C12.8046 24.7717 12.7167 24.6836 12.6288 24.5955C12.3978 24.364 12.1672 24.132 11.9367 23.8999C11.7013 23.6631 11.4655 23.4266 11.2297 23.1901C10.7673 22.7263 10.3054 22.2619 9.84375 21.7973C9.65587 21.8855 9.49874 21.9792 9.33963 22.1122C9.27619 22.1652 9.27619 22.1652 9.21148 22.2192C9.16592 22.2578 9.12036 22.2965 9.07342 22.3363C9.0248 22.3774 8.97618 22.4184 8.92609 22.4607C8.47109 22.8479 8.02895 23.2488 7.59034 23.6545C7.29687 23.9253 7.0011 24.1901 6.69306 24.4443C5.75916 25.2265 5.31174 25.8721 4.57031 26.9302C4.54711 28.508 4.52391 30.0858 4.5 31.7114C13.5028 31.6882 22.5056 31.665 31.7813 31.6411C31.5492 31.4091 31.3172 31.177 31.0781 30.938C31.3864 30.5687 31.7115 30.2255 32.0537 29.8877C32.1021 29.8396 32.1505 29.7915 32.2004 29.742C32.3183 29.6248 32.4364 29.5079 32.5547 29.3911C32.8042 29.4977 32.967 29.6438 33.1594 29.8337C33.223 29.8961 33.2865 29.9585 33.352 30.0228C33.4207 30.0911 33.4894 30.1594 33.558 30.2277C33.6287 30.2978 33.6994 30.3678 33.7701 30.4379C33.918 30.5846 34.0655 30.7316 34.2129 30.8787C34.402 31.0674 34.5922 31.255 34.7827 31.4423C34.929 31.5865 35.0745 31.7315 35.2197 31.8766C35.2895 31.9462 35.3597 32.0154 35.4301 32.0844C35.5282 32.1806 35.6251 32.2781 35.722 32.3756C35.7775 32.4308 35.833 32.486 35.8902 32.5428C36 32.6958 36 32.6958 35.9883 32.85C35.9158 33.0072 35.8369 33.076 35.7012 33.1836C35.4211 33.4168 35.1656 33.6669 34.9102 33.9262C34.6302 34.2095 34.3475 34.4808 34.0433 34.7381C33.784 34.9713 33.5415 35.2218 33.2976 35.4711C32.8773 35.898 32.8773 35.898 32.6953 36.0005C32.4164 35.9748 32.2848 35.8253 32.0944 35.6311C32.035 35.571 31.9756 35.511 31.9145 35.4491C31.8531 35.386 31.7917 35.3228 31.7285 35.2578C31.6661 35.1944 31.6036 35.131 31.5393 35.0657C31.3851 34.909 31.2314 34.7518 31.0781 34.5942C31.2188 34.313 31.2188 34.313 31.7109 33.8911C17.1974 33.8563 17.1974 33.8563 2.39063 33.8208C2.36742 23.8666 2.34422 13.9125 2.32031 3.65672C2.01867 3.86554 1.71703 4.07437 1.40625 4.28953C1.14521 4.15901 1.06156 4.09648 0.887146 3.88111C0.844275 3.82859 0.801403 3.77606 0.757233 3.72195C0.713274 3.66707 0.669315 3.61219 0.624023 3.55564C0.579521 3.50103 0.535018 3.44642 0.489166 3.39016C0 2.78727 0 2.78727 0 2.53172C0.109005 2.42657 0.109005 2.42657 0.263123 2.31501C0.320105 2.27314 0.377088 2.23126 0.435797 2.18812C0.497912 2.14343 0.560026 2.09875 0.624023 2.05271C0.75328 1.95787 0.882459 1.86293 1.01157 1.76789C1.0774 1.71962 1.14324 1.67134 1.21107 1.6216C1.50695 1.40243 1.79744 1.1766 2.0874 0.949685C2.13692 0.911 2.18645 0.872315 2.23747 0.832457C2.28538 0.795007 2.3333 0.757557 2.38266 0.718972C2.42964 0.682626 2.47663 0.646281 2.52504 0.608834C2.63053 0.525367 2.73418 0.439555 2.83657 0.352303C2.91887 0.283645 2.91887 0.283645 3.00284 0.213601C3.05222 0.171228 3.1016 0.128855 3.15248 0.085198C3.30469 0.000465905 3.30469 0.000465904 3.48301 0.0101133ZM11.518 11.4218C11.4563 11.4756 11.3945 11.5294 11.3309 11.5848C11.2631 11.6448 11.1952 11.7048 11.1253 11.7666C11.0725 11.8131 11.0725 11.8131 11.0186 11.8606C10.0426 12.7208 9.09004 13.606 8.14746 14.5024C8.10407 14.5436 8.06068 14.5848 8.01597 14.6272C5.20834 17.1393 5.20834 17.1393 3.98829 20.5494C3.98041 20.9099 4.00391 21.2634 4.04297 21.6216C4.04922 21.6792 4.05547 21.7368 4.06191 21.7962C4.14377 22.4954 4.28515 23.1655 4.5 23.8364C4.99239 23.4335 5.43537 22.9816 5.88428 22.5318C5.97066 22.4454 6.05706 22.3591 6.14347 22.2728C6.32395 22.0924 6.5043 21.9119 6.68456 21.7313C6.91434 21.5011 7.14442 21.2713 7.37461 21.0415C7.55293 20.8635 7.73108 20.6852 7.90919 20.5069C7.9939 20.4222 8.07867 20.3375 8.16348 20.2528C8.76323 19.654 8.76323 19.654 9.32884 19.0231C9.44655 18.8857 9.57271 18.7585 9.70313 18.6333C9.98264 18.7458 10.17 18.9406 10.3778 19.1513C10.4162 19.1897 10.4546 19.2282 10.4943 19.2678C10.6209 19.3945 10.747 19.5217 10.8732 19.649C10.961 19.7371 11.0489 19.8252 11.1368 19.9132C11.3678 20.1448 11.5984 20.3768 11.829 20.6088C12.0644 20.8457 12.3002 21.0821 12.536 21.3186C12.9983 21.7825 13.4602 22.2468 13.9219 22.7114C14.2239 22.595 14.4254 22.3672 14.6481 22.1417C14.6921 22.0978 14.736 22.0539 14.7813 22.0087C14.9262 21.8637 15.0706 21.7182 15.215 21.5727C15.3154 21.4719 15.4159 21.3713 15.5164 21.2706C15.7808 21.0057 16.0447 20.7405 16.3085 20.4751C16.5778 20.2043 16.8475 19.9339 17.1173 19.6635C17.6463 19.133 18.1748 18.602 18.7031 18.0708C18.6014 17.8379 18.4747 17.6841 18.2956 17.5048C18.24 17.4488 18.1844 17.3928 18.1271 17.3351C18.0661 17.2743 18.005 17.2135 17.942 17.1509C17.8778 17.0864 17.8135 17.0219 17.7473 16.9554C17.5713 16.7787 17.3948 16.6025 17.2183 16.4264C17.0336 16.2421 16.8493 16.0575 16.665 15.8729C16.3555 15.5632 16.0457 15.2537 15.7358 14.9445C15.3771 14.5866 15.0189 14.2281 14.661 13.8694C14.3539 13.5617 14.0464 13.2541 13.7388 12.9469C13.5549 12.7632 13.3712 12.5795 13.1877 12.3956C12.9834 12.1908 12.7785 11.9866 12.5736 11.7824C12.5125 11.721 12.4514 11.6597 12.3885 11.5965C12.3329 11.5413 12.2773 11.4861 12.22 11.4292C12.1716 11.3808 12.1232 11.3324 12.0733 11.2826C11.834 11.0785 11.7224 11.2432 11.518 11.4218ZM24.3557 15.495C24.2888 15.5625 24.2888 15.5625 24.2204 15.6313C24.1698 15.6819 24.1191 15.7326 24.0669 15.7848C23.9849 15.8679 23.9849 15.8679 23.9013 15.9526C23.8453 16.0088 23.7893 16.065 23.7317 16.1229C23.5522 16.3031 23.3733 16.4838 23.1943 16.6645C23.0731 16.7865 22.9518 16.9085 22.8304 17.0304C22.5324 17.3299 22.2348 17.6299 21.9375 17.9302C22.0339 18.1455 22.1441 18.2959 22.3091 18.4639C22.356 18.512 22.403 18.56 22.4513 18.6096C22.502 18.6606 22.5527 18.7117 22.6049 18.7643C22.6571 18.8171 22.7093 18.87 22.7631 18.9244C22.8734 19.0357 22.984 19.1469 23.0947 19.2579C23.2644 19.4284 23.4328 19.6002 23.6011 19.7721C23.7084 19.8801 23.8158 19.988 23.9233 20.0958C23.9737 20.1476 24.0241 20.1994 24.076 20.2527C24.1234 20.2997 24.1708 20.3466 24.2196 20.395C24.261 20.4368 24.3024 20.4786 24.3451 20.5216C24.4638 20.6161 24.4638 20.6161 24.6088 20.5944C24.7785 20.519 24.8772 20.4299 25.0078 20.2978C25.0571 20.2486 25.1063 20.1993 25.1571 20.1485C25.2356 20.0683 25.2356 20.0683 25.3158 19.9865C25.3971 19.9047 25.3971 19.9047 25.4801 19.8213C25.6533 19.647 25.8257 19.4719 25.998 19.2969C26.1153 19.1786 26.2326 19.0603 26.3499 18.9421C26.6375 18.6522 26.9244 18.3617 27.2109 18.0708C27.1171 17.8763 27.0301 17.7318 26.8764 17.5794C26.8385 17.5416 26.8006 17.5038 26.7616 17.4649C26.7214 17.4256 26.6811 17.3862 26.6397 17.3457C26.5981 17.3046 26.5565 17.2635 26.5137 17.2211C26.2675 16.9793 26.0156 16.7485 25.7517 16.5261C25.47 16.2714 25.2071 15.9967 24.9431 15.7238C24.902 15.682 24.861 15.6401 24.8187 15.5969C24.7817 15.5588 24.7448 15.5207 24.7068 15.4815C24.5597 15.3568 24.5 15.3724 24.3557 15.495Z" fill="#666D73"/>
<path d="M34.4532 10.8984C34.8332 11.0788 35.0931 11.369 35.3892 11.6631C35.4489 11.7205 35.5086 11.7778 35.5701 11.8369C35.6262 11.8925 35.6822 11.9481 35.74 12.0053C35.8174 12.0813 35.8174 12.0813 35.8963 12.1588C36.0001 12.3047 36.0001 12.3047 35.9895 12.4348C35.9098 12.6366 35.794 12.7475 35.6403 12.9005C35.548 12.9931 35.548 12.9931 35.4538 13.0876C35.3861 13.1545 35.3183 13.2214 35.2505 13.2882C35.181 13.3576 35.1115 13.4269 35.0421 13.4963C34.8962 13.6418 34.75 13.787 34.6035 13.932C34.4172 14.1163 34.2314 14.3013 34.0459 14.4865C33.8676 14.6645 33.6889 14.8421 33.5103 15.0197C33.4769 15.053 33.4434 15.0863 33.409 15.1206C33.0581 15.4697 32.704 15.8097 32.3287 16.1324C32.1372 16.3 31.958 16.4786 31.7791 16.6594C31.7425 16.6962 31.7058 16.7329 31.668 16.7708C31.5533 16.8859 31.4388 17.0013 31.3243 17.1167C31.2456 17.1958 31.1668 17.2748 31.0881 17.3539C30.8971 17.5456 30.7063 17.7376 30.5157 17.9297C30.6287 18.2111 30.8261 18.4001 31.0377 18.6094C31.0766 18.6484 31.1155 18.6875 31.1556 18.7277C31.2842 18.8565 31.4133 18.9849 31.5424 19.1132C31.6323 19.203 31.7222 19.2929 31.812 19.3827C32.0006 19.5712 32.1894 19.7594 32.3784 19.9475C32.6194 20.1873 32.86 20.4276 33.1004 20.668C33.2862 20.8538 33.4721 21.0394 33.6581 21.2249C33.7468 21.3133 33.8354 21.4018 33.924 21.4904C34.3699 21.9357 34.816 22.3736 35.297 22.7812C35.43 22.9004 35.5591 23.0222 35.6881 23.146C35.7491 23.2036 35.8101 23.2611 35.8729 23.3204C36.0001 23.4844 36.0001 23.4844 35.9916 23.6153C35.9082 23.8181 35.7871 23.932 35.6307 24.0853C35.5706 24.1447 35.5106 24.2041 35.4487 24.2652C35.3856 24.3266 35.3224 24.388 35.2574 24.4512C35.194 24.5136 35.1306 24.5761 35.0653 24.6404C34.9086 24.7946 34.7514 24.9483 34.5938 25.1016C34.3808 25.0065 34.2363 24.9008 34.0742 24.7338C34.03 24.6889 33.9859 24.644 33.9404 24.5977C33.895 24.5508 33.8496 24.5039 33.8028 24.4556C33.7133 24.3636 33.6236 24.2717 33.5337 24.1801C33.4942 24.1394 33.4548 24.0987 33.4141 24.0567C33.2803 23.9279 33.1438 23.8072 33.0029 23.6863C32.6519 23.381 32.3261 23.0523 31.9989 22.7219C31.8996 22.6222 31.8002 22.5225 31.7009 22.4228C31.4935 22.2145 31.2865 22.0059 31.0793 21.7973C30.9081 21.6249 30.7369 21.4526 30.5654 21.2805C30.4375 21.1521 30.3098 21.0235 30.1822 20.8947C29.8738 20.5851 29.5616 20.2856 29.2286 20.0024C29.1133 19.9018 29.0053 19.7969 28.8985 19.6875C28.6855 19.7826 28.541 19.8882 28.3789 20.0553C28.3347 20.1002 28.2906 20.1451 28.2451 20.1914C28.177 20.2617 28.177 20.2617 28.1075 20.3335C28.018 20.4255 27.9282 20.5173 27.8383 20.609C27.7989 20.6497 27.7594 20.6904 27.7188 20.7324C27.5826 20.8635 27.4433 20.9869 27.3002 21.1103C26.9943 21.3763 26.7077 21.6584 26.4222 21.946C26.3699 21.9984 26.3177 22.0507 26.2638 22.1047C26.0989 22.27 25.9343 22.4355 25.7696 22.6011C25.657 22.714 25.5444 22.827 25.4318 22.9399C25.1575 23.2149 24.8834 23.4902 24.6095 23.7656C24.3299 23.6531 24.1426 23.4583 23.9348 23.2476C23.8772 23.1899 23.8772 23.1899 23.8183 23.1311C23.6917 23.0044 23.5655 22.8772 23.4394 22.7499C23.3516 22.6618 23.2637 22.5738 23.1758 22.4857C22.9447 22.2541 22.7141 22.0221 22.4836 21.7901C22.2482 21.5532 22.0124 21.3168 21.7766 21.0803C21.3143 20.6164 20.8523 20.1521 20.3907 19.6875C20.1677 19.7861 20.0178 19.9024 19.8461 20.0746C19.7948 20.1257 19.7435 20.1767 19.6907 20.2294C19.6352 20.2854 19.5797 20.3414 19.5224 20.3992C19.4634 20.4582 19.4044 20.5172 19.3436 20.578C19.1821 20.7395 19.0209 20.9014 18.8599 21.0634C18.6914 21.2328 18.5226 21.4017 18.3537 21.5707C18.0342 21.8907 17.7151 22.211 17.396 22.5314C17.0328 22.8963 16.6691 23.2607 16.3054 23.6251C15.5573 24.3746 14.8098 25.1247 14.0626 25.875C13.7878 25.7475 13.5987 25.5707 13.388 25.357C13.3303 25.2993 13.3303 25.2993 13.2715 25.2405C13.1448 25.1138 13.0187 24.9866 12.8925 24.8593C12.8047 24.7712 12.7168 24.6831 12.6289 24.5951C12.3979 24.3635 12.1673 24.1315 11.9367 23.8994C11.7013 23.6626 11.4655 23.4261 11.2298 23.1897C10.7674 22.7258 10.3055 22.2615 9.84383 21.7969C9.64112 21.8887 9.49635 21.9863 9.33971 22.1439C9.29742 22.1861 9.25513 22.2283 9.21156 22.2718C9.166 22.318 9.12044 22.3642 9.0735 22.4117C9.02488 22.4604 8.97626 22.5092 8.92617 22.5593C8.76564 22.7203 8.6056 22.8818 8.44555 23.0433C8.33423 23.155 8.22287 23.2668 8.11148 23.3784C7.81841 23.6725 7.52574 23.9668 7.23318 24.2613C6.7642 24.7334 6.29474 25.2049 5.82505 25.6762C5.66063 25.8414 5.49645 26.0068 5.33228 26.1722C5.23226 26.2727 5.13222 26.3732 5.03218 26.4737C4.9632 26.5433 4.9632 26.5433 4.89283 26.6144C4.78668 26.7209 4.67874 26.8255 4.57039 26.9297C4.54719 26.9297 4.52399 26.9297 4.50008 26.9297C4.19633 25.9865 4.02989 24.9063 4.43172 23.9677C5.23378 22.4216 6.99067 21.1442 8.27361 20.0066C8.62396 19.6958 8.9606 19.3889 9.25902 19.0261C9.39634 18.86 9.54862 18.7124 9.70321 18.5625C9.98272 18.675 10.1701 18.8699 10.3778 19.0805C10.4163 19.119 10.4547 19.1574 10.4943 19.197C10.621 19.3237 10.7471 19.4509 10.8733 19.5782C10.9611 19.6663 11.049 19.7544 11.1369 19.8424C11.3679 20.074 11.5985 20.306 11.829 20.5381C12.0645 20.7749 12.3003 21.0114 12.536 21.2478C12.9984 21.7117 13.4603 22.176 13.922 22.6406C14.2205 22.5248 14.4192 22.3022 14.6393 22.0788C14.6823 22.0356 14.7254 21.9925 14.7697 21.9481C14.9119 21.8054 15.0536 21.6623 15.1953 21.5192C15.2944 21.4196 15.3935 21.3201 15.4927 21.2207C15.754 20.9584 16.0149 20.6958 16.2758 20.433C16.6921 20.0136 17.1089 19.5947 17.526 19.176C17.671 19.0303 17.8158 18.8843 17.9606 18.7383C18.7572 17.9365 18.7572 17.9365 19.1541 17.6031C19.3679 17.4205 19.5642 17.2194 19.7623 17.02C19.8026 16.98 19.8429 16.94 19.8844 16.8988C20.0837 16.699 20.2751 16.4962 20.4574 16.2808C20.8201 15.8648 21.2146 15.4799 21.6055 15.0908C21.6884 15.0081 21.7712 14.9253 21.8541 14.8426C22.0704 14.6265 22.287 14.4106 22.5036 14.1948C22.7252 13.9739 22.9467 13.7527 23.1682 13.5316C23.6015 13.099 24.0351 12.6666 24.4688 12.2344C24.7512 12.3475 24.9403 12.5463 25.1499 12.7589C25.189 12.798 25.2282 12.8371 25.2685 12.8774C25.3974 13.0064 25.5258 13.1359 25.6543 13.2654C25.7437 13.3551 25.8331 13.4448 25.9226 13.5344C26.1578 13.7701 26.3926 14.0063 26.6273 14.2425C26.8669 14.4836 27.107 14.7243 27.347 14.965C27.8177 15.4372 28.2879 15.9099 28.7579 16.3828C28.9841 16.2833 29.1341 16.1641 29.3074 15.9888C29.3591 15.9369 29.4107 15.885 29.464 15.8315C29.5192 15.7753 29.5744 15.7192 29.6313 15.6613C29.6889 15.6033 29.7465 15.5454 29.8058 15.4857C29.99 15.3002 30.1738 15.1143 30.3575 14.9282C30.5403 14.7435 30.7231 14.5589 30.9062 14.3745C31.0201 14.2598 31.1337 14.1449 31.2471 14.0298C31.5345 13.74 31.8281 13.4643 32.1374 13.1982C32.3699 12.9931 32.587 12.7732 32.8053 12.5533C32.8528 12.5056 32.9004 12.4579 32.9495 12.4088C33.0993 12.2585 33.2489 12.108 33.3985 11.9575C33.501 11.8547 33.6034 11.752 33.7059 11.6492C33.9552 11.3991 34.2042 11.1489 34.4532 10.8984ZM24.3558 15.4945C24.2888 15.562 24.2888 15.562 24.2205 15.6308C24.1698 15.6815 24.1192 15.7322 24.067 15.7844C23.985 15.8674 23.985 15.8674 23.9014 15.9521C23.8454 16.0083 23.7894 16.0645 23.7317 16.1224C23.5523 16.3026 23.3734 16.4833 23.1944 16.6641C23.0731 16.786 22.9518 16.908 22.8305 17.0299C22.5325 17.3295 22.2349 17.6294 21.9376 17.9297C22.034 18.145 22.1442 18.2955 22.3092 18.4634C22.3561 18.5115 22.403 18.5596 22.4514 18.6091C22.5021 18.6602 22.5528 18.7112 22.605 18.7638C22.6572 18.8167 22.7094 18.8695 22.7632 18.9239C22.8735 19.0353 22.984 19.1464 23.0948 19.2574C23.2645 19.428 23.4328 19.5998 23.6012 19.7717C23.7085 19.8797 23.8159 19.9876 23.9234 20.0954C23.9738 20.1471 24.0242 20.1989 24.0761 20.2523C24.1235 20.2992 24.1709 20.3462 24.2197 20.3946C24.2611 20.4363 24.3025 20.4781 24.3452 20.5212C24.4639 20.6156 24.4639 20.6156 24.6089 20.594C24.7786 20.5186 24.8773 20.4294 25.0079 20.2974C25.0572 20.2481 25.1064 20.1988 25.1572 20.1481C25.2357 20.0679 25.2357 20.0679 25.3159 19.9861C25.3972 19.9043 25.3972 19.9043 25.4802 19.8208C25.6533 19.6465 25.8257 19.4715 25.9981 19.2964C26.1154 19.1781 26.2326 19.0599 26.35 18.9417C26.6375 18.6518 26.9245 18.3613 27.211 18.0703C27.1171 17.8758 27.0302 17.7313 26.8765 17.5789C26.8386 17.5412 26.8007 17.5034 26.7617 17.4644C26.7214 17.4251 26.6812 17.3857 26.6397 17.3452C26.5982 17.3041 26.5566 17.263 26.5138 17.2206C26.2676 16.9788 26.0156 16.7481 25.7518 16.5256C25.4701 16.2709 25.2072 15.9962 24.9432 15.7234C24.9021 15.6815 24.8611 15.6396 24.8187 15.5965C24.7818 15.5584 24.7449 15.5203 24.7069 15.481C24.5598 15.3563 24.5001 15.3719 24.3558 15.4945Z" fill="#FE9200"/>
<path d="M11.8124 8.01562C12.0743 8.12508 12.2404 8.28564 12.4398 8.48547C12.4737 8.51919 12.5075 8.5529 12.5424 8.58764C12.6555 8.70055 12.7681 8.81397 12.8808 8.92739C12.9619 9.00849 13.043 9.08956 13.1241 9.1706C13.3442 9.39065 13.5638 9.61113 13.7834 9.83169C14.013 10.0621 14.2429 10.2922 14.4728 10.5223C14.9082 10.958 15.3431 11.3941 15.7779 11.8303C16.273 12.327 16.7684 12.8232 17.2639 13.3194C18.2831 14.3401 19.3019 15.3613 20.3203 16.3828C20.2036 16.6306 20.0695 16.7906 19.8737 16.9838C19.8138 17.0431 19.754 17.1025 19.6924 17.1637C19.6299 17.225 19.5673 17.2864 19.5029 17.3496C19.4398 17.4121 19.3767 17.4745 19.3117 17.5388C19.156 17.6929 19 17.8466 18.8437 18C18.6104 17.8982 18.457 17.7713 18.2777 17.5915C18.2217 17.5357 18.1657 17.4799 18.108 17.4224C18.0168 17.3305 18.0168 17.3305 17.9238 17.2367C17.8593 17.1722 17.7948 17.1077 17.7283 17.0413C17.5517 16.8647 17.3754 16.6876 17.1993 16.5105C17.0151 16.3254 16.8304 16.1407 16.6458 15.9559C16.2964 15.6061 15.9474 15.2559 15.5985 14.9055C15.2012 14.5067 14.8035 14.1082 14.4058 13.7098C13.5878 12.8903 12.7703 12.0703 11.9531 11.25C11.7109 11.3543 11.5543 11.4909 11.3689 11.6771C11.3088 11.7371 11.2488 11.797 11.1869 11.8588C11.1217 11.9247 11.0564 11.9906 10.9891 12.0585C10.9192 12.1285 10.8494 12.1985 10.7794 12.2684C10.6291 12.419 10.479 12.5697 10.3291 12.7207C10.0922 12.9591 9.85484 13.197 9.61742 13.4349C9.24222 13.8109 8.86735 14.1872 8.49263 14.5637C7.8208 15.2386 7.14858 15.9132 6.47599 16.5874C6.2398 16.8241 6.0038 17.0611 5.76796 17.2983C5.62164 17.4453 5.47518 17.5923 5.32868 17.7391C5.26051 17.8076 5.19239 17.876 5.12434 17.9446C5.03186 18.0377 4.93915 18.1306 4.84643 18.2235C4.79449 18.2757 4.74255 18.3279 4.68903 18.3817C4.57026 18.4922 4.57026 18.4922 4.49995 18.4922C4.27714 17.4415 4.08419 16.1709 4.61448 15.1856C4.96752 14.6547 5.40041 14.195 5.85154 13.7472C5.8855 13.7135 5.91946 13.6798 5.95445 13.645C6.37935 13.2258 6.81677 12.8209 7.25924 12.4203C7.63891 12.076 8.00975 11.7228 8.38013 11.3686C9.01339 10.763 9.6513 10.1631 10.2994 9.57337C10.6017 9.29586 10.8822 9.01094 11.1477 8.69784C11.2785 8.54473 11.4184 8.40277 11.562 8.26172C11.6097 8.21459 11.6575 8.16746 11.7067 8.1189C11.7416 8.08482 11.7765 8.05074 11.8124 8.01562Z" fill="#64E1DC"/>
<path d="M32.5547 29.3906C32.8042 29.4972 32.967 29.6434 33.1594 29.8332C33.223 29.8956 33.2865 29.9581 33.352 30.0224C33.4207 30.0906 33.4894 30.1589 33.558 30.2272C33.6287 30.2973 33.6994 30.3674 33.7701 30.4374C33.918 30.5841 34.0655 30.7311 34.2129 30.8782C34.402 31.067 34.5922 31.2546 34.7827 31.4419C34.929 31.586 35.0744 31.731 35.2197 31.8762C35.2895 31.9457 35.3597 32.015 35.4301 32.0839C35.5282 32.1802 35.6251 32.2776 35.722 32.3752C35.7775 32.4303 35.833 32.4855 35.8902 32.5423C36 32.6953 36 32.6953 35.9883 32.8495C35.9158 33.0067 35.8369 33.0756 35.7012 33.1831C35.4211 33.4163 35.1656 33.6664 34.9102 33.9258C34.6302 34.209 34.3475 34.4803 34.0433 34.7377C33.784 34.9709 33.5415 35.2214 33.2976 35.4706C32.8773 35.8975 32.8773 35.8975 32.6953 36C32.4164 35.9743 32.2848 35.8249 32.0944 35.6306C32.035 35.5705 31.9756 35.5105 31.9145 35.4486C31.8531 35.3855 31.7917 35.3224 31.7285 35.2573C31.6661 35.1939 31.6036 35.1305 31.5393 35.0652C31.3851 34.9085 31.2314 34.7514 31.0781 34.5938C31.2188 34.3125 31.2188 34.3125 31.7109 33.8906C27.2559 33.8674 22.8009 33.8442 18.2109 33.8203C18.2109 33.1242 18.2109 32.4281 18.2109 31.7109C24.9282 31.6761 24.9282 31.6761 31.7812 31.6406C31.5492 31.4086 31.3172 31.1766 31.0781 30.9375C31.3864 30.5682 31.7115 30.2251 32.0537 29.8872C32.1263 29.8151 32.1263 29.8151 32.2004 29.7415C32.3183 29.6244 32.4364 29.5074 32.5547 29.3906Z" fill="#474F54"/>
<path d="M18.7032 18C18.7032 18.0696 18.7032 18.1392 18.7032 18.2109C18.6078 18.3037 18.6078 18.3037 18.4867 18.3993C18.3675 18.5067 18.3675 18.5067 18.2813 18.6328C18.2907 18.8489 18.3166 19.0004 18.3706 19.2049C18.5326 20.0928 18.6366 21.0615 18.1255 21.8602C17.5572 22.6499 16.8362 23.3273 16.1324 23.9941C16.0828 24.0411 16.0333 24.0881 15.9822 24.1365C15.3541 24.7294 14.714 25.308 14.0626 25.875C13.7831 25.7625 13.5957 25.5676 13.388 25.357C13.3495 25.3185 13.3111 25.2801 13.2715 25.2405C13.1448 25.1138 13.0187 24.9866 12.8925 24.8593C12.8047 24.7712 12.7168 24.6831 12.6289 24.5951C12.3979 24.3635 12.1673 24.1315 11.9367 23.8994C11.7013 23.6626 11.4655 23.4261 11.2298 23.1897C10.7674 22.7258 10.3055 22.2615 9.84383 21.7969C9.64112 21.8887 9.49635 21.9863 9.33971 22.1439C9.29742 22.1861 9.25513 22.2283 9.21156 22.2718C9.166 22.318 9.12044 22.3642 9.0735 22.4117C9.00057 22.4848 9.00057 22.4848 8.92617 22.5593C8.76564 22.7203 8.6056 22.8818 8.44555 23.0433C8.33423 23.155 8.22287 23.2668 8.11148 23.3784C7.81841 23.6725 7.52574 23.9668 7.23318 24.2613C6.7642 24.7334 6.29474 25.2049 5.82505 25.6762C5.66063 25.8414 5.49645 26.0068 5.33228 26.1722C5.23226 26.2727 5.13222 26.3732 5.03218 26.4737C4.9632 26.5433 4.9632 26.5433 4.89283 26.6144C4.78668 26.7209 4.67874 26.8255 4.57039 26.9297C4.54719 26.9297 4.52399 26.9297 4.50008 26.9297C4.19633 25.9865 4.02989 24.9063 4.43172 23.9677C5.23378 22.4216 6.99067 21.1442 8.27361 20.0066C8.62396 19.6958 8.9606 19.3889 9.25902 19.0261C9.39634 18.86 9.54862 18.7124 9.70321 18.5625C9.98272 18.675 10.1701 18.8699 10.3778 19.0805C10.4163 19.119 10.4547 19.1574 10.4943 19.197C10.621 19.3237 10.7471 19.4509 10.8733 19.5782C10.9611 19.6663 11.049 19.7544 11.1369 19.8424C11.3679 20.074 11.5985 20.306 11.829 20.5381C12.0645 20.7749 12.3003 21.0114 12.536 21.2478C12.9984 21.7117 13.4603 22.176 13.922 22.6406C14.224 22.5242 14.4255 22.2964 14.6482 22.0709C14.6922 22.027 14.7361 21.9831 14.7814 21.9379C14.9263 21.7929 15.0706 21.6474 15.215 21.5019C15.3155 21.4012 15.416 21.3005 15.5165 21.1998C15.7808 20.935 16.0447 20.6697 16.3085 20.4043C16.5779 20.1335 16.8476 19.8632 17.1173 19.5927C17.6463 19.0622 18.1749 18.5312 18.7032 18Z" fill="#FDBF00"/>
<path d="M21.7969 18C22.0147 18.0966 22.1598 18.2063 22.325 18.3772C22.372 18.4252 22.4189 18.4733 22.4673 18.5228C22.5172 18.5746 22.5672 18.6264 22.6187 18.6798C22.7254 18.7886 22.8321 18.8974 22.9389 19.0062C23.1068 19.1781 23.2745 19.3502 23.4416 19.5229C23.603 19.6894 23.7655 19.8548 23.9282 20.0201C23.9782 20.0723 24.0281 20.1245 24.0796 20.1783C24.1265 20.2257 24.1735 20.2732 24.2218 20.322C24.2628 20.3642 24.3038 20.4064 24.3461 20.4499C24.4637 20.5455 24.4637 20.5455 24.6087 20.5238C24.7784 20.4483 24.8772 20.3591 25.0078 20.227C25.0571 20.1778 25.1063 20.1285 25.1571 20.0778C25.2356 19.9976 25.2356 19.9976 25.3158 19.9157C25.37 19.8612 25.4242 19.8067 25.4801 19.7505C25.6533 19.5762 25.8257 19.4011 25.998 19.2261C26.1153 19.1078 26.2326 18.9895 26.3499 18.8714C26.6375 18.5815 26.9244 18.291 27.2109 18C27.4587 18.1166 27.6187 18.2508 27.8119 18.4466C27.8713 18.5064 27.9306 18.5662 27.9918 18.6279C28.0532 18.6904 28.1145 18.7529 28.1777 18.8174C28.2402 18.8805 28.3026 18.9435 28.367 19.0085C28.521 19.1642 28.6747 19.3203 28.8281 19.4766C28.7307 19.6962 28.6175 19.8451 28.4474 20.0141C28.3997 20.0617 28.3519 20.1093 28.3027 20.1584C28.2528 20.2075 28.2028 20.2566 28.1514 20.3071C28.1031 20.3554 28.0547 20.4037 28.005 20.4534C27.7757 20.6807 27.5433 20.9001 27.2989 21.111C26.9936 21.3769 26.7072 21.6588 26.4221 21.946C26.3437 22.0246 26.3437 22.0246 26.2637 22.1047C26.0988 22.27 25.9342 22.4355 25.7695 22.6011C25.6569 22.714 25.5443 22.827 25.4317 22.9399C25.1574 23.2149 24.8833 23.4902 24.6094 23.7656C24.327 23.6525 24.1379 23.4537 23.9283 23.2411C23.8892 23.202 23.85 23.1629 23.8097 23.1226C23.6808 22.9936 23.5524 22.8641 23.424 22.7346C23.3345 22.6449 23.2451 22.5552 23.1556 22.4656C22.9204 22.2299 22.6856 21.9937 22.4509 21.7575C22.2113 21.5164 21.9712 21.2757 21.7312 21.035C21.2605 20.5628 20.7903 20.0901 20.3203 19.6172C20.4369 19.3694 20.5711 19.2094 20.7669 19.0162C20.8267 18.9569 20.8865 18.8975 20.9482 18.8363C21.0107 18.775 21.0733 18.7136 21.1377 18.6504C21.2008 18.5879 21.2639 18.5255 21.3289 18.4612C21.4846 18.3071 21.6406 18.1534 21.7969 18Z" fill="#03C9C8"/>
<path d="M34.4531 10.8984C34.8331 11.0788 35.093 11.369 35.3892 11.6631C35.4488 11.7205 35.5085 11.7778 35.57 11.8369C35.6541 11.9203 35.6541 11.9203 35.7399 12.0053C35.7915 12.056 35.8431 12.1066 35.8963 12.1588C36 12.3047 36 12.3047 35.9894 12.4348C35.9097 12.6366 35.794 12.7475 35.6402 12.9005C35.5479 12.9931 35.5479 12.9931 35.4537 13.0876C35.386 13.1545 35.3182 13.2214 35.2505 13.2882C35.1809 13.3576 35.1114 13.4269 35.042 13.4963C34.8961 13.6418 34.7499 13.787 34.6034 13.932C34.4171 14.1163 34.2313 14.3013 34.0458 14.4865C33.8675 14.6645 33.6889 14.8421 33.5102 15.0197C33.4768 15.053 33.4434 15.0863 33.4089 15.1206C33.0584 15.4694 32.7045 15.8091 32.3295 16.1314C32.1324 16.3042 31.948 16.4886 31.7637 16.6748C31.7255 16.7131 31.6872 16.7514 31.6479 16.7909C31.5281 16.911 31.4086 17.0314 31.2891 17.1519C31.207 17.2343 31.1248 17.3168 31.0427 17.3992C30.8434 17.5993 30.6443 17.7996 30.4453 18C30.2456 17.9094 30.1037 17.8155 29.9515 17.6581C29.913 17.6188 29.8746 17.5796 29.835 17.5393C29.7957 17.4984 29.7563 17.4576 29.7158 17.4155C29.4321 17.1229 29.1458 16.8495 28.8281 16.5938C28.9286 16.3648 29.051 16.2128 29.2275 16.0367C29.2806 15.9834 29.3337 15.9301 29.3883 15.8752C29.4458 15.8182 29.5033 15.7612 29.5626 15.7025C29.6219 15.6432 29.6812 15.5839 29.7424 15.5228C29.8681 15.3973 29.994 15.2719 30.12 15.1467C30.3116 14.9564 30.5027 14.7656 30.6936 14.5746C30.8161 14.4525 30.9386 14.3304 31.0611 14.2083C31.1461 14.1235 31.1461 14.1235 31.2327 14.037C31.526 13.746 31.8252 13.4675 32.138 13.1978C32.3701 12.9927 32.5872 12.773 32.8052 12.5533C32.8528 12.5056 32.9003 12.4579 32.9494 12.4088C33.0992 12.2585 33.2488 12.108 33.3984 11.9575C33.5009 11.8547 33.6033 11.752 33.7058 11.6492C33.9551 11.3991 34.2042 11.1489 34.4531 10.8984Z" fill="#02C8C8"/>
<path d="M18.2108 14.4141C18.5007 14.5472 18.6982 14.743 18.9194 14.9683C18.9596 15.0087 18.9997 15.0491 19.0411 15.0907C19.169 15.2193 19.2963 15.3484 19.4237 15.4775C19.5104 15.565 19.5972 15.6524 19.684 15.7398C19.8964 15.9538 20.1084 16.1682 20.3201 16.3828C20.2137 16.6337 20.0667 16.7932 19.8736 16.9838C19.7838 17.0728 19.7838 17.0728 19.6923 17.1637C19.6297 17.225 19.5672 17.2864 19.5028 17.3496C19.4397 17.4121 19.3766 17.4745 19.3116 17.5388C19.1559 17.6929 18.9999 17.8466 18.8436 18C18.5687 17.888 18.3903 17.7445 18.2108 17.5078C18.163 17.2701 18.1698 17.0383 18.1764 16.7967C18.1769 16.7286 18.1774 16.6604 18.1779 16.5901C18.1799 16.373 18.1843 16.156 18.1888 15.939C18.1906 15.7915 18.1922 15.6441 18.1936 15.4966C18.1975 15.1357 18.2035 14.7749 18.2108 14.4141Z" fill="#03CACA"/>
<path d="M21.4453 15.2578C21.5149 15.281 21.5845 15.3042 21.6562 15.3281C20.7281 16.2562 19.8 17.1844 18.8438 18.1406C18.8438 17.9297 18.8438 17.9297 18.965 17.7856C19.0487 17.7042 19.0487 17.7042 19.1341 17.6212C19.2259 17.5309 19.2259 17.5309 19.3196 17.4387C19.4169 17.3446 19.4169 17.3446 19.5161 17.2485C19.9028 16.8713 20.2831 16.4959 20.6343 16.0851C20.7898 15.9061 20.9556 15.7408 21.1245 15.5742C21.2157 15.4839 21.2157 15.4839 21.3088 15.3918C21.3539 15.3476 21.3989 15.3034 21.4453 15.2578Z" fill="#EFA20C"/>
</g>
<defs>
<clipPath id="clip0_821_5730">
<rect width="36" height="36" fill="white"/>
</clipPath>
</defs>
</svg>
