<svg width="36" height="36" viewBox="0 0 36 36" fill="none" xmlns="http://www.w3.org/2000/svg">
<g clip-path="url(#clip0_821_5724)">
<path d="M28.6065 12.0028C28.6553 12.0023 28.704 12.0018 28.7542 12.0014C28.9154 12 29.0766 11.9997 29.2378 11.9996C29.3499 11.9991 29.4621 11.9987 29.5743 11.9982C29.8096 11.9973 30.0449 11.9971 30.2802 11.9972C30.5812 11.9972 30.8822 11.9953 31.1831 11.9928C31.415 11.9913 31.6468 11.991 31.8786 11.9911C31.9895 11.9909 32.1004 11.9903 32.2114 11.9892C32.3669 11.9878 32.5223 11.9882 32.6778 11.9891C32.8103 11.9888 32.8103 11.9888 32.9456 11.9885C33.2374 12.0305 33.3835 12.1164 33.6089 12.3045C33.7874 12.5546 33.8462 12.725 33.8458 13.0309C33.8463 13.1056 33.8467 13.1803 33.8471 13.2572C33.8465 13.3388 33.8459 13.4204 33.8452 13.5044C33.8454 13.5915 33.8456 13.6785 33.8458 13.7681C33.8461 14.0094 33.8454 14.2507 33.8444 14.4921C33.8434 14.7524 33.8438 15.0127 33.8439 15.273C33.844 15.7239 33.8434 16.1748 33.8422 16.6257C33.8405 17.2777 33.8399 17.9296 33.8396 18.5816C33.8392 19.6393 33.8378 20.6971 33.8358 21.7549C33.8339 22.7824 33.8324 23.8099 33.8315 24.8374C33.8314 24.9007 33.8314 24.9641 33.8313 25.0293C33.831 25.3471 33.8308 25.6648 33.8305 25.9825C33.8283 28.6185 33.8246 31.2544 33.8199 33.8904C33.8645 33.8889 33.9092 33.8875 33.9552 33.8859C34.1591 33.8801 34.363 33.8764 34.5669 33.8728C34.6372 33.8705 34.7074 33.8681 34.7798 33.8657C35.2116 33.86 35.4612 33.8812 35.7886 34.1717C36.0738 34.5389 36.054 34.9207 35.9996 35.367C35.8466 35.6898 35.6863 35.8474 35.3668 35.9998C35.1666 36.0197 34.9821 36.0283 34.7822 36.0265C34.7233 36.0268 34.6644 36.0272 34.6037 36.0275C34.4053 36.0284 34.207 36.0277 34.0087 36.027C33.8654 36.0273 33.7221 36.0277 33.5788 36.0282C33.1844 36.0292 32.79 36.0289 32.3956 36.0284C31.9705 36.0281 31.5454 36.0289 31.1203 36.0297C30.3354 36.0308 29.5506 36.031 28.7657 36.0306C28.0406 36.0303 27.3155 36.0303 26.5904 36.0307C26.4932 36.0308 26.396 36.0309 26.2988 36.0309C26.1524 36.031 26.0059 36.0311 25.8594 36.0311C24.4974 36.0319 23.1354 36.0322 21.7733 36.0317C21.722 36.0317 21.6706 36.0316 21.6177 36.0316C21.2006 36.0314 20.7835 36.0313 20.3664 36.0311C18.7393 36.0304 17.1121 36.031 15.485 36.0326C13.6575 36.0344 11.83 36.0353 10.0025 36.0348C9.80768 36.0348 9.61289 36.0347 9.4181 36.0347C9.37014 36.0347 9.32217 36.0347 9.27276 36.0346C8.54814 36.0345 7.82352 36.035 7.0989 36.036C6.27501 36.037 5.45112 36.037 4.62722 36.0358C4.20665 36.0352 3.78609 36.0351 3.36552 36.0361C2.98078 36.0371 2.59606 36.0368 2.21131 36.0354C2.07187 36.0352 1.93243 36.0354 1.793 36.0361C1.60389 36.037 1.41487 36.0362 1.22576 36.035C1.17125 36.0357 1.11673 36.0363 1.06056 36.037C0.696857 36.0321 0.490846 35.9479 0.210502 35.7185C-0.0747072 35.3513 -0.0548559 34.9695 -0.000435784 34.5232C0.151927 34.2016 0.308992 34.0339 0.632377 33.8904C0.898033 33.8648 1.16122 33.8706 1.42779 33.8772C1.49998 33.8782 1.57217 33.8791 1.64655 33.8801C1.82416 33.8826 2.00168 33.886 2.17925 33.8904C2.17899 33.8506 2.17873 33.8107 2.17847 33.7697C2.17225 32.7996 2.16762 31.8295 2.16468 30.8594C2.16321 30.3903 2.16122 29.9212 2.15803 29.4521C2.15498 28.9994 2.1533 28.5467 2.15257 28.0939C2.15205 27.9212 2.15103 27.7485 2.14952 27.5757C2.14748 27.3338 2.14719 27.092 2.14732 26.8501C2.14581 26.7429 2.14581 26.7429 2.14426 26.6335C2.14662 26.2293 2.17638 25.9758 2.4605 25.6638C2.73821 25.4412 2.95933 25.426 3.31 25.4245C3.38313 25.4238 3.38313 25.4238 3.45773 25.423C3.61816 25.4218 3.77855 25.422 3.93899 25.4224C4.05098 25.4221 4.16296 25.4217 4.27495 25.4213C4.50942 25.4207 4.74388 25.4208 4.97834 25.4215C5.27823 25.4224 5.57805 25.4209 5.87793 25.4189C6.10914 25.4176 6.34034 25.4176 6.57156 25.418C6.68209 25.418 6.79262 25.4176 6.90315 25.4167C7.05798 25.4157 7.2127 25.4164 7.36753 25.4176C7.49943 25.4176 7.49943 25.4176 7.634 25.4177C7.98677 25.4693 8.19201 25.6171 8.42678 25.8802C8.55139 26.1979 8.5349 26.5039 8.53132 26.8421C8.53137 26.9563 8.53137 26.9563 8.53142 27.0729C8.53127 27.3244 8.52963 27.5758 8.52798 27.8273C8.52758 28.0018 8.52728 28.1763 8.52707 28.3508C8.52627 28.8098 8.52419 29.2688 8.52186 29.7278C8.51959 30.1963 8.51874 30.6648 8.51768 31.1332C8.51541 32.0523 8.5117 32.9714 8.50738 33.8904C9.20347 33.8904 9.89956 33.8904 10.6168 33.8904C10.6153 33.5795 10.6138 33.2686 10.6123 32.9483C10.6076 31.922 10.6045 30.8957 10.6022 29.8693C10.6007 29.247 10.5988 28.6246 10.5955 28.0023C10.5927 27.4598 10.5909 26.9173 10.5903 26.3749C10.5899 26.0877 10.5891 25.8005 10.587 25.5132C10.5851 25.2428 10.5845 24.9724 10.5849 24.7019C10.5849 24.6028 10.5843 24.5036 10.5832 24.4045C10.5745 23.5628 10.5745 23.5628 10.7374 23.2944C11.0623 22.967 11.2866 22.8952 11.7475 22.8932C11.8206 22.8925 11.8206 22.8925 11.8952 22.8918C12.0557 22.8905 12.2161 22.8908 12.3765 22.8912C12.4885 22.8908 12.6005 22.8905 12.7125 22.8901C12.9469 22.8894 13.1814 22.8896 13.4158 22.8903C13.7157 22.8911 14.0156 22.8897 14.3154 22.8876C14.5466 22.8863 14.7778 22.8864 15.0091 22.8868C15.1196 22.8868 15.2301 22.8863 15.3407 22.8855C15.4955 22.8844 15.6502 22.8852 15.805 22.8864C15.9369 22.8864 15.9369 22.8864 16.0715 22.8864C16.3624 22.929 16.509 23.0154 16.7339 23.2029C16.9303 23.4716 16.9711 23.6588 16.9702 23.9891C16.9707 24.1203 16.9707 24.1203 16.9711 24.2541C16.9704 24.3505 16.9696 24.4468 16.9688 24.5432C16.9688 24.6451 16.9688 24.747 16.9689 24.8488C16.969 25.125 16.9677 25.4011 16.9663 25.6772C16.9649 25.966 16.9648 26.2547 16.9646 26.5435C16.9639 27.0901 16.9622 27.6367 16.9601 28.1832C16.9577 28.8056 16.9566 29.4279 16.9555 30.0503C16.9533 31.3303 16.9494 32.6104 16.9449 33.8904C17.6178 33.8904 18.2907 33.8904 18.9839 33.8904C18.9836 33.719 18.9833 33.5476 18.983 33.371C18.9801 31.757 18.978 30.143 18.9767 28.529C18.9759 27.6992 18.9749 26.8694 18.9733 26.0396C18.9719 25.3163 18.971 24.593 18.9707 23.8697C18.9705 23.4867 18.9701 23.1038 18.9691 22.7209C18.9681 22.3603 18.9678 21.9997 18.968 21.6391C18.968 21.5069 18.9677 21.3747 18.9672 21.2425C18.9665 21.0617 18.9666 20.8808 18.967 20.7C18.9664 20.622 18.9664 20.622 18.9658 20.5425C18.9683 20.1028 19.0026 19.6905 19.296 19.3445C19.6095 19.0845 19.7644 19.0365 20.169 19.034C20.2421 19.0333 20.2421 19.0333 20.3167 19.0326C20.4779 19.0313 20.6391 19.031 20.8003 19.0308C20.9124 19.0304 21.0246 19.0299 21.1368 19.0294C21.3721 19.0286 21.6074 19.0283 21.8427 19.0284C22.1437 19.0284 22.4447 19.0265 22.7456 19.0241C22.9775 19.0225 23.2093 19.0222 23.4411 19.0223C23.552 19.0221 23.6629 19.0215 23.7739 19.0204C23.9294 19.019 24.0848 19.0195 24.2403 19.0203C24.3728 19.02 24.3728 19.02 24.5081 19.0197C24.8566 19.0699 25.0719 19.2074 25.2873 19.4852C25.4111 19.7483 25.411 19.9841 25.4077 20.2688C25.4079 20.3271 25.4081 20.3854 25.4083 20.4454C25.4086 20.6406 25.4075 20.8358 25.4063 21.031C25.4063 21.171 25.4063 21.311 25.4064 21.4509C25.4065 21.831 25.4052 22.2109 25.4038 22.591C25.4024 22.9881 25.4023 23.3852 25.4021 23.7824C25.4014 24.5344 25.3997 25.2864 25.3976 26.0384C25.3952 26.8946 25.3941 27.7507 25.393 28.6069C25.3908 30.3681 25.387 32.1292 25.3824 33.8904C26.0553 33.8904 26.7282 33.8904 27.4214 33.8904C27.4211 33.6309 27.4208 33.3714 27.4205 33.1041C27.4177 30.7244 27.4156 28.3447 27.4143 25.965C27.4141 25.6531 27.4139 25.3412 27.4137 25.0292C27.4137 24.9361 27.4137 24.9361 27.4136 24.8411C27.413 23.8357 27.4119 22.8303 27.4106 21.825C27.4093 20.7933 27.4085 19.7617 27.4082 18.7301C27.408 18.0935 27.4074 17.457 27.4063 16.8204C27.4055 16.3839 27.4053 15.9474 27.4055 15.5108C27.4056 15.259 27.4054 15.0072 27.4047 14.7553C27.4039 14.4821 27.4041 14.2089 27.4045 13.9357C27.4039 13.8167 27.4039 13.8167 27.4033 13.6952C27.4071 12.6982 27.4071 12.6982 27.7335 12.3133C28.047 12.0532 28.2019 12.0052 28.6065 12.0028Z" fill="#354A67"/>
<path d="M28.6075 12.0028C28.6563 12.0023 28.705 12.0018 28.7552 12.0014C28.9164 12 29.0776 11.9997 29.2388 11.9996C29.351 11.9991 29.4631 11.9987 29.5753 11.9982C29.8106 11.9973 30.0459 11.9971 30.2812 11.9972C30.5822 11.9972 30.8832 11.9953 31.1841 11.9928C31.416 11.9913 31.6478 11.991 31.8796 11.9911C31.9905 11.9909 32.1014 11.9903 32.2124 11.9892C32.3679 11.9878 32.5233 11.9882 32.6788 11.9891C32.8113 11.9888 32.8113 11.9888 32.9466 11.9885C33.2384 12.0305 33.3845 12.1164 33.6099 12.3045C33.7884 12.5546 33.8472 12.725 33.8468 13.0309C33.8473 13.1056 33.8477 13.1803 33.8481 13.2572C33.8475 13.3388 33.8469 13.4204 33.8463 13.5044C33.8464 13.5915 33.8466 13.6785 33.8468 13.7681C33.8471 14.0094 33.8464 14.2507 33.8454 14.4921C33.8445 14.7524 33.8448 15.0127 33.8449 15.273C33.845 15.7239 33.8444 16.1748 33.8432 16.6257C33.8415 17.2777 33.8409 17.9296 33.8407 18.5816C33.8402 19.6393 33.8388 20.6971 33.8368 21.7549C33.8349 22.7824 33.8334 23.8099 33.8325 24.8374C33.8324 24.9007 33.8324 24.9641 33.8323 25.0293C33.832 25.3471 33.8318 25.6648 33.8315 25.9825C33.8293 28.6185 33.8254 31.2544 33.8209 33.8904C31.7094 33.8904 29.5979 33.8904 27.4224 33.8904C27.4193 31.2486 27.4168 28.6068 27.4153 25.965C27.4151 25.6531 27.4149 25.3412 27.4147 25.0292C27.4147 24.9672 27.4147 24.9051 27.4146 24.8411C27.414 23.8357 27.4129 22.8303 27.4116 21.825C27.4103 20.7933 27.4095 19.7617 27.4092 18.7301C27.409 18.0935 27.4084 17.457 27.4073 16.8204C27.4065 16.3839 27.4063 15.9474 27.4065 15.5108C27.4066 15.259 27.4064 15.0072 27.4057 14.7553C27.4049 14.4821 27.4052 14.2089 27.4055 13.9357C27.4051 13.8563 27.4047 13.777 27.4043 13.6952C27.4081 12.6982 27.4081 12.6982 27.7345 12.3133C28.048 12.0532 28.2029 12.0052 28.6075 12.0028Z" fill="#0493FD"/>
<path d="M33.8555 0.109457C34.2296 0.474257 34.3699 0.905158 34.4993 1.39754C34.5158 1.45809 34.5323 1.51864 34.5493 1.58102C34.6033 1.77989 34.6563 1.97902 34.7091 2.17818C34.7465 2.31751 34.7839 2.45683 34.8214 2.59615C34.8996 2.88776 34.9773 3.1795 35.0547 3.47134C35.1535 3.84383 35.2538 4.2159 35.3545 4.58788C35.4322 4.87544 35.5089 5.16323 35.5854 5.4511C35.622 5.58831 35.6589 5.72544 35.6961 5.86248C36.1443 7.51763 36.1443 7.51763 35.9165 8.08114C35.7052 8.32155 35.4731 8.55838 35.1442 8.59447C34.7346 8.60627 34.4888 8.58323 34.1719 8.29647C33.8683 7.92021 33.7696 7.51137 33.6478 7.04897C33.6157 6.93048 33.6157 6.93048 33.5828 6.80959C33.5148 6.55833 33.4478 6.30681 33.3809 6.05526C33.3348 5.8844 33.2886 5.71356 33.2424 5.54275C33.1296 5.12493 33.0176 4.70689 32.9062 4.28866C32.8598 4.28866 32.8134 4.28866 32.7656 4.28866C32.6705 4.43632 32.5834 4.5839 32.4976 4.7369C31.7615 6.00521 30.8218 7.17367 29.8828 8.29647C29.8518 8.33351 29.8209 8.37054 29.789 8.4087C28.9774 9.37617 28.111 10.2853 27.2197 11.1793C27.1851 11.2141 27.1505 11.2489 27.1148 11.2847C26.7142 11.687 26.3075 12.0769 25.875 12.4449C25.7929 12.5167 25.7108 12.5887 25.6289 12.6608C24.5775 13.5802 23.4933 14.4416 22.3594 15.2574C22.3036 15.2977 22.2477 15.3381 22.1902 15.3796C20.7391 16.4247 19.2191 17.3566 17.6484 18.2105C17.5399 18.2696 17.5399 18.2696 17.4292 18.3299C12.6747 20.9008 7.44238 22.435 2.03906 22.7105C1.97381 22.7139 1.90857 22.7173 1.84134 22.7208C0.740152 22.7712 0.740152 22.7712 0.28125 22.4293C0.0318433 22.1736 -0.0200941 21.9676 -0.0351562 21.6207C-0.0210725 21.2747 0.0401364 21.0722 0.28125 20.8121C0.603846 20.5572 0.825101 20.4937 1.23376 20.48C1.28438 20.4779 1.33499 20.4758 1.38714 20.4736C1.49545 20.4691 1.60378 20.4651 1.71213 20.4617C1.99886 20.4523 2.28536 20.4381 2.5719 20.4243C2.62903 20.4216 2.68617 20.4189 2.74504 20.4162C6.43824 20.2369 10.1253 19.2036 13.5 17.7183C13.5758 17.685 13.6515 17.6517 13.7296 17.6173C17.2511 16.0542 20.5481 14.0107 23.4775 11.5045C23.6816 11.3304 23.8902 11.1624 24.0996 10.9947C24.3976 10.7525 24.6701 10.496 24.9354 10.2185C25.0752 10.0803 25.2176 9.95217 25.3663 9.82384C25.6673 9.56272 25.9501 9.28647 26.231 9.00399C26.278 8.95726 26.3249 8.91054 26.3734 8.8624C26.6505 8.58473 26.9143 8.29926 27.1705 8.00222C27.3149 7.83586 27.465 7.6753 27.6152 7.51424C27.9838 7.10956 28.3211 6.68508 28.6543 6.25105C28.7604 6.1134 28.8678 5.97676 28.9753 5.8402C29.4055 5.2905 29.8114 4.72847 30.1992 4.14803C30.2599 4.05734 30.2599 4.05734 30.3218 3.96482C30.5693 3.58977 30.7919 3.20607 31.0078 2.81209C30.9597 2.82531 30.9117 2.83852 30.8621 2.85213C30.4072 2.97701 29.9521 3.1012 29.4968 3.22464C29.2628 3.28811 29.0288 3.35183 28.795 3.41617C28.5258 3.49026 28.2562 3.56319 27.9866 3.63607C27.9033 3.65914 27.8201 3.68221 27.7344 3.70598C26.7782 3.96222 26.7782 3.96222 26.2837 3.78768C25.997 3.59656 25.7885 3.41613 25.6896 3.08318C25.6299 2.70605 25.6758 2.44317 25.875 2.10897C26.2314 1.74135 26.6043 1.64234 27.0926 1.51708C27.1708 1.49604 27.2491 1.475 27.3297 1.45333C27.5843 1.38516 27.8392 1.31856 28.0942 1.25204C28.2697 1.20552 28.4451 1.15892 28.6204 1.11222C28.8843 1.042 29.1483 0.971914 29.4123 0.902302C29.9325 0.765125 30.4512 0.623911 30.9688 0.477499C31.0873 0.444261 31.2058 0.411044 31.3243 0.377849C31.4867 0.332386 31.6489 0.286668 31.8108 0.239844C33.2302 -0.169696 33.2302 -0.169696 33.8555 0.109457Z" fill="#90BC02"/>
<path d="M20.17 19.034C20.2188 19.0336 20.2675 19.0331 20.3177 19.0326C20.4789 19.0313 20.6401 19.031 20.8013 19.0308C20.9135 19.0304 21.0256 19.0299 21.1378 19.0294C21.3731 19.0286 21.6084 19.0283 21.8437 19.0284C22.1447 19.0284 22.4457 19.0265 22.7466 19.0241C22.9785 19.0225 23.2103 19.0222 23.4421 19.0223C23.553 19.0221 23.6639 19.0215 23.7749 19.0204C23.9304 19.019 24.0858 19.0195 24.2413 19.0203C24.3738 19.02 24.3738 19.02 24.5091 19.0197C24.8576 19.0699 25.0729 19.2074 25.2883 19.4852C25.4121 19.7483 25.412 19.9841 25.4088 20.2688C25.4089 20.3271 25.4091 20.3854 25.4093 20.4454C25.4096 20.6406 25.4085 20.8358 25.4073 21.031C25.4073 21.171 25.4073 21.311 25.4074 21.4509C25.4075 21.831 25.4062 22.2109 25.4048 22.591C25.4035 22.9881 25.4033 23.3852 25.4031 23.7824C25.4024 24.5344 25.4007 25.2864 25.3986 26.0384C25.3958 27.0546 25.3946 28.0709 25.3934 29.0871C25.3914 30.6882 25.3872 32.2893 25.3834 33.8904C23.2719 33.8904 21.1604 33.8904 18.9849 33.8904C18.9793 30.4571 18.9793 30.4571 18.9781 29.0191C18.9772 28.0259 18.9763 27.0327 18.9743 26.0396C18.9729 25.3163 18.972 24.593 18.9717 23.8697C18.9715 23.4867 18.9711 23.1038 18.9701 22.7209C18.9691 22.3603 18.9688 21.9997 18.969 21.6391C18.969 21.5069 18.9687 21.3747 18.9682 21.2425C18.9675 21.0617 18.9677 20.8808 18.968 20.7C18.9676 20.648 18.9672 20.596 18.9668 20.5425C18.9693 20.1028 19.0036 19.6905 19.297 19.3445C19.6105 19.0845 19.7654 19.0365 20.17 19.034Z" fill="#0493FD"/>
<path d="M11.7473 22.8911C11.7961 22.8906 11.8448 22.8901 11.8951 22.8896C12.0555 22.8883 12.2159 22.8886 12.3763 22.889C12.4883 22.8887 12.6003 22.8883 12.7123 22.8879C12.9467 22.8873 13.1812 22.8874 13.4157 22.8881C13.7155 22.8889 14.0154 22.8875 14.3152 22.8855C14.5465 22.8842 14.7777 22.8842 15.0089 22.8846C15.1194 22.8846 15.2299 22.8842 15.3405 22.8833C15.4953 22.8823 15.65 22.883 15.8048 22.8842C15.9368 22.8842 15.9368 22.8842 16.0713 22.8843C16.3622 22.9269 16.5088 23.0133 16.7338 23.2007C16.9301 23.4695 16.9709 23.6566 16.9701 23.987C16.9704 24.0744 16.9706 24.1619 16.9709 24.252C16.9702 24.3483 16.9694 24.4447 16.9686 24.541C16.9686 24.6429 16.9686 24.7448 16.9687 24.8467C16.9688 25.1228 16.9676 25.3989 16.9661 25.6751C16.9648 25.9638 16.9646 26.2526 16.9644 26.5413C16.9637 27.0879 16.962 27.6345 16.9599 28.1811C16.9571 28.9198 16.956 29.6586 16.9547 30.3973C16.9527 31.561 16.9485 32.7246 16.9447 33.8882C14.8564 33.8882 12.7681 33.8882 10.6166 33.8882C10.6052 31.3133 10.6052 31.3133 10.6028 30.2347C10.6012 29.4899 10.5992 28.745 10.5954 28.0001C10.5926 27.4577 10.5907 26.9152 10.5901 26.3727C10.5897 26.0855 10.5889 25.7983 10.5868 25.5111C10.5849 25.2406 10.5843 24.9702 10.5848 24.6998C10.5847 24.6006 10.5841 24.5015 10.583 24.4023C10.5743 23.5606 10.5743 23.5606 10.7372 23.2923C11.0622 22.9648 11.2865 22.8931 11.7473 22.8911Z" fill="#4BC0FF"/>
<path d="M3.31027 25.4223C3.35903 25.4219 3.40778 25.4214 3.45801 25.4209C3.61844 25.4196 3.77882 25.4199 3.93926 25.4203C4.05125 25.4199 4.16324 25.4196 4.27523 25.4191C4.5097 25.4185 4.74415 25.4187 4.97862 25.4194C5.2785 25.4202 5.57832 25.4188 5.8782 25.4167C6.10941 25.4154 6.34061 25.4154 6.57183 25.4158C6.68236 25.4159 6.79289 25.4154 6.90342 25.4146C7.05825 25.4135 7.21297 25.4143 7.3678 25.4155C7.49971 25.4155 7.49971 25.4155 7.63428 25.4155C7.98705 25.4672 8.19228 25.6149 8.42705 25.8781C8.55167 26.1958 8.53517 26.5017 8.5316 26.8399C8.53164 26.9542 8.53164 26.9542 8.53169 27.0707C8.53154 27.3222 8.5299 27.5737 8.52825 27.8252C8.52785 27.9996 8.52755 28.1741 8.52734 28.3486C8.52654 28.8076 8.52447 29.2666 8.52213 29.7257C8.51946 30.2765 8.51863 30.8274 8.5174 31.3782C8.51535 32.2149 8.51131 33.0516 8.50765 33.8882C6.41937 33.8882 4.33109 33.8882 2.17952 33.8882C2.16824 31.9574 2.16824 31.9574 2.16579 31.1345C2.16411 30.573 2.16212 30.0114 2.15831 29.4499C2.15525 28.9972 2.15357 28.5445 2.15284 28.0918C2.15232 27.919 2.15131 27.7463 2.14979 27.5736C2.14775 27.3317 2.14746 27.0898 2.1476 26.8479C2.14658 26.7764 2.14557 26.705 2.14453 26.6313C2.14689 26.2272 2.17665 25.9737 2.46077 25.6617C2.73848 25.4391 2.9596 25.4239 3.31027 25.4223Z" fill="#4BC0FF"/>
<path d="M18 15.4688C18 16.3041 18 17.1394 18 18C16.3726 18.9319 14.6882 19.7188 12.9375 20.3906C12.8599 20.4204 12.7823 20.4502 12.7024 20.4809C9.27255 21.7828 5.70515 22.537 2.03906 22.7109C1.97443 22.7142 1.90979 22.7175 1.8432 22.7209C0.740064 22.7715 0.740064 22.7715 0.28125 22.4297C0.0318433 22.174 -0.0200941 21.968 -0.0351562 21.6211C-0.0210725 21.2751 0.0401364 21.0726 0.28125 20.8125C0.603846 20.5576 0.825101 20.4941 1.23376 20.4804C1.30969 20.4772 1.30969 20.4772 1.38714 20.474C1.49545 20.4695 1.60378 20.4655 1.71213 20.4621C1.99886 20.4527 2.28536 20.4385 2.5719 20.4247C2.6576 20.4207 2.6576 20.4207 2.74504 20.4166C6.43824 20.2373 10.1253 19.204 13.5 17.7188C13.5758 17.6854 13.6515 17.6521 13.7296 17.6177C15.1109 17.0046 16.468 16.3347 17.767 15.5611C17.9297 15.4688 17.9297 15.4688 18 15.4688Z" fill="#A5D029"/>
<path d="M1.3341 33.8639C1.40532 33.8637 1.47654 33.8635 1.54992 33.8633C1.78885 33.863 2.02774 33.8642 2.26666 33.8653C2.43782 33.8654 2.60897 33.8653 2.78013 33.8652C3.14876 33.8652 3.51738 33.8658 3.886 33.867C4.41897 33.8687 4.95193 33.8692 5.4849 33.8695C6.34963 33.8699 7.21436 33.8713 8.07908 33.8733C8.91903 33.8753 9.75898 33.8768 10.5989 33.8777C10.6507 33.8777 10.7025 33.8778 10.7559 33.8778C11.0156 33.8781 11.2754 33.8784 11.5352 33.8786C13.69 33.8808 15.8449 33.8846 17.9997 33.8893C17.9997 34.5853 17.9997 35.2814 17.9997 35.9986C15.7944 36.005 13.5891 36.01 11.3838 36.013C11.1235 36.0133 10.8631 36.0137 10.6028 36.0141C10.551 36.0142 10.4991 36.0142 10.4457 36.0143C9.60646 36.0155 8.76719 36.0177 7.92791 36.0203C7.06679 36.023 6.20567 36.0245 5.34454 36.0251C4.81314 36.0255 4.28176 36.0267 3.75036 36.029C3.34294 36.0306 2.93553 36.0308 2.52811 36.0304C2.36093 36.0305 2.19376 36.0311 2.02658 36.0322C1.79855 36.0336 1.57059 36.0332 1.34256 36.0325C1.27621 36.0333 1.20986 36.0341 1.14151 36.0349C0.749045 36.0314 0.520737 35.9818 0.210624 35.7174C-0.0745851 35.3502 -0.0547339 34.9683 -0.000313714 34.5221C0.292277 33.9044 0.712893 33.8582 1.3341 33.8639Z" fill="#466188"/>
</g>
<defs>
<clipPath id="clip0_821_5724">
<rect width="36" height="36" fill="white"/>
</clipPath>
</defs>
</svg>
