<svg width="36" height="36" viewBox="0 0 36 36" fill="none" xmlns="http://www.w3.org/2000/svg">
<g clip-path="url(#clip0_821_5736)">
<path d="M0.945056 13.5436C1.00495 13.5433 1.06485 13.543 1.12655 13.5426C1.3282 13.5419 1.52981 13.5426 1.73145 13.5433C1.8771 13.5431 2.02274 13.5427 2.16839 13.5423C2.56936 13.5414 2.97032 13.5419 3.37129 13.5425C3.80343 13.543 4.23556 13.5423 4.6677 13.5417C5.46557 13.5408 6.26344 13.5409 7.06131 13.5415C7.79835 13.542 8.5354 13.5421 9.27244 13.5419C9.3213 13.5419 9.37015 13.5418 9.42049 13.5418C9.61882 13.5418 9.81714 13.5417 10.0155 13.5416C11.8765 13.541 13.7376 13.5416 15.5986 13.5427C17.2527 13.5437 18.9067 13.5436 20.5607 13.5426C22.4184 13.5415 24.276 13.541 26.1336 13.5417C26.3316 13.5417 26.5295 13.5418 26.7275 13.5419C26.8006 13.5419 26.8006 13.5419 26.8752 13.5419C27.6119 13.5422 28.3485 13.5419 29.0851 13.5414C29.9226 13.5408 30.7601 13.5409 31.5975 13.5421C32.0251 13.5426 32.4526 13.5428 32.8801 13.5421C33.2711 13.5415 33.6622 13.5418 34.0532 13.543C34.195 13.5432 34.3368 13.5431 34.4786 13.5426C34.6707 13.5419 34.8628 13.5426 35.0549 13.5436C35.1105 13.5431 35.1661 13.5426 35.2234 13.5421C35.5392 13.5453 35.7531 13.5771 36 13.781C36.1113 14.2694 35.8272 14.6254 35.5781 15.0291C35.5132 15.1377 35.5132 15.1377 35.4469 15.2485C35.2525 15.5733 35.0551 15.8963 34.8574 16.2192C34.7254 16.4349 34.5943 16.6511 34.4636 16.8676C34.3881 16.9919 34.3114 17.1153 34.2346 17.2388C34.1886 17.3147 34.1426 17.3906 34.0952 17.4689C34.054 17.5358 34.0127 17.6028 33.9703 17.6718C33.8749 17.8961 33.8814 17.9827 33.9609 18.2107C34.0495 18.3896 34.0495 18.3896 34.1639 18.5703C34.2062 18.6398 34.2486 18.7094 34.2923 18.7811C34.3381 18.8554 34.3839 18.9296 34.4311 19.0061C34.5268 19.1639 34.6223 19.3216 34.7179 19.4794C34.8656 19.7224 35.0136 19.9653 35.1618 20.2079C35.3002 20.4352 35.4371 20.6632 35.5737 20.8914C35.6165 20.9609 35.6593 21.0303 35.7034 21.1019C36.0909 21.7528 36.0909 21.7528 36 22.1482C35.7074 22.3898 35.418 22.3889 35.0549 22.3857C34.965 22.3862 34.965 22.3862 34.8734 22.3866C34.6717 22.3874 34.4701 22.3867 34.2685 22.386C34.1228 22.3862 33.9772 22.3865 33.8316 22.387C33.4306 22.3878 33.0296 22.3874 32.6287 22.3867C32.1965 22.3863 31.7644 22.387 31.3322 22.3876C30.5344 22.3885 29.7365 22.3884 28.9386 22.3878C28.2016 22.3873 27.4645 22.3871 26.7275 22.3874C26.6786 22.3874 26.6298 22.3874 26.5795 22.3874C26.3811 22.3875 26.1828 22.3876 25.9845 22.3876C24.1234 22.3883 22.2624 22.3877 20.4013 22.3866C18.7473 22.3856 17.0932 22.3857 15.4392 22.3867C13.5816 22.3878 11.724 22.3882 9.86634 22.3876C9.66837 22.3875 9.4704 22.3875 9.27244 22.3874C9.19932 22.3874 9.19932 22.3874 9.12472 22.3873C8.38808 22.3871 7.65144 22.3874 6.9148 22.3879C6.07734 22.3885 5.23989 22.3884 4.40243 22.3872C3.97489 22.3867 3.54736 22.3865 3.11982 22.3872C2.72879 22.3878 2.33778 22.3874 1.94676 22.3863C1.80495 22.3861 1.66315 22.3862 1.52135 22.3867C1.32923 22.3873 1.13717 22.3867 0.945056 22.3857C0.889452 22.3862 0.833847 22.3867 0.776558 22.3872C0.460791 22.384 0.246825 22.3522 -2.80347e-05 22.1482C-0.111369 21.6599 0.172771 21.3039 0.421847 20.9002C0.465132 20.8278 0.508417 20.7554 0.553013 20.6808C0.747477 20.356 0.944872 20.033 1.14252 19.7101C1.27454 19.4944 1.40564 19.2782 1.53632 19.0616C1.61182 18.9374 1.68854 18.8139 1.76534 18.6905C1.83434 18.5766 1.83434 18.5766 1.90473 18.4604C1.94596 18.3934 1.9872 18.3265 2.02968 18.2575C2.12548 18.0322 2.11935 17.9476 2.03903 17.7185C1.97045 17.5841 1.89618 17.4525 1.81821 17.3233C1.7723 17.2467 1.72639 17.17 1.67909 17.091C1.65464 17.0507 1.63018 17.0104 1.60499 16.9689C1.52852 16.8428 1.4528 16.7163 1.37725 16.5896C1.133 16.1808 0.885904 15.7738 0.63608 15.3683C0.593866 15.299 0.551652 15.2296 0.508158 15.1582C0.429032 15.0283 0.34901 14.8989 0.26797 14.7702C0.0661311 14.4376 -0.0855385 14.1821 -2.80347e-05 13.781C0.292036 13.539 0.582167 13.5403 0.945056 13.5436Z" fill="#2C2C2C"/>
<path d="M29.0666 5.73349C29.5357 6.15807 29.9708 6.6151 30.375 7.10143C30.4048 7.137 30.4347 7.17258 30.4655 7.20923C31.0336 7.88838 31.5281 8.59788 31.9921 9.35143C32.0604 9.46087 32.0604 9.46087 32.13 9.57253C32.3738 9.97572 32.5896 10.3917 32.7963 10.8148C32.8213 10.8644 32.8462 10.9141 32.8719 10.9652C33.0227 11.2822 33.0816 11.5245 33.0468 11.8827C32.9231 12.1066 32.8711 12.1522 32.625 12.2342C32.4601 12.2411 32.295 12.2436 32.13 12.2439C32.0791 12.2441 32.0281 12.2442 31.9756 12.2444C31.8036 12.245 31.6315 12.245 31.4595 12.2451C31.3354 12.2453 31.2114 12.2457 31.0873 12.246C30.7453 12.2468 30.4034 12.2472 30.0614 12.2476C29.693 12.248 29.3246 12.2488 28.9562 12.2495C28.0662 12.2513 27.1761 12.2523 26.286 12.2532C26.0348 12.2535 25.7835 12.2537 25.5322 12.254C23.973 12.2558 22.4138 12.2574 20.8546 12.2582C20.4934 12.2584 20.1322 12.2586 19.7709 12.2589C19.6362 12.2589 19.6362 12.2589 19.4988 12.259C18.0432 12.2599 16.5876 12.2622 15.132 12.2652C13.6386 12.2681 12.1453 12.2698 10.6519 12.2702C9.813 12.2704 8.97409 12.2712 8.13517 12.2736C7.42097 12.2755 6.70678 12.2763 5.99257 12.2755C5.62797 12.2751 5.26339 12.2754 4.89879 12.2771C4.56526 12.2787 4.23177 12.2786 3.89823 12.2773C3.77734 12.2771 3.65644 12.2775 3.53556 12.2785C3.37161 12.2799 3.20781 12.2791 3.04386 12.2777C2.95269 12.2778 2.86152 12.2779 2.76759 12.278C2.46882 12.2227 2.36458 12.1192 2.17965 11.8827C2.09816 11.4348 2.28809 11.0919 2.48287 10.7005C2.5301 10.6038 2.5301 10.6038 2.57829 10.5051C3.05714 9.54289 3.62167 8.64681 4.28902 7.80455C4.33343 7.74663 4.37784 7.68872 4.4236 7.62904C5.22089 6.60373 6.14525 5.6459 7.17183 4.85143C7.22958 4.80671 7.22958 4.80671 7.28849 4.7611C9.27851 3.23199 11.54 2.16108 13.9921 1.61705C14.0442 1.60539 14.0963 1.59373 14.1499 1.58172C14.4708 1.51162 14.7923 1.45546 15.1171 1.40611C15.1629 1.39887 15.2087 1.39163 15.2559 1.38418C20.3071 0.616683 25.3001 2.39373 29.0666 5.73349Z" fill="#B6B6B6"/>
<path d="M3.04457 23.7298C3.12142 23.7292 3.12142 23.7292 3.19981 23.7285C3.37199 23.7274 3.54409 23.7283 3.71627 23.7292C3.84074 23.7288 3.96522 23.7283 4.08969 23.7277C4.43214 23.7264 4.77457 23.7269 5.11702 23.7276C5.48618 23.7281 5.85534 23.727 6.22449 23.7261C6.94783 23.7245 7.67116 23.7245 8.3945 23.7251C8.98224 23.7256 9.56998 23.7255 10.1577 23.725C10.2413 23.725 10.3248 23.7249 10.4109 23.7248C10.5807 23.7247 10.7504 23.7246 10.9202 23.7244C12.5129 23.7233 14.1057 23.7239 15.6984 23.7251C17.1565 23.7261 18.6146 23.7251 20.0727 23.723C21.5689 23.721 23.0652 23.7202 24.5614 23.7209C24.7305 23.721 24.8996 23.721 25.0688 23.7211C25.1936 23.7211 25.1936 23.7211 25.321 23.7212C25.9082 23.7213 26.4954 23.7207 27.0826 23.7196C27.7979 23.7184 28.5133 23.7184 29.2286 23.72C29.5938 23.7208 29.959 23.721 30.3241 23.7197C30.6582 23.7185 30.9922 23.719 31.3262 23.7207C31.4473 23.721 31.5684 23.7208 31.6895 23.7199C31.8537 23.7188 32.0177 23.7198 32.1819 23.7214C32.2732 23.7214 32.3645 23.7214 32.4586 23.7214C32.7574 23.7769 32.8617 23.8805 33.0468 24.117C33.1364 24.5797 32.9174 24.9353 32.7085 25.3342C32.656 25.4362 32.656 25.4362 32.6026 25.5403C31.9196 26.851 31.1227 28.0741 30.1088 29.1536C29.9752 29.2964 29.8496 29.4423 29.7246 29.5925C27.3194 32.356 23.6602 34.0039 20.1093 34.5935C20.0565 34.6028 20.0037 34.612 19.9492 34.6215C18.26 34.9066 16.3737 34.8272 14.6953 34.5232C14.6325 34.5119 14.5697 34.5006 14.5049 34.4889C11.7719 33.9742 9.27624 32.7943 7.10153 31.0779C7.06233 31.047 7.02312 31.0162 6.98274 30.9844C5.98268 30.1885 5.06098 29.2747 4.30527 28.2429C4.21886 28.125 4.13086 28.0084 4.04266 27.8919C3.40665 27.0395 2.8802 26.1125 2.41256 25.1585C2.37679 25.0878 2.37679 25.0878 2.34029 25.0157C2.18108 24.6787 2.12818 24.4193 2.17965 24.0466C2.45123 23.7584 2.65709 23.7302 3.04457 23.7298Z" fill="#B6B6B6"/>
<path d="M3.2423 23.74C3.31048 23.7404 3.37865 23.7407 3.44888 23.7412C3.66598 23.7427 3.88299 23.7463 4.10006 23.7498C4.24751 23.7513 4.39495 23.7525 4.5424 23.7537C4.90329 23.7568 5.26411 23.7616 5.62496 23.7674C5.56772 23.8109 5.51047 23.8544 5.45148 23.8993C5.26465 24.0268 5.26465 24.0268 5.2366 24.1893C5.24004 24.2357 5.24349 24.2821 5.24703 24.3299C5.25057 24.3995 5.25057 24.3995 5.25418 24.4705C5.27421 24.6361 5.27421 24.6361 5.34371 24.8924C6.52707 24.8924 7.71043 24.8924 8.92965 24.8924C9.3742 26.1149 9.3742 26.1149 9.28121 26.5096C9.21989 26.5234 9.15857 26.5372 9.09539 26.5514C8.86585 26.6034 8.63641 26.6557 8.40703 26.7083C8.30812 26.7309 8.20918 26.7533 8.11019 26.7756C7.96713 26.8078 7.82422 26.8406 7.68133 26.8735C7.59554 26.893 7.50974 26.9126 7.42135 26.9327C7.15868 27.0054 6.92733 27.1001 6.67965 27.2127C6.86528 27.468 7.0509 27.7232 7.24215 27.9862C7.79333 27.9242 8.32451 27.7733 8.86044 27.6343C8.93639 27.6154 9.01235 27.5964 9.0906 27.5769C9.15927 27.5593 9.22794 27.5417 9.29869 27.5236C9.51033 27.4912 9.64275 27.4894 9.84371 27.5643C9.9359 27.6995 9.9359 27.6995 10.0047 27.878C10.0313 27.9439 10.0579 28.0098 10.0853 28.0776C10.1129 28.149 10.1405 28.2203 10.1689 28.2938C10.8707 30.002 11.9443 31.8272 13.4297 32.9784C13.4681 33.0117 13.5065 33.0451 13.5461 33.0794C13.7954 33.2456 14.0658 33.3476 14.3437 33.4574C14.4055 33.4819 14.4674 33.5064 14.531 33.5317C15.1837 33.7855 15.848 33.9899 16.5234 34.1737C16.642 34.206 16.642 34.206 16.7629 34.239C17.4688 34.4155 18.1936 34.5002 18.914 34.5955C18.8908 34.642 18.8676 34.6884 18.8437 34.7362C17.448 34.7596 16.0744 34.775 14.6953 34.5252C14.6325 34.5139 14.5697 34.5026 14.5049 34.4909C11.7719 33.9763 9.27624 32.7963 7.10153 31.0799C7.06233 31.0491 7.02313 31.0182 6.98274 30.9864C5.98268 30.1905 5.06098 29.2767 4.30527 28.2449C4.21886 28.127 4.13086 28.0104 4.04266 27.8939C3.40665 27.0415 2.8802 26.1146 2.41256 25.1605C2.37679 25.0898 2.37679 25.0898 2.34029 25.0177C2.18108 24.6808 2.12818 24.4213 2.17965 24.0487C2.48329 23.6955 2.81067 23.7304 3.2423 23.74Z" fill="#B6B6B6"/>
<path d="M17.7229 1.24775C17.8044 1.24719 17.8044 1.24719 17.8875 1.24662C18.0429 1.2458 18.1984 1.24603 18.3538 1.24665C18.4447 1.24681 18.5356 1.24697 18.6293 1.24713C18.8435 1.26532 18.8435 1.26532 18.9841 1.40595C18.8955 1.4171 18.8069 1.42825 18.7155 1.43973C17.3366 1.62044 16 1.90417 14.6951 2.39032C14.6407 2.41048 14.5863 2.43064 14.5303 2.4514C14.3663 2.51305 14.2032 2.57648 14.0403 2.64081C13.9911 2.6597 13.9419 2.67859 13.8912 2.69805C13.5759 2.82698 13.3798 2.97709 13.1482 3.23407C13.0673 3.3113 13.0673 3.3113 12.9848 3.39008C11.5275 4.79679 10.5523 6.65919 9.77321 8.50751C9.22179 8.45758 8.69208 8.31932 8.15602 8.18671C8.06035 8.16329 7.96468 8.1399 7.869 8.11654C7.63648 8.05964 7.40403 8.00246 7.17164 7.94501C7.15152 7.99921 7.1314 8.05341 7.11067 8.10926C7.03102 8.29657 7.03102 8.29657 6.88161 8.48114C6.72798 8.64027 6.72798 8.64027 6.74977 8.85907C6.82358 8.87788 6.89739 8.89668 6.97344 8.91605C7.24683 8.98573 7.52016 9.05562 7.79347 9.12558C7.91186 9.15585 8.03026 9.18606 8.14867 9.21622C8.3187 9.25952 8.48868 9.30304 8.65864 9.34659C8.71175 9.36007 8.76485 9.37355 8.81957 9.38744C9.19469 9.48388 9.19469 9.48388 9.35133 9.5622C9.26026 10.1038 9.10574 10.5802 8.92946 11.1091C7.15442 11.1439 7.15442 11.1439 5.34352 11.1794C5.25878 11.4336 5.20585 11.6909 5.27321 11.9528C5.38812 12.0493 5.50523 12.1433 5.62477 12.2341C5.19061 12.2428 4.75651 12.2492 4.32229 12.2534C4.17463 12.2552 4.02697 12.2576 3.87933 12.2606C3.66691 12.2649 3.45457 12.2669 3.24211 12.2684C3.17625 12.2702 3.11039 12.272 3.04254 12.2739C2.72067 12.274 2.57747 12.269 2.31335 12.0702C2.13189 11.8158 2.13219 11.699 2.17946 11.3903C2.26287 11.151 2.36985 10.9271 2.48268 10.7004C2.52992 10.6037 2.52992 10.6037 2.57811 10.505C3.05695 9.54272 3.62148 8.64664 4.28883 7.80439C4.33324 7.74647 4.37766 7.68855 4.42341 7.62888C5.2207 6.60357 6.14506 5.64574 7.17164 4.85126C7.22939 4.80655 7.22939 4.80655 7.28831 4.76093C9.27832 3.23183 11.5398 2.16092 13.992 1.61689C14.044 1.60523 14.0961 1.59357 14.1497 1.58156C14.4706 1.51145 14.7921 1.45529 15.117 1.40595C15.1628 1.39871 15.2085 1.39147 15.2557 1.38401C16.0752 1.2595 16.8959 1.2507 17.7229 1.24775Z" fill="#B6B6B6"/>
<path d="M17.086 2.39062C17.086 4.66453 17.086 6.93844 17.086 9.28125C14.9657 9.28125 14.9657 9.28125 14.1065 9.19336C14.0099 9.18406 13.9132 9.17479 13.8166 9.16553C12.8631 9.0717 11.9154 8.93687 10.9688 8.78906C10.8994 8.60599 10.8937 8.52226 10.9557 8.33349C10.9865 8.26893 11.0173 8.20437 11.049 8.13785C11.1005 8.02936 11.1005 8.02936 11.153 7.91869C11.1908 7.84191 11.2287 7.76514 11.2676 7.68604C11.306 7.60731 11.3443 7.52859 11.3839 7.44748C11.8483 6.5122 12.3939 5.64256 13.0782 4.85156C13.1278 4.79337 13.1775 4.73518 13.2287 4.67523C14.1643 3.60544 15.5743 2.39062 17.086 2.39062Z" fill="#838383"/>
<path d="M17.0859 26.7188C17.0859 28.9927 17.0859 31.2666 17.0859 33.6094C15.0622 33.2414 13.6412 32.0253 12.4751 30.3796C11.9691 29.6456 11.5624 28.8583 11.1797 28.0547C11.1475 27.9873 11.1153 27.92 11.0822 27.8506C10.8984 27.4528 10.8984 27.4528 10.8984 27.2109C12.9827 26.9172 14.9638 26.7188 17.0859 26.7188Z" fill="#838383"/>
<path d="M18.1406 26.7188C19.1657 26.7188 20.1472 26.7311 21.1621 26.8273C21.363 26.8463 21.5639 26.864 21.7649 26.8815C23.9149 27.0746 23.9149 27.0746 24.3281 27.2812C24.1886 27.7415 24.009 28.1664 23.792 28.5952C23.761 28.6565 23.7301 28.7179 23.6982 28.781C22.6206 30.882 21.072 32.7373 18.7798 33.5127C18.5699 33.5504 18.3538 33.5391 18.1406 33.5391C18.1406 31.2884 18.1406 29.0377 18.1406 26.7188Z" fill="#838383"/>
<path d="M18.1406 2.46094C19.2302 2.46094 20.2102 3.02892 21.0234 3.72656C21.0796 3.77342 21.1358 3.82028 21.1937 3.86856C22.6179 5.09589 23.6172 6.85575 24.3281 8.57812C24.3281 8.62453 24.3281 8.67094 24.3281 8.71875C22.3093 9.17121 20.2033 9.28125 18.1406 9.28125C18.1406 7.03055 18.1406 4.77984 18.1406 2.46094Z" fill="#838383"/>
<path d="M21.7969 2.95312C23.5577 3.34901 25.2694 4.209 26.7188 5.27344C26.7592 5.30302 26.7996 5.3326 26.8412 5.36308C27.3412 5.73334 27.8096 6.1337 28.2656 6.55664C28.3086 6.59645 28.3515 6.63627 28.3958 6.67728C28.6776 6.94338 28.9333 7.22442 29.1797 7.52344C28.2814 7.84696 27.3832 8.12869 26.4507 8.33643C26.3686 8.35493 26.2865 8.37343 26.2019 8.39249C25.6214 8.51702 25.6214 8.51702 25.3828 8.4375C25.3108 8.3194 25.3108 8.3194 25.246 8.16504C25.2214 8.10798 25.1969 8.05092 25.1715 7.99212C25.1455 7.93027 25.1196 7.86842 25.0928 7.80469C24.381 6.17587 23.5109 4.72795 22.2421 3.47031C22.0799 3.3065 21.9376 3.13551 21.7969 2.95312Z" fill="#838383"/>
<path d="M25.3828 27.4922C25.8249 27.5332 26.2409 27.6053 26.6704 27.7163C26.7302 27.7315 26.79 27.7467 26.8515 27.7624C27.3021 27.8789 27.7493 28.0055 28.1953 28.1382C28.2841 28.1645 28.2841 28.1645 28.3748 28.1914C28.4301 28.2082 28.4855 28.225 28.5425 28.2423C28.6152 28.2643 28.6152 28.2643 28.6894 28.2868C28.8365 28.3389 28.9713 28.4041 29.1094 28.4766C28.8273 29.1601 27.9855 29.7227 27.4219 30.1641C27.3518 30.2204 27.2817 30.2768 27.2096 30.3349C25.6437 31.5831 23.7594 32.6057 21.7969 33.0469C22.0195 32.7733 22.2491 32.522 22.5 32.2734C23.7891 30.9799 24.7851 29.2151 25.3828 27.4922Z" fill="#838383"/>
<path d="M13.4297 3.0218C13.3633 3.07931 13.3633 3.07931 13.2957 3.13798C11.6513 4.58667 10.6314 6.51771 9.77344 8.50618C9.25846 8.45716 8.76722 8.33769 8.26611 8.21174C8.13583 8.17917 8.13583 8.17917 8.00292 8.14595C7.33538 7.9754 6.68852 7.77204 6.04688 7.5218C6.59539 6.86077 7.199 6.29355 7.875 5.76399C7.94008 5.7126 8.00516 5.66121 8.0722 5.60826C8.9735 4.91336 12.2945 2.45419 13.4297 3.0218Z" fill="#838383"/>
<path d="M9.84375 27.5601C9.93593 27.6953 9.93593 27.6953 10.0047 27.8738C10.0446 27.9726 10.0446 27.9726 10.0853 28.0735C10.1129 28.1448 10.1405 28.2161 10.1689 28.2896C10.7353 29.6682 11.5012 30.8935 12.4629 32.0293C12.4969 32.0696 12.5309 32.1098 12.5659 32.1512C12.7339 32.3451 12.9031 32.5166 13.1034 32.6773C13.1647 32.7288 13.2259 32.7804 13.2891 32.8335C13.2891 32.8799 13.2891 32.9263 13.2891 32.9742C12.8314 32.8835 12.4153 32.7551 11.9839 32.5787C11.9229 32.5539 11.8619 32.5292 11.799 32.5037C11.2256 32.2674 10.6715 32.0014 10.125 31.7085C10.0828 31.6861 10.0406 31.6636 9.99715 31.6405C8.53874 30.8572 7.08203 29.7755 6.04688 28.4742C6.82945 28.1826 7.6136 27.9386 8.42452 27.7387C8.56772 27.7033 8.71053 27.6666 8.85333 27.6296C8.93364 27.6096 9.01394 27.5895 9.09668 27.5689C9.16538 27.5517 9.23409 27.5344 9.30487 27.5167C9.5142 27.4866 9.64264 27.4949 9.84375 27.5601Z" fill="#838383"/>
<path d="M17.4377 15.6788C17.5952 15.8364 17.6152 15.9129 17.6695 16.1246C17.6859 16.1872 17.7024 16.2497 17.7193 16.3142C17.7452 16.4152 17.7452 16.4152 17.7716 16.5182C17.9285 17.114 18.1001 17.7021 18.2934 18.2871C18.3641 18.5037 18.422 18.6838 18.422 18.9132C18.4684 18.9132 18.5149 18.9132 18.5627 18.9132C18.5696 18.8713 18.5764 18.8293 18.5835 18.7861C18.6576 18.3567 18.7464 17.9316 18.8439 17.507C18.8556 17.4548 18.8673 17.4027 18.8793 17.3489C18.9353 17.1092 18.9872 16.9405 19.1252 16.7335C19.2878 16.708 19.2878 16.708 19.4767 16.7116C19.5391 16.7118 19.6014 16.7121 19.6657 16.7124C19.8283 16.7335 19.8283 16.7335 19.9689 16.8742C20.0145 17.0208 20.054 17.1693 20.0903 17.3186C20.1121 17.4069 20.1338 17.4953 20.1562 17.5863C20.1788 17.68 20.2013 17.7737 20.2238 17.8673C20.2468 17.9615 20.2699 18.0557 20.293 18.1499C20.3495 18.3808 20.4055 18.6118 20.4611 18.8429C20.5973 18.6387 20.6477 18.5001 20.7108 18.2664C20.7307 18.1934 20.7507 18.1205 20.7713 18.0453C20.7922 17.9677 20.8131 17.8901 20.8346 17.8102C20.982 17.2735 21.1302 16.7375 21.2961 16.2062C21.3234 16.1185 21.3508 16.0307 21.379 15.9403C21.4455 15.7492 21.4455 15.7492 21.5158 15.6788C22.0158 15.6372 22.0158 15.6372 22.2892 15.8195C22.3588 15.8891 22.3588 15.8891 22.4299 15.9601C22.3855 16.201 22.3266 16.4295 22.2505 16.6623C22.2285 16.7301 22.2064 16.7979 22.1837 16.8678C22.1599 16.9402 22.136 17.0127 22.1115 17.0873C22.087 17.1624 22.0624 17.2376 22.0372 17.315C21.9853 17.4736 21.9334 17.6323 21.8813 17.7909C21.8018 18.0333 21.7225 18.2759 21.6434 18.5185C21.5929 18.6728 21.5424 18.8271 21.4919 18.9813C21.4682 19.0538 21.4446 19.1262 21.4202 19.2009C21.3979 19.2687 21.3756 19.3365 21.3527 19.4064C21.3332 19.4657 21.3137 19.5251 21.2937 19.5863C21.0896 20.1752 21.0896 20.1752 20.883 20.3195C20.6877 20.3524 20.6877 20.3524 20.4655 20.3546C20.3558 20.3579 20.3558 20.3579 20.2438 20.3612C20.0392 20.3195 20.0392 20.3195 19.8818 20.1846C19.7146 19.892 19.6597 19.6072 19.5998 19.278C19.5876 19.2158 19.5755 19.1537 19.563 19.0897C19.5333 18.9373 19.5046 18.7847 19.4767 18.632C19.4697 18.6731 19.4626 18.7142 19.4554 18.7566C19.4226 18.9438 19.3882 19.1306 19.3537 19.3175C19.3371 19.4146 19.3371 19.4146 19.3202 19.5136C19.2691 19.7847 19.227 19.9914 19.0716 20.222C18.8665 20.3491 18.7282 20.3547 18.488 20.3502C18.4146 20.3501 18.3413 20.3501 18.2658 20.35C18.0394 20.3146 17.9998 20.283 17.8595 20.1085C17.7861 19.9387 17.7861 19.9387 17.7194 19.7352C17.6941 19.6589 17.6688 19.5826 17.6427 19.504C17.6161 19.4216 17.5895 19.3392 17.5621 19.2543C17.5343 19.1696 17.5065 19.0849 17.4779 18.9977C17.4192 18.8184 17.3608 18.6391 17.3029 18.4597C17.2287 18.2302 17.1536 18.001 17.078 17.7719C17.006 17.5529 16.9347 17.3335 16.8634 17.1142C16.8228 16.991 16.8228 16.991 16.7815 16.8654C16.7445 16.7503 16.7445 16.7503 16.7067 16.6329C16.6849 16.5656 16.6631 16.4983 16.6405 16.429C16.5934 16.2391 16.5772 16.0845 16.5939 15.8898C16.8254 15.6101 17.1028 15.6518 17.4377 15.6788Z" fill="#F4F1F1"/>
<path d="M1.14697 13.557C1.25526 13.5584 1.25526 13.5584 1.36574 13.5598C1.54334 13.5623 1.72087 13.5658 1.89844 13.5701C1.75781 13.7108 1.75781 13.7108 1.54688 13.7811C1.52182 14.1649 1.57145 14.3735 1.77621 14.6976C1.8003 14.7364 1.82439 14.7753 1.84921 14.8153C1.9009 14.8984 1.95307 14.9811 2.0057 15.0636C2.0883 15.1931 2.16944 15.3235 2.25024 15.4542C2.4132 15.7175 2.57757 15.9798 2.74219 16.242C2.92264 16.5296 3.10127 16.8181 3.27832 17.1077C3.33755 17.2007 3.33755 17.2007 3.39799 17.2955C3.45105 17.3827 3.45105 17.3827 3.50519 17.4717C3.53624 17.5214 3.5673 17.5711 3.59929 17.6223C3.68298 17.8671 3.64605 18.0308 3.58594 18.2811C3.49922 18.4578 3.41211 18.618 3.30908 18.7842C3.267 18.8544 3.267 18.8544 3.22408 18.9259C3.13452 19.0747 3.04386 19.2228 2.95312 19.3709C2.89436 19.4681 2.83568 19.5653 2.77707 19.6626C2.30631 20.4424 2.30631 20.4424 2.06735 20.8214C2.03821 20.8683 2.00907 20.9151 1.97905 20.9634C1.92426 21.0516 1.86882 21.1393 1.81261 21.2265C1.61342 21.5492 1.54688 21.8415 1.54688 22.2186C1.66289 22.2418 1.77891 22.265 1.89844 22.2889C1.89844 22.3121 1.89844 22.3353 1.89844 22.3592C1.64796 22.3653 1.3975 22.3691 1.14697 22.3724C1.07614 22.3742 1.00531 22.3759 0.932327 22.3777C0.642028 22.3806 0.402727 22.3763 0.126068 22.2837C0 22.1483 0 22.1483 -0.0483398 21.9362C-0.0181347 21.5456 0.221402 21.2252 0.421875 20.9002C0.46516 20.8278 0.508445 20.7554 0.553041 20.6808C0.747505 20.356 0.9449 20.033 1.14254 19.7102C1.27456 19.4944 1.40566 19.2782 1.53635 19.0617C1.61185 18.9374 1.68857 18.814 1.76537 18.6905C1.83436 18.5766 1.83436 18.5766 1.90475 18.4604C1.94599 18.3935 1.98722 18.3265 2.02971 18.2575C2.12551 18.0322 2.11937 17.9476 2.03906 17.7186C1.97048 17.5841 1.89621 17.4525 1.81824 17.3233C1.77233 17.2467 1.72642 17.17 1.67912 17.091C1.65467 17.0508 1.63021 17.0105 1.60502 16.9689C1.52855 16.8428 1.45282 16.7163 1.37727 16.5897C1.13303 16.1808 0.885932 15.7738 0.636108 15.3683C0.593894 15.299 0.55168 15.2296 0.508186 15.1582C0.42906 15.0283 0.349038 14.899 0.267998 14.7703C0.0661591 14.4377 -0.0855104 14.1822 0 13.7811C0.291112 13.4684 0.752147 13.5471 1.14697 13.557Z" fill="#2C2C2C"/>
<path d="M9.76018 15.6365C9.84787 15.6308 9.84787 15.6308 9.93733 15.625C10.3061 15.7341 10.4822 16.0614 10.6659 16.3779C10.791 16.611 10.9114 16.846 11.0302 17.0823C11.0719 17.164 11.1136 17.2456 11.1565 17.3297C11.2586 17.5296 11.36 17.7299 11.4609 17.9305C11.4623 17.8673 11.4636 17.8042 11.4651 17.7391C11.4706 17.505 11.4767 17.271 11.4832 17.037C11.4859 16.9356 11.4883 16.8343 11.4905 16.7329C11.4937 16.5874 11.4978 16.4418 11.5021 16.2963C11.5043 16.2086 11.5065 16.121 11.5088 16.0307C11.5312 15.8211 11.5312 15.8211 11.6718 15.6805C11.8344 15.6618 11.8344 15.6618 12.0234 15.6629C12.0857 15.6625 12.1481 15.6622 12.2123 15.6618C12.3749 15.6805 12.3749 15.6805 12.5155 15.8211C12.5343 15.9994 12.5344 15.9994 12.536 16.2274C12.5369 16.3126 12.5378 16.3978 12.5387 16.4856C12.5388 16.578 12.539 16.6704 12.5392 16.7657C12.5396 16.8611 12.5401 16.9566 12.5406 17.052C12.5414 17.2522 12.5417 17.4524 12.5416 17.6526C12.5416 17.9093 12.5435 18.1658 12.5459 18.4225C12.5475 18.6196 12.5478 18.8168 12.5477 19.014C12.548 19.1547 12.5495 19.2953 12.551 19.4359C12.5506 19.5213 12.5502 19.6067 12.5497 19.6947C12.5499 19.77 12.5501 19.8453 12.5503 19.9229C12.5155 20.1102 12.5155 20.1102 12.3816 20.2395C12.2254 20.326 12.1304 20.3535 11.953 20.3563C11.9066 20.3584 11.8602 20.3606 11.8124 20.3629C11.47 20.2612 11.2935 19.8131 11.1324 19.5199C11.1094 19.4783 11.0863 19.4366 11.0626 19.3937C10.99 19.2621 10.9178 19.1302 10.8456 18.9984C10.7961 18.9085 10.7466 18.8186 10.697 18.7288C10.5763 18.5097 10.456 18.2905 10.3359 18.0711C10.3352 18.1318 10.3345 18.1924 10.3339 18.2549C10.3308 18.4802 10.3264 18.7054 10.3213 18.9307C10.3193 19.0281 10.3178 19.1256 10.3168 19.2231C10.3153 19.3632 10.3119 19.5034 10.3084 19.6435C10.3069 19.7278 10.3054 19.8122 10.3039 19.899C10.2655 20.1102 10.2655 20.1102 10.1376 20.2432C9.91223 20.3577 9.74099 20.3478 9.49211 20.3211C9.33831 20.2395 9.33831 20.2395 9.21086 20.1102C9.17562 19.9261 9.17562 19.9261 9.17558 19.7023C9.17492 19.6185 9.17426 19.5348 9.17358 19.4485C9.17437 19.3579 9.17516 19.2674 9.17598 19.1741C9.17597 19.0804 9.17586 18.9866 9.17567 18.8928C9.17557 18.6963 9.17645 18.4999 9.17805 18.3034C9.18005 18.0516 9.17986 17.7998 9.17896 17.548C9.17847 17.3544 9.17902 17.1607 9.17989 16.9671C9.18037 16.8291 9.18006 16.6911 9.17975 16.5531C9.18064 16.4694 9.18153 16.3856 9.18245 16.2993C9.18283 16.2254 9.18321 16.1516 9.1836 16.0755C9.21086 15.8914 9.21086 15.8914 9.30813 15.7628C9.46192 15.6514 9.57125 15.6429 9.76018 15.6365Z" fill="#F4F1F0"/>
<path d="M26.2266 24.8906C27.99 24.8906 29.7534 24.8906 31.5703 24.8906C31.4525 25.244 31.3291 25.5216 31.1484 25.8398C31.1074 25.9126 31.1074 25.9126 31.0655 25.9868C30.7512 26.5326 30.4004 27.1153 29.9531 27.5625C29.4756 27.4806 29.0149 27.3366 28.5513 27.1978C27.64 26.9281 26.7232 26.6809 25.8047 26.4375C25.8352 26.3115 25.866 26.1855 25.897 26.0596C25.9141 25.9894 25.9312 25.9193 25.9489 25.847C26.0335 25.526 26.1312 25.2086 26.2266 24.8906Z" fill="#838383"/>
<path d="M29.8864 8.44278C30.6502 8.81321 31.2981 10.4257 31.6406 11.1108C29.854 11.1108 28.0673 11.1108 26.2266 11.1108C25.875 9.84518 25.875 9.84518 25.8047 9.56393C26.1289 9.41832 26.4617 9.34731 26.8066 9.2695C27.4026 9.13141 27.9929 8.97741 28.582 8.81247C28.6571 8.79156 28.7322 8.77065 28.8095 8.74911C29.1998 8.64007 29.1998 8.64007 29.5803 8.50219C29.7422 8.43893 29.7422 8.43893 29.8864 8.44278Z" fill="#838383"/>
<path d="M5.20312 8.4375C5.67599 8.55154 6.14563 8.67473 6.61377 8.80664C7.26904 8.99126 7.92808 9.16074 8.58776 9.32883C8.66651 9.34902 8.74527 9.36921 8.82642 9.39001C8.89716 9.40803 8.9679 9.42604 9.04079 9.4446C9.21094 9.49219 9.21094 9.49219 9.35156 9.5625C9.26049 10.1041 9.10597 10.5805 8.92969 11.1094C7.16625 11.1094 5.40281 11.1094 3.58594 11.1094C4.15167 9.97792 4.15167 9.97792 4.51318 9.45703C4.54885 9.40464 4.58452 9.35225 4.62126 9.29828C4.68977 9.19769 4.7585 9.09724 4.8275 8.99698C4.95457 8.8117 5.07898 8.62475 5.20312 8.4375Z" fill="#838383"/>
<path d="M3.58594 24.8906C5.34938 24.8906 7.11281 24.8906 8.92969 24.8906C9.37423 26.1131 9.37423 26.1131 9.28125 26.5078C9.22729 26.5198 9.17334 26.5317 9.11774 26.5441C7.81876 26.8342 6.54491 27.1667 5.27344 27.5625C3.58594 25.4352 3.58594 25.4352 3.58594 24.8906Z" fill="#838383"/>
<path d="M14.0559 15.5771C14.1095 15.5767 14.163 15.5764 14.2182 15.576C14.3312 15.5755 14.4442 15.5756 14.5572 15.5762C14.7299 15.5768 14.9025 15.5748 15.0752 15.5726C15.1851 15.5725 15.2951 15.5725 15.4051 15.5727C15.4823 15.5715 15.4823 15.5715 15.5611 15.5703C15.8024 15.5736 15.9389 15.5917 16.1369 15.7345C16.2422 15.8888 16.2422 15.8888 16.2334 16.1437C16.1719 16.381 16.1719 16.381 16.0313 16.5217C15.8475 16.5376 15.8475 16.5376 15.6176 16.5354C15.5356 16.5349 15.4536 16.5345 15.3691 16.534C15.2831 16.5328 15.197 16.5317 15.1084 16.5304C15.0219 16.5298 14.9353 16.5292 14.8461 16.5285C14.6318 16.5269 14.4175 16.5243 14.2031 16.5217C14.2031 16.8697 14.2031 17.2177 14.2031 17.5763C14.5408 17.568 14.5408 17.568 14.8783 17.5573C15.0817 17.5548 15.2247 17.555 15.3982 17.6667C15.5184 17.872 15.4479 18.057 15.3985 18.2795C15.3281 18.3498 15.3281 18.3498 15.0752 18.3566C14.9705 18.3562 14.8659 18.3553 14.7613 18.3542C14.5771 18.3527 14.3929 18.3513 14.2031 18.3498C14.2031 18.721 14.2031 19.0923 14.2031 19.4748C14.3386 19.4723 14.474 19.4699 14.6135 19.4674C14.7902 19.4654 14.9669 19.4635 15.1436 19.4616C15.2329 19.4598 15.3223 19.4581 15.4144 19.4562C15.5422 19.4552 15.5422 19.4552 15.6726 19.4542C15.7514 19.4531 15.8302 19.452 15.9113 19.4508C16.0055 19.4627 16.0055 19.4627 16.1016 19.4748C16.2642 19.7187 16.2721 19.8209 16.2422 20.1076C16.1718 20.2246 16.1718 20.2246 16.0313 20.3185C15.8319 20.3386 15.6483 20.3464 15.449 20.3441C15.3921 20.3441 15.3351 20.3441 15.2764 20.3442C15.1561 20.344 15.0358 20.3433 14.9154 20.3422C14.7312 20.3405 14.547 20.3407 14.3627 20.3412C14.2458 20.3408 14.1289 20.3403 14.012 20.3397C13.9568 20.3397 13.9017 20.3398 13.8448 20.3399C13.5761 20.3364 13.4477 20.3305 13.2188 20.1779C13.1915 19.9969 13.1915 19.9969 13.1904 19.7651C13.1895 19.6785 13.1886 19.5919 13.1877 19.5027C13.1878 19.4078 13.188 19.3129 13.1883 19.218C13.188 19.1209 13.1876 19.0239 13.1872 18.9269C13.1865 18.7234 13.1867 18.5199 13.1874 18.3164C13.1882 18.0555 13.1868 17.7946 13.1847 17.5337C13.1835 17.3333 13.1835 17.1329 13.1839 16.9324C13.1839 16.8362 13.1835 16.74 13.1826 16.6439C13.1815 16.5094 13.1825 16.3749 13.1835 16.2404C13.1835 16.1639 13.1835 16.0873 13.1835 16.0084C13.2188 15.8185 13.2188 15.8185 13.3458 15.6885C13.5758 15.5679 13.8023 15.5761 14.0559 15.5771Z" fill="#F4F1F1"/>
<path d="M25.3828 15.8206C25.5039 15.9178 25.5039 15.9178 25.5938 16.0315C25.5703 16.4768 25.5703 16.4768 25.3828 16.6643C25.1718 16.6827 25.0185 16.6949 24.8288 16.594C24.65 16.5097 24.5206 16.5049 24.3237 16.5061C24.2635 16.5057 24.2032 16.5054 24.1411 16.505C23.9576 16.5131 23.9576 16.5131 23.7656 16.6643C23.748 16.846 23.748 16.846 23.7656 17.0159C23.806 17.0367 23.8464 17.0576 23.888 17.0791C24.0734 17.1756 24.2579 17.2737 24.4424 17.3718C24.5377 17.421 24.5377 17.421 24.6349 17.4711C25.0766 17.7081 25.4353 17.9645 25.6641 18.4221C25.6746 18.5801 25.6796 18.7384 25.6817 18.8967C25.6835 18.9819 25.6853 19.0671 25.6871 19.1549C25.6524 19.5336 25.5144 19.8104 25.2246 20.0569C24.7699 20.4187 24.2561 20.4406 23.6953 20.3909C23.2505 20.3068 22.8532 20.122 22.5703 19.7581C22.5207 19.5099 22.5421 19.3957 22.6494 19.1692C22.7813 19.0549 22.7813 19.0549 22.9702 19.0154C23.2031 19.0549 23.2871 19.1007 23.4756 19.2307C23.7787 19.4357 23.9662 19.4487 24.3281 19.4065C24.4973 19.3458 24.4973 19.3458 24.6094 19.2659C24.6565 19.07 24.6565 19.07 24.6094 18.844C24.3949 18.6439 24.1181 18.5275 23.8571 18.399C23.3885 18.1612 22.9621 17.9164 22.7109 17.4377C22.6273 17.0038 22.6094 16.5473 22.856 16.1633C23.4735 15.4705 24.59 15.4242 25.3828 15.8206Z" fill="#F4F1F1"/>
<path d="M10.4766 9.77344C10.5874 9.78831 10.5874 9.78831 10.7004 9.80348C12.8303 10.0882 14.9374 10.2812 17.0859 10.3359C17.0859 10.5912 17.0859 10.8464 17.0859 11.1094C14.7656 11.1094 12.4453 11.1094 10.0547 11.1094C10.292 10.1602 10.292 10.1602 10.4766 9.77344Z" fill="#838383"/>
<path d="M24.75 9.77188C24.8091 9.94163 24.8676 10.1116 24.9258 10.2816C24.9509 10.3536 24.9509 10.3536 24.9766 10.4269C25.059 10.6694 25.1016 10.8489 25.1016 11.1078C22.8045 11.1078 20.5073 11.1078 18.1406 11.1078C18.1406 10.8526 18.1406 10.5973 18.1406 10.3344C18.266 10.3317 18.3913 10.3291 18.5205 10.3264C20.3928 10.2798 22.3287 10.2078 24.1622 9.80099C24.3602 9.76624 24.5494 9.76721 24.75 9.77188Z" fill="#838383"/>
<path d="M18.1406 24.8906C20.4377 24.8906 22.7348 24.8906 25.1016 24.8906C24.9434 25.6816 24.9434 25.6816 24.8467 25.9541C24.8284 26.0065 24.8101 26.0589 24.7912 26.1129C24.7708 26.1691 24.7708 26.1691 24.75 26.2266C24.1632 26.1604 23.5773 26.0903 22.9926 26.0077C21.3741 25.7801 19.773 25.6992 18.1406 25.6641C18.1406 25.4088 18.1406 25.1536 18.1406 24.8906Z" fill="#838383"/>
<path d="M10.0547 24.8906C12.375 24.8906 14.6953 24.8906 17.0859 24.8906C17.0859 25.1227 17.0859 25.3547 17.0859 25.5938C17 25.599 16.9141 25.6043 16.8256 25.6098C14.8516 25.7321 12.8859 25.8564 10.9336 26.1878C10.6875 26.2266 10.6875 26.2266 10.4766 26.2266C10.4061 26.0171 10.3358 25.8077 10.2656 25.5981C10.2455 25.5384 10.2254 25.4786 10.2047 25.417C10.1856 25.3601 10.1666 25.3033 10.147 25.2447C10.1293 25.192 10.1116 25.1394 10.0934 25.0851C10.0547 24.9609 10.0547 24.9609 10.0547 24.8906Z" fill="#838383"/>
<path d="M7.45312 28.1942C7.6205 28.3394 7.76423 28.5024 7.91016 28.6688C7.99793 28.7656 8.08582 28.8623 8.17383 28.9588C8.21797 29.0076 8.26211 29.0564 8.30759 29.1066C9.48147 30.3922 10.8616 31.3847 12.3808 32.2287C12.7048 32.4087 13.0105 32.5881 13.2891 32.8348C13.2891 32.8812 13.2891 32.9276 13.2891 32.9755C12.8314 32.8847 12.4153 32.7564 11.9839 32.5799C11.9229 32.5552 11.8619 32.5305 11.799 32.505C11.2256 32.2687 10.6715 32.0027 10.125 31.7098C10.0828 31.6874 10.0406 31.6649 9.99715 31.6418C8.53874 30.8585 7.08203 29.7768 6.04688 28.4755C6.21501 28.4143 6.38343 28.3545 6.55225 28.2953C6.5996 28.2779 6.64696 28.2606 6.69576 28.2427C7.18266 28.074 7.18266 28.074 7.45312 28.1942Z" fill="#838383"/>
<path d="M13.4297 3.0218C13.0781 3.38902 12.7165 3.64138 12.2607 3.85676C11.0779 4.41876 10.0374 5.23683 9.07773 6.12132C8.95663 6.23164 8.83399 6.3349 8.70557 6.43635C8.38714 6.71233 8.12247 7.03549 7.86099 7.36525C7.44791 7.86599 7.44791 7.86599 7.1499 7.89973C7.06434 7.86783 6.97878 7.83592 6.89062 7.80305C6.73978 7.75461 6.5889 7.70627 6.43799 7.65803C6.30747 7.61303 6.17705 7.56776 6.04688 7.5218C6.59539 6.86077 7.199 6.29355 7.875 5.76399C7.94008 5.7126 8.00516 5.66121 8.0722 5.60826C8.9735 4.91336 12.2945 2.45419 13.4297 3.0218Z" fill="#838383"/>
<path d="M5.20312 8.4375C5.68541 8.55084 6.14968 8.67373 6.60938 8.85938C6.51619 9.11281 6.40293 9.32487 6.25342 9.54932C5.92466 10.0556 5.63687 10.5818 5.34375 11.1094C4.76367 11.1094 4.18359 11.1094 3.58594 11.1094C3.93852 10.3561 4.35639 9.68163 4.8275 8.99698C4.95457 8.8117 5.07898 8.62475 5.20312 8.4375Z" fill="#838383"/>
<path d="M3.58594 24.8906C4.16602 24.8906 4.74609 24.8906 5.34375 24.8906C5.40566 25.0017 5.46756 25.1127 5.53134 25.2271C5.61382 25.3742 5.69631 25.5213 5.77881 25.6685C5.81946 25.7415 5.86011 25.8145 5.90199 25.8897C6.07753 26.2021 6.25112 26.5086 6.46353 26.7976C6.60938 27 6.60938 27 6.60938 27.1406C6.19172 27.2798 5.77406 27.4191 5.34375 27.5625C4.60597 26.8247 4.06931 25.8817 3.58594 24.9609C3.58594 24.9377 3.58594 24.9145 3.58594 24.8906Z" fill="#838383"/>
</g>
<defs>
<clipPath id="clip0_821_5736">
<rect width="36" height="36" fill="white"/>
</clipPath>
</defs>
</svg>
