<svg width="36" height="36" viewBox="0 0 36 36" fill="none" xmlns="http://www.w3.org/2000/svg">
<path d="M11.501 4.47159C11.588 4.47102 11.588 4.47102 11.6768 4.47044C11.8699 4.46944 12.0629 4.46994 12.256 4.47044C12.395 4.47004 12.534 4.46955 12.6729 4.46898C13.0495 4.46772 13.426 4.4678 13.8026 4.4682C14.1173 4.46842 14.432 4.46799 14.7467 4.46756C15.4892 4.46658 16.2317 4.46669 16.9743 4.46749C17.7396 4.46829 18.5049 4.4673 19.2703 4.46542C19.9281 4.46386 20.5859 4.4634 21.2437 4.46381C21.6363 4.46404 22.0289 4.46388 22.4214 4.46267C22.7906 4.46158 23.1598 4.46186 23.529 4.46318C23.6642 4.46344 23.7994 4.46322 23.9347 4.46248C25.2473 4.45588 25.2473 4.45588 25.7343 4.7801C25.8209 4.8372 25.8209 4.8372 25.9093 4.89546C26.2915 5.23271 26.4883 5.56544 26.6484 6.04572C26.6549 6.18676 26.6571 6.32801 26.657 6.46919C26.6572 6.55827 26.6573 6.64736 26.6574 6.73914C26.6572 6.83856 26.657 6.93797 26.6568 7.03739C26.6569 7.14256 26.6569 7.24773 26.657 7.3529C26.6572 7.64263 26.6569 7.93236 26.6565 8.22209C26.6562 8.53425 26.6563 8.84642 26.6564 9.15858C26.6564 9.69967 26.6562 10.2408 26.6558 10.7818C26.6552 11.5642 26.6551 12.3465 26.655 13.1288C26.6548 14.398 26.6543 15.6672 26.6537 16.9364C26.653 18.1695 26.6525 19.4026 26.6522 20.6357C26.6522 20.7117 26.6522 20.7876 26.6522 20.8659C26.6521 21.247 26.652 21.6282 26.6519 22.0093C26.6512 25.1725 26.6499 28.3357 26.6484 31.4988C26.3512 31.249 26.0646 30.9942 25.79 30.7193C25.7566 30.6859 25.7231 30.6525 25.6887 30.6181C25.5783 30.5079 25.4682 30.3973 25.358 30.2868C25.2783 30.2071 25.1986 30.1273 25.1188 30.0476C24.9036 29.8324 24.6885 29.6169 24.4735 29.4014C24.2483 29.1758 24.0229 28.9504 23.7976 28.7249C23.3714 28.2985 22.9454 27.8719 22.5194 27.4453C22.0342 26.9593 21.5489 26.4736 21.0635 25.9878C20.0655 24.9891 19.0678 23.9902 18.0702 22.991C17.806 23.101 17.6389 23.2646 17.438 23.4662C17.4036 23.5005 17.3693 23.5348 17.3339 23.5701C17.2189 23.685 17.1045 23.8004 16.9901 23.9157C16.9078 23.9982 16.8254 24.0807 16.743 24.1631C16.5658 24.3405 16.3887 24.5182 16.2118 24.6961C15.9324 24.9771 15.6526 25.2575 15.3726 25.5379C14.9302 25.9811 14.4881 26.4247 14.0461 26.8684C13.2538 27.6638 12.4611 28.4589 11.668 29.2535C11.3895 29.5326 11.1112 29.812 10.833 30.0914C10.6604 30.2648 10.4877 30.438 10.3149 30.6111C10.2345 30.6918 10.1541 30.7725 10.0738 30.8533C9.96471 30.9631 9.8554 31.0726 9.74602 31.1821C9.65411 31.2744 9.65411 31.2744 9.56035 31.3686C9.42181 31.4988 9.42181 31.4988 9.3515 31.4988C9.34184 28.2706 9.3344 25.0424 9.32995 21.8142C9.32942 21.433 9.32888 21.0517 9.32832 20.6704C9.32821 20.5945 9.3281 20.5187 9.32799 20.4405C9.32615 19.212 9.32282 17.9836 9.31895 16.7552C9.315 15.4944 9.31266 14.2336 9.3118 12.9728C9.31122 12.1951 9.3094 11.4173 9.30597 10.6396C9.30374 10.106 9.30306 9.57241 9.30361 9.03883C9.30388 8.73112 9.30347 8.42345 9.30121 8.11575C9.29914 7.83361 9.29906 7.55154 9.30049 7.2694C9.30067 7.16774 9.30014 7.06609 9.29881 6.96444C9.28969 6.22512 9.41017 5.60865 9.91572 5.04259C10.3718 4.59999 10.8833 4.46668 11.501 4.47159Z" fill="#5858F4"/>
<path d="M11.6143 4.477C11.7183 4.47695 11.7183 4.47695 11.8244 4.47691C12.0519 4.47705 12.2794 4.47869 12.5069 4.48035C12.6653 4.48074 12.8237 4.48104 12.9821 4.48125C13.3978 4.48205 13.8135 4.48412 14.2291 4.48646C14.6538 4.48862 15.0785 4.48958 15.5031 4.49065C16.3355 4.4929 17.1678 4.4965 18.0001 4.50095C18.0219 6.83939 18.0408 9.17783 18.0557 11.5163C18.0574 11.7924 18.0592 12.0685 18.061 12.3446C18.0614 12.3995 18.0617 12.4545 18.0621 12.5111C18.0679 13.4011 18.0758 14.291 18.0844 15.1809C18.0931 16.0941 18.0997 17.0072 18.1044 17.9204C18.1073 18.4839 18.1119 19.0473 18.1186 19.6108C18.1236 20.0429 18.1256 20.4749 18.1265 20.907C18.1273 21.0843 18.1291 21.2615 18.132 21.4387C18.1357 21.6807 18.136 21.9223 18.1353 22.1643C18.1373 22.2345 18.1392 22.3048 18.1411 22.3771C18.1374 22.6551 18.1332 22.8455 17.9539 23.066C17.8105 23.1916 17.6623 23.3034 17.5079 23.415C17.3818 23.5356 17.257 23.6576 17.1337 23.7812C17.1003 23.8146 17.0668 23.848 17.0324 23.8825C16.9224 23.9925 16.8126 24.1028 16.7029 24.2131C16.6232 24.2929 16.5436 24.3726 16.464 24.4524C16.2936 24.623 16.1233 24.7937 15.9531 24.9645C15.6841 25.2344 15.4149 25.504 15.1457 25.7736C14.5749 26.3451 14.0045 26.9169 13.4341 27.4887C12.8166 28.1078 12.199 28.7269 11.5811 29.3456C11.3131 29.6139 11.0454 29.8823 10.7778 30.1509C10.6119 30.3172 10.446 30.4834 10.2799 30.6496C10.2027 30.727 10.1255 30.8044 10.0484 30.8819C9.94361 30.9872 9.83862 31.0923 9.73357 31.1973C9.67474 31.2563 9.61591 31.3153 9.55529 31.376C9.42193 31.5009 9.42193 31.5009 9.35162 31.5009C9.34196 28.2727 9.33453 25.0445 9.33007 21.8163C9.32955 21.435 9.329 21.0538 9.32844 20.6725C9.32833 20.5966 9.32822 20.5207 9.32811 20.4425C9.32627 19.2141 9.32295 17.9857 9.31907 16.7573C9.31512 15.4965 9.31278 14.2357 9.31192 12.9749C9.31135 12.1972 9.30952 11.4194 9.30609 10.6416C9.30386 10.1081 9.30319 9.5745 9.30373 9.04092C9.304 8.73321 9.30359 8.42555 9.30133 8.11785C9.29926 7.83571 9.29918 7.55364 9.30061 7.27149C9.30079 7.16984 9.30026 7.06818 9.29893 6.96654C9.28982 6.22722 9.41029 5.61075 9.91584 5.04468C10.4119 4.56337 10.9489 4.46916 11.6143 4.477Z" fill="#736AF9"/>
</svg>
