<svg width="25" height="25" viewBox="0 0 25 25" fill="none" xmlns="http://www.w3.org/2000/svg">
<path d="M4.06665 9.06694V6.06694C4.06665 5.53651 4.27736 5.0278 4.65244 4.65273C5.02751 4.27765 5.53622 4.06694 6.06665 4.06694H9.06665M20.0667 15.0669V18.0669C20.0667 18.5974 19.8559 19.1061 19.4809 19.4812C19.1058 19.8562 18.5971 20.0669 18.0667 20.0669H15.0667M15.0667 4.06694H18.0667C18.5971 4.06694 19.1058 4.27765 19.4809 4.65273C19.8559 5.0278 20.0667 5.53651 20.0667 6.06694V9.06694M9.06665 20.0669H6.06665C5.53622 20.0669 5.02751 19.8562 4.65244 19.4812C4.27736 19.1061 4.06665 18.5974 4.06665 18.0669V15.0669" stroke="black" stroke-linecap="round" stroke-linejoin="round"/>
</svg>
