<svg width="25" height="25" viewBox="0 0 25 25" fill="none" xmlns="http://www.w3.org/2000/svg">
<path d="M12.0667 10.567C12.8951 10.567 13.5667 9.89538 13.5667 9.06696C13.5667 8.23853 12.8951 7.56696 12.0667 7.56696C11.2382 7.56696 10.5667 8.23853 10.5667 9.06696C10.5667 9.89538 11.2382 10.567 12.0667 10.567Z" stroke="black" stroke-linecap="round"/>
<path d="M15.7677 8.31697C15.8655 8.145 15.9963 7.99407 16.1526 7.87287C16.309 7.75166 16.4877 7.66258 16.6786 7.61075C16.8696 7.55892 17.0688 7.54536 17.265 7.57086C17.4612 7.59636 17.6504 7.66041 17.8217 7.75932C17.993 7.85823 18.1431 7.99005 18.2632 8.1472C18.3834 8.30434 18.4713 8.4837 18.5218 8.67495C18.5724 8.8662 18.5846 9.06556 18.5578 9.26155C18.531 9.45755 18.4657 9.64631 18.3657 9.81697C18.1654 10.1587 17.838 10.4073 17.4551 10.5085C17.0721 10.6098 16.6647 10.5554 16.3216 10.3574C15.9786 10.1593 15.7278 9.83363 15.6241 9.45136C15.5203 9.0691 15.5719 8.6613 15.7677 8.31697ZM5.76768 8.31697C5.86546 8.145 5.99628 7.99407 6.15262 7.87287C6.30896 7.75166 6.48774 7.66258 6.67865 7.61075C6.86955 7.55892 7.06883 7.54536 7.265 7.57086C7.46117 7.59636 7.65036 7.66041 7.82168 7.75932C7.99299 7.85823 8.14305 7.99005 8.26321 8.1472C8.38338 8.30434 8.47127 8.4837 8.52183 8.67495C8.5724 8.8662 8.58463 9.06556 8.55783 9.26155C8.53103 9.45755 8.46573 9.64631 8.36568 9.81697C8.16536 10.1587 7.838 10.4073 7.45506 10.5085C7.07212 10.6098 6.66467 10.5554 6.32164 10.3574C5.97861 10.1593 5.72784 9.83363 5.62406 9.45136C5.52028 9.0691 5.57191 8.6613 5.76768 8.31697Z" stroke="black"/>
<path d="M14.1667 13.252L13.8767 12.846L13.3437 13.226L13.8507 13.64L14.1667 13.252ZM19.5667 16.067H14.5667V17.067H19.5667V16.067ZM19.9447 15.696C19.9564 15.7383 19.9569 15.7829 19.9462 15.8255C19.9355 15.8681 19.914 15.9072 19.8837 15.939C19.8425 15.981 19.7931 16.014 19.7386 16.0361C19.684 16.0581 19.6255 16.0686 19.5667 16.067V17.067C20.3667 17.067 21.1367 16.384 20.9167 15.463L19.9447 15.696ZM16.5667 13.067C17.7927 13.067 18.5567 13.476 19.0487 13.979C19.5547 14.496 19.8137 15.153 19.9447 15.696L20.9167 15.463C20.7627 14.821 20.4417 13.973 19.7637 13.279C19.0707 12.572 18.0437 12.067 16.5667 12.067V13.067ZM14.4567 13.659C14.9347 13.318 15.6067 13.067 16.5667 13.067V12.067C15.4207 12.067 14.5417 12.37 13.8767 12.846L14.4567 13.659ZM13.8507 13.639C14.5037 14.173 14.8147 15.002 14.9577 15.68L15.9367 15.474C15.7747 14.707 15.3967 13.611 14.4827 12.865L13.8507 13.64V13.639ZM14.9577 15.68C14.9685 15.7252 14.9677 15.7715 14.9555 15.8164C14.9432 15.8613 14.9199 15.9024 14.8877 15.936C14.846 15.9786 14.796 16.0123 14.7408 16.0348C14.6856 16.0574 14.6263 16.0683 14.5667 16.067V17.067C15.3707 17.067 16.1277 16.387 15.9367 15.474L14.9577 15.68ZM9.96669 13.252L10.2827 13.64L10.7897 13.226L10.2577 12.846L9.96669 13.252ZM7.56669 13.067C8.52669 13.067 9.19769 13.317 9.67669 13.659L10.2567 12.845C9.59269 12.37 8.71369 12.067 7.56669 12.067V13.067ZM4.18869 15.696C4.31869 15.153 4.57869 14.496 5.08469 13.979C5.57669 13.476 6.34069 13.067 7.56669 13.067V12.067C6.08869 12.067 5.06269 12.572 4.36969 13.279C3.69169 13.972 3.36969 14.821 3.21669 15.463L4.18869 15.696ZM4.56669 16.067C4.50789 16.0686 4.44937 16.0581 4.39482 16.0361C4.34027 16.014 4.29086 15.981 4.24969 15.939C4.21956 15.9071 4.1982 15.8679 4.18768 15.8254C4.17717 15.7828 4.17686 15.7382 4.18869 15.696L3.21669 15.463C2.99669 16.384 3.76669 17.067 4.56669 17.067V16.067ZM9.56669 16.067H4.56669V17.067H9.56669V16.067ZM9.56669 16.067C9.50697 16.0686 9.44756 16.0578 9.39216 16.0355C9.33676 16.0131 9.28656 15.9796 9.24469 15.937C9.21245 15.9034 9.18914 15.8623 9.17691 15.8174C9.16468 15.7725 9.16392 15.7252 9.17469 15.68L8.19669 15.474C8.00469 16.386 8.76269 17.067 9.56669 17.067V16.067ZM9.17569 15.68C9.31869 15 9.62969 14.173 10.2827 13.64L9.65069 12.865C8.73669 13.611 8.35869 14.707 8.19669 15.474L9.17569 15.68Z" fill="black"/>
<path d="M18.5667 21.567H20.0667C20.4645 21.567 20.846 21.4089 21.1273 21.1276C21.4086 20.8463 21.5667 20.4648 21.5667 20.067V18.567M18.5667 2.56696H20.0667C20.4645 2.56696 20.846 2.72499 21.1273 3.0063C21.4086 3.2876 21.5667 3.66913 21.5667 4.06696V5.56696M5.56665 21.567H4.06665C3.66883 21.567 3.28729 21.4089 3.00599 21.1276C2.72469 20.8463 2.56665 20.4648 2.56665 20.067V18.567M5.56665 2.56696H4.06665C3.66883 2.56696 3.28729 2.72499 3.00599 3.0063C2.72469 3.2876 2.56665 3.66913 2.56665 4.06696V5.56696M12.0667 12.567C14.4307 12.567 15.1977 14.392 15.4467 15.577C15.5607 16.117 15.1187 16.567 14.5667 16.567H9.56665C9.01465 16.567 8.57265 16.117 8.68665 15.577C8.93565 14.392 9.70265 12.567 12.0667 12.567Z" stroke="black" stroke-linecap="round"/>
</svg>
