<svg width="22" height="22" viewBox="0 0 22 22" fill="none" xmlns="http://www.w3.org/2000/svg">
<path d="M5.06665 6.56694H17.5667L15.9806 12.1169C15.8612 12.5347 15.6088 12.9022 15.2619 13.1638C14.9149 13.4255 14.4922 13.567 14.0577 13.5669H7.35765C6.86511 13.5672 6.38979 13.3857 6.02277 13.0573C5.65575 12.7288 5.42283 12.2765 5.36865 11.7869L4.56665 4.56694H2.56665" stroke="black" stroke-linecap="round" stroke-linejoin="round"/>
<path d="M7.06665 17.0669C7.61894 17.0669 8.06665 16.6192 8.06665 16.0669C8.06665 15.5147 7.61894 15.0669 7.06665 15.0669C6.51437 15.0669 6.06665 15.5147 6.06665 16.0669C6.06665 16.6192 6.51437 17.0669 7.06665 17.0669Z" fill="black"/>
<path d="M15.0667 17.0669C15.6189 17.0669 16.0667 16.6192 16.0667 16.0669C16.0667 15.5147 15.6189 15.0669 15.0667 15.0669C14.5144 15.0669 14.0667 15.5147 14.0667 16.0669C14.0667 16.6192 14.5144 17.0669 15.0667 17.0669Z" fill="black"/>
</svg>
