<svg width="25" height="25" viewBox="0 0 25 25" fill="none" xmlns="http://www.w3.org/2000/svg">
<path d="M16.5667 22.0039H7.56665C6.90361 22.0039 6.26772 21.7405 5.79888 21.2717C5.33004 20.8028 5.06665 20.1669 5.06665 19.5039V4.62988C5.06665 3.96684 5.33004 3.33096 5.79888 2.86212C6.26772 2.39327 6.90361 2.12988 7.56665 2.12988H16.5667C17.2297 2.12988 17.8656 2.39327 18.3344 2.86212C18.8033 3.33096 19.0667 3.96684 19.0667 4.62988V19.5039C19.0667 20.1669 18.8033 20.8028 18.3344 21.2717C17.8656 21.7405 17.2297 22.0039 16.5667 22.0039ZM7.56665 3.12988C7.16883 3.12988 6.78729 3.28792 6.50599 3.56922C6.22469 3.85053 6.06665 4.23206 6.06665 4.62988V19.5039C6.06665 19.9017 6.22469 20.2832 6.50599 20.5645C6.78729 20.8458 7.16883 21.0039 7.56665 21.0039H16.5667C16.9645 21.0039 17.346 20.8458 17.6273 20.5645C17.9086 20.2832 18.0667 19.9017 18.0667 19.5039V4.62988C18.0667 4.23206 17.9086 3.85053 17.6273 3.56922C17.346 3.28792 16.9645 3.12988 16.5667 3.12988H7.56665Z" fill="black"/>
<path d="M14.5667 9.82388H9.56665C9.16883 9.82388 8.78729 9.66585 8.50599 9.38454C8.22469 9.10324 8.06665 8.72171 8.06665 8.32388V6.62988C8.06665 6.23206 8.22469 5.85053 8.50599 5.56922C8.78729 5.28792 9.16883 5.12988 9.56665 5.12988H14.5667C14.9645 5.12988 15.346 5.28792 15.6273 5.56922C15.9086 5.85053 16.0667 6.23206 16.0667 6.62988V8.32388C16.0667 8.72171 15.9086 9.10324 15.6273 9.38454C15.346 9.66585 14.9645 9.82388 14.5667 9.82388ZM9.56665 6.12988C9.43404 6.12988 9.30686 6.18256 9.2131 6.27633C9.11933 6.3701 9.06665 6.49727 9.06665 6.62988V8.32388C9.06665 8.45649 9.11933 8.58367 9.2131 8.67744C9.30686 8.7712 9.43404 8.82388 9.56665 8.82388H14.5667C14.6993 8.82388 14.8264 8.7712 14.9202 8.67744C15.014 8.58367 15.0667 8.45649 15.0667 8.32388V6.62988C15.0667 6.49727 15.014 6.3701 14.9202 6.27633C14.8264 6.18256 14.6993 6.12988 14.5667 6.12988H9.56665Z" fill="black"/>
<path d="M12.0667 12.3249C12.4809 12.3249 12.8167 11.9891 12.8167 11.5749C12.8167 11.1607 12.4809 10.8249 12.0667 10.8249C11.6524 10.8249 11.3167 11.1607 11.3167 11.5749C11.3167 11.9891 11.6524 12.3249 12.0667 12.3249Z" fill="black"/>
<path d="M15.3167 12.3249C15.7309 12.3249 16.0667 11.9891 16.0667 11.5749C16.0667 11.1607 15.7309 10.8249 15.3167 10.8249C14.9024 10.8249 14.5667 11.1607 14.5667 11.5749C14.5667 11.9891 14.9024 12.3249 15.3167 12.3249Z" fill="black"/>
<path d="M8.81665 12.3249C9.23086 12.3249 9.56665 11.9891 9.56665 11.5749C9.56665 11.1607 9.23086 10.8249 8.81665 10.8249C8.40244 10.8249 8.06665 11.1607 8.06665 11.5749C8.06665 11.9891 8.40244 12.3249 8.81665 12.3249Z" fill="black"/>
<path d="M12.0667 15.6649C12.4809 15.6649 12.8167 15.3291 12.8167 14.9149C12.8167 14.5007 12.4809 14.1649 12.0667 14.1649C11.6524 14.1649 11.3167 14.5007 11.3167 14.9149C11.3167 15.3291 11.6524 15.6649 12.0667 15.6649Z" fill="black"/>
<path d="M15.3167 15.6649C15.7309 15.6649 16.0667 15.3291 16.0667 14.9149C16.0667 14.5007 15.7309 14.1649 15.3167 14.1649C14.9024 14.1649 14.5667 14.5007 14.5667 14.9149C14.5667 15.3291 14.9024 15.6649 15.3167 15.6649Z" fill="black"/>
<path d="M8.81665 15.6649C9.23086 15.6649 9.56665 15.3291 9.56665 14.9149C9.56665 14.5007 9.23086 14.1649 8.81665 14.1649C8.40244 14.1649 8.06665 14.5007 8.06665 14.9149C8.06665 15.3291 8.40244 15.6649 8.81665 15.6649Z" fill="black"/>
<path d="M15.3167 19.0039C15.7309 19.0039 16.0667 18.6681 16.0667 18.2539C16.0667 17.8397 15.7309 17.5039 15.3167 17.5039C14.9024 17.5039 14.5667 17.8397 14.5667 18.2539C14.5667 18.6681 14.9024 19.0039 15.3167 19.0039Z" fill="black"/>
<path d="M12.3147 18.7539H8.56665C8.43404 18.7539 8.30686 18.7012 8.2131 18.6075C8.11933 18.5137 8.06665 18.3865 8.06665 18.2539C8.06665 18.1213 8.11933 17.9941 8.2131 17.9004C8.30686 17.8066 8.43404 17.7539 8.56665 17.7539H12.3107C12.4433 17.7539 12.5704 17.8066 12.6642 17.9004C12.758 17.9941 12.8107 18.1213 12.8107 18.2539C12.8107 18.3865 12.758 18.5137 12.6642 18.6075C12.5704 18.7012 12.4433 18.7539 12.3107 18.7539H12.3147Z" fill="black"/>
</svg>
