<svg width="25" height="25" viewBox="0 0 25 25" fill="none" xmlns="http://www.w3.org/2000/svg">
<path d="M6.05664 4.99594C6.19709 5.13657 6.27598 5.32719 6.27598 5.52594C6.27598 5.72469 6.19709 5.91532 6.05664 6.05594C5.26732 6.84524 4.64119 7.78229 4.21401 8.81357C3.78683 9.84486 3.56696 10.9502 3.56696 12.0664C3.56696 13.1827 3.78683 14.288 4.21401 15.3193C4.64119 16.3506 5.26732 17.2876 6.05664 18.0769C6.1932 18.2185 6.26871 18.4079 6.2669 18.6046C6.2651 18.8012 6.18614 18.9893 6.04702 19.1283C5.90789 19.2673 5.71975 19.3461 5.5231 19.3477C5.32645 19.3493 5.13703 19.2736 4.99564 19.1369C1.09064 15.2319 1.09064 8.90094 4.99564 4.99594C5.13627 4.85549 5.32689 4.7766 5.52564 4.7766C5.7244 4.7766 5.91602 4.85549 6.05664 4.99594ZM19.1366 4.99594C23.0416 8.90094 23.0416 15.2329 19.1366 19.1379C18.9945 19.2704 18.8064 19.3425 18.6121 19.3391C18.4178 19.3357 18.2324 19.257 18.095 19.1196C17.9576 18.9822 17.8789 18.7968 17.8755 18.6025C17.872 18.4082 17.9442 18.2201 18.0766 18.0779C18.8661 17.2886 19.4924 16.3515 19.9196 15.3201C20.3469 14.2888 20.5668 13.1833 20.5668 12.0669C20.5668 10.9506 20.3469 9.84512 19.9196 8.81375C19.4924 7.78237 18.8661 6.84526 18.0766 6.05594C18.003 5.98728 17.9439 5.90448 17.9029 5.81248C17.8619 5.72048 17.8398 5.62117 17.8381 5.52046C17.8363 5.41976 17.8548 5.31973 17.8925 5.22634C17.9302 5.13296 17.9864 5.04812 18.0576 4.9769C18.1288 4.90568 18.2137 4.84954 18.307 4.81182C18.4004 4.7741 18.5005 4.75557 18.6012 4.75735C18.7019 4.75913 18.8012 4.78117 18.8932 4.82216C18.9852 4.86315 19.068 4.92225 19.1366 4.99594ZM8.88464 7.82394C9.02509 7.96457 9.10398 8.15519 9.10398 8.35394C9.10398 8.55269 9.02509 8.74332 8.88464 8.88394C8.46663 9.30182 8.13503 9.79797 7.90879 10.344C7.68255 10.8901 7.56611 11.4754 7.56611 12.0664C7.56611 12.6575 7.68255 13.2428 7.90879 13.7889C8.13503 14.3349 8.46663 14.8311 8.88464 15.2489C9.01712 15.3911 9.08925 15.5792 9.08582 15.7735C9.08239 15.9678 9.00368 16.1531 8.86627 16.2906C8.72885 16.428 8.54347 16.5067 8.34917 16.5101C8.15487 16.5135 7.96682 16.4414 7.82464 16.3089C6.69951 15.1837 6.06743 13.6577 6.06743 12.0664C6.06743 10.4752 6.69951 8.94915 7.82464 7.82394C7.96527 7.68349 8.15589 7.6046 8.35464 7.6046C8.5534 7.6046 8.74402 7.68349 8.88464 7.82394ZM16.3096 7.82394C17.4348 8.94915 18.0669 10.4752 18.0669 12.0664C18.0669 13.6577 17.4348 15.1837 16.3096 16.3089C16.2405 16.3806 16.1578 16.4378 16.0663 16.4771C15.9748 16.5165 15.8764 16.5372 15.7768 16.5381C15.6772 16.539 15.5785 16.5201 15.4863 16.4824C15.3941 16.4448 15.3103 16.3891 15.2399 16.3187C15.1694 16.2484 15.1137 16.1646 15.0759 16.0725C15.0382 15.9803 15.0191 15.8816 15.02 15.782C15.0208 15.6824 15.0414 15.584 15.0807 15.4925C15.1199 15.4009 15.177 15.3182 15.2486 15.2489C15.6665 14.8311 15.998 14.335 16.2241 13.789C16.4503 13.2431 16.5667 12.6579 16.5667 12.0669C16.5667 11.476 16.4503 10.8908 16.2241 10.3449C15.998 9.79888 15.6665 9.30281 15.2486 8.88494C15.1162 8.74277 15.044 8.55472 15.0475 8.36042C15.0509 8.16612 15.1296 7.98073 15.267 7.84332C15.4044 7.70591 15.5898 7.62719 15.7841 7.62377C15.9784 7.62034 16.1665 7.69246 16.3086 7.82494M12.0666 10.5669C12.4645 10.5669 12.846 10.725 13.1273 11.0063C13.4086 11.2876 13.5666 11.6691 13.5666 12.0669C13.5666 12.4648 13.4086 12.8463 13.1273 13.1276C12.846 13.4089 12.4645 13.5669 12.0666 13.5669C11.6688 13.5669 11.2873 13.4089 11.006 13.1276C10.7247 12.8463 10.5666 12.4648 10.5666 12.0669C10.5666 11.6691 10.7247 11.2876 11.006 11.0063C11.2873 10.725 11.6688 10.5669 12.0666 10.5669Z" fill="black"/>
</svg>
