<svg width="25" height="25" viewBox="0 0 25 25" fill="none" xmlns="http://www.w3.org/2000/svg">
<path d="M17.5641 5.56198C17.565 5.5606 17.5658 5.55892 17.5665 5.55711C17.5666 5.55702 17.5666 5.55694 17.5667 5.55685C17.5673 5.55522 17.5675 5.55427 17.5675 5.55427C17.5675 5.55427 17.5675 5.55437 17.5675 5.55458C17.5673 5.55558 17.5667 5.55947 17.5667 5.56694L17.5641 5.56198ZM17.5641 5.56198L17.2097 5.20994L17.5641 5.56198ZM19.8747 17.8749C19.746 18.0029 19.605 18.0669 19.4517 18.0669H17.5667C17.424 18.0663 17.305 18.1139 17.2097 18.2099C17.1143 18.3059 17.0667 18.4249 17.0667 18.5669C17.0667 18.7089 17.1143 18.8279 17.2097 18.9239M17.2097 18.9239L17.5641 18.5719C17.565 18.5733 17.5658 18.575 17.5665 18.5768C17.5666 18.5769 17.5666 18.5769 17.5667 18.577C17.5673 18.5787 17.5675 18.5796 17.5675 18.5796C17.5675 18.5796 17.5675 18.5795 17.5675 18.5793C17.5673 18.5783 17.5667 18.5744 17.5667 18.5669C17.5667 18.5595 17.5673 18.5556 17.5675 18.5546C17.5675 18.5544 17.5675 18.5543 17.5675 18.5543C17.5675 18.5543 17.5673 18.5552 17.5667 18.5569C17.5666 18.5569 17.5666 18.557 17.5665 18.5571C17.5659 18.5588 17.5651 18.5603 17.5643 18.5617C17.5643 18.5618 17.5642 18.5619 17.5641 18.562C17.5641 18.5621 17.564 18.5622 17.5639 18.5624C17.5619 18.5637 17.5592 18.5652 17.5563 18.5663C17.5563 18.5664 17.5562 18.5664 17.5561 18.5664C17.5552 18.5663 17.5546 18.5662 17.5543 18.5661C17.5539 18.5661 17.5539 18.5661 17.5541 18.5661C17.5543 18.5662 17.5549 18.5663 17.5557 18.5666C17.5553 18.5667 17.555 18.5668 17.5547 18.5669C17.5543 18.5671 17.554 18.5672 17.5537 18.5673C17.5526 18.5676 17.5521 18.5677 17.5525 18.5676C17.5529 18.5676 17.5544 18.5673 17.557 18.5671C17.5573 18.5672 17.5575 18.5673 17.5577 18.5674C17.5592 18.5681 17.5605 18.5688 17.5617 18.5694L17.2097 18.9239ZM20.2291 5.9063L20.2273 5.90447C20.0234 5.70165 19.7611 5.56694 19.4517 5.56694C19.787 5.56694 20.0411 5.67404 20.2497 5.88311L20.2505 5.88388C20.4596 6.0925 20.5667 6.34663 20.5667 6.68194C20.5667 6.37249 20.4319 6.11019 20.2291 5.9063ZM20.0667 6.68194C20.0667 6.52861 20.0027 6.38761 19.8747 6.25894L20.9237 8.92394C20.8277 9.01927 20.7087 9.06694 20.5667 9.06694C20.4247 9.06694 20.3057 9.01927 20.2097 8.92394C20.1136 8.82861 20.066 8.70961 20.0667 8.56694V6.68194ZM3.88282 5.88388L3.88359 5.88311C4.09221 5.67404 4.34634 5.56694 4.68165 5.56694C4.37219 5.56694 4.1099 5.70165 3.90602 5.90447L3.90601 5.90446L3.90418 5.90631C3.70136 6.11019 3.56665 6.37248 3.56665 6.68194C3.56665 6.34663 3.67375 6.0925 3.88282 5.88388ZM3.56287 8.57018C3.56299 8.57026 3.56309 8.57033 3.56319 8.5704L3.56323 8.57036C3.56293 8.57009 3.56251 8.5697 3.56197 8.56916L3.56169 8.56944C3.56211 8.56969 3.56251 8.56994 3.56287 8.57018Z" fill="black" stroke="black"/>
</svg>
