<svg width="25" height="25" viewBox="0 0 25 25" fill="none" xmlns="http://www.w3.org/2000/svg">
<path d="M12.0667 2.69196C10.2125 2.69196 8.39989 3.24179 6.85818 4.27193C5.31647 5.30207 4.11486 6.76624 3.40528 8.4793C2.69571 10.1924 2.51006 12.0774 2.87179 13.8959C3.23353 15.7145 4.12641 17.385 5.43753 18.6961C6.74865 20.0072 8.41911 20.9001 10.2377 21.2618C12.0563 21.6236 13.9413 21.4379 15.6543 20.7283C17.3674 20.0188 18.8315 18.8171 19.8617 17.2754C20.8918 15.7337 21.4417 13.9212 21.4417 12.067C21.4389 9.58139 20.4503 7.19841 18.6928 5.44084C16.9352 3.68328 14.5522 2.69469 12.0667 2.69196ZM19.3398 7.43477L12.4417 11.4173V3.44852C13.8271 3.50993 15.1774 3.90427 16.3781 4.59816C17.5789 5.29204 18.5948 6.26504 19.3398 7.43477ZM11.6917 3.45039V11.8504L4.41853 16.0495C3.74899 14.7632 3.41456 13.3288 3.44618 11.8791C3.4778 10.4293 3.87444 9.01092 4.59942 7.75505C5.3244 6.49918 6.35433 5.44637 7.59397 4.69397C8.8336 3.94156 10.2429 3.51386 11.6917 3.45039ZM12.0667 20.692C10.6164 20.6915 9.1897 20.3255 7.91843 19.6276C6.64717 18.9297 5.5724 17.9225 4.79353 16.6991L19.7148 8.08446C20.399 9.39892 20.7331 10.8675 20.6847 12.3486C20.6363 13.8297 20.2071 15.2734 19.4385 16.5404C18.6699 17.8074 17.5878 18.855 16.2966 19.5822C15.0054 20.3093 13.5486 20.6915 12.0667 20.692Z" fill="black"/>
</svg>
