<svg width="25" height="25" viewBox="0 0 25 25" fill="none" xmlns="http://www.w3.org/2000/svg">
<path d="M20.3167 7.19194H5.31665C5.01828 7.19194 4.73213 7.07341 4.52116 6.86244C4.31018 6.65146 4.19165 6.36531 4.19165 6.06694C4.19165 5.76857 4.31018 5.48242 4.52116 5.27145C4.73213 5.06047 5.01828 4.94194 5.31665 4.94194H18.0667C18.1661 4.94194 18.2615 4.90243 18.3318 4.83211C18.4021 4.76178 18.4417 4.6664 18.4417 4.56694C18.4417 4.46748 18.4021 4.3721 18.3318 4.30178C18.2615 4.23145 18.1661 4.19194 18.0667 4.19194H5.31665C4.81937 4.19194 4.34246 4.38948 3.99083 4.74112C3.63919 5.09275 3.44165 5.56966 3.44165 6.06694V18.0669C3.44165 18.5642 3.63919 19.0411 3.99083 19.3928C4.34246 19.7444 4.81937 19.9419 5.31665 19.9419H20.3167C20.615 19.9419 20.9012 19.8234 21.1121 19.6124C21.3231 19.4015 21.4417 19.1153 21.4417 18.8169V8.31694C21.4417 8.01857 21.3231 7.73242 21.1121 7.52145C20.9012 7.31047 20.615 7.19194 20.3167 7.19194ZM20.6917 18.8169C20.6917 18.9164 20.6521 19.0118 20.5818 19.0821C20.5115 19.1524 20.4161 19.1919 20.3167 19.1919H5.31665C5.01828 19.1919 4.73213 19.0734 4.52116 18.8624C4.31018 18.6515 4.19165 18.3653 4.19165 18.0669V7.56694C4.51576 7.81121 4.9108 7.94289 5.31665 7.94194H20.3167C20.4161 7.94194 20.5115 7.98145 20.5818 8.05177C20.6521 8.1221 20.6917 8.21748 20.6917 8.31694V18.8169ZM17.6917 13.1919C17.6917 13.3403 17.6477 13.4853 17.5653 13.6086C17.4828 13.732 17.3657 13.8281 17.2287 13.8848C17.0916 13.9416 16.9408 13.9565 16.7953 13.9275C16.6498 13.8986 16.5162 13.8272 16.4113 13.7223C16.3064 13.6174 16.235 13.4837 16.2061 13.3383C16.1771 13.1928 16.192 13.042 16.2487 12.9049C16.3055 12.7679 16.4016 12.6507 16.525 12.5683C16.6483 12.4859 16.7933 12.4419 16.9417 12.4419C17.1406 12.4419 17.3313 12.521 17.472 12.6616C17.6126 12.8023 17.6917 12.993 17.6917 13.1919Z" fill="black"/>
</svg>
