<svg width="25" height="25" viewBox="0 0 25 25" fill="none" xmlns="http://www.w3.org/2000/svg">
<path d="M19.5667 2.69194H6.81665C6.12046 2.69194 5.45278 2.9685 4.9605 3.46079C4.46821 3.95307 4.19165 4.62075 4.19165 5.31694V21.0669C4.19165 21.1664 4.23116 21.2618 4.30149 21.3321C4.37181 21.4024 4.46719 21.4419 4.56665 21.4419H18.0667C18.1661 21.4419 18.2615 21.4024 18.3318 21.3321C18.4021 21.2618 18.4417 21.1664 18.4417 21.0669C18.4417 20.9675 18.4021 20.8721 18.3318 20.8018C18.2615 20.7314 18.1661 20.6919 18.0667 20.6919H4.94165V20.3169C4.94165 19.8197 5.13919 19.3427 5.49083 18.9911C5.84246 18.6395 6.31937 18.4419 6.81665 18.4419H19.5667C19.6661 18.4419 19.7615 18.4024 19.8318 18.3321C19.9021 18.2618 19.9417 18.1664 19.9417 18.0669V3.06694C19.9417 2.96748 19.9021 2.8721 19.8318 2.80178C19.7615 2.73145 19.6661 2.69194 19.5667 2.69194ZM19.1917 17.6919H6.81665C6.46727 17.6918 6.12139 17.7616 5.79938 17.8972C5.47738 18.0327 5.18574 18.2313 4.94165 18.4813V5.31694C4.94165 4.81966 5.13919 4.34275 5.49083 3.99112C5.84246 3.63948 6.31937 3.44194 6.81665 3.44194H19.1917V17.6919Z" fill="black"/>
</svg>
